G04 #@! TF.GenerationSoftware,KiCad,Pcbnew,(5.1.5)-3*
G04 #@! TF.CreationDate,2020-05-23T10:42:04+01:00*
G04 #@! TF.ProjectId,Chronos,4368726f-6e6f-4732-9e6b-696361645f70,X302*
G04 #@! TF.SameCoordinates,Original*
G04 #@! TF.FileFunction,Soldermask,Bot*
G04 #@! TF.FilePolarity,Negative*
%FSLAX46Y46*%
G04 Gerber Fmt 4.6, Leading zero omitted, Abs format (unit mm)*
G04 Created by KiCad (PCBNEW (5.1.5)-3) date 2020-05-23 10:42:04*
%MOMM*%
%LPD*%
G04 APERTURE LIST*
%ADD10C,0.100000*%
G04 APERTURE END LIST*
D10*
G36*
X182526355Y-158002140D02*
G01*
X182590118Y-158008420D01*
X182680904Y-158035960D01*
X182712836Y-158045646D01*
X182825925Y-158106094D01*
X182925054Y-158187446D01*
X183006406Y-158286575D01*
X183066854Y-158399664D01*
X183074843Y-158426000D01*
X183104080Y-158522382D01*
X183116649Y-158650000D01*
X183104080Y-158777618D01*
X183076540Y-158868404D01*
X183066854Y-158900336D01*
X183006406Y-159013425D01*
X182925054Y-159112554D01*
X182825925Y-159193906D01*
X182712836Y-159254354D01*
X182680904Y-159264040D01*
X182590118Y-159291580D01*
X182526355Y-159297860D01*
X182494474Y-159301000D01*
X181730526Y-159301000D01*
X181698645Y-159297860D01*
X181634882Y-159291580D01*
X181544096Y-159264040D01*
X181512164Y-159254354D01*
X181399075Y-159193906D01*
X181299946Y-159112554D01*
X181218594Y-159013425D01*
X181158146Y-158900336D01*
X181148460Y-158868404D01*
X181120920Y-158777618D01*
X181108351Y-158650000D01*
X181120920Y-158522382D01*
X181150157Y-158426000D01*
X181158146Y-158399664D01*
X181218594Y-158286575D01*
X181299946Y-158187446D01*
X181399075Y-158106094D01*
X181512164Y-158045646D01*
X181544096Y-158035960D01*
X181634882Y-158008420D01*
X181698645Y-158002140D01*
X181730526Y-157999000D01*
X182494474Y-157999000D01*
X182526355Y-158002140D01*
G37*
G36*
X227731560Y-156129064D02*
G01*
X227883027Y-156159193D01*
X228097045Y-156247842D01*
X228097046Y-156247843D01*
X228289654Y-156376539D01*
X228453461Y-156540346D01*
X228539258Y-156668751D01*
X228582158Y-156732955D01*
X228670807Y-156946973D01*
X228716000Y-157174174D01*
X228716000Y-157405826D01*
X228670807Y-157633027D01*
X228582158Y-157847045D01*
X228582157Y-157847046D01*
X228453461Y-158039654D01*
X228289654Y-158203461D01*
X228215874Y-158252759D01*
X228097045Y-158332158D01*
X227883027Y-158420807D01*
X227731560Y-158450936D01*
X227655827Y-158466000D01*
X227424173Y-158466000D01*
X227348440Y-158450936D01*
X227196973Y-158420807D01*
X226982955Y-158332158D01*
X226864126Y-158252759D01*
X226790346Y-158203461D01*
X226626539Y-158039654D01*
X226497843Y-157847046D01*
X226497842Y-157847045D01*
X226409193Y-157633027D01*
X226364000Y-157405826D01*
X226364000Y-157174174D01*
X226409193Y-156946973D01*
X226497842Y-156732955D01*
X226540742Y-156668751D01*
X226626539Y-156540346D01*
X226790346Y-156376539D01*
X226982954Y-156247843D01*
X226982955Y-156247842D01*
X227196973Y-156159193D01*
X227348440Y-156129064D01*
X227424173Y-156114000D01*
X227655827Y-156114000D01*
X227731560Y-156129064D01*
G37*
G36*
X222651560Y-156129064D02*
G01*
X222803027Y-156159193D01*
X223017045Y-156247842D01*
X223017046Y-156247843D01*
X223209654Y-156376539D01*
X223373461Y-156540346D01*
X223459258Y-156668751D01*
X223502158Y-156732955D01*
X223590807Y-156946973D01*
X223636000Y-157174174D01*
X223636000Y-157405826D01*
X223590807Y-157633027D01*
X223502158Y-157847045D01*
X223502157Y-157847046D01*
X223373461Y-158039654D01*
X223209654Y-158203461D01*
X223135874Y-158252759D01*
X223017045Y-158332158D01*
X222803027Y-158420807D01*
X222651560Y-158450936D01*
X222575827Y-158466000D01*
X222344173Y-158466000D01*
X222268440Y-158450936D01*
X222116973Y-158420807D01*
X221902955Y-158332158D01*
X221784126Y-158252759D01*
X221710346Y-158203461D01*
X221546539Y-158039654D01*
X221417843Y-157847046D01*
X221417842Y-157847045D01*
X221329193Y-157633027D01*
X221284000Y-157405826D01*
X221284000Y-157174174D01*
X221329193Y-156946973D01*
X221417842Y-156732955D01*
X221460742Y-156668751D01*
X221546539Y-156540346D01*
X221710346Y-156376539D01*
X221902954Y-156247843D01*
X221902955Y-156247842D01*
X222116973Y-156159193D01*
X222268440Y-156129064D01*
X222344173Y-156114000D01*
X222575827Y-156114000D01*
X222651560Y-156129064D01*
G37*
G36*
X185038848Y-156903820D02*
G01*
X185038850Y-156903821D01*
X185038851Y-156903821D01*
X185180074Y-156962317D01*
X185180077Y-156962319D01*
X185307169Y-157047239D01*
X185415261Y-157155331D01*
X185427851Y-157174174D01*
X185500183Y-157282426D01*
X185551297Y-157405827D01*
X185558680Y-157423652D01*
X185588500Y-157573569D01*
X185588500Y-157726431D01*
X185564509Y-157847045D01*
X185558679Y-157876351D01*
X185500183Y-158017574D01*
X185500181Y-158017577D01*
X185415261Y-158144669D01*
X185307169Y-158252761D01*
X185188344Y-158332157D01*
X185180074Y-158337683D01*
X185038851Y-158396179D01*
X185038850Y-158396179D01*
X185038848Y-158396180D01*
X184888931Y-158426000D01*
X184736069Y-158426000D01*
X184586152Y-158396180D01*
X184586150Y-158396179D01*
X184586149Y-158396179D01*
X184444926Y-158337683D01*
X184436656Y-158332157D01*
X184317831Y-158252761D01*
X184209739Y-158144669D01*
X184124819Y-158017577D01*
X184124817Y-158017574D01*
X184066321Y-157876351D01*
X184060492Y-157847045D01*
X184036500Y-157726431D01*
X184036500Y-157573569D01*
X184066320Y-157423652D01*
X184073703Y-157405827D01*
X184124817Y-157282426D01*
X184197149Y-157174174D01*
X184209739Y-157155331D01*
X184317831Y-157047239D01*
X184444923Y-156962319D01*
X184444926Y-156962317D01*
X184586149Y-156903821D01*
X184586150Y-156903821D01*
X184586152Y-156903820D01*
X184736069Y-156874000D01*
X184888931Y-156874000D01*
X185038848Y-156903820D01*
G37*
G36*
X225175271Y-153687783D02*
G01*
X225313858Y-153715350D01*
X225509677Y-153796461D01*
X225685910Y-153914216D01*
X225835784Y-154064090D01*
X225953539Y-154240323D01*
X226034650Y-154436142D01*
X226076000Y-154644023D01*
X226076000Y-154855977D01*
X226034650Y-155063858D01*
X225953539Y-155259677D01*
X225835784Y-155435910D01*
X225685910Y-155585784D01*
X225509677Y-155703539D01*
X225313858Y-155784650D01*
X225175271Y-155812217D01*
X225105978Y-155826000D01*
X224894022Y-155826000D01*
X224824729Y-155812217D01*
X224686142Y-155784650D01*
X224490323Y-155703539D01*
X224314090Y-155585784D01*
X224164216Y-155435910D01*
X224046461Y-155259677D01*
X223965350Y-155063858D01*
X223924000Y-154855977D01*
X223924000Y-154644023D01*
X223965350Y-154436142D01*
X224046461Y-154240323D01*
X224164216Y-154064090D01*
X224314090Y-153914216D01*
X224490323Y-153796461D01*
X224686142Y-153715350D01*
X224824729Y-153687783D01*
X224894022Y-153674000D01*
X225105978Y-153674000D01*
X225175271Y-153687783D01*
G37*
G36*
X185038848Y-151903820D02*
G01*
X185038850Y-151903821D01*
X185038851Y-151903821D01*
X185180074Y-151962317D01*
X185180077Y-151962319D01*
X185307169Y-152047239D01*
X185415261Y-152155331D01*
X185500181Y-152282423D01*
X185500183Y-152282426D01*
X185518160Y-152325827D01*
X185558680Y-152423652D01*
X185584414Y-152553027D01*
X185588500Y-152573571D01*
X185588500Y-152726429D01*
X185558679Y-152876351D01*
X185500183Y-153017574D01*
X185500181Y-153017577D01*
X185415261Y-153144669D01*
X185307169Y-153252761D01*
X185180077Y-153337681D01*
X185180074Y-153337683D01*
X185038851Y-153396179D01*
X185038850Y-153396179D01*
X185038848Y-153396180D01*
X184888931Y-153426000D01*
X184736069Y-153426000D01*
X184586152Y-153396180D01*
X184586150Y-153396179D01*
X184586149Y-153396179D01*
X184444926Y-153337683D01*
X184444923Y-153337681D01*
X184317831Y-153252761D01*
X184209739Y-153144669D01*
X184124819Y-153017577D01*
X184124817Y-153017574D01*
X184066321Y-152876351D01*
X184036500Y-152726429D01*
X184036500Y-152573571D01*
X184040586Y-152553027D01*
X184066320Y-152423652D01*
X184106840Y-152325827D01*
X184124817Y-152282426D01*
X184124819Y-152282423D01*
X184209739Y-152155331D01*
X184317831Y-152047239D01*
X184444923Y-151962319D01*
X184444926Y-151962317D01*
X184586149Y-151903821D01*
X184586150Y-151903821D01*
X184586152Y-151903820D01*
X184736069Y-151874000D01*
X184888931Y-151874000D01*
X185038848Y-151903820D01*
G37*
G36*
X227714375Y-151045646D02*
G01*
X227883027Y-151079193D01*
X228097045Y-151167842D01*
X228097046Y-151167843D01*
X228289654Y-151296539D01*
X228453461Y-151460346D01*
X228494912Y-151522382D01*
X228582158Y-151652955D01*
X228670807Y-151866973D01*
X228689772Y-151962317D01*
X228706665Y-152047241D01*
X228716000Y-152094174D01*
X228716000Y-152325826D01*
X228670807Y-152553027D01*
X228582158Y-152767045D01*
X228582157Y-152767046D01*
X228453461Y-152959654D01*
X228289654Y-153123461D01*
X228161249Y-153209258D01*
X228097045Y-153252158D01*
X227883027Y-153340807D01*
X227731560Y-153370936D01*
X227655827Y-153386000D01*
X227424173Y-153386000D01*
X227348440Y-153370936D01*
X227196973Y-153340807D01*
X226982955Y-153252158D01*
X226918751Y-153209258D01*
X226790346Y-153123461D01*
X226626539Y-152959654D01*
X226497843Y-152767046D01*
X226497842Y-152767045D01*
X226409193Y-152553027D01*
X226364000Y-152325826D01*
X226364000Y-152094174D01*
X226373336Y-152047241D01*
X226390228Y-151962317D01*
X226409193Y-151866973D01*
X226497842Y-151652955D01*
X226585088Y-151522382D01*
X226626539Y-151460346D01*
X226790346Y-151296539D01*
X226982954Y-151167843D01*
X226982955Y-151167842D01*
X227196973Y-151079193D01*
X227365625Y-151045646D01*
X227424173Y-151034000D01*
X227655827Y-151034000D01*
X227714375Y-151045646D01*
G37*
G36*
X222634375Y-151045646D02*
G01*
X222803027Y-151079193D01*
X223017045Y-151167842D01*
X223017046Y-151167843D01*
X223209654Y-151296539D01*
X223373461Y-151460346D01*
X223414912Y-151522382D01*
X223502158Y-151652955D01*
X223590807Y-151866973D01*
X223609772Y-151962317D01*
X223626665Y-152047241D01*
X223636000Y-152094174D01*
X223636000Y-152325826D01*
X223590807Y-152553027D01*
X223502158Y-152767045D01*
X223502157Y-152767046D01*
X223373461Y-152959654D01*
X223209654Y-153123461D01*
X223081249Y-153209258D01*
X223017045Y-153252158D01*
X222803027Y-153340807D01*
X222651560Y-153370936D01*
X222575827Y-153386000D01*
X222344173Y-153386000D01*
X222268440Y-153370936D01*
X222116973Y-153340807D01*
X221902955Y-153252158D01*
X221838751Y-153209258D01*
X221710346Y-153123461D01*
X221546539Y-152959654D01*
X221417843Y-152767046D01*
X221417842Y-152767045D01*
X221329193Y-152553027D01*
X221284000Y-152325826D01*
X221284000Y-152094174D01*
X221293336Y-152047241D01*
X221310228Y-151962317D01*
X221329193Y-151866973D01*
X221417842Y-151652955D01*
X221505088Y-151522382D01*
X221546539Y-151460346D01*
X221710346Y-151296539D01*
X221902954Y-151167843D01*
X221902955Y-151167842D01*
X222116973Y-151079193D01*
X222285625Y-151045646D01*
X222344173Y-151034000D01*
X222575827Y-151034000D01*
X222634375Y-151045646D01*
G37*
G36*
X182526355Y-151002140D02*
G01*
X182590118Y-151008420D01*
X182674444Y-151034000D01*
X182712836Y-151045646D01*
X182825925Y-151106094D01*
X182925054Y-151187446D01*
X183006406Y-151286575D01*
X183066854Y-151399664D01*
X183066855Y-151399668D01*
X183104080Y-151522382D01*
X183116649Y-151650000D01*
X183104080Y-151777618D01*
X183076974Y-151866973D01*
X183066854Y-151900336D01*
X183006406Y-152013425D01*
X182925054Y-152112554D01*
X182825925Y-152193906D01*
X182712836Y-152254354D01*
X182680904Y-152264040D01*
X182590118Y-152291580D01*
X182526355Y-152297860D01*
X182494474Y-152301000D01*
X181730526Y-152301000D01*
X181698645Y-152297860D01*
X181634882Y-152291580D01*
X181544096Y-152264040D01*
X181512164Y-152254354D01*
X181399075Y-152193906D01*
X181299946Y-152112554D01*
X181218594Y-152013425D01*
X181158146Y-151900336D01*
X181148026Y-151866973D01*
X181120920Y-151777618D01*
X181108351Y-151650000D01*
X181120920Y-151522382D01*
X181158145Y-151399668D01*
X181158146Y-151399664D01*
X181218594Y-151286575D01*
X181299946Y-151187446D01*
X181399075Y-151106094D01*
X181512164Y-151045646D01*
X181550556Y-151034000D01*
X181634882Y-151008420D01*
X181698645Y-151002140D01*
X181730526Y-150999000D01*
X182494474Y-150999000D01*
X182526355Y-151002140D01*
G37*
G36*
X189806564Y-126889389D02*
G01*
X189997833Y-126968615D01*
X189997835Y-126968616D01*
X190059113Y-127009561D01*
X190169973Y-127083635D01*
X190316365Y-127230027D01*
X190431385Y-127402167D01*
X190510611Y-127593436D01*
X190551000Y-127796484D01*
X190551000Y-128003516D01*
X190510611Y-128206564D01*
X190431385Y-128397833D01*
X190431384Y-128397835D01*
X190316365Y-128569973D01*
X190169973Y-128716365D01*
X189997835Y-128831384D01*
X189997834Y-128831385D01*
X189997833Y-128831385D01*
X189806564Y-128910611D01*
X189603516Y-128951000D01*
X189396484Y-128951000D01*
X189193436Y-128910611D01*
X189002167Y-128831385D01*
X189002166Y-128831385D01*
X189002165Y-128831384D01*
X188830027Y-128716365D01*
X188683635Y-128569973D01*
X188568616Y-128397835D01*
X188568615Y-128397833D01*
X188489389Y-128206564D01*
X188449000Y-128003516D01*
X188449000Y-127796484D01*
X188489389Y-127593436D01*
X188568615Y-127402167D01*
X188683635Y-127230027D01*
X188830027Y-127083635D01*
X188940887Y-127009561D01*
X189002165Y-126968616D01*
X189002167Y-126968615D01*
X189193436Y-126889389D01*
X189396484Y-126849000D01*
X189603516Y-126849000D01*
X189806564Y-126889389D01*
G37*
G36*
X183306564Y-126889389D02*
G01*
X183497833Y-126968615D01*
X183497835Y-126968616D01*
X183559113Y-127009561D01*
X183669973Y-127083635D01*
X183816365Y-127230027D01*
X183931385Y-127402167D01*
X184010611Y-127593436D01*
X184051000Y-127796484D01*
X184051000Y-128003516D01*
X184010611Y-128206564D01*
X183931385Y-128397833D01*
X183931384Y-128397835D01*
X183816365Y-128569973D01*
X183669973Y-128716365D01*
X183497835Y-128831384D01*
X183497834Y-128831385D01*
X183497833Y-128831385D01*
X183306564Y-128910611D01*
X183103516Y-128951000D01*
X182896484Y-128951000D01*
X182693436Y-128910611D01*
X182502167Y-128831385D01*
X182502166Y-128831385D01*
X182502165Y-128831384D01*
X182330027Y-128716365D01*
X182183635Y-128569973D01*
X182068616Y-128397835D01*
X182068615Y-128397833D01*
X181989389Y-128206564D01*
X181949000Y-128003516D01*
X181949000Y-127796484D01*
X181989389Y-127593436D01*
X182068615Y-127402167D01*
X182183635Y-127230027D01*
X182330027Y-127083635D01*
X182440887Y-127009561D01*
X182502165Y-126968616D01*
X182502167Y-126968615D01*
X182693436Y-126889389D01*
X182896484Y-126849000D01*
X183103516Y-126849000D01*
X183306564Y-126889389D01*
G37*
G36*
X198390548Y-124862326D02*
G01*
X198564157Y-124914990D01*
X198724156Y-125000511D01*
X198738612Y-125012375D01*
X198864397Y-125115603D01*
X198943729Y-125212271D01*
X198979489Y-125255844D01*
X199065010Y-125415843D01*
X199117674Y-125589452D01*
X199131000Y-125724757D01*
X199131000Y-126275244D01*
X199117674Y-126410548D01*
X199065010Y-126584157D01*
X198979489Y-126744156D01*
X198943729Y-126787729D01*
X198864397Y-126884397D01*
X198724155Y-126999489D01*
X198566729Y-127083635D01*
X198564156Y-127085010D01*
X198390547Y-127137674D01*
X198210000Y-127155456D01*
X198029452Y-127137674D01*
X197855843Y-127085010D01*
X197853271Y-127083635D01*
X197832685Y-127072632D01*
X197695844Y-126999489D01*
X197652271Y-126963729D01*
X197555603Y-126884397D01*
X197440511Y-126744155D01*
X197354991Y-126584158D01*
X197354990Y-126584156D01*
X197302326Y-126410547D01*
X197289000Y-126275243D01*
X197289000Y-125724756D01*
X197302326Y-125589452D01*
X197354990Y-125415843D01*
X197440512Y-125255844D01*
X197450832Y-125243269D01*
X197555604Y-125115603D01*
X197681389Y-125012375D01*
X197695845Y-125000511D01*
X197855844Y-124914990D01*
X198029453Y-124862326D01*
X198210000Y-124844544D01*
X198390548Y-124862326D01*
G37*
G36*
X193310548Y-124862326D02*
G01*
X193484157Y-124914990D01*
X193644156Y-125000511D01*
X193658612Y-125012375D01*
X193784397Y-125115603D01*
X193863729Y-125212271D01*
X193899489Y-125255844D01*
X193985010Y-125415843D01*
X194037674Y-125589452D01*
X194051000Y-125724757D01*
X194051000Y-126275244D01*
X194037674Y-126410548D01*
X193985010Y-126584157D01*
X193899489Y-126744156D01*
X193863729Y-126787729D01*
X193784397Y-126884397D01*
X193644155Y-126999489D01*
X193486729Y-127083635D01*
X193484156Y-127085010D01*
X193310547Y-127137674D01*
X193130000Y-127155456D01*
X192949452Y-127137674D01*
X192775843Y-127085010D01*
X192773271Y-127083635D01*
X192752685Y-127072632D01*
X192615844Y-126999489D01*
X192572271Y-126963729D01*
X192475603Y-126884397D01*
X192360511Y-126744155D01*
X192274991Y-126584158D01*
X192274990Y-126584156D01*
X192222326Y-126410547D01*
X192209000Y-126275243D01*
X192209000Y-125724756D01*
X192222326Y-125589452D01*
X192274990Y-125415843D01*
X192360512Y-125255844D01*
X192370832Y-125243269D01*
X192475604Y-125115603D01*
X192601389Y-125012375D01*
X192615845Y-125000511D01*
X192775844Y-124914990D01*
X192949453Y-124862326D01*
X193130000Y-124844544D01*
X193310548Y-124862326D01*
G37*
G36*
X195850548Y-124862326D02*
G01*
X196024157Y-124914990D01*
X196184156Y-125000511D01*
X196198612Y-125012375D01*
X196324397Y-125115603D01*
X196403729Y-125212271D01*
X196439489Y-125255844D01*
X196525010Y-125415843D01*
X196577674Y-125589452D01*
X196591000Y-125724757D01*
X196591000Y-126275244D01*
X196577674Y-126410548D01*
X196525010Y-126584157D01*
X196439489Y-126744156D01*
X196403729Y-126787729D01*
X196324397Y-126884397D01*
X196184155Y-126999489D01*
X196026729Y-127083635D01*
X196024156Y-127085010D01*
X195850547Y-127137674D01*
X195670000Y-127155456D01*
X195489452Y-127137674D01*
X195315843Y-127085010D01*
X195313271Y-127083635D01*
X195292685Y-127072632D01*
X195155844Y-126999489D01*
X195112271Y-126963729D01*
X195015603Y-126884397D01*
X194900511Y-126744155D01*
X194814991Y-126584158D01*
X194814990Y-126584156D01*
X194762326Y-126410547D01*
X194749000Y-126275243D01*
X194749000Y-125724756D01*
X194762326Y-125589452D01*
X194814990Y-125415843D01*
X194900512Y-125255844D01*
X194910832Y-125243269D01*
X195015604Y-125115603D01*
X195141389Y-125012375D01*
X195155845Y-125000511D01*
X195315844Y-124914990D01*
X195489453Y-124862326D01*
X195670000Y-124844544D01*
X195850548Y-124862326D01*
G37*
G36*
X201529561Y-124852966D02*
G01*
X201562383Y-124862923D01*
X201592632Y-124879092D01*
X201619148Y-124900852D01*
X201640908Y-124927368D01*
X201657077Y-124957617D01*
X201667034Y-124990439D01*
X201671000Y-125030713D01*
X201671000Y-126969287D01*
X201667034Y-127009561D01*
X201657077Y-127042383D01*
X201640908Y-127072632D01*
X201619148Y-127099148D01*
X201592632Y-127120908D01*
X201562383Y-127137077D01*
X201529561Y-127147034D01*
X201489287Y-127151000D01*
X200010713Y-127151000D01*
X199970439Y-127147034D01*
X199937617Y-127137077D01*
X199907368Y-127120908D01*
X199880852Y-127099148D01*
X199859092Y-127072632D01*
X199842923Y-127042383D01*
X199832966Y-127009561D01*
X199829000Y-126969287D01*
X199829000Y-125030713D01*
X199832966Y-124990439D01*
X199842923Y-124957617D01*
X199859092Y-124927368D01*
X199880852Y-124900852D01*
X199907368Y-124879092D01*
X199937617Y-124862923D01*
X199970439Y-124852966D01*
X200010713Y-124849000D01*
X201489287Y-124849000D01*
X201529561Y-124852966D01*
G37*
G36*
X189806564Y-122389389D02*
G01*
X189997833Y-122468615D01*
X189997835Y-122468616D01*
X190169973Y-122583635D01*
X190316365Y-122730027D01*
X190431385Y-122902167D01*
X190510611Y-123093436D01*
X190551000Y-123296484D01*
X190551000Y-123503516D01*
X190510611Y-123706564D01*
X190431385Y-123897833D01*
X190431384Y-123897835D01*
X190316365Y-124069973D01*
X190169973Y-124216365D01*
X189997835Y-124331384D01*
X189997834Y-124331385D01*
X189997833Y-124331385D01*
X189806564Y-124410611D01*
X189603516Y-124451000D01*
X189396484Y-124451000D01*
X189193436Y-124410611D01*
X189002167Y-124331385D01*
X189002166Y-124331385D01*
X189002165Y-124331384D01*
X188830027Y-124216365D01*
X188683635Y-124069973D01*
X188568616Y-123897835D01*
X188568615Y-123897833D01*
X188489389Y-123706564D01*
X188449000Y-123503516D01*
X188449000Y-123296484D01*
X188489389Y-123093436D01*
X188568615Y-122902167D01*
X188683635Y-122730027D01*
X188830027Y-122583635D01*
X189002165Y-122468616D01*
X189002167Y-122468615D01*
X189193436Y-122389389D01*
X189396484Y-122349000D01*
X189603516Y-122349000D01*
X189806564Y-122389389D01*
G37*
G36*
X183306564Y-122389389D02*
G01*
X183497833Y-122468615D01*
X183497835Y-122468616D01*
X183669973Y-122583635D01*
X183816365Y-122730027D01*
X183931385Y-122902167D01*
X184010611Y-123093436D01*
X184051000Y-123296484D01*
X184051000Y-123503516D01*
X184010611Y-123706564D01*
X183931385Y-123897833D01*
X183931384Y-123897835D01*
X183816365Y-124069973D01*
X183669973Y-124216365D01*
X183497835Y-124331384D01*
X183497834Y-124331385D01*
X183497833Y-124331385D01*
X183306564Y-124410611D01*
X183103516Y-124451000D01*
X182896484Y-124451000D01*
X182693436Y-124410611D01*
X182502167Y-124331385D01*
X182502166Y-124331385D01*
X182502165Y-124331384D01*
X182330027Y-124216365D01*
X182183635Y-124069973D01*
X182068616Y-123897835D01*
X182068615Y-123897833D01*
X181989389Y-123706564D01*
X181949000Y-123503516D01*
X181949000Y-123296484D01*
X181989389Y-123093436D01*
X182068615Y-122902167D01*
X182183635Y-122730027D01*
X182330027Y-122583635D01*
X182502165Y-122468616D01*
X182502167Y-122468615D01*
X182693436Y-122389389D01*
X182896484Y-122349000D01*
X183103516Y-122349000D01*
X183306564Y-122389389D01*
G37*
G36*
X183306564Y-115489389D02*
G01*
X183497833Y-115568615D01*
X183497835Y-115568616D01*
X183669973Y-115683635D01*
X183816365Y-115830027D01*
X183931385Y-116002167D01*
X184010611Y-116193436D01*
X184051000Y-116396484D01*
X184051000Y-116603516D01*
X184010611Y-116806564D01*
X183931385Y-116997833D01*
X183931384Y-116997835D01*
X183816365Y-117169973D01*
X183669973Y-117316365D01*
X183497835Y-117431384D01*
X183497834Y-117431385D01*
X183497833Y-117431385D01*
X183306564Y-117510611D01*
X183103516Y-117551000D01*
X182896484Y-117551000D01*
X182693436Y-117510611D01*
X182502167Y-117431385D01*
X182502166Y-117431385D01*
X182502165Y-117431384D01*
X182330027Y-117316365D01*
X182183635Y-117169973D01*
X182068616Y-116997835D01*
X182068615Y-116997833D01*
X181989389Y-116806564D01*
X181949000Y-116603516D01*
X181949000Y-116396484D01*
X181989389Y-116193436D01*
X182068615Y-116002167D01*
X182183635Y-115830027D01*
X182330027Y-115683635D01*
X182502165Y-115568616D01*
X182502167Y-115568615D01*
X182693436Y-115489389D01*
X182896484Y-115449000D01*
X183103516Y-115449000D01*
X183306564Y-115489389D01*
G37*
G36*
X189806564Y-115489389D02*
G01*
X189997833Y-115568615D01*
X189997835Y-115568616D01*
X190169973Y-115683635D01*
X190316365Y-115830027D01*
X190431385Y-116002167D01*
X190510611Y-116193436D01*
X190551000Y-116396484D01*
X190551000Y-116603516D01*
X190510611Y-116806564D01*
X190431385Y-116997833D01*
X190431384Y-116997835D01*
X190316365Y-117169973D01*
X190169973Y-117316365D01*
X189997835Y-117431384D01*
X189997834Y-117431385D01*
X189997833Y-117431385D01*
X189806564Y-117510611D01*
X189603516Y-117551000D01*
X189396484Y-117551000D01*
X189193436Y-117510611D01*
X189002167Y-117431385D01*
X189002166Y-117431385D01*
X189002165Y-117431384D01*
X188830027Y-117316365D01*
X188683635Y-117169973D01*
X188568616Y-116997835D01*
X188568615Y-116997833D01*
X188489389Y-116806564D01*
X188449000Y-116603516D01*
X188449000Y-116396484D01*
X188489389Y-116193436D01*
X188568615Y-116002167D01*
X188683635Y-115830027D01*
X188830027Y-115683635D01*
X189002165Y-115568616D01*
X189002167Y-115568615D01*
X189193436Y-115489389D01*
X189396484Y-115449000D01*
X189603516Y-115449000D01*
X189806564Y-115489389D01*
G37*
G36*
X193106564Y-115489389D02*
G01*
X193297833Y-115568615D01*
X193297835Y-115568616D01*
X193469973Y-115683635D01*
X193616365Y-115830027D01*
X193731385Y-116002167D01*
X193810611Y-116193436D01*
X193851000Y-116396484D01*
X193851000Y-116603516D01*
X193810611Y-116806564D01*
X193731385Y-116997833D01*
X193731384Y-116997835D01*
X193616365Y-117169973D01*
X193469973Y-117316365D01*
X193297835Y-117431384D01*
X193297834Y-117431385D01*
X193297833Y-117431385D01*
X193106564Y-117510611D01*
X192903516Y-117551000D01*
X192696484Y-117551000D01*
X192493436Y-117510611D01*
X192302167Y-117431385D01*
X192302166Y-117431385D01*
X192302165Y-117431384D01*
X192130027Y-117316365D01*
X191983635Y-117169973D01*
X191868616Y-116997835D01*
X191868615Y-116997833D01*
X191789389Y-116806564D01*
X191749000Y-116603516D01*
X191749000Y-116396484D01*
X191789389Y-116193436D01*
X191868615Y-116002167D01*
X191983635Y-115830027D01*
X192130027Y-115683635D01*
X192302165Y-115568616D01*
X192302167Y-115568615D01*
X192493436Y-115489389D01*
X192696484Y-115449000D01*
X192903516Y-115449000D01*
X193106564Y-115489389D01*
G37*
G36*
X199606564Y-115489389D02*
G01*
X199797833Y-115568615D01*
X199797835Y-115568616D01*
X199969973Y-115683635D01*
X200116365Y-115830027D01*
X200231385Y-116002167D01*
X200310611Y-116193436D01*
X200351000Y-116396484D01*
X200351000Y-116603516D01*
X200310611Y-116806564D01*
X200231385Y-116997833D01*
X200231384Y-116997835D01*
X200116365Y-117169973D01*
X199969973Y-117316365D01*
X199797835Y-117431384D01*
X199797834Y-117431385D01*
X199797833Y-117431385D01*
X199606564Y-117510611D01*
X199403516Y-117551000D01*
X199196484Y-117551000D01*
X198993436Y-117510611D01*
X198802167Y-117431385D01*
X198802166Y-117431385D01*
X198802165Y-117431384D01*
X198630027Y-117316365D01*
X198483635Y-117169973D01*
X198368616Y-116997835D01*
X198368615Y-116997833D01*
X198289389Y-116806564D01*
X198249000Y-116603516D01*
X198249000Y-116396484D01*
X198289389Y-116193436D01*
X198368615Y-116002167D01*
X198483635Y-115830027D01*
X198630027Y-115683635D01*
X198802165Y-115568616D01*
X198802167Y-115568615D01*
X198993436Y-115489389D01*
X199196484Y-115449000D01*
X199403516Y-115449000D01*
X199606564Y-115489389D01*
G37*
G36*
X193106564Y-110989389D02*
G01*
X193297833Y-111068615D01*
X193297835Y-111068616D01*
X193469973Y-111183635D01*
X193616365Y-111330027D01*
X193731385Y-111502167D01*
X193810611Y-111693436D01*
X193851000Y-111896484D01*
X193851000Y-112103516D01*
X193810611Y-112306564D01*
X193731385Y-112497833D01*
X193731384Y-112497835D01*
X193616365Y-112669973D01*
X193469973Y-112816365D01*
X193297835Y-112931384D01*
X193297834Y-112931385D01*
X193297833Y-112931385D01*
X193106564Y-113010611D01*
X192903516Y-113051000D01*
X192696484Y-113051000D01*
X192493436Y-113010611D01*
X192302167Y-112931385D01*
X192302166Y-112931385D01*
X192302165Y-112931384D01*
X192130027Y-112816365D01*
X191983635Y-112669973D01*
X191868616Y-112497835D01*
X191868615Y-112497833D01*
X191789389Y-112306564D01*
X191749000Y-112103516D01*
X191749000Y-111896484D01*
X191789389Y-111693436D01*
X191868615Y-111502167D01*
X191983635Y-111330027D01*
X192130027Y-111183635D01*
X192302165Y-111068616D01*
X192302167Y-111068615D01*
X192493436Y-110989389D01*
X192696484Y-110949000D01*
X192903516Y-110949000D01*
X193106564Y-110989389D01*
G37*
G36*
X199606564Y-110989389D02*
G01*
X199797833Y-111068615D01*
X199797835Y-111068616D01*
X199969973Y-111183635D01*
X200116365Y-111330027D01*
X200231385Y-111502167D01*
X200310611Y-111693436D01*
X200351000Y-111896484D01*
X200351000Y-112103516D01*
X200310611Y-112306564D01*
X200231385Y-112497833D01*
X200231384Y-112497835D01*
X200116365Y-112669973D01*
X199969973Y-112816365D01*
X199797835Y-112931384D01*
X199797834Y-112931385D01*
X199797833Y-112931385D01*
X199606564Y-113010611D01*
X199403516Y-113051000D01*
X199196484Y-113051000D01*
X198993436Y-113010611D01*
X198802167Y-112931385D01*
X198802166Y-112931385D01*
X198802165Y-112931384D01*
X198630027Y-112816365D01*
X198483635Y-112669973D01*
X198368616Y-112497835D01*
X198368615Y-112497833D01*
X198289389Y-112306564D01*
X198249000Y-112103516D01*
X198249000Y-111896484D01*
X198289389Y-111693436D01*
X198368615Y-111502167D01*
X198483635Y-111330027D01*
X198630027Y-111183635D01*
X198802165Y-111068616D01*
X198802167Y-111068615D01*
X198993436Y-110989389D01*
X199196484Y-110949000D01*
X199403516Y-110949000D01*
X199606564Y-110989389D01*
G37*
G36*
X189806564Y-110989389D02*
G01*
X189997833Y-111068615D01*
X189997835Y-111068616D01*
X190169973Y-111183635D01*
X190316365Y-111330027D01*
X190431385Y-111502167D01*
X190510611Y-111693436D01*
X190551000Y-111896484D01*
X190551000Y-112103516D01*
X190510611Y-112306564D01*
X190431385Y-112497833D01*
X190431384Y-112497835D01*
X190316365Y-112669973D01*
X190169973Y-112816365D01*
X189997835Y-112931384D01*
X189997834Y-112931385D01*
X189997833Y-112931385D01*
X189806564Y-113010611D01*
X189603516Y-113051000D01*
X189396484Y-113051000D01*
X189193436Y-113010611D01*
X189002167Y-112931385D01*
X189002166Y-112931385D01*
X189002165Y-112931384D01*
X188830027Y-112816365D01*
X188683635Y-112669973D01*
X188568616Y-112497835D01*
X188568615Y-112497833D01*
X188489389Y-112306564D01*
X188449000Y-112103516D01*
X188449000Y-111896484D01*
X188489389Y-111693436D01*
X188568615Y-111502167D01*
X188683635Y-111330027D01*
X188830027Y-111183635D01*
X189002165Y-111068616D01*
X189002167Y-111068615D01*
X189193436Y-110989389D01*
X189396484Y-110949000D01*
X189603516Y-110949000D01*
X189806564Y-110989389D01*
G37*
G36*
X183306564Y-110989389D02*
G01*
X183497833Y-111068615D01*
X183497835Y-111068616D01*
X183669973Y-111183635D01*
X183816365Y-111330027D01*
X183931385Y-111502167D01*
X184010611Y-111693436D01*
X184051000Y-111896484D01*
X184051000Y-112103516D01*
X184010611Y-112306564D01*
X183931385Y-112497833D01*
X183931384Y-112497835D01*
X183816365Y-112669973D01*
X183669973Y-112816365D01*
X183497835Y-112931384D01*
X183497834Y-112931385D01*
X183497833Y-112931385D01*
X183306564Y-113010611D01*
X183103516Y-113051000D01*
X182896484Y-113051000D01*
X182693436Y-113010611D01*
X182502167Y-112931385D01*
X182502166Y-112931385D01*
X182502165Y-112931384D01*
X182330027Y-112816365D01*
X182183635Y-112669973D01*
X182068616Y-112497835D01*
X182068615Y-112497833D01*
X181989389Y-112306564D01*
X181949000Y-112103516D01*
X181949000Y-111896484D01*
X181989389Y-111693436D01*
X182068615Y-111502167D01*
X182183635Y-111330027D01*
X182330027Y-111183635D01*
X182502165Y-111068616D01*
X182502167Y-111068615D01*
X182693436Y-110989389D01*
X182896484Y-110949000D01*
X183103516Y-110949000D01*
X183306564Y-110989389D01*
G37*
M02*
