G04 #@! TF.GenerationSoftware,KiCad,Pcbnew,(5.1.5)-3*
G04 #@! TF.CreationDate,2020-05-23T10:42:04+01:00*
G04 #@! TF.ProjectId,Chronos,4368726f-6e6f-4732-9e6b-696361645f70,X302*
G04 #@! TF.SameCoordinates,Original*
G04 #@! TF.FileFunction,Legend,Top*
G04 #@! TF.FilePolarity,Positive*
%FSLAX46Y46*%
G04 Gerber Fmt 4.6, Leading zero omitted, Abs format (unit mm)*
G04 Created by KiCad (PCBNEW (5.1.5)-3) date 2020-05-23 10:42:04*
%MOMM*%
%LPD*%
G04 APERTURE LIST*
%ADD10C,0.200000*%
%ADD11C,0.150000*%
%ADD12C,0.120000*%
G04 APERTURE END LIST*
D10*
X212670000Y-128817142D02*
X212717619Y-128864761D01*
X212670000Y-128912380D01*
X212622380Y-128864761D01*
X212670000Y-128817142D01*
X212670000Y-128912380D01*
X225760000Y-126917142D02*
X225807619Y-126964761D01*
X225760000Y-127012380D01*
X225712380Y-126964761D01*
X225760000Y-126917142D01*
X225760000Y-127012380D01*
X223550000Y-144827142D02*
X223597619Y-144874761D01*
X223550000Y-144922380D01*
X223502380Y-144874761D01*
X223550000Y-144827142D01*
X223550000Y-144922380D01*
X212500000Y-138507142D02*
X212547619Y-138554761D01*
X212500000Y-138602380D01*
X212452380Y-138554761D01*
X212500000Y-138507142D01*
X212500000Y-138602380D01*
X201110000Y-131307142D02*
X201157619Y-131354761D01*
X201110000Y-131402380D01*
X201062380Y-131354761D01*
X201110000Y-131307142D01*
X201110000Y-131402380D01*
X192550000Y-132257142D02*
X192597619Y-132304761D01*
X192550000Y-132352380D01*
X192502380Y-132304761D01*
X192550000Y-132257142D01*
X192550000Y-132352380D01*
X205709523Y-111517142D02*
X205661904Y-111564761D01*
X205519047Y-111612380D01*
X205423809Y-111612380D01*
X205280952Y-111564761D01*
X205185714Y-111469523D01*
X205138095Y-111374285D01*
X205090476Y-111183809D01*
X205090476Y-111040952D01*
X205138095Y-110850476D01*
X205185714Y-110755238D01*
X205280952Y-110660000D01*
X205423809Y-110612380D01*
X205519047Y-110612380D01*
X205661904Y-110660000D01*
X205709523Y-110707619D01*
X206138095Y-111612380D02*
X206138095Y-110612380D01*
X206566666Y-111612380D02*
X206566666Y-111088571D01*
X206519047Y-110993333D01*
X206423809Y-110945714D01*
X206280952Y-110945714D01*
X206185714Y-110993333D01*
X206138095Y-111040952D01*
X207042857Y-111612380D02*
X207042857Y-110945714D01*
X207042857Y-111136190D02*
X207090476Y-111040952D01*
X207138095Y-110993333D01*
X207233333Y-110945714D01*
X207328571Y-110945714D01*
X207804761Y-111612380D02*
X207709523Y-111564761D01*
X207661904Y-111517142D01*
X207614285Y-111421904D01*
X207614285Y-111136190D01*
X207661904Y-111040952D01*
X207709523Y-110993333D01*
X207804761Y-110945714D01*
X207947619Y-110945714D01*
X208042857Y-110993333D01*
X208090476Y-111040952D01*
X208138095Y-111136190D01*
X208138095Y-111421904D01*
X208090476Y-111517142D01*
X208042857Y-111564761D01*
X207947619Y-111612380D01*
X207804761Y-111612380D01*
X208566666Y-110945714D02*
X208566666Y-111612380D01*
X208566666Y-111040952D02*
X208614285Y-110993333D01*
X208709523Y-110945714D01*
X208852380Y-110945714D01*
X208947619Y-110993333D01*
X208995238Y-111088571D01*
X208995238Y-111612380D01*
X209614285Y-111612380D02*
X209519047Y-111564761D01*
X209471428Y-111517142D01*
X209423809Y-111421904D01*
X209423809Y-111136190D01*
X209471428Y-111040952D01*
X209519047Y-110993333D01*
X209614285Y-110945714D01*
X209757142Y-110945714D01*
X209852380Y-110993333D01*
X209900000Y-111040952D01*
X209947619Y-111136190D01*
X209947619Y-111421904D01*
X209900000Y-111517142D01*
X209852380Y-111564761D01*
X209757142Y-111612380D01*
X209614285Y-111612380D01*
X210328571Y-111564761D02*
X210423809Y-111612380D01*
X210614285Y-111612380D01*
X210709523Y-111564761D01*
X210757142Y-111469523D01*
X210757142Y-111421904D01*
X210709523Y-111326666D01*
X210614285Y-111279047D01*
X210471428Y-111279047D01*
X210376190Y-111231428D01*
X210328571Y-111136190D01*
X210328571Y-111088571D01*
X210376190Y-110993333D01*
X210471428Y-110945714D01*
X210614285Y-110945714D01*
X210709523Y-110993333D01*
X211947619Y-111231428D02*
X212709523Y-111231428D01*
X213947619Y-111612380D02*
X213947619Y-110612380D01*
X214185714Y-110612380D01*
X214328571Y-110660000D01*
X214423809Y-110755238D01*
X214471428Y-110850476D01*
X214519047Y-111040952D01*
X214519047Y-111183809D01*
X214471428Y-111374285D01*
X214423809Y-111469523D01*
X214328571Y-111564761D01*
X214185714Y-111612380D01*
X213947619Y-111612380D01*
X215519047Y-111517142D02*
X215471428Y-111564761D01*
X215328571Y-111612380D01*
X215233333Y-111612380D01*
X215090476Y-111564761D01*
X214995238Y-111469523D01*
X214947619Y-111374285D01*
X214900000Y-111183809D01*
X214900000Y-111040952D01*
X214947619Y-110850476D01*
X214995238Y-110755238D01*
X215090476Y-110660000D01*
X215233333Y-110612380D01*
X215328571Y-110612380D01*
X215471428Y-110660000D01*
X215519047Y-110707619D01*
X216280952Y-111088571D02*
X215947619Y-111088571D01*
X215947619Y-111612380D02*
X215947619Y-110612380D01*
X216423809Y-110612380D01*
X216709523Y-110612380D02*
X217376190Y-110612380D01*
X216947619Y-111612380D01*
X217661904Y-110612380D02*
X218328571Y-110612380D01*
X217900000Y-111612380D01*
X220185714Y-110564761D02*
X219328571Y-111850476D01*
X221138095Y-110612380D02*
X221709523Y-110612380D01*
X221423809Y-111612380D02*
X221423809Y-110612380D01*
X222042857Y-111612380D02*
X222042857Y-110612380D01*
X222280952Y-110612380D01*
X222423809Y-110660000D01*
X222519047Y-110755238D01*
X222566666Y-110850476D01*
X222614285Y-111040952D01*
X222614285Y-111183809D01*
X222566666Y-111374285D01*
X222519047Y-111469523D01*
X222423809Y-111564761D01*
X222280952Y-111612380D01*
X222042857Y-111612380D01*
X223376190Y-111088571D02*
X223042857Y-111088571D01*
X223042857Y-111612380D02*
X223042857Y-110612380D01*
X223519047Y-110612380D01*
X224661904Y-111612380D02*
X224661904Y-110945714D01*
X224661904Y-111136190D02*
X224709523Y-111040952D01*
X224757142Y-110993333D01*
X224852380Y-110945714D01*
X224947619Y-110945714D01*
X225661904Y-111564761D02*
X225566666Y-111612380D01*
X225376190Y-111612380D01*
X225280952Y-111564761D01*
X225233333Y-111469523D01*
X225233333Y-111088571D01*
X225280952Y-110993333D01*
X225376190Y-110945714D01*
X225566666Y-110945714D01*
X225661904Y-110993333D01*
X225709523Y-111088571D01*
X225709523Y-111183809D01*
X225233333Y-111279047D01*
X226566666Y-111564761D02*
X226471428Y-111612380D01*
X226280952Y-111612380D01*
X226185714Y-111564761D01*
X226138095Y-111517142D01*
X226090476Y-111421904D01*
X226090476Y-111136190D01*
X226138095Y-111040952D01*
X226185714Y-110993333D01*
X226280952Y-110945714D01*
X226471428Y-110945714D01*
X226566666Y-110993333D01*
X227376190Y-111564761D02*
X227280952Y-111612380D01*
X227090476Y-111612380D01*
X226995238Y-111564761D01*
X226947619Y-111469523D01*
X226947619Y-111088571D01*
X226995238Y-110993333D01*
X227090476Y-110945714D01*
X227280952Y-110945714D01*
X227376190Y-110993333D01*
X227423809Y-111088571D01*
X227423809Y-111183809D01*
X226947619Y-111279047D01*
X227852380Y-111612380D02*
X227852380Y-110945714D01*
X227852380Y-110612380D02*
X227804761Y-110660000D01*
X227852380Y-110707619D01*
X227900000Y-110660000D01*
X227852380Y-110612380D01*
X227852380Y-110707619D01*
X228233333Y-110945714D02*
X228471428Y-111612380D01*
X228709523Y-110945714D01*
X229471428Y-111564761D02*
X229376190Y-111612380D01*
X229185714Y-111612380D01*
X229090476Y-111564761D01*
X229042857Y-111469523D01*
X229042857Y-111088571D01*
X229090476Y-110993333D01*
X229185714Y-110945714D01*
X229376190Y-110945714D01*
X229471428Y-110993333D01*
X229519047Y-111088571D01*
X229519047Y-111183809D01*
X229042857Y-111279047D01*
X229947619Y-111612380D02*
X229947619Y-110945714D01*
X229947619Y-111136190D02*
X229995238Y-111040952D01*
X230042857Y-110993333D01*
X230138095Y-110945714D01*
X230233333Y-110945714D01*
X205709523Y-113312380D02*
X205376190Y-112836190D01*
X205138095Y-113312380D02*
X205138095Y-112312380D01*
X205519047Y-112312380D01*
X205614285Y-112360000D01*
X205661904Y-112407619D01*
X205709523Y-112502857D01*
X205709523Y-112645714D01*
X205661904Y-112740952D01*
X205614285Y-112788571D01*
X205519047Y-112836190D01*
X205138095Y-112836190D01*
X206519047Y-113264761D02*
X206423809Y-113312380D01*
X206233333Y-113312380D01*
X206138095Y-113264761D01*
X206090476Y-113169523D01*
X206090476Y-112788571D01*
X206138095Y-112693333D01*
X206233333Y-112645714D01*
X206423809Y-112645714D01*
X206519047Y-112693333D01*
X206566666Y-112788571D01*
X206566666Y-112883809D01*
X206090476Y-112979047D01*
X206900000Y-112645714D02*
X207138095Y-113312380D01*
X207376190Y-112645714D01*
X207757142Y-113312380D02*
X207757142Y-112645714D01*
X207757142Y-112312380D02*
X207709523Y-112360000D01*
X207757142Y-112407619D01*
X207804761Y-112360000D01*
X207757142Y-112312380D01*
X207757142Y-112407619D01*
X208185714Y-113264761D02*
X208280952Y-113312380D01*
X208471428Y-113312380D01*
X208566666Y-113264761D01*
X208614285Y-113169523D01*
X208614285Y-113121904D01*
X208566666Y-113026666D01*
X208471428Y-112979047D01*
X208328571Y-112979047D01*
X208233333Y-112931428D01*
X208185714Y-112836190D01*
X208185714Y-112788571D01*
X208233333Y-112693333D01*
X208328571Y-112645714D01*
X208471428Y-112645714D01*
X208566666Y-112693333D01*
X209042857Y-113312380D02*
X209042857Y-112645714D01*
X209042857Y-112312380D02*
X208995238Y-112360000D01*
X209042857Y-112407619D01*
X209090476Y-112360000D01*
X209042857Y-112312380D01*
X209042857Y-112407619D01*
X209661904Y-113312380D02*
X209566666Y-113264761D01*
X209519047Y-113217142D01*
X209471428Y-113121904D01*
X209471428Y-112836190D01*
X209519047Y-112740952D01*
X209566666Y-112693333D01*
X209661904Y-112645714D01*
X209804761Y-112645714D01*
X209900000Y-112693333D01*
X209947619Y-112740952D01*
X209995238Y-112836190D01*
X209995238Y-113121904D01*
X209947619Y-113217142D01*
X209900000Y-113264761D01*
X209804761Y-113312380D01*
X209661904Y-113312380D01*
X210423809Y-112645714D02*
X210423809Y-113312380D01*
X210423809Y-112740952D02*
X210471428Y-112693333D01*
X210566666Y-112645714D01*
X210709523Y-112645714D01*
X210804761Y-112693333D01*
X210852380Y-112788571D01*
X210852380Y-113312380D01*
X211328571Y-113217142D02*
X211376190Y-113264761D01*
X211328571Y-113312380D01*
X211280952Y-113264761D01*
X211328571Y-113217142D01*
X211328571Y-113312380D01*
X211328571Y-112693333D02*
X211376190Y-112740952D01*
X211328571Y-112788571D01*
X211280952Y-112740952D01*
X211328571Y-112693333D01*
X211328571Y-112788571D01*
X212471428Y-112312380D02*
X213138095Y-113312380D01*
X213138095Y-112312380D02*
X212471428Y-113312380D01*
X213423809Y-112312380D02*
X214042857Y-112312380D01*
X213709523Y-112693333D01*
X213852380Y-112693333D01*
X213947619Y-112740952D01*
X213995238Y-112788571D01*
X214042857Y-112883809D01*
X214042857Y-113121904D01*
X213995238Y-113217142D01*
X213947619Y-113264761D01*
X213852380Y-113312380D01*
X213566666Y-113312380D01*
X213471428Y-113264761D01*
X213423809Y-113217142D01*
X214661904Y-112312380D02*
X214757142Y-112312380D01*
X214852380Y-112360000D01*
X214900000Y-112407619D01*
X214947619Y-112502857D01*
X214995238Y-112693333D01*
X214995238Y-112931428D01*
X214947619Y-113121904D01*
X214900000Y-113217142D01*
X214852380Y-113264761D01*
X214757142Y-113312380D01*
X214661904Y-113312380D01*
X214566666Y-113264761D01*
X214519047Y-113217142D01*
X214471428Y-113121904D01*
X214423809Y-112931428D01*
X214423809Y-112693333D01*
X214471428Y-112502857D01*
X214519047Y-112407619D01*
X214566666Y-112360000D01*
X214661904Y-112312380D01*
X215376190Y-112407619D02*
X215423809Y-112360000D01*
X215519047Y-112312380D01*
X215757142Y-112312380D01*
X215852380Y-112360000D01*
X215900000Y-112407619D01*
X215947619Y-112502857D01*
X215947619Y-112598095D01*
X215900000Y-112740952D01*
X215328571Y-113312380D01*
X215947619Y-113312380D01*
X205090476Y-114726666D02*
X205566666Y-114726666D01*
X204995238Y-115012380D02*
X205328571Y-114012380D01*
X205661904Y-115012380D01*
X206423809Y-114345714D02*
X206423809Y-115012380D01*
X205995238Y-114345714D02*
X205995238Y-114869523D01*
X206042857Y-114964761D01*
X206138095Y-115012380D01*
X206280952Y-115012380D01*
X206376190Y-114964761D01*
X206423809Y-114917142D01*
X206757142Y-114345714D02*
X207138095Y-114345714D01*
X206900000Y-114012380D02*
X206900000Y-114869523D01*
X206947619Y-114964761D01*
X207042857Y-115012380D01*
X207138095Y-115012380D01*
X207471428Y-115012380D02*
X207471428Y-114012380D01*
X207900000Y-115012380D02*
X207900000Y-114488571D01*
X207852380Y-114393333D01*
X207757142Y-114345714D01*
X207614285Y-114345714D01*
X207519047Y-114393333D01*
X207471428Y-114440952D01*
X208519047Y-115012380D02*
X208423809Y-114964761D01*
X208376190Y-114917142D01*
X208328571Y-114821904D01*
X208328571Y-114536190D01*
X208376190Y-114440952D01*
X208423809Y-114393333D01*
X208519047Y-114345714D01*
X208661904Y-114345714D01*
X208757142Y-114393333D01*
X208804761Y-114440952D01*
X208852380Y-114536190D01*
X208852380Y-114821904D01*
X208804761Y-114917142D01*
X208757142Y-114964761D01*
X208661904Y-115012380D01*
X208519047Y-115012380D01*
X209280952Y-115012380D02*
X209280952Y-114345714D01*
X209280952Y-114536190D02*
X209328571Y-114440952D01*
X209376190Y-114393333D01*
X209471428Y-114345714D01*
X209566666Y-114345714D01*
X209900000Y-114917142D02*
X209947619Y-114964761D01*
X209900000Y-115012380D01*
X209852380Y-114964761D01*
X209900000Y-114917142D01*
X209900000Y-115012380D01*
X209900000Y-114393333D02*
X209947619Y-114440952D01*
X209900000Y-114488571D01*
X209852380Y-114440952D01*
X209900000Y-114393333D01*
X209900000Y-114488571D01*
X210995238Y-114345714D02*
X211376190Y-114345714D01*
X211138095Y-115012380D02*
X211138095Y-114155238D01*
X211185714Y-114060000D01*
X211280952Y-114012380D01*
X211376190Y-114012380D01*
X212138095Y-115012380D02*
X212138095Y-114488571D01*
X212090476Y-114393333D01*
X211995238Y-114345714D01*
X211804761Y-114345714D01*
X211709523Y-114393333D01*
X212138095Y-114964761D02*
X212042857Y-115012380D01*
X211804761Y-115012380D01*
X211709523Y-114964761D01*
X211661904Y-114869523D01*
X211661904Y-114774285D01*
X211709523Y-114679047D01*
X211804761Y-114631428D01*
X212042857Y-114631428D01*
X212138095Y-114583809D01*
X213042857Y-114345714D02*
X213042857Y-115012380D01*
X212614285Y-114345714D02*
X212614285Y-114869523D01*
X212661904Y-114964761D01*
X212757142Y-115012380D01*
X212900000Y-115012380D01*
X212995238Y-114964761D01*
X213042857Y-114917142D01*
X213471428Y-114964761D02*
X213566666Y-115012380D01*
X213757142Y-115012380D01*
X213852380Y-114964761D01*
X213900000Y-114869523D01*
X213900000Y-114821904D01*
X213852380Y-114726666D01*
X213757142Y-114679047D01*
X213614285Y-114679047D01*
X213519047Y-114631428D01*
X213471428Y-114536190D01*
X213471428Y-114488571D01*
X213519047Y-114393333D01*
X213614285Y-114345714D01*
X213757142Y-114345714D01*
X213852380Y-114393333D01*
X214185714Y-114345714D02*
X214566666Y-114345714D01*
X214328571Y-114012380D02*
X214328571Y-114869523D01*
X214376190Y-114964761D01*
X214471428Y-115012380D01*
X214566666Y-115012380D01*
X215423809Y-115012380D02*
X214852380Y-115012380D01*
X215138095Y-115012380D02*
X215138095Y-114012380D01*
X215042857Y-114155238D01*
X214947619Y-114250476D01*
X214852380Y-114298095D01*
X216042857Y-114012380D02*
X216138095Y-114012380D01*
X216233333Y-114060000D01*
X216280952Y-114107619D01*
X216328571Y-114202857D01*
X216376190Y-114393333D01*
X216376190Y-114631428D01*
X216328571Y-114821904D01*
X216280952Y-114917142D01*
X216233333Y-114964761D01*
X216138095Y-115012380D01*
X216042857Y-115012380D01*
X215947619Y-114964761D01*
X215900000Y-114917142D01*
X215852380Y-114821904D01*
X215804761Y-114631428D01*
X215804761Y-114393333D01*
X215852380Y-114202857D01*
X215900000Y-114107619D01*
X215947619Y-114060000D01*
X216042857Y-114012380D01*
X216995238Y-114012380D02*
X217090476Y-114012380D01*
X217185714Y-114060000D01*
X217233333Y-114107619D01*
X217280952Y-114202857D01*
X217328571Y-114393333D01*
X217328571Y-114631428D01*
X217280952Y-114821904D01*
X217233333Y-114917142D01*
X217185714Y-114964761D01*
X217090476Y-115012380D01*
X216995238Y-115012380D01*
X216900000Y-114964761D01*
X216852380Y-114917142D01*
X216804761Y-114821904D01*
X216757142Y-114631428D01*
X216757142Y-114393333D01*
X216804761Y-114202857D01*
X216852380Y-114107619D01*
X216900000Y-114060000D01*
X216995238Y-114012380D01*
X217709523Y-114107619D02*
X217757142Y-114060000D01*
X217852380Y-114012380D01*
X218090476Y-114012380D01*
X218185714Y-114060000D01*
X218233333Y-114107619D01*
X218280952Y-114202857D01*
X218280952Y-114298095D01*
X218233333Y-114440952D01*
X217661904Y-115012380D01*
X218280952Y-115012380D01*
X198530952Y-146052380D02*
X198054761Y-146052380D01*
X198054761Y-145052380D01*
X198864285Y-145528571D02*
X199197619Y-145528571D01*
X199340476Y-146052380D02*
X198864285Y-146052380D01*
X198864285Y-145052380D01*
X199340476Y-145052380D01*
X199769047Y-146052380D02*
X199769047Y-145052380D01*
X200007142Y-145052380D01*
X200150000Y-145100000D01*
X200245238Y-145195238D01*
X200292857Y-145290476D01*
X200340476Y-145480952D01*
X200340476Y-145623809D01*
X200292857Y-145814285D01*
X200245238Y-145909523D01*
X200150000Y-146004761D01*
X200007142Y-146052380D01*
X199769047Y-146052380D01*
X200959523Y-145052380D02*
X201054761Y-145052380D01*
X201150000Y-145100000D01*
X201197619Y-145147619D01*
X201245238Y-145242857D01*
X201292857Y-145433333D01*
X201292857Y-145671428D01*
X201245238Y-145861904D01*
X201197619Y-145957142D01*
X201150000Y-146004761D01*
X201054761Y-146052380D01*
X200959523Y-146052380D01*
X200864285Y-146004761D01*
X200816666Y-145957142D01*
X200769047Y-145861904D01*
X200721428Y-145671428D01*
X200721428Y-145433333D01*
X200769047Y-145242857D01*
X200816666Y-145147619D01*
X200864285Y-145100000D01*
X200959523Y-145052380D01*
X206480952Y-146052380D02*
X206004761Y-146052380D01*
X206004761Y-145052380D01*
X206814285Y-145528571D02*
X207147619Y-145528571D01*
X207290476Y-146052380D02*
X206814285Y-146052380D01*
X206814285Y-145052380D01*
X207290476Y-145052380D01*
X207719047Y-146052380D02*
X207719047Y-145052380D01*
X207957142Y-145052380D01*
X208100000Y-145100000D01*
X208195238Y-145195238D01*
X208242857Y-145290476D01*
X208290476Y-145480952D01*
X208290476Y-145623809D01*
X208242857Y-145814285D01*
X208195238Y-145909523D01*
X208100000Y-146004761D01*
X207957142Y-146052380D01*
X207719047Y-146052380D01*
X209242857Y-146052380D02*
X208671428Y-146052380D01*
X208957142Y-146052380D02*
X208957142Y-145052380D01*
X208861904Y-145195238D01*
X208766666Y-145290476D01*
X208671428Y-145338095D01*
X194866666Y-119104761D02*
X195009523Y-119152380D01*
X195247619Y-119152380D01*
X195342857Y-119104761D01*
X195390476Y-119057142D01*
X195438095Y-118961904D01*
X195438095Y-118866666D01*
X195390476Y-118771428D01*
X195342857Y-118723809D01*
X195247619Y-118676190D01*
X195057142Y-118628571D01*
X194961904Y-118580952D01*
X194914285Y-118533333D01*
X194866666Y-118438095D01*
X194866666Y-118342857D01*
X194914285Y-118247619D01*
X194961904Y-118200000D01*
X195057142Y-118152380D01*
X195295238Y-118152380D01*
X195438095Y-118200000D01*
X195771428Y-118152380D02*
X196009523Y-119152380D01*
X196200000Y-118438095D01*
X196390476Y-119152380D01*
X196628571Y-118152380D01*
X197533333Y-119152380D02*
X196961904Y-119152380D01*
X197247619Y-119152380D02*
X197247619Y-118152380D01*
X197152380Y-118295238D01*
X197057142Y-118390476D01*
X196961904Y-118438095D01*
X185066666Y-119104761D02*
X185209523Y-119152380D01*
X185447619Y-119152380D01*
X185542857Y-119104761D01*
X185590476Y-119057142D01*
X185638095Y-118961904D01*
X185638095Y-118866666D01*
X185590476Y-118771428D01*
X185542857Y-118723809D01*
X185447619Y-118676190D01*
X185257142Y-118628571D01*
X185161904Y-118580952D01*
X185114285Y-118533333D01*
X185066666Y-118438095D01*
X185066666Y-118342857D01*
X185114285Y-118247619D01*
X185161904Y-118200000D01*
X185257142Y-118152380D01*
X185495238Y-118152380D01*
X185638095Y-118200000D01*
X185971428Y-118152380D02*
X186209523Y-119152380D01*
X186400000Y-118438095D01*
X186590476Y-119152380D01*
X186828571Y-118152380D01*
X187400000Y-118152380D02*
X187495238Y-118152380D01*
X187590476Y-118200000D01*
X187638095Y-118247619D01*
X187685714Y-118342857D01*
X187733333Y-118533333D01*
X187733333Y-118771428D01*
X187685714Y-118961904D01*
X187638095Y-119057142D01*
X187590476Y-119104761D01*
X187495238Y-119152380D01*
X187400000Y-119152380D01*
X187304761Y-119104761D01*
X187257142Y-119057142D01*
X187209523Y-118961904D01*
X187161904Y-118771428D01*
X187161904Y-118533333D01*
X187209523Y-118342857D01*
X187257142Y-118247619D01*
X187304761Y-118200000D01*
X187400000Y-118152380D01*
X184757142Y-121752380D02*
X184757142Y-120752380D01*
X185328571Y-121752380D01*
X185328571Y-120752380D01*
X186376190Y-121752380D02*
X186042857Y-121276190D01*
X185804761Y-121752380D02*
X185804761Y-120752380D01*
X186185714Y-120752380D01*
X186280952Y-120800000D01*
X186328571Y-120847619D01*
X186376190Y-120942857D01*
X186376190Y-121085714D01*
X186328571Y-121180952D01*
X186280952Y-121228571D01*
X186185714Y-121276190D01*
X185804761Y-121276190D01*
X186757142Y-121704761D02*
X186900000Y-121752380D01*
X187138095Y-121752380D01*
X187233333Y-121704761D01*
X187280952Y-121657142D01*
X187328571Y-121561904D01*
X187328571Y-121466666D01*
X187280952Y-121371428D01*
X187233333Y-121323809D01*
X187138095Y-121276190D01*
X186947619Y-121228571D01*
X186852380Y-121180952D01*
X186804761Y-121133333D01*
X186757142Y-121038095D01*
X186757142Y-120942857D01*
X186804761Y-120847619D01*
X186852380Y-120800000D01*
X186947619Y-120752380D01*
X187185714Y-120752380D01*
X187328571Y-120800000D01*
X187614285Y-120752380D02*
X188185714Y-120752380D01*
X187900000Y-121752380D02*
X187900000Y-120752380D01*
X186352380Y-143966666D02*
X185876190Y-144300000D01*
X186352380Y-144538095D02*
X185352380Y-144538095D01*
X185352380Y-144157142D01*
X185400000Y-144061904D01*
X185447619Y-144014285D01*
X185542857Y-143966666D01*
X185685714Y-143966666D01*
X185780952Y-144014285D01*
X185828571Y-144061904D01*
X185876190Y-144157142D01*
X185876190Y-144538095D01*
X185352380Y-143633333D02*
X186352380Y-142966666D01*
X185352380Y-142966666D02*
X186352380Y-143633333D01*
X190152380Y-144561904D02*
X190152380Y-143990476D01*
X191152380Y-144276190D02*
X190152380Y-144276190D01*
X190152380Y-143752380D02*
X191152380Y-143085714D01*
X190152380Y-143085714D02*
X191152380Y-143752380D01*
D11*
X213225000Y-127325000D02*
X213225000Y-128675000D01*
X216375000Y-127325000D02*
X216375000Y-122675000D01*
X213125000Y-127325000D02*
X213125000Y-122675000D01*
X216375000Y-127325000D02*
X216175000Y-127325000D01*
X216375000Y-122675000D02*
X216175000Y-122675000D01*
X213125000Y-122675000D02*
X213325000Y-122675000D01*
X213125000Y-127325000D02*
X213225000Y-127325000D01*
X226050000Y-125725000D02*
X226050000Y-127075000D01*
X229200000Y-125725000D02*
X229200000Y-121075000D01*
X225950000Y-125725000D02*
X225950000Y-121075000D01*
X229200000Y-125725000D02*
X229000000Y-125725000D01*
X229200000Y-121075000D02*
X229000000Y-121075000D01*
X225950000Y-121075000D02*
X226150000Y-121075000D01*
X225950000Y-125725000D02*
X226050000Y-125725000D01*
D12*
X215850000Y-138940000D02*
X212400000Y-138940000D01*
X215850000Y-138940000D02*
X217800000Y-138940000D01*
X215850000Y-144060000D02*
X213900000Y-144060000D01*
X215850000Y-144060000D02*
X217800000Y-144060000D01*
D11*
X223800000Y-143575000D02*
X223800000Y-144925000D01*
X226950000Y-143575000D02*
X226950000Y-138925000D01*
X223700000Y-143575000D02*
X223700000Y-138925000D01*
X226950000Y-143575000D02*
X226750000Y-143575000D01*
X226950000Y-138925000D02*
X226750000Y-138925000D01*
X223700000Y-138925000D02*
X223900000Y-138925000D01*
X223700000Y-143575000D02*
X223800000Y-143575000D01*
X192275000Y-133800000D02*
X192275000Y-132200000D01*
X182200000Y-133800000D02*
X182200000Y-139550000D01*
X192850000Y-133800000D02*
X192850000Y-139550000D01*
X182200000Y-133800000D02*
X182850000Y-133800000D01*
X182200000Y-139550000D02*
X182850000Y-139550000D01*
X192850000Y-139550000D02*
X192200000Y-139550000D01*
X192850000Y-133800000D02*
X192275000Y-133800000D01*
D12*
X193425000Y-148140000D02*
X199435000Y-148140000D01*
X195675000Y-154960000D02*
X199435000Y-154960000D01*
X199435000Y-148140000D02*
X199435000Y-149400000D01*
X199435000Y-154960000D02*
X199435000Y-153700000D01*
X202390000Y-131690000D02*
X201075000Y-131690000D01*
X202390000Y-131390000D02*
X202390000Y-131690000D01*
X202690000Y-131390000D02*
X202390000Y-131390000D01*
X209610000Y-131390000D02*
X209610000Y-131690000D01*
X209310000Y-131390000D02*
X209610000Y-131390000D01*
X202390000Y-138610000D02*
X202390000Y-138310000D01*
X202690000Y-138610000D02*
X202390000Y-138610000D01*
X209610000Y-138610000D02*
X209610000Y-138310000D01*
X209310000Y-138610000D02*
X209610000Y-138610000D01*
X199550000Y-115000000D02*
X199550000Y-113500000D01*
X198300000Y-111000000D02*
X193800000Y-111000000D01*
X192550000Y-113500000D02*
X192550000Y-115000000D01*
X193800000Y-117500000D02*
X198300000Y-117500000D01*
X189750000Y-115000000D02*
X189750000Y-113500000D01*
X188500000Y-111000000D02*
X184000000Y-111000000D01*
X182750000Y-113500000D02*
X182750000Y-115000000D01*
X184000000Y-117500000D02*
X188500000Y-117500000D01*
X189750000Y-126400000D02*
X189750000Y-124900000D01*
X188500000Y-122400000D02*
X184000000Y-122400000D01*
X182750000Y-124900000D02*
X182750000Y-126400000D01*
X184000000Y-128900000D02*
X188500000Y-128900000D01*
X204040000Y-141991422D02*
X204040000Y-142508578D01*
X205460000Y-141991422D02*
X205460000Y-142508578D01*
X201790000Y-141991422D02*
X201790000Y-142508578D01*
X203210000Y-141991422D02*
X203210000Y-142508578D01*
X186790000Y-147550279D02*
X186790000Y-147224721D01*
X187810000Y-147550279D02*
X187810000Y-147224721D01*
X189710000Y-147550279D02*
X189710000Y-147224721D01*
X188690000Y-147550279D02*
X188690000Y-147224721D01*
X192810000Y-150871078D02*
X192810000Y-150353922D01*
X191390000Y-150871078D02*
X191390000Y-150353922D01*
X223200000Y-151070000D02*
X226800000Y-151070000D01*
X223200000Y-158430000D02*
X226800000Y-158430000D01*
X228680000Y-152950000D02*
X228680000Y-156550000D01*
X221320000Y-152950000D02*
X221320000Y-156550000D01*
X192330000Y-128430000D02*
X192330000Y-129030000D01*
X193930000Y-128430000D02*
X192330000Y-128430000D01*
X193930000Y-129030000D02*
X193930000Y-128430000D01*
X194870000Y-128430000D02*
X194870000Y-129030000D01*
X196470000Y-128430000D02*
X194870000Y-128430000D01*
X196470000Y-129030000D02*
X196470000Y-128430000D01*
X197410000Y-128430000D02*
X197410000Y-129030000D01*
X199010000Y-128430000D02*
X197410000Y-128430000D01*
X199010000Y-129030000D02*
X199010000Y-128430000D01*
X199950000Y-128430000D02*
X199950000Y-129030000D01*
X201550000Y-128430000D02*
X199950000Y-128430000D01*
X201550000Y-129030000D02*
X201550000Y-128430000D01*
X193380000Y-123010000D02*
X193380000Y-124010000D01*
X200500000Y-123010000D02*
X200500000Y-124010000D01*
X193380000Y-124540000D02*
X193130000Y-124010000D01*
X200500000Y-124540000D02*
X193380000Y-124540000D01*
X200750000Y-124010000D02*
X200500000Y-124540000D01*
X193130000Y-124010000D02*
X193130000Y-123010000D01*
X200750000Y-124010000D02*
X193130000Y-124010000D01*
X200750000Y-123010000D02*
X200750000Y-124010000D01*
X202420000Y-128000000D02*
X202420000Y-124000000D01*
X191750000Y-129030000D02*
X202130000Y-129030000D01*
X191750000Y-123010000D02*
X191750000Y-129030000D01*
X202130000Y-123010000D02*
X191750000Y-123010000D01*
X202130000Y-129030000D02*
X202130000Y-123010000D01*
X185662500Y-153450000D02*
X185212500Y-153450000D01*
X185662500Y-153450000D02*
X185662500Y-153900000D01*
X185112500Y-159050000D02*
X185112500Y-158600000D01*
X183262500Y-159050000D02*
X185112500Y-159050000D01*
X180712500Y-151250000D02*
X180962500Y-151250000D01*
X180712500Y-159050000D02*
X180962500Y-159050000D01*
X183262500Y-151250000D02*
X185112500Y-151250000D01*
X185112500Y-151250000D02*
X185112500Y-151700000D01*
X190058578Y-153140000D02*
X189541422Y-153140000D01*
X190058578Y-154560000D02*
X189541422Y-154560000D01*
X205485000Y-147085000D02*
X205485000Y-144800000D01*
X204015000Y-147085000D02*
X205485000Y-147085000D01*
X204015000Y-144800000D02*
X204015000Y-147085000D01*
X203235000Y-147085000D02*
X203235000Y-144800000D01*
X201765000Y-147085000D02*
X203235000Y-147085000D01*
X201765000Y-144800000D02*
X201765000Y-147085000D01*
X186565000Y-142702500D02*
X186565000Y-144987500D01*
X188035000Y-142702500D02*
X186565000Y-142702500D01*
X188035000Y-144987500D02*
X188035000Y-142702500D01*
X188465000Y-142702500D02*
X188465000Y-144987500D01*
X189935000Y-142702500D02*
X188465000Y-142702500D01*
X189935000Y-144987500D02*
X189935000Y-142702500D01*
X191365000Y-145915000D02*
X191365000Y-148200000D01*
X192835000Y-145915000D02*
X191365000Y-145915000D01*
X192835000Y-148200000D02*
X192835000Y-145915000D01*
M02*
