M48
; DRILL file {KiCad (5.1.5)-3} date 23/05/2020 10:42:08
; FORMAT={-:-/ absolute / inch / decimal}
; #@! TF.CreationDate,2020-05-23T10:42:08+01:00
; #@! TF.GenerationSoftware,Kicad,Pcbnew,(5.1.5)-3
FMAT,2
INCH
T1C0.0157
T2C0.0236
T3C0.0315
T4C0.0335
T5C0.0433
T6C0.0472
T7C0.0591
T8C0.0669
%
G90
G05
T1
X7.1841Y-5.5941
X7.2259Y-5.5941
X7.2441Y-4.7041
X7.2441Y-5.153
X7.2677Y-5.6717
X7.2933Y-5.4512
X7.3189Y-5.5941
X7.3346Y-6.1772
X7.374Y-5.3106
X7.3937Y-5.1299
X7.3937Y-5.1722
X7.4291Y-5.3106
X7.4409Y-6.1772
X7.4724Y-5.4512
X7.4803Y-6.1772
X7.5118Y-5.4512
X7.5492Y-5.3106
X7.563Y-5.7244
X7.6299Y-4.7041
X7.8051Y-5.3726
X7.8051Y-5.4482
X7.8839Y-5.3071
X7.8839Y-5.351
X7.8839Y-5.4679
X7.9724Y-5.811
X8.0079Y-5.2913
X8.0079Y-5.3307
X8.0433Y-5.4173
X8.061Y-5.811
X8.0906Y-5.4173
X8.1181Y-5.2126
X8.1378Y-5.3701
X8.1378Y-5.4173
X8.1575Y-5.2126
X8.185Y-5.3701
X8.185Y-5.4173
X8.252Y-4.9618
X8.252Y-5.0787
X8.2913Y-4.9618
X8.2978Y-4.7047
X8.2978Y-4.7441
X8.3268Y-5.4959
X8.3268Y-5.5459
X8.3268Y-5.5959
X8.3268Y-5.6459
X8.3754Y-4.6654
X8.4148Y-4.7441
X8.4356Y-5.3734
X8.4931Y-4.9783
X8.5132Y-4.626
X8.5183Y-5.4035
X8.5183Y-5.4429
X8.5512Y-4.8827
X8.5526Y-5.0984
X8.5526Y-5.2165
X8.5526Y-5.2559
X8.5526Y-5.2953
X8.5906Y-4.8827
X8.5907Y-4.6654
X8.5907Y-4.7047
X8.5959Y-5.3642
X8.6299Y-4.8827
X8.6352Y-5.4429
X8.6693Y-4.7289
X8.7047Y-5.5959
X8.7047Y-5.6459
X8.7211Y-5.3445
X8.7211Y-5.3839
X8.7795Y-4.7986
X8.79Y-4.6417
X8.79Y-4.6811
X8.7986Y-5.3051
X8.838Y-5.3445
X8.8583Y-4.8852
X8.8583Y-5.5748
X8.8675Y-4.6024
X8.9035Y-5.5118
X8.9069Y-4.6811
X8.9291Y-5.7402
X8.9469Y-4.603
X8.9474Y-4.8026
X8.9685Y-5.4449
X8.9724Y-4.9154
X8.998Y-5.0335
X9.0427Y-4.5242
X9.0447Y-5.1535
T3
X7.354Y-5.9764
X7.624Y-5.7972
X7.7224Y-5.7972
X7.7224Y-5.876
X7.8209Y-5.8563
X7.8307Y-6.0039
X7.8996Y-5.8563
X7.8996Y-6.0728
X7.9724Y-5.9134
X7.9724Y-6.0472
T4
X7.2761Y-6.0098
X7.2761Y-6.2067
T5
X7.2047Y-4.4094
X7.2047Y-4.5866
X7.4606Y-4.4094
X7.4606Y-4.5866
X7.5906Y-4.4094
X7.5906Y-4.5866
X7.8465Y-4.4094
X7.8465Y-4.5866
X7.2047Y-4.8583
X7.2047Y-5.0354
X7.4606Y-4.8583
X7.4606Y-5.0354
T6
X7.6035Y-4.9606
X7.7035Y-4.9606
X7.8035Y-4.9606
X7.9035Y-4.9606
T7
X8.8583Y-6.0925
T8
X8.7583Y-5.9925
X8.7583Y-6.1925
X8.9583Y-5.9925
X8.9583Y-6.1925
T2
G00X7.156Y-5.9705
M15
G01X7.1836Y-5.9705
M16
G05
G00X7.1836Y-6.2461
M15
G01X7.156Y-6.2461
M16
G05
T0
M30
