G04 #@! TF.GenerationSoftware,KiCad,Pcbnew,(5.1.5)-3*
G04 #@! TF.CreationDate,2020-05-23T10:42:04+01:00*
G04 #@! TF.ProjectId,Chronos,4368726f-6e6f-4732-9e6b-696361645f70,X302*
G04 #@! TF.SameCoordinates,Original*
G04 #@! TF.FileFunction,Copper,L4,Bot*
G04 #@! TF.FilePolarity,Positive*
%FSLAX46Y46*%
G04 Gerber Fmt 4.6, Leading zero omitted, Abs format (unit mm)*
G04 Created by KiCad (PCBNEW (5.1.5)-3) date 2020-05-23 10:42:04*
%MOMM*%
%LPD*%
G04 APERTURE LIST*
%ADD10C,2.000000*%
%ADD11C,2.250000*%
%ADD12C,2.050000*%
%ADD13O,1.740000X2.200000*%
%ADD14C,0.100000*%
%ADD15O,1.900000X1.200000*%
%ADD16C,1.450000*%
%ADD17C,0.800000*%
%ADD18C,1.000000*%
%ADD19C,0.350000*%
%ADD20C,0.250000*%
G04 APERTURE END LIST*
D10*
X199300000Y-112000000D03*
X199300000Y-116500000D03*
X192800000Y-112000000D03*
X192800000Y-116500000D03*
X189500000Y-112000000D03*
X189500000Y-116500000D03*
X183000000Y-112000000D03*
X183000000Y-116500000D03*
X189500000Y-123400000D03*
X189500000Y-127900000D03*
X183000000Y-123400000D03*
X183000000Y-127900000D03*
D11*
X222460000Y-157290000D03*
X222460000Y-152210000D03*
X227540000Y-152210000D03*
X227540000Y-157290000D03*
D12*
X225000000Y-154750000D03*
D13*
X193130000Y-126000000D03*
X195670000Y-126000000D03*
X198210000Y-126000000D03*
G04 #@! TA.AperFunction,ComponentPad*
D14*
G36*
X201394505Y-124901204D02*
G01*
X201418773Y-124904804D01*
X201442572Y-124910765D01*
X201465671Y-124919030D01*
X201487850Y-124929520D01*
X201508893Y-124942132D01*
X201528599Y-124956747D01*
X201546777Y-124973223D01*
X201563253Y-124991401D01*
X201577868Y-125011107D01*
X201590480Y-125032150D01*
X201600970Y-125054329D01*
X201609235Y-125077428D01*
X201615196Y-125101227D01*
X201618796Y-125125495D01*
X201620000Y-125149999D01*
X201620000Y-126850001D01*
X201618796Y-126874505D01*
X201615196Y-126898773D01*
X201609235Y-126922572D01*
X201600970Y-126945671D01*
X201590480Y-126967850D01*
X201577868Y-126988893D01*
X201563253Y-127008599D01*
X201546777Y-127026777D01*
X201528599Y-127043253D01*
X201508893Y-127057868D01*
X201487850Y-127070480D01*
X201465671Y-127080970D01*
X201442572Y-127089235D01*
X201418773Y-127095196D01*
X201394505Y-127098796D01*
X201370001Y-127100000D01*
X200129999Y-127100000D01*
X200105495Y-127098796D01*
X200081227Y-127095196D01*
X200057428Y-127089235D01*
X200034329Y-127080970D01*
X200012150Y-127070480D01*
X199991107Y-127057868D01*
X199971401Y-127043253D01*
X199953223Y-127026777D01*
X199936747Y-127008599D01*
X199922132Y-126988893D01*
X199909520Y-126967850D01*
X199899030Y-126945671D01*
X199890765Y-126922572D01*
X199884804Y-126898773D01*
X199881204Y-126874505D01*
X199880000Y-126850001D01*
X199880000Y-125149999D01*
X199881204Y-125125495D01*
X199884804Y-125101227D01*
X199890765Y-125077428D01*
X199899030Y-125054329D01*
X199909520Y-125032150D01*
X199922132Y-125011107D01*
X199936747Y-124991401D01*
X199953223Y-124973223D01*
X199971401Y-124956747D01*
X199991107Y-124942132D01*
X200012150Y-124929520D01*
X200034329Y-124919030D01*
X200057428Y-124910765D01*
X200081227Y-124904804D01*
X200105495Y-124901204D01*
X200129999Y-124900000D01*
X201370001Y-124900000D01*
X201394505Y-124901204D01*
G37*
G04 #@! TD.AperFunction*
D15*
X182112500Y-158650000D03*
X182112500Y-151650000D03*
D16*
X184812500Y-157650000D03*
X184812500Y-152650000D03*
D17*
X223265000Y-117900000D03*
X223265000Y-118900000D03*
X184600000Y-144060000D03*
X190800000Y-138460000D03*
X189800000Y-138460000D03*
X192100000Y-145400000D03*
D18*
X193650000Y-147250000D03*
X196150000Y-149250000D03*
X202500000Y-153600000D03*
X196150000Y-147250000D03*
X186791249Y-151800000D03*
D17*
X187800000Y-130300000D03*
X187800000Y-131375000D03*
X185250000Y-138460000D03*
X187300000Y-134890000D03*
X200250000Y-135915000D03*
X198250000Y-136465000D03*
X204750000Y-147600000D03*
X202500000Y-147600000D03*
X211500000Y-139595000D03*
X211500000Y-143405000D03*
X216365000Y-138250000D03*
X216365000Y-137250000D03*
X226800000Y-145800000D03*
X221515000Y-136750000D03*
X221515000Y-135750000D03*
X229735000Y-130900000D03*
X228550000Y-127850000D03*
X225000000Y-124085000D03*
X217235000Y-134500000D03*
X217235000Y-133500000D03*
X217235000Y-132500000D03*
X217235000Y-129500000D03*
X215725000Y-126450000D03*
X210600000Y-126030000D03*
X209600000Y-126030000D03*
X219200000Y-124020000D03*
X218200000Y-124020000D03*
X217200000Y-124020000D03*
X210765000Y-120500000D03*
X210765000Y-119500000D03*
X218205000Y-119500000D03*
X218205000Y-118500000D03*
X186300000Y-156900000D03*
X185900000Y-142090000D03*
X206700000Y-137600000D03*
X206700000Y-136400000D03*
X207900000Y-137600000D03*
X207900000Y-136400000D03*
X205500000Y-137600000D03*
X225235000Y-116900000D03*
X226235000Y-118900000D03*
X212735000Y-118500000D03*
X213735000Y-120500000D03*
X220200000Y-120115000D03*
X214265000Y-136485000D03*
X223485000Y-134750000D03*
X198250000Y-138385000D03*
X200250000Y-138885000D03*
X218335000Y-136250000D03*
X219335000Y-138250000D03*
X193800000Y-119485000D03*
X184000000Y-119485000D03*
X184000000Y-130885000D03*
D18*
X200650000Y-154250000D03*
X198900000Y-152500000D03*
X198650000Y-148750000D03*
X202500000Y-150200000D03*
X200650000Y-148750000D03*
D17*
X224485000Y-135750000D03*
X221100000Y-142135000D03*
X226150000Y-140000000D03*
X225000000Y-141600000D03*
X203400000Y-135400000D03*
X221100000Y-143405000D03*
X223000000Y-121885000D03*
X227250000Y-116915000D03*
X203400000Y-134400000D03*
X227264431Y-121985569D03*
X227900000Y-124850000D03*
X229685000Y-114915000D03*
X216235000Y-117500000D03*
X227800000Y-138300000D03*
X209600000Y-129000000D03*
X189000000Y-156900000D03*
X182475000Y-142090000D03*
X190000000Y-156900000D03*
X183537500Y-142090000D03*
X211500000Y-140865000D03*
X204300000Y-137600000D03*
X206200000Y-132400000D03*
X188700000Y-134890000D03*
X207200000Y-132400000D03*
X191750000Y-134890000D03*
X211500000Y-142135000D03*
X200250000Y-134800000D03*
D19*
X223235000Y-140000000D02*
X221100000Y-142135000D01*
X226150000Y-140000000D02*
X223235000Y-140000000D01*
X221100000Y-143405000D02*
X216457002Y-143405000D01*
X225000000Y-141600000D02*
X222905000Y-141600000D01*
X216457002Y-143405000D02*
X208227003Y-135175001D01*
X222905000Y-141600000D02*
X221100000Y-143405000D01*
X208227003Y-135175001D02*
X203624999Y-135175001D01*
X203624999Y-135175001D02*
X203400000Y-135400000D01*
X223000000Y-121319315D02*
X223000000Y-121885000D01*
X223000000Y-120599315D02*
X223000000Y-121319315D01*
X226684315Y-116915000D02*
X223000000Y-120599315D01*
X227250000Y-116915000D02*
X226684315Y-116915000D01*
X207975001Y-126507997D02*
X209582998Y-124900000D01*
X203400000Y-134400000D02*
X207700000Y-134400000D01*
X207700000Y-134400000D02*
X207975001Y-134124999D01*
X227264431Y-122551254D02*
X227264431Y-121985569D01*
X226100000Y-124900000D02*
X227264431Y-123735569D01*
X227264431Y-123735569D02*
X227264431Y-122551254D01*
X207975001Y-134124999D02*
X207975001Y-126507997D01*
X209582998Y-124900000D02*
X226100000Y-124900000D01*
X218820000Y-114915000D02*
X216235000Y-117500000D01*
X229685000Y-114915000D02*
X218820000Y-114915000D01*
X229685000Y-123065000D02*
X227900000Y-124850000D01*
X229685000Y-114915000D02*
X229685000Y-123065000D01*
X209999999Y-129399999D02*
X209600000Y-129000000D01*
X211600000Y-131000000D02*
X209999999Y-129399999D01*
X223000000Y-131000000D02*
X211600000Y-131000000D01*
X227800000Y-138300000D02*
X227800000Y-135800000D01*
X227800000Y-135800000D02*
X223000000Y-131000000D01*
X182475000Y-142655685D02*
X182475000Y-142090000D01*
X182475000Y-146225000D02*
X182475000Y-142655685D01*
X189000000Y-156900000D02*
X189000000Y-152750000D01*
X189000000Y-152750000D02*
X182475000Y-146225000D01*
X183537500Y-146337500D02*
X183537500Y-142655685D01*
X190000000Y-156900000D02*
X190000000Y-152800000D01*
X183537500Y-142655685D02*
X183537500Y-142090000D01*
X190000000Y-152800000D02*
X183537500Y-146337500D01*
X207965000Y-140865000D02*
X211500000Y-140865000D01*
X204300000Y-137600000D02*
X207965000Y-140865000D01*
X189099999Y-134490001D02*
X188700000Y-134890000D01*
X190590000Y-133000000D02*
X189099999Y-134490001D01*
X206200000Y-132400000D02*
X205600000Y-133000000D01*
X205600000Y-133000000D02*
X190590000Y-133000000D01*
X192149999Y-134490001D02*
X191750000Y-134890000D01*
X206540686Y-133624999D02*
X193015001Y-133624999D01*
X207200000Y-132965685D02*
X206540686Y-133624999D01*
X193015001Y-133624999D02*
X192149999Y-134490001D01*
X207200000Y-132400000D02*
X207200000Y-132965685D01*
X207585000Y-142135000D02*
X200250000Y-134800000D01*
X211500000Y-142135000D02*
X207585000Y-142135000D01*
X207495000Y-139595000D02*
X205500000Y-137600000D01*
X211500000Y-139595000D02*
X207495000Y-139595000D01*
D20*
G36*
X230600001Y-159600000D02*
G01*
X182689539Y-159600000D01*
X182837421Y-159555140D01*
X183006802Y-159464605D01*
X183155265Y-159342765D01*
X183277105Y-159194302D01*
X183367640Y-159024921D01*
X183423392Y-158841133D01*
X183442217Y-158650000D01*
X183423392Y-158458867D01*
X183367640Y-158275079D01*
X183277105Y-158105698D01*
X183155265Y-157957235D01*
X183006802Y-157835395D01*
X182837421Y-157744860D01*
X182653633Y-157689108D01*
X182510392Y-157675000D01*
X181714608Y-157675000D01*
X181571367Y-157689108D01*
X181400000Y-157741092D01*
X181400000Y-157541659D01*
X183712500Y-157541659D01*
X183712500Y-157758341D01*
X183754773Y-157970858D01*
X183837693Y-158171045D01*
X183958075Y-158351209D01*
X184111291Y-158504425D01*
X184291455Y-158624807D01*
X184491642Y-158707727D01*
X184704159Y-158750000D01*
X184920841Y-158750000D01*
X185133358Y-158707727D01*
X185333545Y-158624807D01*
X185513709Y-158504425D01*
X185666925Y-158351209D01*
X185787307Y-158171045D01*
X185870227Y-157970858D01*
X185912500Y-157758341D01*
X185912500Y-157541659D01*
X185870227Y-157329142D01*
X185787307Y-157128955D01*
X185666925Y-156948791D01*
X185513709Y-156795575D01*
X185333545Y-156675193D01*
X185133358Y-156592273D01*
X184920841Y-156550000D01*
X184704159Y-156550000D01*
X184491642Y-156592273D01*
X184291455Y-156675193D01*
X184111291Y-156795575D01*
X183958075Y-156948791D01*
X183837693Y-157128955D01*
X183754773Y-157329142D01*
X183712500Y-157541659D01*
X181400000Y-157541659D01*
X181400000Y-152558908D01*
X181571367Y-152610892D01*
X181714608Y-152625000D01*
X182510392Y-152625000D01*
X182653633Y-152610892D01*
X182837421Y-152555140D01*
X182862642Y-152541659D01*
X183712500Y-152541659D01*
X183712500Y-152758341D01*
X183754773Y-152970858D01*
X183837693Y-153171045D01*
X183958075Y-153351209D01*
X184111291Y-153504425D01*
X184291455Y-153624807D01*
X184491642Y-153707727D01*
X184704159Y-153750000D01*
X184920841Y-153750000D01*
X185133358Y-153707727D01*
X185333545Y-153624807D01*
X185513709Y-153504425D01*
X185666925Y-153351209D01*
X185787307Y-153171045D01*
X185870227Y-152970858D01*
X185912500Y-152758341D01*
X185912500Y-152541659D01*
X185870227Y-152329142D01*
X185787307Y-152128955D01*
X185666925Y-151948791D01*
X185513709Y-151795575D01*
X185333545Y-151675193D01*
X185133358Y-151592273D01*
X184920841Y-151550000D01*
X184704159Y-151550000D01*
X184491642Y-151592273D01*
X184291455Y-151675193D01*
X184111291Y-151795575D01*
X183958075Y-151948791D01*
X183837693Y-152128955D01*
X183754773Y-152329142D01*
X183712500Y-152541659D01*
X182862642Y-152541659D01*
X183006802Y-152464605D01*
X183155265Y-152342765D01*
X183277105Y-152194302D01*
X183367640Y-152024921D01*
X183423392Y-151841133D01*
X183442217Y-151650000D01*
X183423392Y-151458867D01*
X183367640Y-151275079D01*
X183277105Y-151105698D01*
X183155265Y-150957235D01*
X183006802Y-150835395D01*
X182837421Y-150744860D01*
X182653633Y-150689108D01*
X182510392Y-150675000D01*
X181714608Y-150675000D01*
X181571367Y-150689108D01*
X181400000Y-150741092D01*
X181400000Y-142013669D01*
X181700000Y-142013669D01*
X181700000Y-142166331D01*
X181729783Y-142316059D01*
X181788204Y-142457100D01*
X181873018Y-142584034D01*
X181925000Y-142636016D01*
X181925000Y-142682702D01*
X181925001Y-142682712D01*
X181925000Y-146197992D01*
X181922340Y-146225000D01*
X181925000Y-146252008D01*
X181925000Y-146252017D01*
X181932958Y-146332818D01*
X181964408Y-146436493D01*
X182015479Y-146532042D01*
X182084210Y-146615790D01*
X182105196Y-146633013D01*
X188450001Y-152977818D01*
X188450000Y-156353984D01*
X188398018Y-156405966D01*
X188313204Y-156532900D01*
X188254783Y-156673941D01*
X188225000Y-156823669D01*
X188225000Y-156976331D01*
X188254783Y-157126059D01*
X188313204Y-157267100D01*
X188398018Y-157394034D01*
X188505966Y-157501982D01*
X188632900Y-157586796D01*
X188773941Y-157645217D01*
X188923669Y-157675000D01*
X189076331Y-157675000D01*
X189226059Y-157645217D01*
X189367100Y-157586796D01*
X189494034Y-157501982D01*
X189500000Y-157496016D01*
X189505966Y-157501982D01*
X189632900Y-157586796D01*
X189773941Y-157645217D01*
X189923669Y-157675000D01*
X190076331Y-157675000D01*
X190226059Y-157645217D01*
X190367100Y-157586796D01*
X190494034Y-157501982D01*
X190601982Y-157394034D01*
X190686796Y-157267100D01*
X190745217Y-157126059D01*
X190775000Y-156976331D01*
X190775000Y-156823669D01*
X190745217Y-156673941D01*
X190686796Y-156532900D01*
X190601982Y-156405966D01*
X190550000Y-156353984D01*
X190550000Y-154163820D01*
X199775000Y-154163820D01*
X199775000Y-154336180D01*
X199808626Y-154505228D01*
X199874585Y-154664468D01*
X199970343Y-154807780D01*
X200092220Y-154929657D01*
X200235532Y-155025415D01*
X200394772Y-155091374D01*
X200563820Y-155125000D01*
X200736180Y-155125000D01*
X200905228Y-155091374D01*
X201064468Y-155025415D01*
X201207780Y-154929657D01*
X201329657Y-154807780D01*
X201425415Y-154664468D01*
X201447101Y-154612112D01*
X223600000Y-154612112D01*
X223600000Y-154887888D01*
X223653801Y-155158365D01*
X223759336Y-155413149D01*
X223912549Y-155642448D01*
X224107552Y-155837451D01*
X224336851Y-155990664D01*
X224591635Y-156096199D01*
X224862112Y-156150000D01*
X225137888Y-156150000D01*
X225408365Y-156096199D01*
X225663149Y-155990664D01*
X225892448Y-155837451D01*
X226087451Y-155642448D01*
X226240664Y-155413149D01*
X226346199Y-155158365D01*
X226400000Y-154887888D01*
X226400000Y-154612112D01*
X226346199Y-154341635D01*
X226240664Y-154086851D01*
X226087451Y-153857552D01*
X225892448Y-153662549D01*
X225663149Y-153509336D01*
X225408365Y-153403801D01*
X225137888Y-153350000D01*
X224862112Y-153350000D01*
X224591635Y-153403801D01*
X224336851Y-153509336D01*
X224107552Y-153662549D01*
X223912549Y-153857552D01*
X223759336Y-154086851D01*
X223653801Y-154341635D01*
X223600000Y-154612112D01*
X201447101Y-154612112D01*
X201491374Y-154505228D01*
X201525000Y-154336180D01*
X201525000Y-154163820D01*
X201491374Y-153994772D01*
X201425415Y-153835532D01*
X201329657Y-153692220D01*
X201207780Y-153570343D01*
X201064468Y-153474585D01*
X200905228Y-153408626D01*
X200736180Y-153375000D01*
X200563820Y-153375000D01*
X200394772Y-153408626D01*
X200235532Y-153474585D01*
X200092220Y-153570343D01*
X199970343Y-153692220D01*
X199874585Y-153835532D01*
X199808626Y-153994772D01*
X199775000Y-154163820D01*
X190550000Y-154163820D01*
X190550000Y-152827007D01*
X190552660Y-152799999D01*
X190550000Y-152772991D01*
X190550000Y-152772982D01*
X190542042Y-152692181D01*
X190510592Y-152588506D01*
X190483866Y-152538505D01*
X190459521Y-152492957D01*
X190408013Y-152430195D01*
X190408008Y-152430190D01*
X190394574Y-152413820D01*
X198025000Y-152413820D01*
X198025000Y-152586180D01*
X198058626Y-152755228D01*
X198124585Y-152914468D01*
X198220343Y-153057780D01*
X198342220Y-153179657D01*
X198485532Y-153275415D01*
X198644772Y-153341374D01*
X198813820Y-153375000D01*
X198986180Y-153375000D01*
X199155228Y-153341374D01*
X199314468Y-153275415D01*
X199457780Y-153179657D01*
X199579657Y-153057780D01*
X199675415Y-152914468D01*
X199741374Y-152755228D01*
X199775000Y-152586180D01*
X199775000Y-152413820D01*
X199741374Y-152244772D01*
X199675415Y-152085532D01*
X199579657Y-151942220D01*
X199457780Y-151820343D01*
X199314468Y-151724585D01*
X199155228Y-151658626D01*
X198986180Y-151625000D01*
X198813820Y-151625000D01*
X198644772Y-151658626D01*
X198485532Y-151724585D01*
X198342220Y-151820343D01*
X198220343Y-151942220D01*
X198124585Y-152085532D01*
X198058626Y-152244772D01*
X198025000Y-152413820D01*
X190394574Y-152413820D01*
X190390790Y-152409210D01*
X190369810Y-152391992D01*
X188091638Y-150113820D01*
X201625000Y-150113820D01*
X201625000Y-150286180D01*
X201658626Y-150455228D01*
X201724585Y-150614468D01*
X201820343Y-150757780D01*
X201942220Y-150879657D01*
X202085532Y-150975415D01*
X202244772Y-151041374D01*
X202413820Y-151075000D01*
X202586180Y-151075000D01*
X202755228Y-151041374D01*
X202914468Y-150975415D01*
X203057780Y-150879657D01*
X203179657Y-150757780D01*
X203275415Y-150614468D01*
X203341374Y-150455228D01*
X203375000Y-150286180D01*
X203375000Y-150113820D01*
X203341374Y-149944772D01*
X203275415Y-149785532D01*
X203179657Y-149642220D01*
X203057780Y-149520343D01*
X202914468Y-149424585D01*
X202755228Y-149358626D01*
X202586180Y-149325000D01*
X202413820Y-149325000D01*
X202244772Y-149358626D01*
X202085532Y-149424585D01*
X201942220Y-149520343D01*
X201820343Y-149642220D01*
X201724585Y-149785532D01*
X201658626Y-149944772D01*
X201625000Y-150113820D01*
X188091638Y-150113820D01*
X186641638Y-148663820D01*
X197775000Y-148663820D01*
X197775000Y-148836180D01*
X197808626Y-149005228D01*
X197874585Y-149164468D01*
X197970343Y-149307780D01*
X198092220Y-149429657D01*
X198235532Y-149525415D01*
X198394772Y-149591374D01*
X198563820Y-149625000D01*
X198736180Y-149625000D01*
X198905228Y-149591374D01*
X199064468Y-149525415D01*
X199207780Y-149429657D01*
X199329657Y-149307780D01*
X199425415Y-149164468D01*
X199491374Y-149005228D01*
X199525000Y-148836180D01*
X199525000Y-148663820D01*
X199775000Y-148663820D01*
X199775000Y-148836180D01*
X199808626Y-149005228D01*
X199874585Y-149164468D01*
X199970343Y-149307780D01*
X200092220Y-149429657D01*
X200235532Y-149525415D01*
X200394772Y-149591374D01*
X200563820Y-149625000D01*
X200736180Y-149625000D01*
X200905228Y-149591374D01*
X201064468Y-149525415D01*
X201207780Y-149429657D01*
X201329657Y-149307780D01*
X201425415Y-149164468D01*
X201491374Y-149005228D01*
X201525000Y-148836180D01*
X201525000Y-148663820D01*
X201491374Y-148494772D01*
X201425415Y-148335532D01*
X201329657Y-148192220D01*
X201207780Y-148070343D01*
X201064468Y-147974585D01*
X200905228Y-147908626D01*
X200736180Y-147875000D01*
X200563820Y-147875000D01*
X200394772Y-147908626D01*
X200235532Y-147974585D01*
X200092220Y-148070343D01*
X199970343Y-148192220D01*
X199874585Y-148335532D01*
X199808626Y-148494772D01*
X199775000Y-148663820D01*
X199525000Y-148663820D01*
X199491374Y-148494772D01*
X199425415Y-148335532D01*
X199329657Y-148192220D01*
X199207780Y-148070343D01*
X199064468Y-147974585D01*
X198905228Y-147908626D01*
X198736180Y-147875000D01*
X198563820Y-147875000D01*
X198394772Y-147908626D01*
X198235532Y-147974585D01*
X198092220Y-148070343D01*
X197970343Y-148192220D01*
X197874585Y-148335532D01*
X197808626Y-148494772D01*
X197775000Y-148663820D01*
X186641638Y-148663820D01*
X184087500Y-146109683D01*
X184087500Y-142636016D01*
X184139482Y-142584034D01*
X184224296Y-142457100D01*
X184282717Y-142316059D01*
X184312500Y-142166331D01*
X184312500Y-142013669D01*
X184282717Y-141863941D01*
X184224296Y-141722900D01*
X184139482Y-141595966D01*
X184031534Y-141488018D01*
X183904600Y-141403204D01*
X183763559Y-141344783D01*
X183613831Y-141315000D01*
X183461169Y-141315000D01*
X183311441Y-141344783D01*
X183170400Y-141403204D01*
X183043466Y-141488018D01*
X183006250Y-141525234D01*
X182969034Y-141488018D01*
X182842100Y-141403204D01*
X182701059Y-141344783D01*
X182551331Y-141315000D01*
X182398669Y-141315000D01*
X182248941Y-141344783D01*
X182107900Y-141403204D01*
X181980966Y-141488018D01*
X181873018Y-141595966D01*
X181788204Y-141722900D01*
X181729783Y-141863941D01*
X181700000Y-142013669D01*
X181400000Y-142013669D01*
X181400000Y-138308669D01*
X197475000Y-138308669D01*
X197475000Y-138461331D01*
X197504783Y-138611059D01*
X197563204Y-138752100D01*
X197648018Y-138879034D01*
X197755966Y-138986982D01*
X197882900Y-139071796D01*
X198023941Y-139130217D01*
X198173669Y-139160000D01*
X198326331Y-139160000D01*
X198476059Y-139130217D01*
X198617100Y-139071796D01*
X198744034Y-138986982D01*
X198851982Y-138879034D01*
X198898998Y-138808669D01*
X199475000Y-138808669D01*
X199475000Y-138961331D01*
X199504783Y-139111059D01*
X199563204Y-139252100D01*
X199648018Y-139379034D01*
X199755966Y-139486982D01*
X199882900Y-139571796D01*
X200023941Y-139630217D01*
X200173669Y-139660000D01*
X200326331Y-139660000D01*
X200476059Y-139630217D01*
X200617100Y-139571796D01*
X200744034Y-139486982D01*
X200851982Y-139379034D01*
X200936796Y-139252100D01*
X200995217Y-139111059D01*
X201025000Y-138961331D01*
X201025000Y-138808669D01*
X200995217Y-138658941D01*
X200936796Y-138517900D01*
X200851982Y-138390966D01*
X200744034Y-138283018D01*
X200617100Y-138198204D01*
X200476059Y-138139783D01*
X200326331Y-138110000D01*
X200173669Y-138110000D01*
X200023941Y-138139783D01*
X199882900Y-138198204D01*
X199755966Y-138283018D01*
X199648018Y-138390966D01*
X199563204Y-138517900D01*
X199504783Y-138658941D01*
X199475000Y-138808669D01*
X198898998Y-138808669D01*
X198936796Y-138752100D01*
X198995217Y-138611059D01*
X199025000Y-138461331D01*
X199025000Y-138308669D01*
X198995217Y-138158941D01*
X198936796Y-138017900D01*
X198851982Y-137890966D01*
X198744034Y-137783018D01*
X198617100Y-137698204D01*
X198476059Y-137639783D01*
X198326331Y-137610000D01*
X198173669Y-137610000D01*
X198023941Y-137639783D01*
X197882900Y-137698204D01*
X197755966Y-137783018D01*
X197648018Y-137890966D01*
X197563204Y-138017900D01*
X197504783Y-138158941D01*
X197475000Y-138308669D01*
X181400000Y-138308669D01*
X181400000Y-134813669D01*
X187925000Y-134813669D01*
X187925000Y-134966331D01*
X187954783Y-135116059D01*
X188013204Y-135257100D01*
X188098018Y-135384034D01*
X188205966Y-135491982D01*
X188332900Y-135576796D01*
X188473941Y-135635217D01*
X188623669Y-135665000D01*
X188776331Y-135665000D01*
X188926059Y-135635217D01*
X189067100Y-135576796D01*
X189194034Y-135491982D01*
X189301982Y-135384034D01*
X189386796Y-135257100D01*
X189445217Y-135116059D01*
X189475000Y-134966331D01*
X189475000Y-134892818D01*
X189508012Y-134859806D01*
X189508017Y-134859800D01*
X190817817Y-133550000D01*
X192312183Y-133550000D01*
X191780200Y-134081983D01*
X191780194Y-134081988D01*
X191747182Y-134115000D01*
X191673669Y-134115000D01*
X191523941Y-134144783D01*
X191382900Y-134203204D01*
X191255966Y-134288018D01*
X191148018Y-134395966D01*
X191063204Y-134522900D01*
X191004783Y-134663941D01*
X190975000Y-134813669D01*
X190975000Y-134966331D01*
X191004783Y-135116059D01*
X191063204Y-135257100D01*
X191148018Y-135384034D01*
X191255966Y-135491982D01*
X191382900Y-135576796D01*
X191523941Y-135635217D01*
X191673669Y-135665000D01*
X191826331Y-135665000D01*
X191976059Y-135635217D01*
X192117100Y-135576796D01*
X192244034Y-135491982D01*
X192351982Y-135384034D01*
X192436796Y-135257100D01*
X192495217Y-135116059D01*
X192525000Y-134966331D01*
X192525000Y-134892818D01*
X192558012Y-134859806D01*
X192558017Y-134859800D01*
X193242818Y-134174999D01*
X199790417Y-134174999D01*
X199755966Y-134198018D01*
X199648018Y-134305966D01*
X199563204Y-134432900D01*
X199504783Y-134573941D01*
X199475000Y-134723669D01*
X199475000Y-134876331D01*
X199504783Y-135026059D01*
X199563204Y-135167100D01*
X199648018Y-135294034D01*
X199755966Y-135401982D01*
X199882900Y-135486796D01*
X200023941Y-135545217D01*
X200173669Y-135575000D01*
X200247183Y-135575000D01*
X207176992Y-142504810D01*
X207194210Y-142525790D01*
X207215190Y-142543008D01*
X207215195Y-142543013D01*
X207265180Y-142584034D01*
X207277958Y-142594521D01*
X207373506Y-142645592D01*
X207477181Y-142677042D01*
X207557982Y-142685000D01*
X207557991Y-142685000D01*
X207584999Y-142687660D01*
X207612007Y-142685000D01*
X210953984Y-142685000D01*
X211005966Y-142736982D01*
X211132900Y-142821796D01*
X211273941Y-142880217D01*
X211423669Y-142910000D01*
X211576331Y-142910000D01*
X211726059Y-142880217D01*
X211867100Y-142821796D01*
X211994034Y-142736982D01*
X212101982Y-142629034D01*
X212186796Y-142502100D01*
X212245217Y-142361059D01*
X212275000Y-142211331D01*
X212275000Y-142058669D01*
X212245217Y-141908941D01*
X212186796Y-141767900D01*
X212101982Y-141640966D01*
X211994034Y-141533018D01*
X211944619Y-141500000D01*
X211994034Y-141466982D01*
X212101982Y-141359034D01*
X212186796Y-141232100D01*
X212245217Y-141091059D01*
X212275000Y-140941331D01*
X212275000Y-140788669D01*
X212245217Y-140638941D01*
X212186796Y-140497900D01*
X212101982Y-140370966D01*
X211994034Y-140263018D01*
X211944619Y-140230000D01*
X211994034Y-140196982D01*
X212101982Y-140089034D01*
X212186796Y-139962100D01*
X212201291Y-139927106D01*
X216048994Y-143774810D01*
X216066212Y-143795790D01*
X216087192Y-143813008D01*
X216087197Y-143813013D01*
X216139099Y-143855607D01*
X216149960Y-143864521D01*
X216245508Y-143915592D01*
X216349183Y-143947042D01*
X216429984Y-143955000D01*
X216429993Y-143955000D01*
X216457001Y-143957660D01*
X216484009Y-143955000D01*
X220553984Y-143955000D01*
X220605966Y-144006982D01*
X220732900Y-144091796D01*
X220873941Y-144150217D01*
X221023669Y-144180000D01*
X221176331Y-144180000D01*
X221326059Y-144150217D01*
X221467100Y-144091796D01*
X221594034Y-144006982D01*
X221701982Y-143899034D01*
X221786796Y-143772100D01*
X221845217Y-143631059D01*
X221875000Y-143481331D01*
X221875000Y-143407817D01*
X223132818Y-142150000D01*
X224453984Y-142150000D01*
X224505966Y-142201982D01*
X224632900Y-142286796D01*
X224773941Y-142345217D01*
X224923669Y-142375000D01*
X225076331Y-142375000D01*
X225226059Y-142345217D01*
X225367100Y-142286796D01*
X225494034Y-142201982D01*
X225601982Y-142094034D01*
X225686796Y-141967100D01*
X225745217Y-141826059D01*
X225775000Y-141676331D01*
X225775000Y-141523669D01*
X225745217Y-141373941D01*
X225686796Y-141232900D01*
X225601982Y-141105966D01*
X225494034Y-140998018D01*
X225367100Y-140913204D01*
X225226059Y-140854783D01*
X225076331Y-140825000D01*
X224923669Y-140825000D01*
X224773941Y-140854783D01*
X224632900Y-140913204D01*
X224505966Y-140998018D01*
X224453984Y-141050000D01*
X222962818Y-141050000D01*
X223462818Y-140550000D01*
X225603984Y-140550000D01*
X225655966Y-140601982D01*
X225782900Y-140686796D01*
X225923941Y-140745217D01*
X226073669Y-140775000D01*
X226226331Y-140775000D01*
X226376059Y-140745217D01*
X226517100Y-140686796D01*
X226644034Y-140601982D01*
X226751982Y-140494034D01*
X226836796Y-140367100D01*
X226895217Y-140226059D01*
X226925000Y-140076331D01*
X226925000Y-139923669D01*
X226895217Y-139773941D01*
X226836796Y-139632900D01*
X226751982Y-139505966D01*
X226644034Y-139398018D01*
X226517100Y-139313204D01*
X226376059Y-139254783D01*
X226226331Y-139225000D01*
X226073669Y-139225000D01*
X225923941Y-139254783D01*
X225782900Y-139313204D01*
X225655966Y-139398018D01*
X225603984Y-139450000D01*
X223262008Y-139450000D01*
X223235000Y-139447340D01*
X223207992Y-139450000D01*
X223207982Y-139450000D01*
X223127181Y-139457958D01*
X223023506Y-139489408D01*
X222992528Y-139505966D01*
X222927958Y-139540479D01*
X222865195Y-139591987D01*
X222865190Y-139591992D01*
X222844210Y-139609210D01*
X222826992Y-139630190D01*
X221097183Y-141360000D01*
X221023669Y-141360000D01*
X220873941Y-141389783D01*
X220732900Y-141448204D01*
X220605966Y-141533018D01*
X220498018Y-141640966D01*
X220413204Y-141767900D01*
X220354783Y-141908941D01*
X220325000Y-142058669D01*
X220325000Y-142211331D01*
X220354783Y-142361059D01*
X220413204Y-142502100D01*
X220498018Y-142629034D01*
X220605966Y-142736982D01*
X220655381Y-142770000D01*
X220605966Y-142803018D01*
X220553984Y-142855000D01*
X216684820Y-142855000D01*
X212003489Y-138173669D01*
X218560000Y-138173669D01*
X218560000Y-138326331D01*
X218589783Y-138476059D01*
X218648204Y-138617100D01*
X218733018Y-138744034D01*
X218840966Y-138851982D01*
X218967900Y-138936796D01*
X219108941Y-138995217D01*
X219258669Y-139025000D01*
X219411331Y-139025000D01*
X219561059Y-138995217D01*
X219702100Y-138936796D01*
X219829034Y-138851982D01*
X219936982Y-138744034D01*
X220021796Y-138617100D01*
X220080217Y-138476059D01*
X220110000Y-138326331D01*
X220110000Y-138173669D01*
X220080217Y-138023941D01*
X220021796Y-137882900D01*
X219936982Y-137755966D01*
X219829034Y-137648018D01*
X219702100Y-137563204D01*
X219561059Y-137504783D01*
X219411331Y-137475000D01*
X219258669Y-137475000D01*
X219108941Y-137504783D01*
X218967900Y-137563204D01*
X218840966Y-137648018D01*
X218733018Y-137755966D01*
X218648204Y-137882900D01*
X218589783Y-138023941D01*
X218560000Y-138173669D01*
X212003489Y-138173669D01*
X210238489Y-136408669D01*
X213490000Y-136408669D01*
X213490000Y-136561331D01*
X213519783Y-136711059D01*
X213578204Y-136852100D01*
X213663018Y-136979034D01*
X213770966Y-137086982D01*
X213897900Y-137171796D01*
X214038941Y-137230217D01*
X214188669Y-137260000D01*
X214341331Y-137260000D01*
X214491059Y-137230217D01*
X214632100Y-137171796D01*
X214759034Y-137086982D01*
X214866982Y-136979034D01*
X214951796Y-136852100D01*
X215010217Y-136711059D01*
X215040000Y-136561331D01*
X215040000Y-136408669D01*
X215010217Y-136258941D01*
X214974897Y-136173669D01*
X217560000Y-136173669D01*
X217560000Y-136326331D01*
X217589783Y-136476059D01*
X217648204Y-136617100D01*
X217733018Y-136744034D01*
X217840966Y-136851982D01*
X217967900Y-136936796D01*
X218108941Y-136995217D01*
X218258669Y-137025000D01*
X218411331Y-137025000D01*
X218561059Y-136995217D01*
X218702100Y-136936796D01*
X218829034Y-136851982D01*
X218936982Y-136744034D01*
X219021796Y-136617100D01*
X219080217Y-136476059D01*
X219110000Y-136326331D01*
X219110000Y-136173669D01*
X219080217Y-136023941D01*
X219021796Y-135882900D01*
X218936982Y-135755966D01*
X218829034Y-135648018D01*
X218702100Y-135563204D01*
X218561059Y-135504783D01*
X218411331Y-135475000D01*
X218258669Y-135475000D01*
X218108941Y-135504783D01*
X217967900Y-135563204D01*
X217840966Y-135648018D01*
X217733018Y-135755966D01*
X217648204Y-135882900D01*
X217589783Y-136023941D01*
X217560000Y-136173669D01*
X214974897Y-136173669D01*
X214951796Y-136117900D01*
X214866982Y-135990966D01*
X214759034Y-135883018D01*
X214632100Y-135798204D01*
X214491059Y-135739783D01*
X214341331Y-135710000D01*
X214188669Y-135710000D01*
X214038941Y-135739783D01*
X213897900Y-135798204D01*
X213770966Y-135883018D01*
X213663018Y-135990966D01*
X213578204Y-136117900D01*
X213519783Y-136258941D01*
X213490000Y-136408669D01*
X210238489Y-136408669D01*
X208635016Y-134805197D01*
X208617793Y-134784211D01*
X208534045Y-134715480D01*
X208455822Y-134673669D01*
X222710000Y-134673669D01*
X222710000Y-134826331D01*
X222739783Y-134976059D01*
X222798204Y-135117100D01*
X222883018Y-135244034D01*
X222990966Y-135351982D01*
X223117900Y-135436796D01*
X223258941Y-135495217D01*
X223408669Y-135525000D01*
X223561331Y-135525000D01*
X223711059Y-135495217D01*
X223760094Y-135474906D01*
X223739783Y-135523941D01*
X223710000Y-135673669D01*
X223710000Y-135826331D01*
X223739783Y-135976059D01*
X223798204Y-136117100D01*
X223883018Y-136244034D01*
X223990966Y-136351982D01*
X224117900Y-136436796D01*
X224258941Y-136495217D01*
X224408669Y-136525000D01*
X224561331Y-136525000D01*
X224711059Y-136495217D01*
X224852100Y-136436796D01*
X224979034Y-136351982D01*
X225086982Y-136244034D01*
X225171796Y-136117100D01*
X225230217Y-135976059D01*
X225260000Y-135826331D01*
X225260000Y-135673669D01*
X225230217Y-135523941D01*
X225171796Y-135382900D01*
X225086982Y-135255966D01*
X224979034Y-135148018D01*
X224852100Y-135063204D01*
X224711059Y-135004783D01*
X224561331Y-134975000D01*
X224408669Y-134975000D01*
X224258941Y-135004783D01*
X224209906Y-135025094D01*
X224230217Y-134976059D01*
X224260000Y-134826331D01*
X224260000Y-134673669D01*
X224230217Y-134523941D01*
X224171796Y-134382900D01*
X224086982Y-134255966D01*
X223979034Y-134148018D01*
X223852100Y-134063204D01*
X223711059Y-134004783D01*
X223561331Y-133975000D01*
X223408669Y-133975000D01*
X223258941Y-134004783D01*
X223117900Y-134063204D01*
X222990966Y-134148018D01*
X222883018Y-134255966D01*
X222798204Y-134382900D01*
X222739783Y-134523941D01*
X222710000Y-134673669D01*
X208455822Y-134673669D01*
X208438497Y-134664409D01*
X208334822Y-134632959D01*
X208254021Y-134625001D01*
X208254011Y-134625001D01*
X208252923Y-134624894D01*
X208344805Y-134533012D01*
X208365791Y-134515789D01*
X208434522Y-134432041D01*
X208485593Y-134336493D01*
X208517043Y-134232818D01*
X208525001Y-134152017D01*
X208525001Y-134152008D01*
X208527661Y-134125000D01*
X208525001Y-134097992D01*
X208525001Y-128923669D01*
X208825000Y-128923669D01*
X208825000Y-129076331D01*
X208854783Y-129226059D01*
X208913204Y-129367100D01*
X208998018Y-129494034D01*
X209105966Y-129601982D01*
X209232900Y-129686796D01*
X209373941Y-129745217D01*
X209523669Y-129775000D01*
X209597182Y-129775000D01*
X209630194Y-129808012D01*
X209630199Y-129808016D01*
X211191992Y-131369810D01*
X211209210Y-131390790D01*
X211230190Y-131408008D01*
X211230195Y-131408013D01*
X211292957Y-131459521D01*
X211344028Y-131486818D01*
X211388506Y-131510592D01*
X211492181Y-131542042D01*
X211572982Y-131550000D01*
X211572991Y-131550000D01*
X211599999Y-131552660D01*
X211627007Y-131550000D01*
X222772183Y-131550000D01*
X227250001Y-136027819D01*
X227250000Y-137753984D01*
X227198018Y-137805966D01*
X227113204Y-137932900D01*
X227054783Y-138073941D01*
X227025000Y-138223669D01*
X227025000Y-138376331D01*
X227054783Y-138526059D01*
X227113204Y-138667100D01*
X227198018Y-138794034D01*
X227305966Y-138901982D01*
X227432900Y-138986796D01*
X227573941Y-139045217D01*
X227723669Y-139075000D01*
X227876331Y-139075000D01*
X228026059Y-139045217D01*
X228167100Y-138986796D01*
X228294034Y-138901982D01*
X228401982Y-138794034D01*
X228486796Y-138667100D01*
X228545217Y-138526059D01*
X228575000Y-138376331D01*
X228575000Y-138223669D01*
X228545217Y-138073941D01*
X228486796Y-137932900D01*
X228401982Y-137805966D01*
X228350000Y-137753984D01*
X228350000Y-135827007D01*
X228352660Y-135799999D01*
X228350000Y-135772991D01*
X228350000Y-135772982D01*
X228342042Y-135692181D01*
X228310592Y-135588506D01*
X228265842Y-135504783D01*
X228259521Y-135492957D01*
X228208013Y-135430195D01*
X228208008Y-135430190D01*
X228190790Y-135409210D01*
X228169810Y-135391992D01*
X223408012Y-130630195D01*
X223390790Y-130609210D01*
X223307042Y-130540479D01*
X223211494Y-130489408D01*
X223107819Y-130457958D01*
X223027018Y-130450000D01*
X223027008Y-130450000D01*
X223000000Y-130447340D01*
X222972992Y-130450000D01*
X211827818Y-130450000D01*
X210408016Y-129030199D01*
X210408012Y-129030194D01*
X210375000Y-128997182D01*
X210375000Y-128923669D01*
X210345217Y-128773941D01*
X210286796Y-128632900D01*
X210201982Y-128505966D01*
X210094034Y-128398018D01*
X209967100Y-128313204D01*
X209826059Y-128254783D01*
X209676331Y-128225000D01*
X209523669Y-128225000D01*
X209373941Y-128254783D01*
X209232900Y-128313204D01*
X209105966Y-128398018D01*
X208998018Y-128505966D01*
X208913204Y-128632900D01*
X208854783Y-128773941D01*
X208825000Y-128923669D01*
X208525001Y-128923669D01*
X208525001Y-126735814D01*
X209810816Y-125450000D01*
X226072992Y-125450000D01*
X226100000Y-125452660D01*
X226127008Y-125450000D01*
X226127018Y-125450000D01*
X226207819Y-125442042D01*
X226311494Y-125410592D01*
X226407042Y-125359521D01*
X226425913Y-125344034D01*
X226469804Y-125308013D01*
X226490790Y-125290790D01*
X226508013Y-125269804D01*
X227155424Y-124622394D01*
X227154783Y-124623941D01*
X227125000Y-124773669D01*
X227125000Y-124926331D01*
X227154783Y-125076059D01*
X227213204Y-125217100D01*
X227298018Y-125344034D01*
X227405966Y-125451982D01*
X227532900Y-125536796D01*
X227673941Y-125595217D01*
X227823669Y-125625000D01*
X227976331Y-125625000D01*
X228126059Y-125595217D01*
X228267100Y-125536796D01*
X228394034Y-125451982D01*
X228501982Y-125344034D01*
X228586796Y-125217100D01*
X228645217Y-125076059D01*
X228675000Y-124926331D01*
X228675000Y-124852817D01*
X230054810Y-123473008D01*
X230075790Y-123455790D01*
X230093008Y-123434810D01*
X230093013Y-123434805D01*
X230144520Y-123372043D01*
X230195591Y-123276495D01*
X230195592Y-123276494D01*
X230227042Y-123172819D01*
X230235000Y-123092018D01*
X230235000Y-123092009D01*
X230237660Y-123065001D01*
X230235000Y-123037993D01*
X230235000Y-115461016D01*
X230286982Y-115409034D01*
X230371796Y-115282100D01*
X230430217Y-115141059D01*
X230460000Y-114991331D01*
X230460000Y-114838669D01*
X230430217Y-114688941D01*
X230371796Y-114547900D01*
X230286982Y-114420966D01*
X230179034Y-114313018D01*
X230052100Y-114228204D01*
X229911059Y-114169783D01*
X229761331Y-114140000D01*
X229608669Y-114140000D01*
X229458941Y-114169783D01*
X229317900Y-114228204D01*
X229190966Y-114313018D01*
X229138984Y-114365000D01*
X218847007Y-114365000D01*
X218819999Y-114362340D01*
X218792991Y-114365000D01*
X218792982Y-114365000D01*
X218712181Y-114372958D01*
X218608506Y-114404408D01*
X218577528Y-114420966D01*
X218512957Y-114455479D01*
X218450195Y-114506987D01*
X218450190Y-114506992D01*
X218429210Y-114524210D01*
X218411992Y-114545190D01*
X216232183Y-116725000D01*
X216158669Y-116725000D01*
X216008941Y-116754783D01*
X215867900Y-116813204D01*
X215740966Y-116898018D01*
X215633018Y-117005966D01*
X215548204Y-117132900D01*
X215489783Y-117273941D01*
X215460000Y-117423669D01*
X215460000Y-117576331D01*
X215489783Y-117726059D01*
X215548204Y-117867100D01*
X215633018Y-117994034D01*
X215740966Y-118101982D01*
X215867900Y-118186796D01*
X216008941Y-118245217D01*
X216158669Y-118275000D01*
X216311331Y-118275000D01*
X216461059Y-118245217D01*
X216602100Y-118186796D01*
X216729034Y-118101982D01*
X216836982Y-117994034D01*
X216921796Y-117867100D01*
X216980217Y-117726059D01*
X217010000Y-117576331D01*
X217010000Y-117502817D01*
X219047818Y-115465000D01*
X229135000Y-115465000D01*
X229135001Y-122837181D01*
X227897183Y-124075000D01*
X227823669Y-124075000D01*
X227673941Y-124104783D01*
X227672407Y-124105419D01*
X227672439Y-124105379D01*
X227672444Y-124105374D01*
X227723952Y-124042612D01*
X227775022Y-123947064D01*
X227775023Y-123947063D01*
X227806473Y-123843388D01*
X227814431Y-123762587D01*
X227814431Y-123762578D01*
X227817091Y-123735570D01*
X227814431Y-123708562D01*
X227814431Y-122531585D01*
X227866413Y-122479603D01*
X227951227Y-122352669D01*
X228009648Y-122211628D01*
X228039431Y-122061900D01*
X228039431Y-121909238D01*
X228009648Y-121759510D01*
X227951227Y-121618469D01*
X227866413Y-121491535D01*
X227758465Y-121383587D01*
X227631531Y-121298773D01*
X227490490Y-121240352D01*
X227340762Y-121210569D01*
X227188100Y-121210569D01*
X227038372Y-121240352D01*
X226897331Y-121298773D01*
X226770397Y-121383587D01*
X226662449Y-121491535D01*
X226577635Y-121618469D01*
X226519214Y-121759510D01*
X226489431Y-121909238D01*
X226489431Y-122061900D01*
X226519214Y-122211628D01*
X226577635Y-122352669D01*
X226662449Y-122479603D01*
X226714431Y-122531585D01*
X226714431Y-122578271D01*
X226714432Y-122578281D01*
X226714431Y-123507751D01*
X225872183Y-124350000D01*
X209610005Y-124350000D01*
X209582997Y-124347340D01*
X209555989Y-124350000D01*
X209555980Y-124350000D01*
X209475179Y-124357958D01*
X209371504Y-124389408D01*
X209327026Y-124413182D01*
X209275955Y-124440479D01*
X209213193Y-124491987D01*
X209213188Y-124491992D01*
X209192208Y-124509210D01*
X209174990Y-124530190D01*
X207605192Y-126099989D01*
X207584212Y-126117207D01*
X207566994Y-126138187D01*
X207566988Y-126138193D01*
X207515480Y-126200955D01*
X207464410Y-126296503D01*
X207432960Y-126400179D01*
X207422341Y-126507997D01*
X207425002Y-126535015D01*
X207425001Y-131654573D01*
X207276331Y-131625000D01*
X207123669Y-131625000D01*
X206973941Y-131654783D01*
X206832900Y-131713204D01*
X206705966Y-131798018D01*
X206700000Y-131803984D01*
X206694034Y-131798018D01*
X206567100Y-131713204D01*
X206426059Y-131654783D01*
X206276331Y-131625000D01*
X206123669Y-131625000D01*
X205973941Y-131654783D01*
X205832900Y-131713204D01*
X205705966Y-131798018D01*
X205598018Y-131905966D01*
X205513204Y-132032900D01*
X205454783Y-132173941D01*
X205425000Y-132323669D01*
X205425000Y-132397183D01*
X205372183Y-132450000D01*
X190617011Y-132450000D01*
X190590000Y-132447340D01*
X190562989Y-132450000D01*
X190562982Y-132450000D01*
X190482181Y-132457958D01*
X190378506Y-132489408D01*
X190282958Y-132540479D01*
X190262009Y-132557672D01*
X190199210Y-132609210D01*
X190181987Y-132630196D01*
X188730200Y-134081983D01*
X188730194Y-134081988D01*
X188697182Y-134115000D01*
X188623669Y-134115000D01*
X188473941Y-134144783D01*
X188332900Y-134203204D01*
X188205966Y-134288018D01*
X188098018Y-134395966D01*
X188013204Y-134522900D01*
X187954783Y-134663941D01*
X187925000Y-134813669D01*
X181400000Y-134813669D01*
X181400000Y-130808669D01*
X183225000Y-130808669D01*
X183225000Y-130961331D01*
X183254783Y-131111059D01*
X183313204Y-131252100D01*
X183398018Y-131379034D01*
X183505966Y-131486982D01*
X183632900Y-131571796D01*
X183773941Y-131630217D01*
X183923669Y-131660000D01*
X184076331Y-131660000D01*
X184226059Y-131630217D01*
X184367100Y-131571796D01*
X184494034Y-131486982D01*
X184601982Y-131379034D01*
X184686796Y-131252100D01*
X184745217Y-131111059D01*
X184775000Y-130961331D01*
X184775000Y-130808669D01*
X184745217Y-130658941D01*
X184686796Y-130517900D01*
X184601982Y-130390966D01*
X184494034Y-130283018D01*
X184367100Y-130198204D01*
X184226059Y-130139783D01*
X184076331Y-130110000D01*
X183923669Y-130110000D01*
X183773941Y-130139783D01*
X183632900Y-130198204D01*
X183505966Y-130283018D01*
X183398018Y-130390966D01*
X183313204Y-130517900D01*
X183254783Y-130658941D01*
X183225000Y-130808669D01*
X181400000Y-130808669D01*
X181400000Y-127764574D01*
X181625000Y-127764574D01*
X181625000Y-128035426D01*
X181677841Y-128301073D01*
X181781491Y-128551307D01*
X181931968Y-128776511D01*
X182123489Y-128968032D01*
X182348693Y-129118509D01*
X182598927Y-129222159D01*
X182864574Y-129275000D01*
X183135426Y-129275000D01*
X183401073Y-129222159D01*
X183651307Y-129118509D01*
X183876511Y-128968032D01*
X184068032Y-128776511D01*
X184218509Y-128551307D01*
X184322159Y-128301073D01*
X184375000Y-128035426D01*
X184375000Y-127764574D01*
X188125000Y-127764574D01*
X188125000Y-128035426D01*
X188177841Y-128301073D01*
X188281491Y-128551307D01*
X188431968Y-128776511D01*
X188623489Y-128968032D01*
X188848693Y-129118509D01*
X189098927Y-129222159D01*
X189364574Y-129275000D01*
X189635426Y-129275000D01*
X189901073Y-129222159D01*
X190151307Y-129118509D01*
X190376511Y-128968032D01*
X190568032Y-128776511D01*
X190718509Y-128551307D01*
X190822159Y-128301073D01*
X190875000Y-128035426D01*
X190875000Y-127764574D01*
X190822159Y-127498927D01*
X190718509Y-127248693D01*
X190568032Y-127023489D01*
X190376511Y-126831968D01*
X190151307Y-126681491D01*
X189901073Y-126577841D01*
X189635426Y-126525000D01*
X189364574Y-126525000D01*
X189098927Y-126577841D01*
X188848693Y-126681491D01*
X188623489Y-126831968D01*
X188431968Y-127023489D01*
X188281491Y-127248693D01*
X188177841Y-127498927D01*
X188125000Y-127764574D01*
X184375000Y-127764574D01*
X184322159Y-127498927D01*
X184218509Y-127248693D01*
X184068032Y-127023489D01*
X183876511Y-126831968D01*
X183651307Y-126681491D01*
X183401073Y-126577841D01*
X183135426Y-126525000D01*
X182864574Y-126525000D01*
X182598927Y-126577841D01*
X182348693Y-126681491D01*
X182123489Y-126831968D01*
X181931968Y-127023489D01*
X181781491Y-127248693D01*
X181677841Y-127498927D01*
X181625000Y-127764574D01*
X181400000Y-127764574D01*
X181400000Y-125708837D01*
X191885000Y-125708837D01*
X191885000Y-126291162D01*
X191903014Y-126474062D01*
X191974205Y-126708745D01*
X192089812Y-126925031D01*
X192245392Y-127114608D01*
X192434968Y-127270188D01*
X192651254Y-127385795D01*
X192885937Y-127456986D01*
X193130000Y-127481024D01*
X193374062Y-127456986D01*
X193608745Y-127385795D01*
X193825031Y-127270188D01*
X194014608Y-127114608D01*
X194170188Y-126925032D01*
X194285795Y-126708746D01*
X194356986Y-126474063D01*
X194375000Y-126291163D01*
X194375000Y-125708838D01*
X194375000Y-125708837D01*
X196965000Y-125708837D01*
X196965000Y-126291162D01*
X196983014Y-126474062D01*
X197054205Y-126708745D01*
X197169812Y-126925031D01*
X197325392Y-127114608D01*
X197514968Y-127270188D01*
X197731254Y-127385795D01*
X197965937Y-127456986D01*
X198210000Y-127481024D01*
X198454062Y-127456986D01*
X198688745Y-127385795D01*
X198905031Y-127270188D01*
X199094608Y-127114608D01*
X199250188Y-126925032D01*
X199365795Y-126708746D01*
X199436986Y-126474063D01*
X199455000Y-126291163D01*
X199455000Y-125708838D01*
X199436986Y-125525938D01*
X199365795Y-125291255D01*
X199290293Y-125149999D01*
X199503186Y-125149999D01*
X199503186Y-126850001D01*
X199515230Y-126972286D01*
X199550899Y-127089872D01*
X199608823Y-127198240D01*
X199686775Y-127293225D01*
X199781760Y-127371177D01*
X199890128Y-127429101D01*
X200007714Y-127464770D01*
X200129999Y-127476814D01*
X201370001Y-127476814D01*
X201492286Y-127464770D01*
X201609872Y-127429101D01*
X201718240Y-127371177D01*
X201813225Y-127293225D01*
X201891177Y-127198240D01*
X201949101Y-127089872D01*
X201984770Y-126972286D01*
X201996814Y-126850001D01*
X201996814Y-125149999D01*
X201984770Y-125027714D01*
X201949101Y-124910128D01*
X201891177Y-124801760D01*
X201813225Y-124706775D01*
X201718240Y-124628823D01*
X201609872Y-124570899D01*
X201492286Y-124535230D01*
X201370001Y-124523186D01*
X200129999Y-124523186D01*
X200007714Y-124535230D01*
X199890128Y-124570899D01*
X199781760Y-124628823D01*
X199686775Y-124706775D01*
X199608823Y-124801760D01*
X199550899Y-124910128D01*
X199515230Y-125027714D01*
X199503186Y-125149999D01*
X199290293Y-125149999D01*
X199250188Y-125074968D01*
X199094608Y-124885392D01*
X198905032Y-124729812D01*
X198688746Y-124614205D01*
X198454063Y-124543014D01*
X198210000Y-124518976D01*
X197965938Y-124543014D01*
X197731255Y-124614205D01*
X197514969Y-124729812D01*
X197325393Y-124885392D01*
X197169813Y-125074968D01*
X197054205Y-125291254D01*
X196983014Y-125525937D01*
X196965000Y-125708837D01*
X194375000Y-125708837D01*
X194356986Y-125525938D01*
X194285795Y-125291255D01*
X194170188Y-125074968D01*
X194014608Y-124885392D01*
X193825032Y-124729812D01*
X193608746Y-124614205D01*
X193374063Y-124543014D01*
X193130000Y-124518976D01*
X192885938Y-124543014D01*
X192651255Y-124614205D01*
X192434969Y-124729812D01*
X192245393Y-124885392D01*
X192089813Y-125074968D01*
X191974205Y-125291254D01*
X191903014Y-125525937D01*
X191885000Y-125708837D01*
X181400000Y-125708837D01*
X181400000Y-121808669D01*
X222225000Y-121808669D01*
X222225000Y-121961331D01*
X222254783Y-122111059D01*
X222313204Y-122252100D01*
X222398018Y-122379034D01*
X222505966Y-122486982D01*
X222632900Y-122571796D01*
X222773941Y-122630217D01*
X222923669Y-122660000D01*
X223076331Y-122660000D01*
X223226059Y-122630217D01*
X223367100Y-122571796D01*
X223494034Y-122486982D01*
X223601982Y-122379034D01*
X223686796Y-122252100D01*
X223745217Y-122111059D01*
X223775000Y-121961331D01*
X223775000Y-121808669D01*
X223745217Y-121658941D01*
X223686796Y-121517900D01*
X223601982Y-121390966D01*
X223550000Y-121338984D01*
X223550000Y-120827132D01*
X225460000Y-118917133D01*
X225460000Y-118976331D01*
X225489783Y-119126059D01*
X225548204Y-119267100D01*
X225633018Y-119394034D01*
X225740966Y-119501982D01*
X225867900Y-119586796D01*
X226008941Y-119645217D01*
X226158669Y-119675000D01*
X226311331Y-119675000D01*
X226461059Y-119645217D01*
X226602100Y-119586796D01*
X226729034Y-119501982D01*
X226836982Y-119394034D01*
X226921796Y-119267100D01*
X226980217Y-119126059D01*
X227010000Y-118976331D01*
X227010000Y-118823669D01*
X226980217Y-118673941D01*
X226921796Y-118532900D01*
X226836982Y-118405966D01*
X226729034Y-118298018D01*
X226602100Y-118213204D01*
X226461059Y-118154783D01*
X226311331Y-118125000D01*
X226252133Y-118125000D01*
X226818420Y-117558712D01*
X226882900Y-117601796D01*
X227023941Y-117660217D01*
X227173669Y-117690000D01*
X227326331Y-117690000D01*
X227476059Y-117660217D01*
X227617100Y-117601796D01*
X227744034Y-117516982D01*
X227851982Y-117409034D01*
X227936796Y-117282100D01*
X227995217Y-117141059D01*
X228025000Y-116991331D01*
X228025000Y-116838669D01*
X227995217Y-116688941D01*
X227936796Y-116547900D01*
X227851982Y-116420966D01*
X227744034Y-116313018D01*
X227617100Y-116228204D01*
X227476059Y-116169783D01*
X227326331Y-116140000D01*
X227173669Y-116140000D01*
X227023941Y-116169783D01*
X226882900Y-116228204D01*
X226755966Y-116313018D01*
X226704642Y-116364342D01*
X226684314Y-116362340D01*
X226657306Y-116365000D01*
X226657297Y-116365000D01*
X226576496Y-116372958D01*
X226472821Y-116404408D01*
X226377273Y-116455479D01*
X226377271Y-116455480D01*
X226377272Y-116455480D01*
X226314510Y-116506987D01*
X226314505Y-116506992D01*
X226293525Y-116524210D01*
X226276307Y-116545190D01*
X226007981Y-116813517D01*
X225980217Y-116673941D01*
X225921796Y-116532900D01*
X225836982Y-116405966D01*
X225729034Y-116298018D01*
X225602100Y-116213204D01*
X225461059Y-116154783D01*
X225311331Y-116125000D01*
X225158669Y-116125000D01*
X225008941Y-116154783D01*
X224867900Y-116213204D01*
X224740966Y-116298018D01*
X224633018Y-116405966D01*
X224548204Y-116532900D01*
X224489783Y-116673941D01*
X224460000Y-116823669D01*
X224460000Y-116976331D01*
X224489783Y-117126059D01*
X224548204Y-117267100D01*
X224633018Y-117394034D01*
X224740966Y-117501982D01*
X224867900Y-117586796D01*
X225008941Y-117645217D01*
X225148517Y-117672981D01*
X222630196Y-120191302D01*
X222609210Y-120208525D01*
X222540479Y-120292273D01*
X222489408Y-120387822D01*
X222457958Y-120491497D01*
X222450000Y-120572298D01*
X222450000Y-120572307D01*
X222447340Y-120599315D01*
X222450000Y-120626323D01*
X222450000Y-121338984D01*
X222398018Y-121390966D01*
X222313204Y-121517900D01*
X222254783Y-121658941D01*
X222225000Y-121808669D01*
X181400000Y-121808669D01*
X181400000Y-120423669D01*
X212960000Y-120423669D01*
X212960000Y-120576331D01*
X212989783Y-120726059D01*
X213048204Y-120867100D01*
X213133018Y-120994034D01*
X213240966Y-121101982D01*
X213367900Y-121186796D01*
X213508941Y-121245217D01*
X213658669Y-121275000D01*
X213811331Y-121275000D01*
X213961059Y-121245217D01*
X214102100Y-121186796D01*
X214229034Y-121101982D01*
X214336982Y-120994034D01*
X214421796Y-120867100D01*
X214480217Y-120726059D01*
X214510000Y-120576331D01*
X214510000Y-120423669D01*
X214480217Y-120273941D01*
X214421796Y-120132900D01*
X214358834Y-120038669D01*
X219425000Y-120038669D01*
X219425000Y-120191331D01*
X219454783Y-120341059D01*
X219513204Y-120482100D01*
X219598018Y-120609034D01*
X219705966Y-120716982D01*
X219832900Y-120801796D01*
X219973941Y-120860217D01*
X220123669Y-120890000D01*
X220276331Y-120890000D01*
X220426059Y-120860217D01*
X220567100Y-120801796D01*
X220694034Y-120716982D01*
X220801982Y-120609034D01*
X220886796Y-120482100D01*
X220945217Y-120341059D01*
X220975000Y-120191331D01*
X220975000Y-120038669D01*
X220945217Y-119888941D01*
X220886796Y-119747900D01*
X220801982Y-119620966D01*
X220694034Y-119513018D01*
X220567100Y-119428204D01*
X220426059Y-119369783D01*
X220276331Y-119340000D01*
X220123669Y-119340000D01*
X219973941Y-119369783D01*
X219832900Y-119428204D01*
X219705966Y-119513018D01*
X219598018Y-119620966D01*
X219513204Y-119747900D01*
X219454783Y-119888941D01*
X219425000Y-120038669D01*
X214358834Y-120038669D01*
X214336982Y-120005966D01*
X214229034Y-119898018D01*
X214102100Y-119813204D01*
X213961059Y-119754783D01*
X213811331Y-119725000D01*
X213658669Y-119725000D01*
X213508941Y-119754783D01*
X213367900Y-119813204D01*
X213240966Y-119898018D01*
X213133018Y-120005966D01*
X213048204Y-120132900D01*
X212989783Y-120273941D01*
X212960000Y-120423669D01*
X181400000Y-120423669D01*
X181400000Y-119408669D01*
X183225000Y-119408669D01*
X183225000Y-119561331D01*
X183254783Y-119711059D01*
X183313204Y-119852100D01*
X183398018Y-119979034D01*
X183505966Y-120086982D01*
X183632900Y-120171796D01*
X183773941Y-120230217D01*
X183923669Y-120260000D01*
X184076331Y-120260000D01*
X184226059Y-120230217D01*
X184367100Y-120171796D01*
X184494034Y-120086982D01*
X184601982Y-119979034D01*
X184686796Y-119852100D01*
X184745217Y-119711059D01*
X184775000Y-119561331D01*
X184775000Y-119408669D01*
X193025000Y-119408669D01*
X193025000Y-119561331D01*
X193054783Y-119711059D01*
X193113204Y-119852100D01*
X193198018Y-119979034D01*
X193305966Y-120086982D01*
X193432900Y-120171796D01*
X193573941Y-120230217D01*
X193723669Y-120260000D01*
X193876331Y-120260000D01*
X194026059Y-120230217D01*
X194167100Y-120171796D01*
X194294034Y-120086982D01*
X194401982Y-119979034D01*
X194486796Y-119852100D01*
X194545217Y-119711059D01*
X194575000Y-119561331D01*
X194575000Y-119408669D01*
X194545217Y-119258941D01*
X194486796Y-119117900D01*
X194401982Y-118990966D01*
X194294034Y-118883018D01*
X194167100Y-118798204D01*
X194026059Y-118739783D01*
X193876331Y-118710000D01*
X193723669Y-118710000D01*
X193573941Y-118739783D01*
X193432900Y-118798204D01*
X193305966Y-118883018D01*
X193198018Y-118990966D01*
X193113204Y-119117900D01*
X193054783Y-119258941D01*
X193025000Y-119408669D01*
X184775000Y-119408669D01*
X184745217Y-119258941D01*
X184686796Y-119117900D01*
X184601982Y-118990966D01*
X184494034Y-118883018D01*
X184367100Y-118798204D01*
X184226059Y-118739783D01*
X184076331Y-118710000D01*
X183923669Y-118710000D01*
X183773941Y-118739783D01*
X183632900Y-118798204D01*
X183505966Y-118883018D01*
X183398018Y-118990966D01*
X183313204Y-119117900D01*
X183254783Y-119258941D01*
X183225000Y-119408669D01*
X181400000Y-119408669D01*
X181400000Y-118423669D01*
X211960000Y-118423669D01*
X211960000Y-118576331D01*
X211989783Y-118726059D01*
X212048204Y-118867100D01*
X212133018Y-118994034D01*
X212240966Y-119101982D01*
X212367900Y-119186796D01*
X212508941Y-119245217D01*
X212658669Y-119275000D01*
X212811331Y-119275000D01*
X212961059Y-119245217D01*
X213102100Y-119186796D01*
X213229034Y-119101982D01*
X213336982Y-118994034D01*
X213421796Y-118867100D01*
X213480217Y-118726059D01*
X213510000Y-118576331D01*
X213510000Y-118423669D01*
X213480217Y-118273941D01*
X213421796Y-118132900D01*
X213336982Y-118005966D01*
X213229034Y-117898018D01*
X213102100Y-117813204D01*
X212961059Y-117754783D01*
X212811331Y-117725000D01*
X212658669Y-117725000D01*
X212508941Y-117754783D01*
X212367900Y-117813204D01*
X212240966Y-117898018D01*
X212133018Y-118005966D01*
X212048204Y-118132900D01*
X211989783Y-118273941D01*
X211960000Y-118423669D01*
X181400000Y-118423669D01*
X181400000Y-116364574D01*
X181625000Y-116364574D01*
X181625000Y-116635426D01*
X181677841Y-116901073D01*
X181781491Y-117151307D01*
X181931968Y-117376511D01*
X182123489Y-117568032D01*
X182348693Y-117718509D01*
X182598927Y-117822159D01*
X182864574Y-117875000D01*
X183135426Y-117875000D01*
X183401073Y-117822159D01*
X183651307Y-117718509D01*
X183876511Y-117568032D01*
X184068032Y-117376511D01*
X184218509Y-117151307D01*
X184322159Y-116901073D01*
X184375000Y-116635426D01*
X184375000Y-116364574D01*
X188125000Y-116364574D01*
X188125000Y-116635426D01*
X188177841Y-116901073D01*
X188281491Y-117151307D01*
X188431968Y-117376511D01*
X188623489Y-117568032D01*
X188848693Y-117718509D01*
X189098927Y-117822159D01*
X189364574Y-117875000D01*
X189635426Y-117875000D01*
X189901073Y-117822159D01*
X190151307Y-117718509D01*
X190376511Y-117568032D01*
X190568032Y-117376511D01*
X190718509Y-117151307D01*
X190822159Y-116901073D01*
X190875000Y-116635426D01*
X190875000Y-116364574D01*
X191425000Y-116364574D01*
X191425000Y-116635426D01*
X191477841Y-116901073D01*
X191581491Y-117151307D01*
X191731968Y-117376511D01*
X191923489Y-117568032D01*
X192148693Y-117718509D01*
X192398927Y-117822159D01*
X192664574Y-117875000D01*
X192935426Y-117875000D01*
X193201073Y-117822159D01*
X193451307Y-117718509D01*
X193676511Y-117568032D01*
X193868032Y-117376511D01*
X194018509Y-117151307D01*
X194122159Y-116901073D01*
X194175000Y-116635426D01*
X194175000Y-116364574D01*
X197925000Y-116364574D01*
X197925000Y-116635426D01*
X197977841Y-116901073D01*
X198081491Y-117151307D01*
X198231968Y-117376511D01*
X198423489Y-117568032D01*
X198648693Y-117718509D01*
X198898927Y-117822159D01*
X199164574Y-117875000D01*
X199435426Y-117875000D01*
X199701073Y-117822159D01*
X199951307Y-117718509D01*
X200176511Y-117568032D01*
X200368032Y-117376511D01*
X200518509Y-117151307D01*
X200622159Y-116901073D01*
X200675000Y-116635426D01*
X200675000Y-116364574D01*
X200622159Y-116098927D01*
X200518509Y-115848693D01*
X200368032Y-115623489D01*
X200176511Y-115431968D01*
X199951307Y-115281491D01*
X199701073Y-115177841D01*
X199435426Y-115125000D01*
X199164574Y-115125000D01*
X198898927Y-115177841D01*
X198648693Y-115281491D01*
X198423489Y-115431968D01*
X198231968Y-115623489D01*
X198081491Y-115848693D01*
X197977841Y-116098927D01*
X197925000Y-116364574D01*
X194175000Y-116364574D01*
X194122159Y-116098927D01*
X194018509Y-115848693D01*
X193868032Y-115623489D01*
X193676511Y-115431968D01*
X193451307Y-115281491D01*
X193201073Y-115177841D01*
X192935426Y-115125000D01*
X192664574Y-115125000D01*
X192398927Y-115177841D01*
X192148693Y-115281491D01*
X191923489Y-115431968D01*
X191731968Y-115623489D01*
X191581491Y-115848693D01*
X191477841Y-116098927D01*
X191425000Y-116364574D01*
X190875000Y-116364574D01*
X190822159Y-116098927D01*
X190718509Y-115848693D01*
X190568032Y-115623489D01*
X190376511Y-115431968D01*
X190151307Y-115281491D01*
X189901073Y-115177841D01*
X189635426Y-115125000D01*
X189364574Y-115125000D01*
X189098927Y-115177841D01*
X188848693Y-115281491D01*
X188623489Y-115431968D01*
X188431968Y-115623489D01*
X188281491Y-115848693D01*
X188177841Y-116098927D01*
X188125000Y-116364574D01*
X184375000Y-116364574D01*
X184322159Y-116098927D01*
X184218509Y-115848693D01*
X184068032Y-115623489D01*
X183876511Y-115431968D01*
X183651307Y-115281491D01*
X183401073Y-115177841D01*
X183135426Y-115125000D01*
X182864574Y-115125000D01*
X182598927Y-115177841D01*
X182348693Y-115281491D01*
X182123489Y-115431968D01*
X181931968Y-115623489D01*
X181781491Y-115848693D01*
X181677841Y-116098927D01*
X181625000Y-116364574D01*
X181400000Y-116364574D01*
X181400000Y-110400000D01*
X230600000Y-110400000D01*
X230600001Y-159600000D01*
G37*
X230600001Y-159600000D02*
X182689539Y-159600000D01*
X182837421Y-159555140D01*
X183006802Y-159464605D01*
X183155265Y-159342765D01*
X183277105Y-159194302D01*
X183367640Y-159024921D01*
X183423392Y-158841133D01*
X183442217Y-158650000D01*
X183423392Y-158458867D01*
X183367640Y-158275079D01*
X183277105Y-158105698D01*
X183155265Y-157957235D01*
X183006802Y-157835395D01*
X182837421Y-157744860D01*
X182653633Y-157689108D01*
X182510392Y-157675000D01*
X181714608Y-157675000D01*
X181571367Y-157689108D01*
X181400000Y-157741092D01*
X181400000Y-157541659D01*
X183712500Y-157541659D01*
X183712500Y-157758341D01*
X183754773Y-157970858D01*
X183837693Y-158171045D01*
X183958075Y-158351209D01*
X184111291Y-158504425D01*
X184291455Y-158624807D01*
X184491642Y-158707727D01*
X184704159Y-158750000D01*
X184920841Y-158750000D01*
X185133358Y-158707727D01*
X185333545Y-158624807D01*
X185513709Y-158504425D01*
X185666925Y-158351209D01*
X185787307Y-158171045D01*
X185870227Y-157970858D01*
X185912500Y-157758341D01*
X185912500Y-157541659D01*
X185870227Y-157329142D01*
X185787307Y-157128955D01*
X185666925Y-156948791D01*
X185513709Y-156795575D01*
X185333545Y-156675193D01*
X185133358Y-156592273D01*
X184920841Y-156550000D01*
X184704159Y-156550000D01*
X184491642Y-156592273D01*
X184291455Y-156675193D01*
X184111291Y-156795575D01*
X183958075Y-156948791D01*
X183837693Y-157128955D01*
X183754773Y-157329142D01*
X183712500Y-157541659D01*
X181400000Y-157541659D01*
X181400000Y-152558908D01*
X181571367Y-152610892D01*
X181714608Y-152625000D01*
X182510392Y-152625000D01*
X182653633Y-152610892D01*
X182837421Y-152555140D01*
X182862642Y-152541659D01*
X183712500Y-152541659D01*
X183712500Y-152758341D01*
X183754773Y-152970858D01*
X183837693Y-153171045D01*
X183958075Y-153351209D01*
X184111291Y-153504425D01*
X184291455Y-153624807D01*
X184491642Y-153707727D01*
X184704159Y-153750000D01*
X184920841Y-153750000D01*
X185133358Y-153707727D01*
X185333545Y-153624807D01*
X185513709Y-153504425D01*
X185666925Y-153351209D01*
X185787307Y-153171045D01*
X185870227Y-152970858D01*
X185912500Y-152758341D01*
X185912500Y-152541659D01*
X185870227Y-152329142D01*
X185787307Y-152128955D01*
X185666925Y-151948791D01*
X185513709Y-151795575D01*
X185333545Y-151675193D01*
X185133358Y-151592273D01*
X184920841Y-151550000D01*
X184704159Y-151550000D01*
X184491642Y-151592273D01*
X184291455Y-151675193D01*
X184111291Y-151795575D01*
X183958075Y-151948791D01*
X183837693Y-152128955D01*
X183754773Y-152329142D01*
X183712500Y-152541659D01*
X182862642Y-152541659D01*
X183006802Y-152464605D01*
X183155265Y-152342765D01*
X183277105Y-152194302D01*
X183367640Y-152024921D01*
X183423392Y-151841133D01*
X183442217Y-151650000D01*
X183423392Y-151458867D01*
X183367640Y-151275079D01*
X183277105Y-151105698D01*
X183155265Y-150957235D01*
X183006802Y-150835395D01*
X182837421Y-150744860D01*
X182653633Y-150689108D01*
X182510392Y-150675000D01*
X181714608Y-150675000D01*
X181571367Y-150689108D01*
X181400000Y-150741092D01*
X181400000Y-142013669D01*
X181700000Y-142013669D01*
X181700000Y-142166331D01*
X181729783Y-142316059D01*
X181788204Y-142457100D01*
X181873018Y-142584034D01*
X181925000Y-142636016D01*
X181925000Y-142682702D01*
X181925001Y-142682712D01*
X181925000Y-146197992D01*
X181922340Y-146225000D01*
X181925000Y-146252008D01*
X181925000Y-146252017D01*
X181932958Y-146332818D01*
X181964408Y-146436493D01*
X182015479Y-146532042D01*
X182084210Y-146615790D01*
X182105196Y-146633013D01*
X188450001Y-152977818D01*
X188450000Y-156353984D01*
X188398018Y-156405966D01*
X188313204Y-156532900D01*
X188254783Y-156673941D01*
X188225000Y-156823669D01*
X188225000Y-156976331D01*
X188254783Y-157126059D01*
X188313204Y-157267100D01*
X188398018Y-157394034D01*
X188505966Y-157501982D01*
X188632900Y-157586796D01*
X188773941Y-157645217D01*
X188923669Y-157675000D01*
X189076331Y-157675000D01*
X189226059Y-157645217D01*
X189367100Y-157586796D01*
X189494034Y-157501982D01*
X189500000Y-157496016D01*
X189505966Y-157501982D01*
X189632900Y-157586796D01*
X189773941Y-157645217D01*
X189923669Y-157675000D01*
X190076331Y-157675000D01*
X190226059Y-157645217D01*
X190367100Y-157586796D01*
X190494034Y-157501982D01*
X190601982Y-157394034D01*
X190686796Y-157267100D01*
X190745217Y-157126059D01*
X190775000Y-156976331D01*
X190775000Y-156823669D01*
X190745217Y-156673941D01*
X190686796Y-156532900D01*
X190601982Y-156405966D01*
X190550000Y-156353984D01*
X190550000Y-154163820D01*
X199775000Y-154163820D01*
X199775000Y-154336180D01*
X199808626Y-154505228D01*
X199874585Y-154664468D01*
X199970343Y-154807780D01*
X200092220Y-154929657D01*
X200235532Y-155025415D01*
X200394772Y-155091374D01*
X200563820Y-155125000D01*
X200736180Y-155125000D01*
X200905228Y-155091374D01*
X201064468Y-155025415D01*
X201207780Y-154929657D01*
X201329657Y-154807780D01*
X201425415Y-154664468D01*
X201447101Y-154612112D01*
X223600000Y-154612112D01*
X223600000Y-154887888D01*
X223653801Y-155158365D01*
X223759336Y-155413149D01*
X223912549Y-155642448D01*
X224107552Y-155837451D01*
X224336851Y-155990664D01*
X224591635Y-156096199D01*
X224862112Y-156150000D01*
X225137888Y-156150000D01*
X225408365Y-156096199D01*
X225663149Y-155990664D01*
X225892448Y-155837451D01*
X226087451Y-155642448D01*
X226240664Y-155413149D01*
X226346199Y-155158365D01*
X226400000Y-154887888D01*
X226400000Y-154612112D01*
X226346199Y-154341635D01*
X226240664Y-154086851D01*
X226087451Y-153857552D01*
X225892448Y-153662549D01*
X225663149Y-153509336D01*
X225408365Y-153403801D01*
X225137888Y-153350000D01*
X224862112Y-153350000D01*
X224591635Y-153403801D01*
X224336851Y-153509336D01*
X224107552Y-153662549D01*
X223912549Y-153857552D01*
X223759336Y-154086851D01*
X223653801Y-154341635D01*
X223600000Y-154612112D01*
X201447101Y-154612112D01*
X201491374Y-154505228D01*
X201525000Y-154336180D01*
X201525000Y-154163820D01*
X201491374Y-153994772D01*
X201425415Y-153835532D01*
X201329657Y-153692220D01*
X201207780Y-153570343D01*
X201064468Y-153474585D01*
X200905228Y-153408626D01*
X200736180Y-153375000D01*
X200563820Y-153375000D01*
X200394772Y-153408626D01*
X200235532Y-153474585D01*
X200092220Y-153570343D01*
X199970343Y-153692220D01*
X199874585Y-153835532D01*
X199808626Y-153994772D01*
X199775000Y-154163820D01*
X190550000Y-154163820D01*
X190550000Y-152827007D01*
X190552660Y-152799999D01*
X190550000Y-152772991D01*
X190550000Y-152772982D01*
X190542042Y-152692181D01*
X190510592Y-152588506D01*
X190483866Y-152538505D01*
X190459521Y-152492957D01*
X190408013Y-152430195D01*
X190408008Y-152430190D01*
X190394574Y-152413820D01*
X198025000Y-152413820D01*
X198025000Y-152586180D01*
X198058626Y-152755228D01*
X198124585Y-152914468D01*
X198220343Y-153057780D01*
X198342220Y-153179657D01*
X198485532Y-153275415D01*
X198644772Y-153341374D01*
X198813820Y-153375000D01*
X198986180Y-153375000D01*
X199155228Y-153341374D01*
X199314468Y-153275415D01*
X199457780Y-153179657D01*
X199579657Y-153057780D01*
X199675415Y-152914468D01*
X199741374Y-152755228D01*
X199775000Y-152586180D01*
X199775000Y-152413820D01*
X199741374Y-152244772D01*
X199675415Y-152085532D01*
X199579657Y-151942220D01*
X199457780Y-151820343D01*
X199314468Y-151724585D01*
X199155228Y-151658626D01*
X198986180Y-151625000D01*
X198813820Y-151625000D01*
X198644772Y-151658626D01*
X198485532Y-151724585D01*
X198342220Y-151820343D01*
X198220343Y-151942220D01*
X198124585Y-152085532D01*
X198058626Y-152244772D01*
X198025000Y-152413820D01*
X190394574Y-152413820D01*
X190390790Y-152409210D01*
X190369810Y-152391992D01*
X188091638Y-150113820D01*
X201625000Y-150113820D01*
X201625000Y-150286180D01*
X201658626Y-150455228D01*
X201724585Y-150614468D01*
X201820343Y-150757780D01*
X201942220Y-150879657D01*
X202085532Y-150975415D01*
X202244772Y-151041374D01*
X202413820Y-151075000D01*
X202586180Y-151075000D01*
X202755228Y-151041374D01*
X202914468Y-150975415D01*
X203057780Y-150879657D01*
X203179657Y-150757780D01*
X203275415Y-150614468D01*
X203341374Y-150455228D01*
X203375000Y-150286180D01*
X203375000Y-150113820D01*
X203341374Y-149944772D01*
X203275415Y-149785532D01*
X203179657Y-149642220D01*
X203057780Y-149520343D01*
X202914468Y-149424585D01*
X202755228Y-149358626D01*
X202586180Y-149325000D01*
X202413820Y-149325000D01*
X202244772Y-149358626D01*
X202085532Y-149424585D01*
X201942220Y-149520343D01*
X201820343Y-149642220D01*
X201724585Y-149785532D01*
X201658626Y-149944772D01*
X201625000Y-150113820D01*
X188091638Y-150113820D01*
X186641638Y-148663820D01*
X197775000Y-148663820D01*
X197775000Y-148836180D01*
X197808626Y-149005228D01*
X197874585Y-149164468D01*
X197970343Y-149307780D01*
X198092220Y-149429657D01*
X198235532Y-149525415D01*
X198394772Y-149591374D01*
X198563820Y-149625000D01*
X198736180Y-149625000D01*
X198905228Y-149591374D01*
X199064468Y-149525415D01*
X199207780Y-149429657D01*
X199329657Y-149307780D01*
X199425415Y-149164468D01*
X199491374Y-149005228D01*
X199525000Y-148836180D01*
X199525000Y-148663820D01*
X199775000Y-148663820D01*
X199775000Y-148836180D01*
X199808626Y-149005228D01*
X199874585Y-149164468D01*
X199970343Y-149307780D01*
X200092220Y-149429657D01*
X200235532Y-149525415D01*
X200394772Y-149591374D01*
X200563820Y-149625000D01*
X200736180Y-149625000D01*
X200905228Y-149591374D01*
X201064468Y-149525415D01*
X201207780Y-149429657D01*
X201329657Y-149307780D01*
X201425415Y-149164468D01*
X201491374Y-149005228D01*
X201525000Y-148836180D01*
X201525000Y-148663820D01*
X201491374Y-148494772D01*
X201425415Y-148335532D01*
X201329657Y-148192220D01*
X201207780Y-148070343D01*
X201064468Y-147974585D01*
X200905228Y-147908626D01*
X200736180Y-147875000D01*
X200563820Y-147875000D01*
X200394772Y-147908626D01*
X200235532Y-147974585D01*
X200092220Y-148070343D01*
X199970343Y-148192220D01*
X199874585Y-148335532D01*
X199808626Y-148494772D01*
X199775000Y-148663820D01*
X199525000Y-148663820D01*
X199491374Y-148494772D01*
X199425415Y-148335532D01*
X199329657Y-148192220D01*
X199207780Y-148070343D01*
X199064468Y-147974585D01*
X198905228Y-147908626D01*
X198736180Y-147875000D01*
X198563820Y-147875000D01*
X198394772Y-147908626D01*
X198235532Y-147974585D01*
X198092220Y-148070343D01*
X197970343Y-148192220D01*
X197874585Y-148335532D01*
X197808626Y-148494772D01*
X197775000Y-148663820D01*
X186641638Y-148663820D01*
X184087500Y-146109683D01*
X184087500Y-142636016D01*
X184139482Y-142584034D01*
X184224296Y-142457100D01*
X184282717Y-142316059D01*
X184312500Y-142166331D01*
X184312500Y-142013669D01*
X184282717Y-141863941D01*
X184224296Y-141722900D01*
X184139482Y-141595966D01*
X184031534Y-141488018D01*
X183904600Y-141403204D01*
X183763559Y-141344783D01*
X183613831Y-141315000D01*
X183461169Y-141315000D01*
X183311441Y-141344783D01*
X183170400Y-141403204D01*
X183043466Y-141488018D01*
X183006250Y-141525234D01*
X182969034Y-141488018D01*
X182842100Y-141403204D01*
X182701059Y-141344783D01*
X182551331Y-141315000D01*
X182398669Y-141315000D01*
X182248941Y-141344783D01*
X182107900Y-141403204D01*
X181980966Y-141488018D01*
X181873018Y-141595966D01*
X181788204Y-141722900D01*
X181729783Y-141863941D01*
X181700000Y-142013669D01*
X181400000Y-142013669D01*
X181400000Y-138308669D01*
X197475000Y-138308669D01*
X197475000Y-138461331D01*
X197504783Y-138611059D01*
X197563204Y-138752100D01*
X197648018Y-138879034D01*
X197755966Y-138986982D01*
X197882900Y-139071796D01*
X198023941Y-139130217D01*
X198173669Y-139160000D01*
X198326331Y-139160000D01*
X198476059Y-139130217D01*
X198617100Y-139071796D01*
X198744034Y-138986982D01*
X198851982Y-138879034D01*
X198898998Y-138808669D01*
X199475000Y-138808669D01*
X199475000Y-138961331D01*
X199504783Y-139111059D01*
X199563204Y-139252100D01*
X199648018Y-139379034D01*
X199755966Y-139486982D01*
X199882900Y-139571796D01*
X200023941Y-139630217D01*
X200173669Y-139660000D01*
X200326331Y-139660000D01*
X200476059Y-139630217D01*
X200617100Y-139571796D01*
X200744034Y-139486982D01*
X200851982Y-139379034D01*
X200936796Y-139252100D01*
X200995217Y-139111059D01*
X201025000Y-138961331D01*
X201025000Y-138808669D01*
X200995217Y-138658941D01*
X200936796Y-138517900D01*
X200851982Y-138390966D01*
X200744034Y-138283018D01*
X200617100Y-138198204D01*
X200476059Y-138139783D01*
X200326331Y-138110000D01*
X200173669Y-138110000D01*
X200023941Y-138139783D01*
X199882900Y-138198204D01*
X199755966Y-138283018D01*
X199648018Y-138390966D01*
X199563204Y-138517900D01*
X199504783Y-138658941D01*
X199475000Y-138808669D01*
X198898998Y-138808669D01*
X198936796Y-138752100D01*
X198995217Y-138611059D01*
X199025000Y-138461331D01*
X199025000Y-138308669D01*
X198995217Y-138158941D01*
X198936796Y-138017900D01*
X198851982Y-137890966D01*
X198744034Y-137783018D01*
X198617100Y-137698204D01*
X198476059Y-137639783D01*
X198326331Y-137610000D01*
X198173669Y-137610000D01*
X198023941Y-137639783D01*
X197882900Y-137698204D01*
X197755966Y-137783018D01*
X197648018Y-137890966D01*
X197563204Y-138017900D01*
X197504783Y-138158941D01*
X197475000Y-138308669D01*
X181400000Y-138308669D01*
X181400000Y-134813669D01*
X187925000Y-134813669D01*
X187925000Y-134966331D01*
X187954783Y-135116059D01*
X188013204Y-135257100D01*
X188098018Y-135384034D01*
X188205966Y-135491982D01*
X188332900Y-135576796D01*
X188473941Y-135635217D01*
X188623669Y-135665000D01*
X188776331Y-135665000D01*
X188926059Y-135635217D01*
X189067100Y-135576796D01*
X189194034Y-135491982D01*
X189301982Y-135384034D01*
X189386796Y-135257100D01*
X189445217Y-135116059D01*
X189475000Y-134966331D01*
X189475000Y-134892818D01*
X189508012Y-134859806D01*
X189508017Y-134859800D01*
X190817817Y-133550000D01*
X192312183Y-133550000D01*
X191780200Y-134081983D01*
X191780194Y-134081988D01*
X191747182Y-134115000D01*
X191673669Y-134115000D01*
X191523941Y-134144783D01*
X191382900Y-134203204D01*
X191255966Y-134288018D01*
X191148018Y-134395966D01*
X191063204Y-134522900D01*
X191004783Y-134663941D01*
X190975000Y-134813669D01*
X190975000Y-134966331D01*
X191004783Y-135116059D01*
X191063204Y-135257100D01*
X191148018Y-135384034D01*
X191255966Y-135491982D01*
X191382900Y-135576796D01*
X191523941Y-135635217D01*
X191673669Y-135665000D01*
X191826331Y-135665000D01*
X191976059Y-135635217D01*
X192117100Y-135576796D01*
X192244034Y-135491982D01*
X192351982Y-135384034D01*
X192436796Y-135257100D01*
X192495217Y-135116059D01*
X192525000Y-134966331D01*
X192525000Y-134892818D01*
X192558012Y-134859806D01*
X192558017Y-134859800D01*
X193242818Y-134174999D01*
X199790417Y-134174999D01*
X199755966Y-134198018D01*
X199648018Y-134305966D01*
X199563204Y-134432900D01*
X199504783Y-134573941D01*
X199475000Y-134723669D01*
X199475000Y-134876331D01*
X199504783Y-135026059D01*
X199563204Y-135167100D01*
X199648018Y-135294034D01*
X199755966Y-135401982D01*
X199882900Y-135486796D01*
X200023941Y-135545217D01*
X200173669Y-135575000D01*
X200247183Y-135575000D01*
X207176992Y-142504810D01*
X207194210Y-142525790D01*
X207215190Y-142543008D01*
X207215195Y-142543013D01*
X207265180Y-142584034D01*
X207277958Y-142594521D01*
X207373506Y-142645592D01*
X207477181Y-142677042D01*
X207557982Y-142685000D01*
X207557991Y-142685000D01*
X207584999Y-142687660D01*
X207612007Y-142685000D01*
X210953984Y-142685000D01*
X211005966Y-142736982D01*
X211132900Y-142821796D01*
X211273941Y-142880217D01*
X211423669Y-142910000D01*
X211576331Y-142910000D01*
X211726059Y-142880217D01*
X211867100Y-142821796D01*
X211994034Y-142736982D01*
X212101982Y-142629034D01*
X212186796Y-142502100D01*
X212245217Y-142361059D01*
X212275000Y-142211331D01*
X212275000Y-142058669D01*
X212245217Y-141908941D01*
X212186796Y-141767900D01*
X212101982Y-141640966D01*
X211994034Y-141533018D01*
X211944619Y-141500000D01*
X211994034Y-141466982D01*
X212101982Y-141359034D01*
X212186796Y-141232100D01*
X212245217Y-141091059D01*
X212275000Y-140941331D01*
X212275000Y-140788669D01*
X212245217Y-140638941D01*
X212186796Y-140497900D01*
X212101982Y-140370966D01*
X211994034Y-140263018D01*
X211944619Y-140230000D01*
X211994034Y-140196982D01*
X212101982Y-140089034D01*
X212186796Y-139962100D01*
X212201291Y-139927106D01*
X216048994Y-143774810D01*
X216066212Y-143795790D01*
X216087192Y-143813008D01*
X216087197Y-143813013D01*
X216139099Y-143855607D01*
X216149960Y-143864521D01*
X216245508Y-143915592D01*
X216349183Y-143947042D01*
X216429984Y-143955000D01*
X216429993Y-143955000D01*
X216457001Y-143957660D01*
X216484009Y-143955000D01*
X220553984Y-143955000D01*
X220605966Y-144006982D01*
X220732900Y-144091796D01*
X220873941Y-144150217D01*
X221023669Y-144180000D01*
X221176331Y-144180000D01*
X221326059Y-144150217D01*
X221467100Y-144091796D01*
X221594034Y-144006982D01*
X221701982Y-143899034D01*
X221786796Y-143772100D01*
X221845217Y-143631059D01*
X221875000Y-143481331D01*
X221875000Y-143407817D01*
X223132818Y-142150000D01*
X224453984Y-142150000D01*
X224505966Y-142201982D01*
X224632900Y-142286796D01*
X224773941Y-142345217D01*
X224923669Y-142375000D01*
X225076331Y-142375000D01*
X225226059Y-142345217D01*
X225367100Y-142286796D01*
X225494034Y-142201982D01*
X225601982Y-142094034D01*
X225686796Y-141967100D01*
X225745217Y-141826059D01*
X225775000Y-141676331D01*
X225775000Y-141523669D01*
X225745217Y-141373941D01*
X225686796Y-141232900D01*
X225601982Y-141105966D01*
X225494034Y-140998018D01*
X225367100Y-140913204D01*
X225226059Y-140854783D01*
X225076331Y-140825000D01*
X224923669Y-140825000D01*
X224773941Y-140854783D01*
X224632900Y-140913204D01*
X224505966Y-140998018D01*
X224453984Y-141050000D01*
X222962818Y-141050000D01*
X223462818Y-140550000D01*
X225603984Y-140550000D01*
X225655966Y-140601982D01*
X225782900Y-140686796D01*
X225923941Y-140745217D01*
X226073669Y-140775000D01*
X226226331Y-140775000D01*
X226376059Y-140745217D01*
X226517100Y-140686796D01*
X226644034Y-140601982D01*
X226751982Y-140494034D01*
X226836796Y-140367100D01*
X226895217Y-140226059D01*
X226925000Y-140076331D01*
X226925000Y-139923669D01*
X226895217Y-139773941D01*
X226836796Y-139632900D01*
X226751982Y-139505966D01*
X226644034Y-139398018D01*
X226517100Y-139313204D01*
X226376059Y-139254783D01*
X226226331Y-139225000D01*
X226073669Y-139225000D01*
X225923941Y-139254783D01*
X225782900Y-139313204D01*
X225655966Y-139398018D01*
X225603984Y-139450000D01*
X223262008Y-139450000D01*
X223235000Y-139447340D01*
X223207992Y-139450000D01*
X223207982Y-139450000D01*
X223127181Y-139457958D01*
X223023506Y-139489408D01*
X222992528Y-139505966D01*
X222927958Y-139540479D01*
X222865195Y-139591987D01*
X222865190Y-139591992D01*
X222844210Y-139609210D01*
X222826992Y-139630190D01*
X221097183Y-141360000D01*
X221023669Y-141360000D01*
X220873941Y-141389783D01*
X220732900Y-141448204D01*
X220605966Y-141533018D01*
X220498018Y-141640966D01*
X220413204Y-141767900D01*
X220354783Y-141908941D01*
X220325000Y-142058669D01*
X220325000Y-142211331D01*
X220354783Y-142361059D01*
X220413204Y-142502100D01*
X220498018Y-142629034D01*
X220605966Y-142736982D01*
X220655381Y-142770000D01*
X220605966Y-142803018D01*
X220553984Y-142855000D01*
X216684820Y-142855000D01*
X212003489Y-138173669D01*
X218560000Y-138173669D01*
X218560000Y-138326331D01*
X218589783Y-138476059D01*
X218648204Y-138617100D01*
X218733018Y-138744034D01*
X218840966Y-138851982D01*
X218967900Y-138936796D01*
X219108941Y-138995217D01*
X219258669Y-139025000D01*
X219411331Y-139025000D01*
X219561059Y-138995217D01*
X219702100Y-138936796D01*
X219829034Y-138851982D01*
X219936982Y-138744034D01*
X220021796Y-138617100D01*
X220080217Y-138476059D01*
X220110000Y-138326331D01*
X220110000Y-138173669D01*
X220080217Y-138023941D01*
X220021796Y-137882900D01*
X219936982Y-137755966D01*
X219829034Y-137648018D01*
X219702100Y-137563204D01*
X219561059Y-137504783D01*
X219411331Y-137475000D01*
X219258669Y-137475000D01*
X219108941Y-137504783D01*
X218967900Y-137563204D01*
X218840966Y-137648018D01*
X218733018Y-137755966D01*
X218648204Y-137882900D01*
X218589783Y-138023941D01*
X218560000Y-138173669D01*
X212003489Y-138173669D01*
X210238489Y-136408669D01*
X213490000Y-136408669D01*
X213490000Y-136561331D01*
X213519783Y-136711059D01*
X213578204Y-136852100D01*
X213663018Y-136979034D01*
X213770966Y-137086982D01*
X213897900Y-137171796D01*
X214038941Y-137230217D01*
X214188669Y-137260000D01*
X214341331Y-137260000D01*
X214491059Y-137230217D01*
X214632100Y-137171796D01*
X214759034Y-137086982D01*
X214866982Y-136979034D01*
X214951796Y-136852100D01*
X215010217Y-136711059D01*
X215040000Y-136561331D01*
X215040000Y-136408669D01*
X215010217Y-136258941D01*
X214974897Y-136173669D01*
X217560000Y-136173669D01*
X217560000Y-136326331D01*
X217589783Y-136476059D01*
X217648204Y-136617100D01*
X217733018Y-136744034D01*
X217840966Y-136851982D01*
X217967900Y-136936796D01*
X218108941Y-136995217D01*
X218258669Y-137025000D01*
X218411331Y-137025000D01*
X218561059Y-136995217D01*
X218702100Y-136936796D01*
X218829034Y-136851982D01*
X218936982Y-136744034D01*
X219021796Y-136617100D01*
X219080217Y-136476059D01*
X219110000Y-136326331D01*
X219110000Y-136173669D01*
X219080217Y-136023941D01*
X219021796Y-135882900D01*
X218936982Y-135755966D01*
X218829034Y-135648018D01*
X218702100Y-135563204D01*
X218561059Y-135504783D01*
X218411331Y-135475000D01*
X218258669Y-135475000D01*
X218108941Y-135504783D01*
X217967900Y-135563204D01*
X217840966Y-135648018D01*
X217733018Y-135755966D01*
X217648204Y-135882900D01*
X217589783Y-136023941D01*
X217560000Y-136173669D01*
X214974897Y-136173669D01*
X214951796Y-136117900D01*
X214866982Y-135990966D01*
X214759034Y-135883018D01*
X214632100Y-135798204D01*
X214491059Y-135739783D01*
X214341331Y-135710000D01*
X214188669Y-135710000D01*
X214038941Y-135739783D01*
X213897900Y-135798204D01*
X213770966Y-135883018D01*
X213663018Y-135990966D01*
X213578204Y-136117900D01*
X213519783Y-136258941D01*
X213490000Y-136408669D01*
X210238489Y-136408669D01*
X208635016Y-134805197D01*
X208617793Y-134784211D01*
X208534045Y-134715480D01*
X208455822Y-134673669D01*
X222710000Y-134673669D01*
X222710000Y-134826331D01*
X222739783Y-134976059D01*
X222798204Y-135117100D01*
X222883018Y-135244034D01*
X222990966Y-135351982D01*
X223117900Y-135436796D01*
X223258941Y-135495217D01*
X223408669Y-135525000D01*
X223561331Y-135525000D01*
X223711059Y-135495217D01*
X223760094Y-135474906D01*
X223739783Y-135523941D01*
X223710000Y-135673669D01*
X223710000Y-135826331D01*
X223739783Y-135976059D01*
X223798204Y-136117100D01*
X223883018Y-136244034D01*
X223990966Y-136351982D01*
X224117900Y-136436796D01*
X224258941Y-136495217D01*
X224408669Y-136525000D01*
X224561331Y-136525000D01*
X224711059Y-136495217D01*
X224852100Y-136436796D01*
X224979034Y-136351982D01*
X225086982Y-136244034D01*
X225171796Y-136117100D01*
X225230217Y-135976059D01*
X225260000Y-135826331D01*
X225260000Y-135673669D01*
X225230217Y-135523941D01*
X225171796Y-135382900D01*
X225086982Y-135255966D01*
X224979034Y-135148018D01*
X224852100Y-135063204D01*
X224711059Y-135004783D01*
X224561331Y-134975000D01*
X224408669Y-134975000D01*
X224258941Y-135004783D01*
X224209906Y-135025094D01*
X224230217Y-134976059D01*
X224260000Y-134826331D01*
X224260000Y-134673669D01*
X224230217Y-134523941D01*
X224171796Y-134382900D01*
X224086982Y-134255966D01*
X223979034Y-134148018D01*
X223852100Y-134063204D01*
X223711059Y-134004783D01*
X223561331Y-133975000D01*
X223408669Y-133975000D01*
X223258941Y-134004783D01*
X223117900Y-134063204D01*
X222990966Y-134148018D01*
X222883018Y-134255966D01*
X222798204Y-134382900D01*
X222739783Y-134523941D01*
X222710000Y-134673669D01*
X208455822Y-134673669D01*
X208438497Y-134664409D01*
X208334822Y-134632959D01*
X208254021Y-134625001D01*
X208254011Y-134625001D01*
X208252923Y-134624894D01*
X208344805Y-134533012D01*
X208365791Y-134515789D01*
X208434522Y-134432041D01*
X208485593Y-134336493D01*
X208517043Y-134232818D01*
X208525001Y-134152017D01*
X208525001Y-134152008D01*
X208527661Y-134125000D01*
X208525001Y-134097992D01*
X208525001Y-128923669D01*
X208825000Y-128923669D01*
X208825000Y-129076331D01*
X208854783Y-129226059D01*
X208913204Y-129367100D01*
X208998018Y-129494034D01*
X209105966Y-129601982D01*
X209232900Y-129686796D01*
X209373941Y-129745217D01*
X209523669Y-129775000D01*
X209597182Y-129775000D01*
X209630194Y-129808012D01*
X209630199Y-129808016D01*
X211191992Y-131369810D01*
X211209210Y-131390790D01*
X211230190Y-131408008D01*
X211230195Y-131408013D01*
X211292957Y-131459521D01*
X211344028Y-131486818D01*
X211388506Y-131510592D01*
X211492181Y-131542042D01*
X211572982Y-131550000D01*
X211572991Y-131550000D01*
X211599999Y-131552660D01*
X211627007Y-131550000D01*
X222772183Y-131550000D01*
X227250001Y-136027819D01*
X227250000Y-137753984D01*
X227198018Y-137805966D01*
X227113204Y-137932900D01*
X227054783Y-138073941D01*
X227025000Y-138223669D01*
X227025000Y-138376331D01*
X227054783Y-138526059D01*
X227113204Y-138667100D01*
X227198018Y-138794034D01*
X227305966Y-138901982D01*
X227432900Y-138986796D01*
X227573941Y-139045217D01*
X227723669Y-139075000D01*
X227876331Y-139075000D01*
X228026059Y-139045217D01*
X228167100Y-138986796D01*
X228294034Y-138901982D01*
X228401982Y-138794034D01*
X228486796Y-138667100D01*
X228545217Y-138526059D01*
X228575000Y-138376331D01*
X228575000Y-138223669D01*
X228545217Y-138073941D01*
X228486796Y-137932900D01*
X228401982Y-137805966D01*
X228350000Y-137753984D01*
X228350000Y-135827007D01*
X228352660Y-135799999D01*
X228350000Y-135772991D01*
X228350000Y-135772982D01*
X228342042Y-135692181D01*
X228310592Y-135588506D01*
X228265842Y-135504783D01*
X228259521Y-135492957D01*
X228208013Y-135430195D01*
X228208008Y-135430190D01*
X228190790Y-135409210D01*
X228169810Y-135391992D01*
X223408012Y-130630195D01*
X223390790Y-130609210D01*
X223307042Y-130540479D01*
X223211494Y-130489408D01*
X223107819Y-130457958D01*
X223027018Y-130450000D01*
X223027008Y-130450000D01*
X223000000Y-130447340D01*
X222972992Y-130450000D01*
X211827818Y-130450000D01*
X210408016Y-129030199D01*
X210408012Y-129030194D01*
X210375000Y-128997182D01*
X210375000Y-128923669D01*
X210345217Y-128773941D01*
X210286796Y-128632900D01*
X210201982Y-128505966D01*
X210094034Y-128398018D01*
X209967100Y-128313204D01*
X209826059Y-128254783D01*
X209676331Y-128225000D01*
X209523669Y-128225000D01*
X209373941Y-128254783D01*
X209232900Y-128313204D01*
X209105966Y-128398018D01*
X208998018Y-128505966D01*
X208913204Y-128632900D01*
X208854783Y-128773941D01*
X208825000Y-128923669D01*
X208525001Y-128923669D01*
X208525001Y-126735814D01*
X209810816Y-125450000D01*
X226072992Y-125450000D01*
X226100000Y-125452660D01*
X226127008Y-125450000D01*
X226127018Y-125450000D01*
X226207819Y-125442042D01*
X226311494Y-125410592D01*
X226407042Y-125359521D01*
X226425913Y-125344034D01*
X226469804Y-125308013D01*
X226490790Y-125290790D01*
X226508013Y-125269804D01*
X227155424Y-124622394D01*
X227154783Y-124623941D01*
X227125000Y-124773669D01*
X227125000Y-124926331D01*
X227154783Y-125076059D01*
X227213204Y-125217100D01*
X227298018Y-125344034D01*
X227405966Y-125451982D01*
X227532900Y-125536796D01*
X227673941Y-125595217D01*
X227823669Y-125625000D01*
X227976331Y-125625000D01*
X228126059Y-125595217D01*
X228267100Y-125536796D01*
X228394034Y-125451982D01*
X228501982Y-125344034D01*
X228586796Y-125217100D01*
X228645217Y-125076059D01*
X228675000Y-124926331D01*
X228675000Y-124852817D01*
X230054810Y-123473008D01*
X230075790Y-123455790D01*
X230093008Y-123434810D01*
X230093013Y-123434805D01*
X230144520Y-123372043D01*
X230195591Y-123276495D01*
X230195592Y-123276494D01*
X230227042Y-123172819D01*
X230235000Y-123092018D01*
X230235000Y-123092009D01*
X230237660Y-123065001D01*
X230235000Y-123037993D01*
X230235000Y-115461016D01*
X230286982Y-115409034D01*
X230371796Y-115282100D01*
X230430217Y-115141059D01*
X230460000Y-114991331D01*
X230460000Y-114838669D01*
X230430217Y-114688941D01*
X230371796Y-114547900D01*
X230286982Y-114420966D01*
X230179034Y-114313018D01*
X230052100Y-114228204D01*
X229911059Y-114169783D01*
X229761331Y-114140000D01*
X229608669Y-114140000D01*
X229458941Y-114169783D01*
X229317900Y-114228204D01*
X229190966Y-114313018D01*
X229138984Y-114365000D01*
X218847007Y-114365000D01*
X218819999Y-114362340D01*
X218792991Y-114365000D01*
X218792982Y-114365000D01*
X218712181Y-114372958D01*
X218608506Y-114404408D01*
X218577528Y-114420966D01*
X218512957Y-114455479D01*
X218450195Y-114506987D01*
X218450190Y-114506992D01*
X218429210Y-114524210D01*
X218411992Y-114545190D01*
X216232183Y-116725000D01*
X216158669Y-116725000D01*
X216008941Y-116754783D01*
X215867900Y-116813204D01*
X215740966Y-116898018D01*
X215633018Y-117005966D01*
X215548204Y-117132900D01*
X215489783Y-117273941D01*
X215460000Y-117423669D01*
X215460000Y-117576331D01*
X215489783Y-117726059D01*
X215548204Y-117867100D01*
X215633018Y-117994034D01*
X215740966Y-118101982D01*
X215867900Y-118186796D01*
X216008941Y-118245217D01*
X216158669Y-118275000D01*
X216311331Y-118275000D01*
X216461059Y-118245217D01*
X216602100Y-118186796D01*
X216729034Y-118101982D01*
X216836982Y-117994034D01*
X216921796Y-117867100D01*
X216980217Y-117726059D01*
X217010000Y-117576331D01*
X217010000Y-117502817D01*
X219047818Y-115465000D01*
X229135000Y-115465000D01*
X229135001Y-122837181D01*
X227897183Y-124075000D01*
X227823669Y-124075000D01*
X227673941Y-124104783D01*
X227672407Y-124105419D01*
X227672439Y-124105379D01*
X227672444Y-124105374D01*
X227723952Y-124042612D01*
X227775022Y-123947064D01*
X227775023Y-123947063D01*
X227806473Y-123843388D01*
X227814431Y-123762587D01*
X227814431Y-123762578D01*
X227817091Y-123735570D01*
X227814431Y-123708562D01*
X227814431Y-122531585D01*
X227866413Y-122479603D01*
X227951227Y-122352669D01*
X228009648Y-122211628D01*
X228039431Y-122061900D01*
X228039431Y-121909238D01*
X228009648Y-121759510D01*
X227951227Y-121618469D01*
X227866413Y-121491535D01*
X227758465Y-121383587D01*
X227631531Y-121298773D01*
X227490490Y-121240352D01*
X227340762Y-121210569D01*
X227188100Y-121210569D01*
X227038372Y-121240352D01*
X226897331Y-121298773D01*
X226770397Y-121383587D01*
X226662449Y-121491535D01*
X226577635Y-121618469D01*
X226519214Y-121759510D01*
X226489431Y-121909238D01*
X226489431Y-122061900D01*
X226519214Y-122211628D01*
X226577635Y-122352669D01*
X226662449Y-122479603D01*
X226714431Y-122531585D01*
X226714431Y-122578271D01*
X226714432Y-122578281D01*
X226714431Y-123507751D01*
X225872183Y-124350000D01*
X209610005Y-124350000D01*
X209582997Y-124347340D01*
X209555989Y-124350000D01*
X209555980Y-124350000D01*
X209475179Y-124357958D01*
X209371504Y-124389408D01*
X209327026Y-124413182D01*
X209275955Y-124440479D01*
X209213193Y-124491987D01*
X209213188Y-124491992D01*
X209192208Y-124509210D01*
X209174990Y-124530190D01*
X207605192Y-126099989D01*
X207584212Y-126117207D01*
X207566994Y-126138187D01*
X207566988Y-126138193D01*
X207515480Y-126200955D01*
X207464410Y-126296503D01*
X207432960Y-126400179D01*
X207422341Y-126507997D01*
X207425002Y-126535015D01*
X207425001Y-131654573D01*
X207276331Y-131625000D01*
X207123669Y-131625000D01*
X206973941Y-131654783D01*
X206832900Y-131713204D01*
X206705966Y-131798018D01*
X206700000Y-131803984D01*
X206694034Y-131798018D01*
X206567100Y-131713204D01*
X206426059Y-131654783D01*
X206276331Y-131625000D01*
X206123669Y-131625000D01*
X205973941Y-131654783D01*
X205832900Y-131713204D01*
X205705966Y-131798018D01*
X205598018Y-131905966D01*
X205513204Y-132032900D01*
X205454783Y-132173941D01*
X205425000Y-132323669D01*
X205425000Y-132397183D01*
X205372183Y-132450000D01*
X190617011Y-132450000D01*
X190590000Y-132447340D01*
X190562989Y-132450000D01*
X190562982Y-132450000D01*
X190482181Y-132457958D01*
X190378506Y-132489408D01*
X190282958Y-132540479D01*
X190262009Y-132557672D01*
X190199210Y-132609210D01*
X190181987Y-132630196D01*
X188730200Y-134081983D01*
X188730194Y-134081988D01*
X188697182Y-134115000D01*
X188623669Y-134115000D01*
X188473941Y-134144783D01*
X188332900Y-134203204D01*
X188205966Y-134288018D01*
X188098018Y-134395966D01*
X188013204Y-134522900D01*
X187954783Y-134663941D01*
X187925000Y-134813669D01*
X181400000Y-134813669D01*
X181400000Y-130808669D01*
X183225000Y-130808669D01*
X183225000Y-130961331D01*
X183254783Y-131111059D01*
X183313204Y-131252100D01*
X183398018Y-131379034D01*
X183505966Y-131486982D01*
X183632900Y-131571796D01*
X183773941Y-131630217D01*
X183923669Y-131660000D01*
X184076331Y-131660000D01*
X184226059Y-131630217D01*
X184367100Y-131571796D01*
X184494034Y-131486982D01*
X184601982Y-131379034D01*
X184686796Y-131252100D01*
X184745217Y-131111059D01*
X184775000Y-130961331D01*
X184775000Y-130808669D01*
X184745217Y-130658941D01*
X184686796Y-130517900D01*
X184601982Y-130390966D01*
X184494034Y-130283018D01*
X184367100Y-130198204D01*
X184226059Y-130139783D01*
X184076331Y-130110000D01*
X183923669Y-130110000D01*
X183773941Y-130139783D01*
X183632900Y-130198204D01*
X183505966Y-130283018D01*
X183398018Y-130390966D01*
X183313204Y-130517900D01*
X183254783Y-130658941D01*
X183225000Y-130808669D01*
X181400000Y-130808669D01*
X181400000Y-127764574D01*
X181625000Y-127764574D01*
X181625000Y-128035426D01*
X181677841Y-128301073D01*
X181781491Y-128551307D01*
X181931968Y-128776511D01*
X182123489Y-128968032D01*
X182348693Y-129118509D01*
X182598927Y-129222159D01*
X182864574Y-129275000D01*
X183135426Y-129275000D01*
X183401073Y-129222159D01*
X183651307Y-129118509D01*
X183876511Y-128968032D01*
X184068032Y-128776511D01*
X184218509Y-128551307D01*
X184322159Y-128301073D01*
X184375000Y-128035426D01*
X184375000Y-127764574D01*
X188125000Y-127764574D01*
X188125000Y-128035426D01*
X188177841Y-128301073D01*
X188281491Y-128551307D01*
X188431968Y-128776511D01*
X188623489Y-128968032D01*
X188848693Y-129118509D01*
X189098927Y-129222159D01*
X189364574Y-129275000D01*
X189635426Y-129275000D01*
X189901073Y-129222159D01*
X190151307Y-129118509D01*
X190376511Y-128968032D01*
X190568032Y-128776511D01*
X190718509Y-128551307D01*
X190822159Y-128301073D01*
X190875000Y-128035426D01*
X190875000Y-127764574D01*
X190822159Y-127498927D01*
X190718509Y-127248693D01*
X190568032Y-127023489D01*
X190376511Y-126831968D01*
X190151307Y-126681491D01*
X189901073Y-126577841D01*
X189635426Y-126525000D01*
X189364574Y-126525000D01*
X189098927Y-126577841D01*
X188848693Y-126681491D01*
X188623489Y-126831968D01*
X188431968Y-127023489D01*
X188281491Y-127248693D01*
X188177841Y-127498927D01*
X188125000Y-127764574D01*
X184375000Y-127764574D01*
X184322159Y-127498927D01*
X184218509Y-127248693D01*
X184068032Y-127023489D01*
X183876511Y-126831968D01*
X183651307Y-126681491D01*
X183401073Y-126577841D01*
X183135426Y-126525000D01*
X182864574Y-126525000D01*
X182598927Y-126577841D01*
X182348693Y-126681491D01*
X182123489Y-126831968D01*
X181931968Y-127023489D01*
X181781491Y-127248693D01*
X181677841Y-127498927D01*
X181625000Y-127764574D01*
X181400000Y-127764574D01*
X181400000Y-125708837D01*
X191885000Y-125708837D01*
X191885000Y-126291162D01*
X191903014Y-126474062D01*
X191974205Y-126708745D01*
X192089812Y-126925031D01*
X192245392Y-127114608D01*
X192434968Y-127270188D01*
X192651254Y-127385795D01*
X192885937Y-127456986D01*
X193130000Y-127481024D01*
X193374062Y-127456986D01*
X193608745Y-127385795D01*
X193825031Y-127270188D01*
X194014608Y-127114608D01*
X194170188Y-126925032D01*
X194285795Y-126708746D01*
X194356986Y-126474063D01*
X194375000Y-126291163D01*
X194375000Y-125708838D01*
X194375000Y-125708837D01*
X196965000Y-125708837D01*
X196965000Y-126291162D01*
X196983014Y-126474062D01*
X197054205Y-126708745D01*
X197169812Y-126925031D01*
X197325392Y-127114608D01*
X197514968Y-127270188D01*
X197731254Y-127385795D01*
X197965937Y-127456986D01*
X198210000Y-127481024D01*
X198454062Y-127456986D01*
X198688745Y-127385795D01*
X198905031Y-127270188D01*
X199094608Y-127114608D01*
X199250188Y-126925032D01*
X199365795Y-126708746D01*
X199436986Y-126474063D01*
X199455000Y-126291163D01*
X199455000Y-125708838D01*
X199436986Y-125525938D01*
X199365795Y-125291255D01*
X199290293Y-125149999D01*
X199503186Y-125149999D01*
X199503186Y-126850001D01*
X199515230Y-126972286D01*
X199550899Y-127089872D01*
X199608823Y-127198240D01*
X199686775Y-127293225D01*
X199781760Y-127371177D01*
X199890128Y-127429101D01*
X200007714Y-127464770D01*
X200129999Y-127476814D01*
X201370001Y-127476814D01*
X201492286Y-127464770D01*
X201609872Y-127429101D01*
X201718240Y-127371177D01*
X201813225Y-127293225D01*
X201891177Y-127198240D01*
X201949101Y-127089872D01*
X201984770Y-126972286D01*
X201996814Y-126850001D01*
X201996814Y-125149999D01*
X201984770Y-125027714D01*
X201949101Y-124910128D01*
X201891177Y-124801760D01*
X201813225Y-124706775D01*
X201718240Y-124628823D01*
X201609872Y-124570899D01*
X201492286Y-124535230D01*
X201370001Y-124523186D01*
X200129999Y-124523186D01*
X200007714Y-124535230D01*
X199890128Y-124570899D01*
X199781760Y-124628823D01*
X199686775Y-124706775D01*
X199608823Y-124801760D01*
X199550899Y-124910128D01*
X199515230Y-125027714D01*
X199503186Y-125149999D01*
X199290293Y-125149999D01*
X199250188Y-125074968D01*
X199094608Y-124885392D01*
X198905032Y-124729812D01*
X198688746Y-124614205D01*
X198454063Y-124543014D01*
X198210000Y-124518976D01*
X197965938Y-124543014D01*
X197731255Y-124614205D01*
X197514969Y-124729812D01*
X197325393Y-124885392D01*
X197169813Y-125074968D01*
X197054205Y-125291254D01*
X196983014Y-125525937D01*
X196965000Y-125708837D01*
X194375000Y-125708837D01*
X194356986Y-125525938D01*
X194285795Y-125291255D01*
X194170188Y-125074968D01*
X194014608Y-124885392D01*
X193825032Y-124729812D01*
X193608746Y-124614205D01*
X193374063Y-124543014D01*
X193130000Y-124518976D01*
X192885938Y-124543014D01*
X192651255Y-124614205D01*
X192434969Y-124729812D01*
X192245393Y-124885392D01*
X192089813Y-125074968D01*
X191974205Y-125291254D01*
X191903014Y-125525937D01*
X191885000Y-125708837D01*
X181400000Y-125708837D01*
X181400000Y-121808669D01*
X222225000Y-121808669D01*
X222225000Y-121961331D01*
X222254783Y-122111059D01*
X222313204Y-122252100D01*
X222398018Y-122379034D01*
X222505966Y-122486982D01*
X222632900Y-122571796D01*
X222773941Y-122630217D01*
X222923669Y-122660000D01*
X223076331Y-122660000D01*
X223226059Y-122630217D01*
X223367100Y-122571796D01*
X223494034Y-122486982D01*
X223601982Y-122379034D01*
X223686796Y-122252100D01*
X223745217Y-122111059D01*
X223775000Y-121961331D01*
X223775000Y-121808669D01*
X223745217Y-121658941D01*
X223686796Y-121517900D01*
X223601982Y-121390966D01*
X223550000Y-121338984D01*
X223550000Y-120827132D01*
X225460000Y-118917133D01*
X225460000Y-118976331D01*
X225489783Y-119126059D01*
X225548204Y-119267100D01*
X225633018Y-119394034D01*
X225740966Y-119501982D01*
X225867900Y-119586796D01*
X226008941Y-119645217D01*
X226158669Y-119675000D01*
X226311331Y-119675000D01*
X226461059Y-119645217D01*
X226602100Y-119586796D01*
X226729034Y-119501982D01*
X226836982Y-119394034D01*
X226921796Y-119267100D01*
X226980217Y-119126059D01*
X227010000Y-118976331D01*
X227010000Y-118823669D01*
X226980217Y-118673941D01*
X226921796Y-118532900D01*
X226836982Y-118405966D01*
X226729034Y-118298018D01*
X226602100Y-118213204D01*
X226461059Y-118154783D01*
X226311331Y-118125000D01*
X226252133Y-118125000D01*
X226818420Y-117558712D01*
X226882900Y-117601796D01*
X227023941Y-117660217D01*
X227173669Y-117690000D01*
X227326331Y-117690000D01*
X227476059Y-117660217D01*
X227617100Y-117601796D01*
X227744034Y-117516982D01*
X227851982Y-117409034D01*
X227936796Y-117282100D01*
X227995217Y-117141059D01*
X228025000Y-116991331D01*
X228025000Y-116838669D01*
X227995217Y-116688941D01*
X227936796Y-116547900D01*
X227851982Y-116420966D01*
X227744034Y-116313018D01*
X227617100Y-116228204D01*
X227476059Y-116169783D01*
X227326331Y-116140000D01*
X227173669Y-116140000D01*
X227023941Y-116169783D01*
X226882900Y-116228204D01*
X226755966Y-116313018D01*
X226704642Y-116364342D01*
X226684314Y-116362340D01*
X226657306Y-116365000D01*
X226657297Y-116365000D01*
X226576496Y-116372958D01*
X226472821Y-116404408D01*
X226377273Y-116455479D01*
X226377271Y-116455480D01*
X226377272Y-116455480D01*
X226314510Y-116506987D01*
X226314505Y-116506992D01*
X226293525Y-116524210D01*
X226276307Y-116545190D01*
X226007981Y-116813517D01*
X225980217Y-116673941D01*
X225921796Y-116532900D01*
X225836982Y-116405966D01*
X225729034Y-116298018D01*
X225602100Y-116213204D01*
X225461059Y-116154783D01*
X225311331Y-116125000D01*
X225158669Y-116125000D01*
X225008941Y-116154783D01*
X224867900Y-116213204D01*
X224740966Y-116298018D01*
X224633018Y-116405966D01*
X224548204Y-116532900D01*
X224489783Y-116673941D01*
X224460000Y-116823669D01*
X224460000Y-116976331D01*
X224489783Y-117126059D01*
X224548204Y-117267100D01*
X224633018Y-117394034D01*
X224740966Y-117501982D01*
X224867900Y-117586796D01*
X225008941Y-117645217D01*
X225148517Y-117672981D01*
X222630196Y-120191302D01*
X222609210Y-120208525D01*
X222540479Y-120292273D01*
X222489408Y-120387822D01*
X222457958Y-120491497D01*
X222450000Y-120572298D01*
X222450000Y-120572307D01*
X222447340Y-120599315D01*
X222450000Y-120626323D01*
X222450000Y-121338984D01*
X222398018Y-121390966D01*
X222313204Y-121517900D01*
X222254783Y-121658941D01*
X222225000Y-121808669D01*
X181400000Y-121808669D01*
X181400000Y-120423669D01*
X212960000Y-120423669D01*
X212960000Y-120576331D01*
X212989783Y-120726059D01*
X213048204Y-120867100D01*
X213133018Y-120994034D01*
X213240966Y-121101982D01*
X213367900Y-121186796D01*
X213508941Y-121245217D01*
X213658669Y-121275000D01*
X213811331Y-121275000D01*
X213961059Y-121245217D01*
X214102100Y-121186796D01*
X214229034Y-121101982D01*
X214336982Y-120994034D01*
X214421796Y-120867100D01*
X214480217Y-120726059D01*
X214510000Y-120576331D01*
X214510000Y-120423669D01*
X214480217Y-120273941D01*
X214421796Y-120132900D01*
X214358834Y-120038669D01*
X219425000Y-120038669D01*
X219425000Y-120191331D01*
X219454783Y-120341059D01*
X219513204Y-120482100D01*
X219598018Y-120609034D01*
X219705966Y-120716982D01*
X219832900Y-120801796D01*
X219973941Y-120860217D01*
X220123669Y-120890000D01*
X220276331Y-120890000D01*
X220426059Y-120860217D01*
X220567100Y-120801796D01*
X220694034Y-120716982D01*
X220801982Y-120609034D01*
X220886796Y-120482100D01*
X220945217Y-120341059D01*
X220975000Y-120191331D01*
X220975000Y-120038669D01*
X220945217Y-119888941D01*
X220886796Y-119747900D01*
X220801982Y-119620966D01*
X220694034Y-119513018D01*
X220567100Y-119428204D01*
X220426059Y-119369783D01*
X220276331Y-119340000D01*
X220123669Y-119340000D01*
X219973941Y-119369783D01*
X219832900Y-119428204D01*
X219705966Y-119513018D01*
X219598018Y-119620966D01*
X219513204Y-119747900D01*
X219454783Y-119888941D01*
X219425000Y-120038669D01*
X214358834Y-120038669D01*
X214336982Y-120005966D01*
X214229034Y-119898018D01*
X214102100Y-119813204D01*
X213961059Y-119754783D01*
X213811331Y-119725000D01*
X213658669Y-119725000D01*
X213508941Y-119754783D01*
X213367900Y-119813204D01*
X213240966Y-119898018D01*
X213133018Y-120005966D01*
X213048204Y-120132900D01*
X212989783Y-120273941D01*
X212960000Y-120423669D01*
X181400000Y-120423669D01*
X181400000Y-119408669D01*
X183225000Y-119408669D01*
X183225000Y-119561331D01*
X183254783Y-119711059D01*
X183313204Y-119852100D01*
X183398018Y-119979034D01*
X183505966Y-120086982D01*
X183632900Y-120171796D01*
X183773941Y-120230217D01*
X183923669Y-120260000D01*
X184076331Y-120260000D01*
X184226059Y-120230217D01*
X184367100Y-120171796D01*
X184494034Y-120086982D01*
X184601982Y-119979034D01*
X184686796Y-119852100D01*
X184745217Y-119711059D01*
X184775000Y-119561331D01*
X184775000Y-119408669D01*
X193025000Y-119408669D01*
X193025000Y-119561331D01*
X193054783Y-119711059D01*
X193113204Y-119852100D01*
X193198018Y-119979034D01*
X193305966Y-120086982D01*
X193432900Y-120171796D01*
X193573941Y-120230217D01*
X193723669Y-120260000D01*
X193876331Y-120260000D01*
X194026059Y-120230217D01*
X194167100Y-120171796D01*
X194294034Y-120086982D01*
X194401982Y-119979034D01*
X194486796Y-119852100D01*
X194545217Y-119711059D01*
X194575000Y-119561331D01*
X194575000Y-119408669D01*
X194545217Y-119258941D01*
X194486796Y-119117900D01*
X194401982Y-118990966D01*
X194294034Y-118883018D01*
X194167100Y-118798204D01*
X194026059Y-118739783D01*
X193876331Y-118710000D01*
X193723669Y-118710000D01*
X193573941Y-118739783D01*
X193432900Y-118798204D01*
X193305966Y-118883018D01*
X193198018Y-118990966D01*
X193113204Y-119117900D01*
X193054783Y-119258941D01*
X193025000Y-119408669D01*
X184775000Y-119408669D01*
X184745217Y-119258941D01*
X184686796Y-119117900D01*
X184601982Y-118990966D01*
X184494034Y-118883018D01*
X184367100Y-118798204D01*
X184226059Y-118739783D01*
X184076331Y-118710000D01*
X183923669Y-118710000D01*
X183773941Y-118739783D01*
X183632900Y-118798204D01*
X183505966Y-118883018D01*
X183398018Y-118990966D01*
X183313204Y-119117900D01*
X183254783Y-119258941D01*
X183225000Y-119408669D01*
X181400000Y-119408669D01*
X181400000Y-118423669D01*
X211960000Y-118423669D01*
X211960000Y-118576331D01*
X211989783Y-118726059D01*
X212048204Y-118867100D01*
X212133018Y-118994034D01*
X212240966Y-119101982D01*
X212367900Y-119186796D01*
X212508941Y-119245217D01*
X212658669Y-119275000D01*
X212811331Y-119275000D01*
X212961059Y-119245217D01*
X213102100Y-119186796D01*
X213229034Y-119101982D01*
X213336982Y-118994034D01*
X213421796Y-118867100D01*
X213480217Y-118726059D01*
X213510000Y-118576331D01*
X213510000Y-118423669D01*
X213480217Y-118273941D01*
X213421796Y-118132900D01*
X213336982Y-118005966D01*
X213229034Y-117898018D01*
X213102100Y-117813204D01*
X212961059Y-117754783D01*
X212811331Y-117725000D01*
X212658669Y-117725000D01*
X212508941Y-117754783D01*
X212367900Y-117813204D01*
X212240966Y-117898018D01*
X212133018Y-118005966D01*
X212048204Y-118132900D01*
X211989783Y-118273941D01*
X211960000Y-118423669D01*
X181400000Y-118423669D01*
X181400000Y-116364574D01*
X181625000Y-116364574D01*
X181625000Y-116635426D01*
X181677841Y-116901073D01*
X181781491Y-117151307D01*
X181931968Y-117376511D01*
X182123489Y-117568032D01*
X182348693Y-117718509D01*
X182598927Y-117822159D01*
X182864574Y-117875000D01*
X183135426Y-117875000D01*
X183401073Y-117822159D01*
X183651307Y-117718509D01*
X183876511Y-117568032D01*
X184068032Y-117376511D01*
X184218509Y-117151307D01*
X184322159Y-116901073D01*
X184375000Y-116635426D01*
X184375000Y-116364574D01*
X188125000Y-116364574D01*
X188125000Y-116635426D01*
X188177841Y-116901073D01*
X188281491Y-117151307D01*
X188431968Y-117376511D01*
X188623489Y-117568032D01*
X188848693Y-117718509D01*
X189098927Y-117822159D01*
X189364574Y-117875000D01*
X189635426Y-117875000D01*
X189901073Y-117822159D01*
X190151307Y-117718509D01*
X190376511Y-117568032D01*
X190568032Y-117376511D01*
X190718509Y-117151307D01*
X190822159Y-116901073D01*
X190875000Y-116635426D01*
X190875000Y-116364574D01*
X191425000Y-116364574D01*
X191425000Y-116635426D01*
X191477841Y-116901073D01*
X191581491Y-117151307D01*
X191731968Y-117376511D01*
X191923489Y-117568032D01*
X192148693Y-117718509D01*
X192398927Y-117822159D01*
X192664574Y-117875000D01*
X192935426Y-117875000D01*
X193201073Y-117822159D01*
X193451307Y-117718509D01*
X193676511Y-117568032D01*
X193868032Y-117376511D01*
X194018509Y-117151307D01*
X194122159Y-116901073D01*
X194175000Y-116635426D01*
X194175000Y-116364574D01*
X197925000Y-116364574D01*
X197925000Y-116635426D01*
X197977841Y-116901073D01*
X198081491Y-117151307D01*
X198231968Y-117376511D01*
X198423489Y-117568032D01*
X198648693Y-117718509D01*
X198898927Y-117822159D01*
X199164574Y-117875000D01*
X199435426Y-117875000D01*
X199701073Y-117822159D01*
X199951307Y-117718509D01*
X200176511Y-117568032D01*
X200368032Y-117376511D01*
X200518509Y-117151307D01*
X200622159Y-116901073D01*
X200675000Y-116635426D01*
X200675000Y-116364574D01*
X200622159Y-116098927D01*
X200518509Y-115848693D01*
X200368032Y-115623489D01*
X200176511Y-115431968D01*
X199951307Y-115281491D01*
X199701073Y-115177841D01*
X199435426Y-115125000D01*
X199164574Y-115125000D01*
X198898927Y-115177841D01*
X198648693Y-115281491D01*
X198423489Y-115431968D01*
X198231968Y-115623489D01*
X198081491Y-115848693D01*
X197977841Y-116098927D01*
X197925000Y-116364574D01*
X194175000Y-116364574D01*
X194122159Y-116098927D01*
X194018509Y-115848693D01*
X193868032Y-115623489D01*
X193676511Y-115431968D01*
X193451307Y-115281491D01*
X193201073Y-115177841D01*
X192935426Y-115125000D01*
X192664574Y-115125000D01*
X192398927Y-115177841D01*
X192148693Y-115281491D01*
X191923489Y-115431968D01*
X191731968Y-115623489D01*
X191581491Y-115848693D01*
X191477841Y-116098927D01*
X191425000Y-116364574D01*
X190875000Y-116364574D01*
X190822159Y-116098927D01*
X190718509Y-115848693D01*
X190568032Y-115623489D01*
X190376511Y-115431968D01*
X190151307Y-115281491D01*
X189901073Y-115177841D01*
X189635426Y-115125000D01*
X189364574Y-115125000D01*
X189098927Y-115177841D01*
X188848693Y-115281491D01*
X188623489Y-115431968D01*
X188431968Y-115623489D01*
X188281491Y-115848693D01*
X188177841Y-116098927D01*
X188125000Y-116364574D01*
X184375000Y-116364574D01*
X184322159Y-116098927D01*
X184218509Y-115848693D01*
X184068032Y-115623489D01*
X183876511Y-115431968D01*
X183651307Y-115281491D01*
X183401073Y-115177841D01*
X183135426Y-115125000D01*
X182864574Y-115125000D01*
X182598927Y-115177841D01*
X182348693Y-115281491D01*
X182123489Y-115431968D01*
X181931968Y-115623489D01*
X181781491Y-115848693D01*
X181677841Y-116098927D01*
X181625000Y-116364574D01*
X181400000Y-116364574D01*
X181400000Y-110400000D01*
X230600000Y-110400000D01*
X230600001Y-159600000D01*
G36*
X202625000Y-134323669D02*
G01*
X202625000Y-134476331D01*
X202654783Y-134626059D01*
X202713204Y-134767100D01*
X202798018Y-134894034D01*
X202803984Y-134900000D01*
X202798018Y-134905966D01*
X202713204Y-135032900D01*
X202654783Y-135173941D01*
X202625000Y-135323669D01*
X202625000Y-135476331D01*
X202654783Y-135626059D01*
X202713204Y-135767100D01*
X202798018Y-135894034D01*
X202905966Y-136001982D01*
X203032900Y-136086796D01*
X203173941Y-136145217D01*
X203323669Y-136175000D01*
X203476331Y-136175000D01*
X203626059Y-136145217D01*
X203767100Y-136086796D01*
X203894034Y-136001982D01*
X204001982Y-135894034D01*
X204086796Y-135767100D01*
X204104234Y-135725001D01*
X207999186Y-135725001D01*
X211167894Y-138893709D01*
X211132900Y-138908204D01*
X211005966Y-138993018D01*
X210953984Y-139045000D01*
X207722818Y-139045000D01*
X206275000Y-137597183D01*
X206275000Y-137523669D01*
X206245217Y-137373941D01*
X206186796Y-137232900D01*
X206101982Y-137105966D01*
X205994034Y-136998018D01*
X205867100Y-136913204D01*
X205726059Y-136854783D01*
X205576331Y-136825000D01*
X205423669Y-136825000D01*
X205273941Y-136854783D01*
X205132900Y-136913204D01*
X205005966Y-136998018D01*
X204900000Y-137103984D01*
X204794034Y-136998018D01*
X204667100Y-136913204D01*
X204526059Y-136854783D01*
X204376331Y-136825000D01*
X204223669Y-136825000D01*
X204073941Y-136854783D01*
X203932900Y-136913204D01*
X203805966Y-136998018D01*
X203698018Y-137105966D01*
X203613204Y-137232900D01*
X203568542Y-137340724D01*
X201025000Y-134797183D01*
X201025000Y-134723669D01*
X200995217Y-134573941D01*
X200936796Y-134432900D01*
X200851982Y-134305966D01*
X200744034Y-134198018D01*
X200709583Y-134174999D01*
X202654573Y-134174999D01*
X202625000Y-134323669D01*
G37*
X202625000Y-134323669D02*
X202625000Y-134476331D01*
X202654783Y-134626059D01*
X202713204Y-134767100D01*
X202798018Y-134894034D01*
X202803984Y-134900000D01*
X202798018Y-134905966D01*
X202713204Y-135032900D01*
X202654783Y-135173941D01*
X202625000Y-135323669D01*
X202625000Y-135476331D01*
X202654783Y-135626059D01*
X202713204Y-135767100D01*
X202798018Y-135894034D01*
X202905966Y-136001982D01*
X203032900Y-136086796D01*
X203173941Y-136145217D01*
X203323669Y-136175000D01*
X203476331Y-136175000D01*
X203626059Y-136145217D01*
X203767100Y-136086796D01*
X203894034Y-136001982D01*
X204001982Y-135894034D01*
X204086796Y-135767100D01*
X204104234Y-135725001D01*
X207999186Y-135725001D01*
X211167894Y-138893709D01*
X211132900Y-138908204D01*
X211005966Y-138993018D01*
X210953984Y-139045000D01*
X207722818Y-139045000D01*
X206275000Y-137597183D01*
X206275000Y-137523669D01*
X206245217Y-137373941D01*
X206186796Y-137232900D01*
X206101982Y-137105966D01*
X205994034Y-136998018D01*
X205867100Y-136913204D01*
X205726059Y-136854783D01*
X205576331Y-136825000D01*
X205423669Y-136825000D01*
X205273941Y-136854783D01*
X205132900Y-136913204D01*
X205005966Y-136998018D01*
X204900000Y-137103984D01*
X204794034Y-136998018D01*
X204667100Y-136913204D01*
X204526059Y-136854783D01*
X204376331Y-136825000D01*
X204223669Y-136825000D01*
X204073941Y-136854783D01*
X203932900Y-136913204D01*
X203805966Y-136998018D01*
X203698018Y-137105966D01*
X203613204Y-137232900D01*
X203568542Y-137340724D01*
X201025000Y-134797183D01*
X201025000Y-134723669D01*
X200995217Y-134573941D01*
X200936796Y-134432900D01*
X200851982Y-134305966D01*
X200744034Y-134198018D01*
X200709583Y-134174999D01*
X202654573Y-134174999D01*
X202625000Y-134323669D01*
M02*
