G04 #@! TF.GenerationSoftware,KiCad,Pcbnew,(5.1.5)-3*
G04 #@! TF.CreationDate,2020-05-17T16:05:08+01:00*
G04 #@! TF.ProjectId,Chronos,4368726f-6e6f-4732-9e6b-696361645f70,X301*
G04 #@! TF.SameCoordinates,Original*
G04 #@! TF.FileFunction,Copper,L3,Inr*
G04 #@! TF.FilePolarity,Positive*
%FSLAX46Y46*%
G04 Gerber Fmt 4.6, Leading zero omitted, Abs format (unit mm)*
G04 Created by KiCad (PCBNEW (5.1.5)-3) date 2020-05-17 16:05:08*
%MOMM*%
%LPD*%
G04 APERTURE LIST*
%ADD10C,2.000000*%
%ADD11C,2.250000*%
%ADD12C,2.050000*%
%ADD13O,1.740000X2.200000*%
%ADD14C,0.100000*%
%ADD15O,1.900000X1.200000*%
%ADD16C,1.450000*%
%ADD17C,0.800000*%
%ADD18C,1.000000*%
%ADD19C,0.250000*%
G04 APERTURE END LIST*
D10*
X199300000Y-112000000D03*
X199300000Y-116500000D03*
X192800000Y-112000000D03*
X192800000Y-116500000D03*
X189500000Y-112000000D03*
X189500000Y-116500000D03*
X183000000Y-112000000D03*
X183000000Y-116500000D03*
X189500000Y-123400000D03*
X189500000Y-127900000D03*
X183000000Y-123400000D03*
X183000000Y-127900000D03*
D11*
X222460000Y-157290000D03*
X222460000Y-152210000D03*
X227540000Y-152210000D03*
X227540000Y-157290000D03*
D12*
X225000000Y-154750000D03*
D13*
X193130000Y-126000000D03*
X195670000Y-126000000D03*
X198210000Y-126000000D03*
G04 #@! TA.AperFunction,ViaPad*
D14*
G36*
X201394505Y-124901204D02*
G01*
X201418773Y-124904804D01*
X201442572Y-124910765D01*
X201465671Y-124919030D01*
X201487850Y-124929520D01*
X201508893Y-124942132D01*
X201528599Y-124956747D01*
X201546777Y-124973223D01*
X201563253Y-124991401D01*
X201577868Y-125011107D01*
X201590480Y-125032150D01*
X201600970Y-125054329D01*
X201609235Y-125077428D01*
X201615196Y-125101227D01*
X201618796Y-125125495D01*
X201620000Y-125149999D01*
X201620000Y-126850001D01*
X201618796Y-126874505D01*
X201615196Y-126898773D01*
X201609235Y-126922572D01*
X201600970Y-126945671D01*
X201590480Y-126967850D01*
X201577868Y-126988893D01*
X201563253Y-127008599D01*
X201546777Y-127026777D01*
X201528599Y-127043253D01*
X201508893Y-127057868D01*
X201487850Y-127070480D01*
X201465671Y-127080970D01*
X201442572Y-127089235D01*
X201418773Y-127095196D01*
X201394505Y-127098796D01*
X201370001Y-127100000D01*
X200129999Y-127100000D01*
X200105495Y-127098796D01*
X200081227Y-127095196D01*
X200057428Y-127089235D01*
X200034329Y-127080970D01*
X200012150Y-127070480D01*
X199991107Y-127057868D01*
X199971401Y-127043253D01*
X199953223Y-127026777D01*
X199936747Y-127008599D01*
X199922132Y-126988893D01*
X199909520Y-126967850D01*
X199899030Y-126945671D01*
X199890765Y-126922572D01*
X199884804Y-126898773D01*
X199881204Y-126874505D01*
X199880000Y-126850001D01*
X199880000Y-125149999D01*
X199881204Y-125125495D01*
X199884804Y-125101227D01*
X199890765Y-125077428D01*
X199899030Y-125054329D01*
X199909520Y-125032150D01*
X199922132Y-125011107D01*
X199936747Y-124991401D01*
X199953223Y-124973223D01*
X199971401Y-124956747D01*
X199991107Y-124942132D01*
X200012150Y-124929520D01*
X200034329Y-124919030D01*
X200057428Y-124910765D01*
X200081227Y-124904804D01*
X200105495Y-124901204D01*
X200129999Y-124900000D01*
X201370001Y-124900000D01*
X201394505Y-124901204D01*
G37*
G04 #@! TD.AperFunction*
D15*
X182112500Y-158650000D03*
X182112500Y-151650000D03*
D16*
X184812500Y-157650000D03*
X184812500Y-152650000D03*
D17*
X223265000Y-117900000D03*
X223265000Y-118900000D03*
X184600000Y-144060000D03*
X190800000Y-138460000D03*
X189800000Y-138460000D03*
X192100000Y-145400000D03*
D18*
X193650000Y-147250000D03*
X196150000Y-149250000D03*
X202500000Y-153600000D03*
X196150000Y-147250000D03*
X186791249Y-151800000D03*
D17*
X187800000Y-130300000D03*
X187800000Y-131375000D03*
X185250000Y-138460000D03*
X187300000Y-134800000D03*
X200250000Y-135915000D03*
X198250000Y-136465000D03*
X204750000Y-147600000D03*
X202500000Y-147600000D03*
X211500000Y-139595000D03*
X211500000Y-143405000D03*
X216365000Y-138250000D03*
X216365000Y-137250000D03*
X226800000Y-145800000D03*
X221515000Y-136750000D03*
X221515000Y-135750000D03*
X229735000Y-130900000D03*
X228550000Y-127850000D03*
X225000000Y-124085000D03*
X217235000Y-134500000D03*
X217235000Y-133500000D03*
X217235000Y-132500000D03*
X217235000Y-129500000D03*
X215725000Y-126450000D03*
X210600000Y-126030000D03*
X209600000Y-126030000D03*
X219200000Y-124020000D03*
X218200000Y-124020000D03*
X217200000Y-124020000D03*
X210765000Y-120500000D03*
X210765000Y-119500000D03*
X218205000Y-119500000D03*
X218205000Y-118500000D03*
X186300000Y-156900000D03*
X185900000Y-142090000D03*
X225235000Y-116900000D03*
X226235000Y-118900000D03*
X212735000Y-118500000D03*
X213735000Y-120500000D03*
X220200000Y-120115000D03*
X214265000Y-136485000D03*
X223485000Y-134750000D03*
X198250000Y-138385000D03*
X200250000Y-138885000D03*
X218335000Y-136250000D03*
X219335000Y-138250000D03*
X193800000Y-119485000D03*
X184000000Y-119485000D03*
X184000000Y-130885000D03*
D18*
X200650000Y-154250000D03*
X198900000Y-152500000D03*
X198650000Y-148750000D03*
X202500000Y-150200000D03*
X200650000Y-148750000D03*
D17*
X224485000Y-135750000D03*
X221100000Y-142135000D03*
X226150000Y-140000000D03*
X225000000Y-141600000D03*
X203400000Y-135400000D03*
X221100000Y-143405000D03*
X223000000Y-121885000D03*
X227250000Y-116915000D03*
X203400000Y-134400000D03*
X227264431Y-121985569D03*
X227900000Y-124850000D03*
X229685000Y-114915000D03*
X216235000Y-117500000D03*
X227800000Y-138300000D03*
X209600000Y-129000000D03*
X189000000Y-156900000D03*
X182475000Y-142090000D03*
X190000000Y-156900000D03*
X183537500Y-142090000D03*
X211500000Y-140865000D03*
X204700000Y-137600000D03*
X206200000Y-132400000D03*
X188700000Y-134890000D03*
X207200000Y-132400000D03*
X191750000Y-134890000D03*
X211500000Y-142135000D03*
X200250000Y-134800000D03*
D19*
G36*
X230600001Y-159600000D02*
G01*
X182689539Y-159600000D01*
X182837421Y-159555140D01*
X183006802Y-159464605D01*
X183155265Y-159342765D01*
X183277105Y-159194302D01*
X183367640Y-159024921D01*
X183423392Y-158841133D01*
X183442217Y-158650000D01*
X183423392Y-158458867D01*
X183367640Y-158275079D01*
X183277105Y-158105698D01*
X183155265Y-157957235D01*
X183006802Y-157835395D01*
X182837421Y-157744860D01*
X182653633Y-157689108D01*
X182510392Y-157675000D01*
X181714608Y-157675000D01*
X181571367Y-157689108D01*
X181400000Y-157741092D01*
X181400000Y-157541659D01*
X183712500Y-157541659D01*
X183712500Y-157758341D01*
X183754773Y-157970858D01*
X183837693Y-158171045D01*
X183958075Y-158351209D01*
X184111291Y-158504425D01*
X184291455Y-158624807D01*
X184491642Y-158707727D01*
X184704159Y-158750000D01*
X184920841Y-158750000D01*
X185133358Y-158707727D01*
X185333545Y-158624807D01*
X185513709Y-158504425D01*
X185666925Y-158351209D01*
X185787307Y-158171045D01*
X185870227Y-157970858D01*
X185912500Y-157758341D01*
X185912500Y-157573165D01*
X185932900Y-157586796D01*
X186073941Y-157645217D01*
X186223669Y-157675000D01*
X186376331Y-157675000D01*
X186526059Y-157645217D01*
X186667100Y-157586796D01*
X186794034Y-157501982D01*
X186901982Y-157394034D01*
X186986796Y-157267100D01*
X187045217Y-157126059D01*
X187075000Y-156976331D01*
X187075000Y-156823669D01*
X188225000Y-156823669D01*
X188225000Y-156976331D01*
X188254783Y-157126059D01*
X188313204Y-157267100D01*
X188398018Y-157394034D01*
X188505966Y-157501982D01*
X188632900Y-157586796D01*
X188773941Y-157645217D01*
X188923669Y-157675000D01*
X189076331Y-157675000D01*
X189226059Y-157645217D01*
X189367100Y-157586796D01*
X189494034Y-157501982D01*
X189500000Y-157496016D01*
X189505966Y-157501982D01*
X189632900Y-157586796D01*
X189773941Y-157645217D01*
X189923669Y-157675000D01*
X190076331Y-157675000D01*
X190226059Y-157645217D01*
X190367100Y-157586796D01*
X190494034Y-157501982D01*
X190601982Y-157394034D01*
X190686796Y-157267100D01*
X190738505Y-157142263D01*
X220960000Y-157142263D01*
X220960000Y-157437737D01*
X221017644Y-157727534D01*
X221130717Y-158000517D01*
X221294874Y-158246194D01*
X221503806Y-158455126D01*
X221749483Y-158619283D01*
X222022466Y-158732356D01*
X222312263Y-158790000D01*
X222607737Y-158790000D01*
X222897534Y-158732356D01*
X223170517Y-158619283D01*
X223416194Y-158455126D01*
X223625126Y-158246194D01*
X223789283Y-158000517D01*
X223902356Y-157727534D01*
X223960000Y-157437737D01*
X223960000Y-157142263D01*
X226040000Y-157142263D01*
X226040000Y-157437737D01*
X226097644Y-157727534D01*
X226210717Y-158000517D01*
X226374874Y-158246194D01*
X226583806Y-158455126D01*
X226829483Y-158619283D01*
X227102466Y-158732356D01*
X227392263Y-158790000D01*
X227687737Y-158790000D01*
X227977534Y-158732356D01*
X228250517Y-158619283D01*
X228496194Y-158455126D01*
X228705126Y-158246194D01*
X228869283Y-158000517D01*
X228982356Y-157727534D01*
X229040000Y-157437737D01*
X229040000Y-157142263D01*
X228982356Y-156852466D01*
X228869283Y-156579483D01*
X228705126Y-156333806D01*
X228496194Y-156124874D01*
X228250517Y-155960717D01*
X227977534Y-155847644D01*
X227687737Y-155790000D01*
X227392263Y-155790000D01*
X227102466Y-155847644D01*
X226829483Y-155960717D01*
X226583806Y-156124874D01*
X226374874Y-156333806D01*
X226210717Y-156579483D01*
X226097644Y-156852466D01*
X226040000Y-157142263D01*
X223960000Y-157142263D01*
X223902356Y-156852466D01*
X223789283Y-156579483D01*
X223625126Y-156333806D01*
X223416194Y-156124874D01*
X223170517Y-155960717D01*
X222897534Y-155847644D01*
X222607737Y-155790000D01*
X222312263Y-155790000D01*
X222022466Y-155847644D01*
X221749483Y-155960717D01*
X221503806Y-156124874D01*
X221294874Y-156333806D01*
X221130717Y-156579483D01*
X221017644Y-156852466D01*
X220960000Y-157142263D01*
X190738505Y-157142263D01*
X190745217Y-157126059D01*
X190775000Y-156976331D01*
X190775000Y-156823669D01*
X190745217Y-156673941D01*
X190686796Y-156532900D01*
X190601982Y-156405966D01*
X190494034Y-156298018D01*
X190367100Y-156213204D01*
X190226059Y-156154783D01*
X190076331Y-156125000D01*
X189923669Y-156125000D01*
X189773941Y-156154783D01*
X189632900Y-156213204D01*
X189505966Y-156298018D01*
X189500000Y-156303984D01*
X189494034Y-156298018D01*
X189367100Y-156213204D01*
X189226059Y-156154783D01*
X189076331Y-156125000D01*
X188923669Y-156125000D01*
X188773941Y-156154783D01*
X188632900Y-156213204D01*
X188505966Y-156298018D01*
X188398018Y-156405966D01*
X188313204Y-156532900D01*
X188254783Y-156673941D01*
X188225000Y-156823669D01*
X187075000Y-156823669D01*
X187045217Y-156673941D01*
X186986796Y-156532900D01*
X186901982Y-156405966D01*
X186794034Y-156298018D01*
X186667100Y-156213204D01*
X186526059Y-156154783D01*
X186376331Y-156125000D01*
X186223669Y-156125000D01*
X186073941Y-156154783D01*
X185932900Y-156213204D01*
X185805966Y-156298018D01*
X185698018Y-156405966D01*
X185613204Y-156532900D01*
X185554783Y-156673941D01*
X185527788Y-156809654D01*
X185513709Y-156795575D01*
X185333545Y-156675193D01*
X185133358Y-156592273D01*
X184920841Y-156550000D01*
X184704159Y-156550000D01*
X184491642Y-156592273D01*
X184291455Y-156675193D01*
X184111291Y-156795575D01*
X183958075Y-156948791D01*
X183837693Y-157128955D01*
X183754773Y-157329142D01*
X183712500Y-157541659D01*
X181400000Y-157541659D01*
X181400000Y-154612112D01*
X223600000Y-154612112D01*
X223600000Y-154887888D01*
X223653801Y-155158365D01*
X223759336Y-155413149D01*
X223912549Y-155642448D01*
X224107552Y-155837451D01*
X224336851Y-155990664D01*
X224591635Y-156096199D01*
X224862112Y-156150000D01*
X225137888Y-156150000D01*
X225408365Y-156096199D01*
X225663149Y-155990664D01*
X225892448Y-155837451D01*
X226087451Y-155642448D01*
X226240664Y-155413149D01*
X226346199Y-155158365D01*
X226400000Y-154887888D01*
X226400000Y-154612112D01*
X226346199Y-154341635D01*
X226240664Y-154086851D01*
X226087451Y-153857552D01*
X225892448Y-153662549D01*
X225663149Y-153509336D01*
X225408365Y-153403801D01*
X225137888Y-153350000D01*
X224862112Y-153350000D01*
X224591635Y-153403801D01*
X224336851Y-153509336D01*
X224107552Y-153662549D01*
X223912549Y-153857552D01*
X223759336Y-154086851D01*
X223653801Y-154341635D01*
X223600000Y-154612112D01*
X181400000Y-154612112D01*
X181400000Y-152558908D01*
X181571367Y-152610892D01*
X181714608Y-152625000D01*
X182510392Y-152625000D01*
X182653633Y-152610892D01*
X182837421Y-152555140D01*
X182862642Y-152541659D01*
X183712500Y-152541659D01*
X183712500Y-152758341D01*
X183754773Y-152970858D01*
X183837693Y-153171045D01*
X183958075Y-153351209D01*
X184111291Y-153504425D01*
X184291455Y-153624807D01*
X184491642Y-153707727D01*
X184704159Y-153750000D01*
X184920841Y-153750000D01*
X185133358Y-153707727D01*
X185333545Y-153624807D01*
X185499648Y-153513820D01*
X201625000Y-153513820D01*
X201625000Y-153686180D01*
X201658626Y-153855228D01*
X201724585Y-154014468D01*
X201820343Y-154157780D01*
X201942220Y-154279657D01*
X202085532Y-154375415D01*
X202244772Y-154441374D01*
X202413820Y-154475000D01*
X202586180Y-154475000D01*
X202755228Y-154441374D01*
X202914468Y-154375415D01*
X203057780Y-154279657D01*
X203179657Y-154157780D01*
X203275415Y-154014468D01*
X203341374Y-153855228D01*
X203375000Y-153686180D01*
X203375000Y-153513820D01*
X203341374Y-153344772D01*
X203275415Y-153185532D01*
X203179657Y-153042220D01*
X203057780Y-152920343D01*
X202914468Y-152824585D01*
X202755228Y-152758626D01*
X202586180Y-152725000D01*
X202413820Y-152725000D01*
X202244772Y-152758626D01*
X202085532Y-152824585D01*
X201942220Y-152920343D01*
X201820343Y-153042220D01*
X201724585Y-153185532D01*
X201658626Y-153344772D01*
X201625000Y-153513820D01*
X185499648Y-153513820D01*
X185513709Y-153504425D01*
X185666925Y-153351209D01*
X185787307Y-153171045D01*
X185870227Y-152970858D01*
X185912500Y-152758341D01*
X185912500Y-152541659D01*
X185870227Y-152329142D01*
X185787307Y-152128955D01*
X185666925Y-151948791D01*
X185513709Y-151795575D01*
X185391355Y-151713820D01*
X185916249Y-151713820D01*
X185916249Y-151886180D01*
X185949875Y-152055228D01*
X186015834Y-152214468D01*
X186111592Y-152357780D01*
X186233469Y-152479657D01*
X186376781Y-152575415D01*
X186536021Y-152641374D01*
X186705069Y-152675000D01*
X186877429Y-152675000D01*
X187046477Y-152641374D01*
X187205717Y-152575415D01*
X187349029Y-152479657D01*
X187470906Y-152357780D01*
X187566664Y-152214468D01*
X187629709Y-152062263D01*
X220960000Y-152062263D01*
X220960000Y-152357737D01*
X221017644Y-152647534D01*
X221130717Y-152920517D01*
X221294874Y-153166194D01*
X221503806Y-153375126D01*
X221749483Y-153539283D01*
X222022466Y-153652356D01*
X222312263Y-153710000D01*
X222607737Y-153710000D01*
X222897534Y-153652356D01*
X223170517Y-153539283D01*
X223416194Y-153375126D01*
X223625126Y-153166194D01*
X223789283Y-152920517D01*
X223902356Y-152647534D01*
X223960000Y-152357737D01*
X223960000Y-152062263D01*
X226040000Y-152062263D01*
X226040000Y-152357737D01*
X226097644Y-152647534D01*
X226210717Y-152920517D01*
X226374874Y-153166194D01*
X226583806Y-153375126D01*
X226829483Y-153539283D01*
X227102466Y-153652356D01*
X227392263Y-153710000D01*
X227687737Y-153710000D01*
X227977534Y-153652356D01*
X228250517Y-153539283D01*
X228496194Y-153375126D01*
X228705126Y-153166194D01*
X228869283Y-152920517D01*
X228982356Y-152647534D01*
X229040000Y-152357737D01*
X229040000Y-152062263D01*
X228982356Y-151772466D01*
X228869283Y-151499483D01*
X228705126Y-151253806D01*
X228496194Y-151044874D01*
X228250517Y-150880717D01*
X227977534Y-150767644D01*
X227687737Y-150710000D01*
X227392263Y-150710000D01*
X227102466Y-150767644D01*
X226829483Y-150880717D01*
X226583806Y-151044874D01*
X226374874Y-151253806D01*
X226210717Y-151499483D01*
X226097644Y-151772466D01*
X226040000Y-152062263D01*
X223960000Y-152062263D01*
X223902356Y-151772466D01*
X223789283Y-151499483D01*
X223625126Y-151253806D01*
X223416194Y-151044874D01*
X223170517Y-150880717D01*
X222897534Y-150767644D01*
X222607737Y-150710000D01*
X222312263Y-150710000D01*
X222022466Y-150767644D01*
X221749483Y-150880717D01*
X221503806Y-151044874D01*
X221294874Y-151253806D01*
X221130717Y-151499483D01*
X221017644Y-151772466D01*
X220960000Y-152062263D01*
X187629709Y-152062263D01*
X187632623Y-152055228D01*
X187666249Y-151886180D01*
X187666249Y-151713820D01*
X187632623Y-151544772D01*
X187566664Y-151385532D01*
X187470906Y-151242220D01*
X187349029Y-151120343D01*
X187205717Y-151024585D01*
X187046477Y-150958626D01*
X186877429Y-150925000D01*
X186705069Y-150925000D01*
X186536021Y-150958626D01*
X186376781Y-151024585D01*
X186233469Y-151120343D01*
X186111592Y-151242220D01*
X186015834Y-151385532D01*
X185949875Y-151544772D01*
X185916249Y-151713820D01*
X185391355Y-151713820D01*
X185333545Y-151675193D01*
X185133358Y-151592273D01*
X184920841Y-151550000D01*
X184704159Y-151550000D01*
X184491642Y-151592273D01*
X184291455Y-151675193D01*
X184111291Y-151795575D01*
X183958075Y-151948791D01*
X183837693Y-152128955D01*
X183754773Y-152329142D01*
X183712500Y-152541659D01*
X182862642Y-152541659D01*
X183006802Y-152464605D01*
X183155265Y-152342765D01*
X183277105Y-152194302D01*
X183367640Y-152024921D01*
X183423392Y-151841133D01*
X183442217Y-151650000D01*
X183423392Y-151458867D01*
X183367640Y-151275079D01*
X183277105Y-151105698D01*
X183155265Y-150957235D01*
X183006802Y-150835395D01*
X182837421Y-150744860D01*
X182653633Y-150689108D01*
X182510392Y-150675000D01*
X181714608Y-150675000D01*
X181571367Y-150689108D01*
X181400000Y-150741092D01*
X181400000Y-149163820D01*
X195275000Y-149163820D01*
X195275000Y-149336180D01*
X195308626Y-149505228D01*
X195374585Y-149664468D01*
X195470343Y-149807780D01*
X195592220Y-149929657D01*
X195735532Y-150025415D01*
X195894772Y-150091374D01*
X196063820Y-150125000D01*
X196236180Y-150125000D01*
X196405228Y-150091374D01*
X196564468Y-150025415D01*
X196707780Y-149929657D01*
X196829657Y-149807780D01*
X196925415Y-149664468D01*
X196991374Y-149505228D01*
X197025000Y-149336180D01*
X197025000Y-149163820D01*
X196991374Y-148994772D01*
X196925415Y-148835532D01*
X196829657Y-148692220D01*
X196707780Y-148570343D01*
X196564468Y-148474585D01*
X196405228Y-148408626D01*
X196236180Y-148375000D01*
X196063820Y-148375000D01*
X195894772Y-148408626D01*
X195735532Y-148474585D01*
X195592220Y-148570343D01*
X195470343Y-148692220D01*
X195374585Y-148835532D01*
X195308626Y-148994772D01*
X195275000Y-149163820D01*
X181400000Y-149163820D01*
X181400000Y-147163820D01*
X192775000Y-147163820D01*
X192775000Y-147336180D01*
X192808626Y-147505228D01*
X192874585Y-147664468D01*
X192970343Y-147807780D01*
X193092220Y-147929657D01*
X193235532Y-148025415D01*
X193394772Y-148091374D01*
X193563820Y-148125000D01*
X193736180Y-148125000D01*
X193905228Y-148091374D01*
X194064468Y-148025415D01*
X194207780Y-147929657D01*
X194329657Y-147807780D01*
X194425415Y-147664468D01*
X194491374Y-147505228D01*
X194525000Y-147336180D01*
X194525000Y-147163820D01*
X195275000Y-147163820D01*
X195275000Y-147336180D01*
X195308626Y-147505228D01*
X195374585Y-147664468D01*
X195470343Y-147807780D01*
X195592220Y-147929657D01*
X195735532Y-148025415D01*
X195894772Y-148091374D01*
X196063820Y-148125000D01*
X196236180Y-148125000D01*
X196405228Y-148091374D01*
X196564468Y-148025415D01*
X196707780Y-147929657D01*
X196829657Y-147807780D01*
X196925415Y-147664468D01*
X196983735Y-147523669D01*
X201725000Y-147523669D01*
X201725000Y-147676331D01*
X201754783Y-147826059D01*
X201813204Y-147967100D01*
X201898018Y-148094034D01*
X202005966Y-148201982D01*
X202132900Y-148286796D01*
X202273941Y-148345217D01*
X202423669Y-148375000D01*
X202576331Y-148375000D01*
X202726059Y-148345217D01*
X202867100Y-148286796D01*
X202994034Y-148201982D01*
X203101982Y-148094034D01*
X203186796Y-147967100D01*
X203245217Y-147826059D01*
X203275000Y-147676331D01*
X203275000Y-147523669D01*
X203975000Y-147523669D01*
X203975000Y-147676331D01*
X204004783Y-147826059D01*
X204063204Y-147967100D01*
X204148018Y-148094034D01*
X204255966Y-148201982D01*
X204382900Y-148286796D01*
X204523941Y-148345217D01*
X204673669Y-148375000D01*
X204826331Y-148375000D01*
X204976059Y-148345217D01*
X205117100Y-148286796D01*
X205244034Y-148201982D01*
X205351982Y-148094034D01*
X205436796Y-147967100D01*
X205495217Y-147826059D01*
X205525000Y-147676331D01*
X205525000Y-147523669D01*
X205495217Y-147373941D01*
X205436796Y-147232900D01*
X205351982Y-147105966D01*
X205244034Y-146998018D01*
X205117100Y-146913204D01*
X204976059Y-146854783D01*
X204826331Y-146825000D01*
X204673669Y-146825000D01*
X204523941Y-146854783D01*
X204382900Y-146913204D01*
X204255966Y-146998018D01*
X204148018Y-147105966D01*
X204063204Y-147232900D01*
X204004783Y-147373941D01*
X203975000Y-147523669D01*
X203275000Y-147523669D01*
X203245217Y-147373941D01*
X203186796Y-147232900D01*
X203101982Y-147105966D01*
X202994034Y-146998018D01*
X202867100Y-146913204D01*
X202726059Y-146854783D01*
X202576331Y-146825000D01*
X202423669Y-146825000D01*
X202273941Y-146854783D01*
X202132900Y-146913204D01*
X202005966Y-146998018D01*
X201898018Y-147105966D01*
X201813204Y-147232900D01*
X201754783Y-147373941D01*
X201725000Y-147523669D01*
X196983735Y-147523669D01*
X196991374Y-147505228D01*
X197025000Y-147336180D01*
X197025000Y-147163820D01*
X196991374Y-146994772D01*
X196925415Y-146835532D01*
X196829657Y-146692220D01*
X196707780Y-146570343D01*
X196564468Y-146474585D01*
X196405228Y-146408626D01*
X196236180Y-146375000D01*
X196063820Y-146375000D01*
X195894772Y-146408626D01*
X195735532Y-146474585D01*
X195592220Y-146570343D01*
X195470343Y-146692220D01*
X195374585Y-146835532D01*
X195308626Y-146994772D01*
X195275000Y-147163820D01*
X194525000Y-147163820D01*
X194491374Y-146994772D01*
X194425415Y-146835532D01*
X194329657Y-146692220D01*
X194207780Y-146570343D01*
X194064468Y-146474585D01*
X193905228Y-146408626D01*
X193736180Y-146375000D01*
X193563820Y-146375000D01*
X193394772Y-146408626D01*
X193235532Y-146474585D01*
X193092220Y-146570343D01*
X192970343Y-146692220D01*
X192874585Y-146835532D01*
X192808626Y-146994772D01*
X192775000Y-147163820D01*
X181400000Y-147163820D01*
X181400000Y-145323669D01*
X191325000Y-145323669D01*
X191325000Y-145476331D01*
X191354783Y-145626059D01*
X191413204Y-145767100D01*
X191498018Y-145894034D01*
X191605966Y-146001982D01*
X191732900Y-146086796D01*
X191873941Y-146145217D01*
X192023669Y-146175000D01*
X192176331Y-146175000D01*
X192326059Y-146145217D01*
X192467100Y-146086796D01*
X192594034Y-146001982D01*
X192701982Y-145894034D01*
X192786796Y-145767100D01*
X192804785Y-145723669D01*
X226025000Y-145723669D01*
X226025000Y-145876331D01*
X226054783Y-146026059D01*
X226113204Y-146167100D01*
X226198018Y-146294034D01*
X226305966Y-146401982D01*
X226432900Y-146486796D01*
X226573941Y-146545217D01*
X226723669Y-146575000D01*
X226876331Y-146575000D01*
X227026059Y-146545217D01*
X227167100Y-146486796D01*
X227294034Y-146401982D01*
X227401982Y-146294034D01*
X227486796Y-146167100D01*
X227545217Y-146026059D01*
X227575000Y-145876331D01*
X227575000Y-145723669D01*
X227545217Y-145573941D01*
X227486796Y-145432900D01*
X227401982Y-145305966D01*
X227294034Y-145198018D01*
X227167100Y-145113204D01*
X227026059Y-145054783D01*
X226876331Y-145025000D01*
X226723669Y-145025000D01*
X226573941Y-145054783D01*
X226432900Y-145113204D01*
X226305966Y-145198018D01*
X226198018Y-145305966D01*
X226113204Y-145432900D01*
X226054783Y-145573941D01*
X226025000Y-145723669D01*
X192804785Y-145723669D01*
X192845217Y-145626059D01*
X192875000Y-145476331D01*
X192875000Y-145323669D01*
X192845217Y-145173941D01*
X192786796Y-145032900D01*
X192701982Y-144905966D01*
X192594034Y-144798018D01*
X192467100Y-144713204D01*
X192326059Y-144654783D01*
X192176331Y-144625000D01*
X192023669Y-144625000D01*
X191873941Y-144654783D01*
X191732900Y-144713204D01*
X191605966Y-144798018D01*
X191498018Y-144905966D01*
X191413204Y-145032900D01*
X191354783Y-145173941D01*
X191325000Y-145323669D01*
X181400000Y-145323669D01*
X181400000Y-143983669D01*
X183825000Y-143983669D01*
X183825000Y-144136331D01*
X183854783Y-144286059D01*
X183913204Y-144427100D01*
X183998018Y-144554034D01*
X184105966Y-144661982D01*
X184232900Y-144746796D01*
X184373941Y-144805217D01*
X184523669Y-144835000D01*
X184676331Y-144835000D01*
X184826059Y-144805217D01*
X184967100Y-144746796D01*
X185094034Y-144661982D01*
X185201982Y-144554034D01*
X185286796Y-144427100D01*
X185345217Y-144286059D01*
X185375000Y-144136331D01*
X185375000Y-143983669D01*
X185345217Y-143833941D01*
X185286796Y-143692900D01*
X185201982Y-143565966D01*
X185094034Y-143458018D01*
X184967100Y-143373204D01*
X184826059Y-143314783D01*
X184676331Y-143285000D01*
X184523669Y-143285000D01*
X184373941Y-143314783D01*
X184232900Y-143373204D01*
X184105966Y-143458018D01*
X183998018Y-143565966D01*
X183913204Y-143692900D01*
X183854783Y-143833941D01*
X183825000Y-143983669D01*
X181400000Y-143983669D01*
X181400000Y-142013669D01*
X181700000Y-142013669D01*
X181700000Y-142166331D01*
X181729783Y-142316059D01*
X181788204Y-142457100D01*
X181873018Y-142584034D01*
X181980966Y-142691982D01*
X182107900Y-142776796D01*
X182248941Y-142835217D01*
X182398669Y-142865000D01*
X182551331Y-142865000D01*
X182701059Y-142835217D01*
X182842100Y-142776796D01*
X182969034Y-142691982D01*
X183006250Y-142654766D01*
X183043466Y-142691982D01*
X183170400Y-142776796D01*
X183311441Y-142835217D01*
X183461169Y-142865000D01*
X183613831Y-142865000D01*
X183763559Y-142835217D01*
X183904600Y-142776796D01*
X184031534Y-142691982D01*
X184139482Y-142584034D01*
X184224296Y-142457100D01*
X184282717Y-142316059D01*
X184312500Y-142166331D01*
X184312500Y-142013669D01*
X185125000Y-142013669D01*
X185125000Y-142166331D01*
X185154783Y-142316059D01*
X185213204Y-142457100D01*
X185298018Y-142584034D01*
X185405966Y-142691982D01*
X185532900Y-142776796D01*
X185673941Y-142835217D01*
X185823669Y-142865000D01*
X185976331Y-142865000D01*
X186126059Y-142835217D01*
X186267100Y-142776796D01*
X186394034Y-142691982D01*
X186501982Y-142584034D01*
X186586796Y-142457100D01*
X186645217Y-142316059D01*
X186675000Y-142166331D01*
X186675000Y-142013669D01*
X186645217Y-141863941D01*
X186586796Y-141722900D01*
X186501982Y-141595966D01*
X186394034Y-141488018D01*
X186267100Y-141403204D01*
X186126059Y-141344783D01*
X185976331Y-141315000D01*
X185823669Y-141315000D01*
X185673941Y-141344783D01*
X185532900Y-141403204D01*
X185405966Y-141488018D01*
X185298018Y-141595966D01*
X185213204Y-141722900D01*
X185154783Y-141863941D01*
X185125000Y-142013669D01*
X184312500Y-142013669D01*
X184282717Y-141863941D01*
X184224296Y-141722900D01*
X184139482Y-141595966D01*
X184031534Y-141488018D01*
X183904600Y-141403204D01*
X183763559Y-141344783D01*
X183613831Y-141315000D01*
X183461169Y-141315000D01*
X183311441Y-141344783D01*
X183170400Y-141403204D01*
X183043466Y-141488018D01*
X183006250Y-141525234D01*
X182969034Y-141488018D01*
X182842100Y-141403204D01*
X182701059Y-141344783D01*
X182551331Y-141315000D01*
X182398669Y-141315000D01*
X182248941Y-141344783D01*
X182107900Y-141403204D01*
X181980966Y-141488018D01*
X181873018Y-141595966D01*
X181788204Y-141722900D01*
X181729783Y-141863941D01*
X181700000Y-142013669D01*
X181400000Y-142013669D01*
X181400000Y-139518669D01*
X210725000Y-139518669D01*
X210725000Y-139671331D01*
X210754783Y-139821059D01*
X210813204Y-139962100D01*
X210898018Y-140089034D01*
X211005966Y-140196982D01*
X211055381Y-140230000D01*
X211005966Y-140263018D01*
X210898018Y-140370966D01*
X210813204Y-140497900D01*
X210754783Y-140638941D01*
X210725000Y-140788669D01*
X210725000Y-140941331D01*
X210754783Y-141091059D01*
X210813204Y-141232100D01*
X210898018Y-141359034D01*
X211005966Y-141466982D01*
X211055381Y-141500000D01*
X211005966Y-141533018D01*
X210898018Y-141640966D01*
X210813204Y-141767900D01*
X210754783Y-141908941D01*
X210725000Y-142058669D01*
X210725000Y-142211331D01*
X210754783Y-142361059D01*
X210813204Y-142502100D01*
X210898018Y-142629034D01*
X211005966Y-142736982D01*
X211055381Y-142770000D01*
X211005966Y-142803018D01*
X210898018Y-142910966D01*
X210813204Y-143037900D01*
X210754783Y-143178941D01*
X210725000Y-143328669D01*
X210725000Y-143481331D01*
X210754783Y-143631059D01*
X210813204Y-143772100D01*
X210898018Y-143899034D01*
X211005966Y-144006982D01*
X211132900Y-144091796D01*
X211273941Y-144150217D01*
X211423669Y-144180000D01*
X211576331Y-144180000D01*
X211726059Y-144150217D01*
X211867100Y-144091796D01*
X211994034Y-144006982D01*
X212101982Y-143899034D01*
X212186796Y-143772100D01*
X212245217Y-143631059D01*
X212275000Y-143481331D01*
X212275000Y-143328669D01*
X212245217Y-143178941D01*
X212186796Y-143037900D01*
X212101982Y-142910966D01*
X211994034Y-142803018D01*
X211944619Y-142770000D01*
X211994034Y-142736982D01*
X212101982Y-142629034D01*
X212186796Y-142502100D01*
X212245217Y-142361059D01*
X212275000Y-142211331D01*
X212275000Y-142058669D01*
X220325000Y-142058669D01*
X220325000Y-142211331D01*
X220354783Y-142361059D01*
X220413204Y-142502100D01*
X220498018Y-142629034D01*
X220605966Y-142736982D01*
X220655381Y-142770000D01*
X220605966Y-142803018D01*
X220498018Y-142910966D01*
X220413204Y-143037900D01*
X220354783Y-143178941D01*
X220325000Y-143328669D01*
X220325000Y-143481331D01*
X220354783Y-143631059D01*
X220413204Y-143772100D01*
X220498018Y-143899034D01*
X220605966Y-144006982D01*
X220732900Y-144091796D01*
X220873941Y-144150217D01*
X221023669Y-144180000D01*
X221176331Y-144180000D01*
X221326059Y-144150217D01*
X221467100Y-144091796D01*
X221594034Y-144006982D01*
X221701982Y-143899034D01*
X221786796Y-143772100D01*
X221845217Y-143631059D01*
X221875000Y-143481331D01*
X221875000Y-143328669D01*
X221845217Y-143178941D01*
X221786796Y-143037900D01*
X221701982Y-142910966D01*
X221594034Y-142803018D01*
X221544619Y-142770000D01*
X221594034Y-142736982D01*
X221701982Y-142629034D01*
X221786796Y-142502100D01*
X221845217Y-142361059D01*
X221875000Y-142211331D01*
X221875000Y-142058669D01*
X221845217Y-141908941D01*
X221786796Y-141767900D01*
X221701982Y-141640966D01*
X221594034Y-141533018D01*
X221580043Y-141523669D01*
X224225000Y-141523669D01*
X224225000Y-141676331D01*
X224254783Y-141826059D01*
X224313204Y-141967100D01*
X224398018Y-142094034D01*
X224505966Y-142201982D01*
X224632900Y-142286796D01*
X224773941Y-142345217D01*
X224923669Y-142375000D01*
X225076331Y-142375000D01*
X225226059Y-142345217D01*
X225367100Y-142286796D01*
X225494034Y-142201982D01*
X225601982Y-142094034D01*
X225686796Y-141967100D01*
X225745217Y-141826059D01*
X225775000Y-141676331D01*
X225775000Y-141523669D01*
X225745217Y-141373941D01*
X225686796Y-141232900D01*
X225601982Y-141105966D01*
X225494034Y-140998018D01*
X225367100Y-140913204D01*
X225226059Y-140854783D01*
X225076331Y-140825000D01*
X224923669Y-140825000D01*
X224773941Y-140854783D01*
X224632900Y-140913204D01*
X224505966Y-140998018D01*
X224398018Y-141105966D01*
X224313204Y-141232900D01*
X224254783Y-141373941D01*
X224225000Y-141523669D01*
X221580043Y-141523669D01*
X221467100Y-141448204D01*
X221326059Y-141389783D01*
X221176331Y-141360000D01*
X221023669Y-141360000D01*
X220873941Y-141389783D01*
X220732900Y-141448204D01*
X220605966Y-141533018D01*
X220498018Y-141640966D01*
X220413204Y-141767900D01*
X220354783Y-141908941D01*
X220325000Y-142058669D01*
X212275000Y-142058669D01*
X212245217Y-141908941D01*
X212186796Y-141767900D01*
X212101982Y-141640966D01*
X211994034Y-141533018D01*
X211944619Y-141500000D01*
X211994034Y-141466982D01*
X212101982Y-141359034D01*
X212186796Y-141232100D01*
X212245217Y-141091059D01*
X212275000Y-140941331D01*
X212275000Y-140788669D01*
X212245217Y-140638941D01*
X212186796Y-140497900D01*
X212101982Y-140370966D01*
X211994034Y-140263018D01*
X211944619Y-140230000D01*
X211994034Y-140196982D01*
X212101982Y-140089034D01*
X212186796Y-139962100D01*
X212202714Y-139923669D01*
X225375000Y-139923669D01*
X225375000Y-140076331D01*
X225404783Y-140226059D01*
X225463204Y-140367100D01*
X225548018Y-140494034D01*
X225655966Y-140601982D01*
X225782900Y-140686796D01*
X225923941Y-140745217D01*
X226073669Y-140775000D01*
X226226331Y-140775000D01*
X226376059Y-140745217D01*
X226517100Y-140686796D01*
X226644034Y-140601982D01*
X226751982Y-140494034D01*
X226836796Y-140367100D01*
X226895217Y-140226059D01*
X226925000Y-140076331D01*
X226925000Y-139923669D01*
X226895217Y-139773941D01*
X226836796Y-139632900D01*
X226751982Y-139505966D01*
X226644034Y-139398018D01*
X226517100Y-139313204D01*
X226376059Y-139254783D01*
X226226331Y-139225000D01*
X226073669Y-139225000D01*
X225923941Y-139254783D01*
X225782900Y-139313204D01*
X225655966Y-139398018D01*
X225548018Y-139505966D01*
X225463204Y-139632900D01*
X225404783Y-139773941D01*
X225375000Y-139923669D01*
X212202714Y-139923669D01*
X212245217Y-139821059D01*
X212275000Y-139671331D01*
X212275000Y-139518669D01*
X212245217Y-139368941D01*
X212186796Y-139227900D01*
X212101982Y-139100966D01*
X211994034Y-138993018D01*
X211867100Y-138908204D01*
X211726059Y-138849783D01*
X211576331Y-138820000D01*
X211423669Y-138820000D01*
X211273941Y-138849783D01*
X211132900Y-138908204D01*
X211005966Y-138993018D01*
X210898018Y-139100966D01*
X210813204Y-139227900D01*
X210754783Y-139368941D01*
X210725000Y-139518669D01*
X181400000Y-139518669D01*
X181400000Y-138383669D01*
X184475000Y-138383669D01*
X184475000Y-138536331D01*
X184504783Y-138686059D01*
X184563204Y-138827100D01*
X184648018Y-138954034D01*
X184755966Y-139061982D01*
X184882900Y-139146796D01*
X185023941Y-139205217D01*
X185173669Y-139235000D01*
X185326331Y-139235000D01*
X185476059Y-139205217D01*
X185617100Y-139146796D01*
X185744034Y-139061982D01*
X185851982Y-138954034D01*
X185936796Y-138827100D01*
X185995217Y-138686059D01*
X186025000Y-138536331D01*
X186025000Y-138383669D01*
X189025000Y-138383669D01*
X189025000Y-138536331D01*
X189054783Y-138686059D01*
X189113204Y-138827100D01*
X189198018Y-138954034D01*
X189305966Y-139061982D01*
X189432900Y-139146796D01*
X189573941Y-139205217D01*
X189723669Y-139235000D01*
X189876331Y-139235000D01*
X190026059Y-139205217D01*
X190167100Y-139146796D01*
X190294034Y-139061982D01*
X190300000Y-139056016D01*
X190305966Y-139061982D01*
X190432900Y-139146796D01*
X190573941Y-139205217D01*
X190723669Y-139235000D01*
X190876331Y-139235000D01*
X191026059Y-139205217D01*
X191167100Y-139146796D01*
X191294034Y-139061982D01*
X191401982Y-138954034D01*
X191486796Y-138827100D01*
X191545217Y-138686059D01*
X191575000Y-138536331D01*
X191575000Y-138383669D01*
X191545217Y-138233941D01*
X191486796Y-138092900D01*
X191401982Y-137965966D01*
X191294034Y-137858018D01*
X191167100Y-137773204D01*
X191026059Y-137714783D01*
X190876331Y-137685000D01*
X190723669Y-137685000D01*
X190573941Y-137714783D01*
X190432900Y-137773204D01*
X190305966Y-137858018D01*
X190300000Y-137863984D01*
X190294034Y-137858018D01*
X190167100Y-137773204D01*
X190026059Y-137714783D01*
X189876331Y-137685000D01*
X189723669Y-137685000D01*
X189573941Y-137714783D01*
X189432900Y-137773204D01*
X189305966Y-137858018D01*
X189198018Y-137965966D01*
X189113204Y-138092900D01*
X189054783Y-138233941D01*
X189025000Y-138383669D01*
X186025000Y-138383669D01*
X185995217Y-138233941D01*
X185936796Y-138092900D01*
X185851982Y-137965966D01*
X185744034Y-137858018D01*
X185617100Y-137773204D01*
X185476059Y-137714783D01*
X185326331Y-137685000D01*
X185173669Y-137685000D01*
X185023941Y-137714783D01*
X184882900Y-137773204D01*
X184755966Y-137858018D01*
X184648018Y-137965966D01*
X184563204Y-138092900D01*
X184504783Y-138233941D01*
X184475000Y-138383669D01*
X181400000Y-138383669D01*
X181400000Y-137523669D01*
X203925000Y-137523669D01*
X203925000Y-137676331D01*
X203954783Y-137826059D01*
X204013204Y-137967100D01*
X204098018Y-138094034D01*
X204205966Y-138201982D01*
X204332900Y-138286796D01*
X204473941Y-138345217D01*
X204623669Y-138375000D01*
X204776331Y-138375000D01*
X204926059Y-138345217D01*
X205067100Y-138286796D01*
X205194034Y-138201982D01*
X205301982Y-138094034D01*
X205386796Y-137967100D01*
X205445217Y-137826059D01*
X205475000Y-137676331D01*
X205475000Y-137523669D01*
X205445217Y-137373941D01*
X205386796Y-137232900D01*
X205347220Y-137173669D01*
X215590000Y-137173669D01*
X215590000Y-137326331D01*
X215619783Y-137476059D01*
X215678204Y-137617100D01*
X215763018Y-137744034D01*
X215768984Y-137750000D01*
X215763018Y-137755966D01*
X215678204Y-137882900D01*
X215619783Y-138023941D01*
X215590000Y-138173669D01*
X215590000Y-138326331D01*
X215619783Y-138476059D01*
X215678204Y-138617100D01*
X215763018Y-138744034D01*
X215870966Y-138851982D01*
X215997900Y-138936796D01*
X216138941Y-138995217D01*
X216288669Y-139025000D01*
X216441331Y-139025000D01*
X216591059Y-138995217D01*
X216732100Y-138936796D01*
X216859034Y-138851982D01*
X216966982Y-138744034D01*
X217051796Y-138617100D01*
X217110217Y-138476059D01*
X217140000Y-138326331D01*
X217140000Y-138223669D01*
X227025000Y-138223669D01*
X227025000Y-138376331D01*
X227054783Y-138526059D01*
X227113204Y-138667100D01*
X227198018Y-138794034D01*
X227305966Y-138901982D01*
X227432900Y-138986796D01*
X227573941Y-139045217D01*
X227723669Y-139075000D01*
X227876331Y-139075000D01*
X228026059Y-139045217D01*
X228167100Y-138986796D01*
X228294034Y-138901982D01*
X228401982Y-138794034D01*
X228486796Y-138667100D01*
X228545217Y-138526059D01*
X228575000Y-138376331D01*
X228575000Y-138223669D01*
X228545217Y-138073941D01*
X228486796Y-137932900D01*
X228401982Y-137805966D01*
X228294034Y-137698018D01*
X228167100Y-137613204D01*
X228026059Y-137554783D01*
X227876331Y-137525000D01*
X227723669Y-137525000D01*
X227573941Y-137554783D01*
X227432900Y-137613204D01*
X227305966Y-137698018D01*
X227198018Y-137805966D01*
X227113204Y-137932900D01*
X227054783Y-138073941D01*
X227025000Y-138223669D01*
X217140000Y-138223669D01*
X217140000Y-138173669D01*
X217110217Y-138023941D01*
X217051796Y-137882900D01*
X216966982Y-137755966D01*
X216961016Y-137750000D01*
X216966982Y-137744034D01*
X217051796Y-137617100D01*
X217110217Y-137476059D01*
X217140000Y-137326331D01*
X217140000Y-137173669D01*
X217110217Y-137023941D01*
X217051796Y-136882900D01*
X216966982Y-136755966D01*
X216859034Y-136648018D01*
X216732100Y-136563204D01*
X216591059Y-136504783D01*
X216441331Y-136475000D01*
X216288669Y-136475000D01*
X216138941Y-136504783D01*
X215997900Y-136563204D01*
X215870966Y-136648018D01*
X215763018Y-136755966D01*
X215678204Y-136882900D01*
X215619783Y-137023941D01*
X215590000Y-137173669D01*
X205347220Y-137173669D01*
X205301982Y-137105966D01*
X205194034Y-136998018D01*
X205067100Y-136913204D01*
X204926059Y-136854783D01*
X204776331Y-136825000D01*
X204623669Y-136825000D01*
X204473941Y-136854783D01*
X204332900Y-136913204D01*
X204205966Y-136998018D01*
X204098018Y-137105966D01*
X204013204Y-137232900D01*
X203954783Y-137373941D01*
X203925000Y-137523669D01*
X181400000Y-137523669D01*
X181400000Y-136388669D01*
X197475000Y-136388669D01*
X197475000Y-136541331D01*
X197504783Y-136691059D01*
X197563204Y-136832100D01*
X197648018Y-136959034D01*
X197755966Y-137066982D01*
X197882900Y-137151796D01*
X198023941Y-137210217D01*
X198173669Y-137240000D01*
X198326331Y-137240000D01*
X198476059Y-137210217D01*
X198617100Y-137151796D01*
X198744034Y-137066982D01*
X198851982Y-136959034D01*
X198936796Y-136832100D01*
X198995217Y-136691059D01*
X199025000Y-136541331D01*
X199025000Y-136388669D01*
X198995217Y-136238941D01*
X198936796Y-136097900D01*
X198851982Y-135970966D01*
X198744034Y-135863018D01*
X198617100Y-135778204D01*
X198476059Y-135719783D01*
X198326331Y-135690000D01*
X198173669Y-135690000D01*
X198023941Y-135719783D01*
X197882900Y-135778204D01*
X197755966Y-135863018D01*
X197648018Y-135970966D01*
X197563204Y-136097900D01*
X197504783Y-136238941D01*
X197475000Y-136388669D01*
X181400000Y-136388669D01*
X181400000Y-134723669D01*
X186525000Y-134723669D01*
X186525000Y-134876331D01*
X186554783Y-135026059D01*
X186613204Y-135167100D01*
X186698018Y-135294034D01*
X186805966Y-135401982D01*
X186932900Y-135486796D01*
X187073941Y-135545217D01*
X187223669Y-135575000D01*
X187376331Y-135575000D01*
X187526059Y-135545217D01*
X187667100Y-135486796D01*
X187794034Y-135401982D01*
X187901982Y-135294034D01*
X187980085Y-135177144D01*
X188013204Y-135257100D01*
X188098018Y-135384034D01*
X188205966Y-135491982D01*
X188332900Y-135576796D01*
X188473941Y-135635217D01*
X188623669Y-135665000D01*
X188776331Y-135665000D01*
X188926059Y-135635217D01*
X189067100Y-135576796D01*
X189194034Y-135491982D01*
X189301982Y-135384034D01*
X189386796Y-135257100D01*
X189445217Y-135116059D01*
X189475000Y-134966331D01*
X189475000Y-134813669D01*
X190975000Y-134813669D01*
X190975000Y-134966331D01*
X191004783Y-135116059D01*
X191063204Y-135257100D01*
X191148018Y-135384034D01*
X191255966Y-135491982D01*
X191382900Y-135576796D01*
X191523941Y-135635217D01*
X191673669Y-135665000D01*
X191826331Y-135665000D01*
X191976059Y-135635217D01*
X192117100Y-135576796D01*
X192244034Y-135491982D01*
X192351982Y-135384034D01*
X192436796Y-135257100D01*
X192495217Y-135116059D01*
X192525000Y-134966331D01*
X192525000Y-134813669D01*
X192507098Y-134723669D01*
X199475000Y-134723669D01*
X199475000Y-134876331D01*
X199504783Y-135026059D01*
X199563204Y-135167100D01*
X199648018Y-135294034D01*
X199711484Y-135357500D01*
X199648018Y-135420966D01*
X199563204Y-135547900D01*
X199504783Y-135688941D01*
X199475000Y-135838669D01*
X199475000Y-135991331D01*
X199504783Y-136141059D01*
X199563204Y-136282100D01*
X199648018Y-136409034D01*
X199755966Y-136516982D01*
X199882900Y-136601796D01*
X200023941Y-136660217D01*
X200173669Y-136690000D01*
X200326331Y-136690000D01*
X200476059Y-136660217D01*
X200617100Y-136601796D01*
X200744034Y-136516982D01*
X200851982Y-136409034D01*
X200936796Y-136282100D01*
X200995217Y-136141059D01*
X201025000Y-135991331D01*
X201025000Y-135838669D01*
X200995217Y-135688941D01*
X200936796Y-135547900D01*
X200851982Y-135420966D01*
X200788516Y-135357500D01*
X200851982Y-135294034D01*
X200936796Y-135167100D01*
X200995217Y-135026059D01*
X201025000Y-134876331D01*
X201025000Y-134723669D01*
X200995217Y-134573941D01*
X200936796Y-134432900D01*
X200863811Y-134323669D01*
X202625000Y-134323669D01*
X202625000Y-134476331D01*
X202654783Y-134626059D01*
X202713204Y-134767100D01*
X202798018Y-134894034D01*
X202803984Y-134900000D01*
X202798018Y-134905966D01*
X202713204Y-135032900D01*
X202654783Y-135173941D01*
X202625000Y-135323669D01*
X202625000Y-135476331D01*
X202654783Y-135626059D01*
X202713204Y-135767100D01*
X202798018Y-135894034D01*
X202905966Y-136001982D01*
X203032900Y-136086796D01*
X203173941Y-136145217D01*
X203323669Y-136175000D01*
X203476331Y-136175000D01*
X203626059Y-136145217D01*
X203767100Y-136086796D01*
X203894034Y-136001982D01*
X204001982Y-135894034D01*
X204086796Y-135767100D01*
X204125496Y-135673669D01*
X220740000Y-135673669D01*
X220740000Y-135826331D01*
X220769783Y-135976059D01*
X220828204Y-136117100D01*
X220913018Y-136244034D01*
X220918984Y-136250000D01*
X220913018Y-136255966D01*
X220828204Y-136382900D01*
X220769783Y-136523941D01*
X220740000Y-136673669D01*
X220740000Y-136826331D01*
X220769783Y-136976059D01*
X220828204Y-137117100D01*
X220913018Y-137244034D01*
X221020966Y-137351982D01*
X221147900Y-137436796D01*
X221288941Y-137495217D01*
X221438669Y-137525000D01*
X221591331Y-137525000D01*
X221741059Y-137495217D01*
X221882100Y-137436796D01*
X222009034Y-137351982D01*
X222116982Y-137244034D01*
X222201796Y-137117100D01*
X222260217Y-136976059D01*
X222290000Y-136826331D01*
X222290000Y-136673669D01*
X222260217Y-136523941D01*
X222201796Y-136382900D01*
X222116982Y-136255966D01*
X222111016Y-136250000D01*
X222116982Y-136244034D01*
X222201796Y-136117100D01*
X222260217Y-135976059D01*
X222290000Y-135826331D01*
X222290000Y-135673669D01*
X222260217Y-135523941D01*
X222201796Y-135382900D01*
X222116982Y-135255966D01*
X222009034Y-135148018D01*
X221882100Y-135063204D01*
X221741059Y-135004783D01*
X221591331Y-134975000D01*
X221438669Y-134975000D01*
X221288941Y-135004783D01*
X221147900Y-135063204D01*
X221020966Y-135148018D01*
X220913018Y-135255966D01*
X220828204Y-135382900D01*
X220769783Y-135523941D01*
X220740000Y-135673669D01*
X204125496Y-135673669D01*
X204145217Y-135626059D01*
X204175000Y-135476331D01*
X204175000Y-135323669D01*
X204145217Y-135173941D01*
X204086796Y-135032900D01*
X204001982Y-134905966D01*
X203996016Y-134900000D01*
X204001982Y-134894034D01*
X204086796Y-134767100D01*
X204145217Y-134626059D01*
X204175000Y-134476331D01*
X204175000Y-134323669D01*
X204145217Y-134173941D01*
X204086796Y-134032900D01*
X204001982Y-133905966D01*
X203894034Y-133798018D01*
X203767100Y-133713204D01*
X203626059Y-133654783D01*
X203476331Y-133625000D01*
X203323669Y-133625000D01*
X203173941Y-133654783D01*
X203032900Y-133713204D01*
X202905966Y-133798018D01*
X202798018Y-133905966D01*
X202713204Y-134032900D01*
X202654783Y-134173941D01*
X202625000Y-134323669D01*
X200863811Y-134323669D01*
X200851982Y-134305966D01*
X200744034Y-134198018D01*
X200617100Y-134113204D01*
X200476059Y-134054783D01*
X200326331Y-134025000D01*
X200173669Y-134025000D01*
X200023941Y-134054783D01*
X199882900Y-134113204D01*
X199755966Y-134198018D01*
X199648018Y-134305966D01*
X199563204Y-134432900D01*
X199504783Y-134573941D01*
X199475000Y-134723669D01*
X192507098Y-134723669D01*
X192495217Y-134663941D01*
X192436796Y-134522900D01*
X192351982Y-134395966D01*
X192244034Y-134288018D01*
X192117100Y-134203204D01*
X191976059Y-134144783D01*
X191826331Y-134115000D01*
X191673669Y-134115000D01*
X191523941Y-134144783D01*
X191382900Y-134203204D01*
X191255966Y-134288018D01*
X191148018Y-134395966D01*
X191063204Y-134522900D01*
X191004783Y-134663941D01*
X190975000Y-134813669D01*
X189475000Y-134813669D01*
X189445217Y-134663941D01*
X189386796Y-134522900D01*
X189301982Y-134395966D01*
X189194034Y-134288018D01*
X189067100Y-134203204D01*
X188926059Y-134144783D01*
X188776331Y-134115000D01*
X188623669Y-134115000D01*
X188473941Y-134144783D01*
X188332900Y-134203204D01*
X188205966Y-134288018D01*
X188098018Y-134395966D01*
X188019915Y-134512856D01*
X187986796Y-134432900D01*
X187901982Y-134305966D01*
X187794034Y-134198018D01*
X187667100Y-134113204D01*
X187526059Y-134054783D01*
X187376331Y-134025000D01*
X187223669Y-134025000D01*
X187073941Y-134054783D01*
X186932900Y-134113204D01*
X186805966Y-134198018D01*
X186698018Y-134305966D01*
X186613204Y-134432900D01*
X186554783Y-134573941D01*
X186525000Y-134723669D01*
X181400000Y-134723669D01*
X181400000Y-132323669D01*
X205425000Y-132323669D01*
X205425000Y-132476331D01*
X205454783Y-132626059D01*
X205513204Y-132767100D01*
X205598018Y-132894034D01*
X205705966Y-133001982D01*
X205832900Y-133086796D01*
X205973941Y-133145217D01*
X206123669Y-133175000D01*
X206276331Y-133175000D01*
X206426059Y-133145217D01*
X206567100Y-133086796D01*
X206694034Y-133001982D01*
X206700000Y-132996016D01*
X206705966Y-133001982D01*
X206832900Y-133086796D01*
X206973941Y-133145217D01*
X207123669Y-133175000D01*
X207276331Y-133175000D01*
X207426059Y-133145217D01*
X207567100Y-133086796D01*
X207694034Y-133001982D01*
X207801982Y-132894034D01*
X207886796Y-132767100D01*
X207945217Y-132626059D01*
X207975000Y-132476331D01*
X207975000Y-132423669D01*
X216460000Y-132423669D01*
X216460000Y-132576331D01*
X216489783Y-132726059D01*
X216548204Y-132867100D01*
X216633018Y-132994034D01*
X216638984Y-133000000D01*
X216633018Y-133005966D01*
X216548204Y-133132900D01*
X216489783Y-133273941D01*
X216460000Y-133423669D01*
X216460000Y-133576331D01*
X216489783Y-133726059D01*
X216548204Y-133867100D01*
X216633018Y-133994034D01*
X216638984Y-134000000D01*
X216633018Y-134005966D01*
X216548204Y-134132900D01*
X216489783Y-134273941D01*
X216460000Y-134423669D01*
X216460000Y-134576331D01*
X216489783Y-134726059D01*
X216548204Y-134867100D01*
X216633018Y-134994034D01*
X216740966Y-135101982D01*
X216867900Y-135186796D01*
X217008941Y-135245217D01*
X217158669Y-135275000D01*
X217311331Y-135275000D01*
X217461059Y-135245217D01*
X217602100Y-135186796D01*
X217729034Y-135101982D01*
X217836982Y-134994034D01*
X217921796Y-134867100D01*
X217980217Y-134726059D01*
X218010000Y-134576331D01*
X218010000Y-134423669D01*
X217980217Y-134273941D01*
X217921796Y-134132900D01*
X217836982Y-134005966D01*
X217831016Y-134000000D01*
X217836982Y-133994034D01*
X217921796Y-133867100D01*
X217980217Y-133726059D01*
X218010000Y-133576331D01*
X218010000Y-133423669D01*
X217980217Y-133273941D01*
X217921796Y-133132900D01*
X217836982Y-133005966D01*
X217831016Y-133000000D01*
X217836982Y-132994034D01*
X217921796Y-132867100D01*
X217980217Y-132726059D01*
X218010000Y-132576331D01*
X218010000Y-132423669D01*
X217980217Y-132273941D01*
X217921796Y-132132900D01*
X217836982Y-132005966D01*
X217729034Y-131898018D01*
X217602100Y-131813204D01*
X217461059Y-131754783D01*
X217311331Y-131725000D01*
X217158669Y-131725000D01*
X217008941Y-131754783D01*
X216867900Y-131813204D01*
X216740966Y-131898018D01*
X216633018Y-132005966D01*
X216548204Y-132132900D01*
X216489783Y-132273941D01*
X216460000Y-132423669D01*
X207975000Y-132423669D01*
X207975000Y-132323669D01*
X207945217Y-132173941D01*
X207886796Y-132032900D01*
X207801982Y-131905966D01*
X207694034Y-131798018D01*
X207567100Y-131713204D01*
X207426059Y-131654783D01*
X207276331Y-131625000D01*
X207123669Y-131625000D01*
X206973941Y-131654783D01*
X206832900Y-131713204D01*
X206705966Y-131798018D01*
X206700000Y-131803984D01*
X206694034Y-131798018D01*
X206567100Y-131713204D01*
X206426059Y-131654783D01*
X206276331Y-131625000D01*
X206123669Y-131625000D01*
X205973941Y-131654783D01*
X205832900Y-131713204D01*
X205705966Y-131798018D01*
X205598018Y-131905966D01*
X205513204Y-132032900D01*
X205454783Y-132173941D01*
X205425000Y-132323669D01*
X181400000Y-132323669D01*
X181400000Y-130223669D01*
X187025000Y-130223669D01*
X187025000Y-130376331D01*
X187054783Y-130526059D01*
X187113204Y-130667100D01*
X187198018Y-130794034D01*
X187241484Y-130837500D01*
X187198018Y-130880966D01*
X187113204Y-131007900D01*
X187054783Y-131148941D01*
X187025000Y-131298669D01*
X187025000Y-131451331D01*
X187054783Y-131601059D01*
X187113204Y-131742100D01*
X187198018Y-131869034D01*
X187305966Y-131976982D01*
X187432900Y-132061796D01*
X187573941Y-132120217D01*
X187723669Y-132150000D01*
X187876331Y-132150000D01*
X188026059Y-132120217D01*
X188167100Y-132061796D01*
X188294034Y-131976982D01*
X188401982Y-131869034D01*
X188486796Y-131742100D01*
X188545217Y-131601059D01*
X188575000Y-131451331D01*
X188575000Y-131298669D01*
X188545217Y-131148941D01*
X188486796Y-131007900D01*
X188401982Y-130880966D01*
X188358516Y-130837500D01*
X188372347Y-130823669D01*
X228960000Y-130823669D01*
X228960000Y-130976331D01*
X228989783Y-131126059D01*
X229048204Y-131267100D01*
X229133018Y-131394034D01*
X229240966Y-131501982D01*
X229367900Y-131586796D01*
X229508941Y-131645217D01*
X229658669Y-131675000D01*
X229811331Y-131675000D01*
X229961059Y-131645217D01*
X230102100Y-131586796D01*
X230229034Y-131501982D01*
X230336982Y-131394034D01*
X230421796Y-131267100D01*
X230480217Y-131126059D01*
X230510000Y-130976331D01*
X230510000Y-130823669D01*
X230480217Y-130673941D01*
X230421796Y-130532900D01*
X230336982Y-130405966D01*
X230229034Y-130298018D01*
X230102100Y-130213204D01*
X229961059Y-130154783D01*
X229811331Y-130125000D01*
X229658669Y-130125000D01*
X229508941Y-130154783D01*
X229367900Y-130213204D01*
X229240966Y-130298018D01*
X229133018Y-130405966D01*
X229048204Y-130532900D01*
X228989783Y-130673941D01*
X228960000Y-130823669D01*
X188372347Y-130823669D01*
X188401982Y-130794034D01*
X188486796Y-130667100D01*
X188545217Y-130526059D01*
X188575000Y-130376331D01*
X188575000Y-130223669D01*
X188545217Y-130073941D01*
X188486796Y-129932900D01*
X188401982Y-129805966D01*
X188294034Y-129698018D01*
X188167100Y-129613204D01*
X188026059Y-129554783D01*
X187876331Y-129525000D01*
X187723669Y-129525000D01*
X187573941Y-129554783D01*
X187432900Y-129613204D01*
X187305966Y-129698018D01*
X187198018Y-129805966D01*
X187113204Y-129932900D01*
X187054783Y-130073941D01*
X187025000Y-130223669D01*
X181400000Y-130223669D01*
X181400000Y-127764574D01*
X181625000Y-127764574D01*
X181625000Y-128035426D01*
X181677841Y-128301073D01*
X181781491Y-128551307D01*
X181931968Y-128776511D01*
X182123489Y-128968032D01*
X182348693Y-129118509D01*
X182598927Y-129222159D01*
X182864574Y-129275000D01*
X183135426Y-129275000D01*
X183401073Y-129222159D01*
X183651307Y-129118509D01*
X183876511Y-128968032D01*
X184068032Y-128776511D01*
X184218509Y-128551307D01*
X184322159Y-128301073D01*
X184375000Y-128035426D01*
X184375000Y-127764574D01*
X188125000Y-127764574D01*
X188125000Y-128035426D01*
X188177841Y-128301073D01*
X188281491Y-128551307D01*
X188431968Y-128776511D01*
X188623489Y-128968032D01*
X188848693Y-129118509D01*
X189098927Y-129222159D01*
X189364574Y-129275000D01*
X189635426Y-129275000D01*
X189901073Y-129222159D01*
X190151307Y-129118509D01*
X190376511Y-128968032D01*
X190420874Y-128923669D01*
X208825000Y-128923669D01*
X208825000Y-129076331D01*
X208854783Y-129226059D01*
X208913204Y-129367100D01*
X208998018Y-129494034D01*
X209105966Y-129601982D01*
X209232900Y-129686796D01*
X209373941Y-129745217D01*
X209523669Y-129775000D01*
X209676331Y-129775000D01*
X209826059Y-129745217D01*
X209967100Y-129686796D01*
X210094034Y-129601982D01*
X210201982Y-129494034D01*
X210248998Y-129423669D01*
X216460000Y-129423669D01*
X216460000Y-129576331D01*
X216489783Y-129726059D01*
X216548204Y-129867100D01*
X216633018Y-129994034D01*
X216740966Y-130101982D01*
X216867900Y-130186796D01*
X217008941Y-130245217D01*
X217158669Y-130275000D01*
X217311331Y-130275000D01*
X217461059Y-130245217D01*
X217602100Y-130186796D01*
X217729034Y-130101982D01*
X217836982Y-129994034D01*
X217921796Y-129867100D01*
X217980217Y-129726059D01*
X218010000Y-129576331D01*
X218010000Y-129423669D01*
X217980217Y-129273941D01*
X217921796Y-129132900D01*
X217836982Y-129005966D01*
X217729034Y-128898018D01*
X217602100Y-128813204D01*
X217461059Y-128754783D01*
X217311331Y-128725000D01*
X217158669Y-128725000D01*
X217008941Y-128754783D01*
X216867900Y-128813204D01*
X216740966Y-128898018D01*
X216633018Y-129005966D01*
X216548204Y-129132900D01*
X216489783Y-129273941D01*
X216460000Y-129423669D01*
X210248998Y-129423669D01*
X210286796Y-129367100D01*
X210345217Y-129226059D01*
X210375000Y-129076331D01*
X210375000Y-128923669D01*
X210345217Y-128773941D01*
X210286796Y-128632900D01*
X210201982Y-128505966D01*
X210094034Y-128398018D01*
X209967100Y-128313204D01*
X209826059Y-128254783D01*
X209676331Y-128225000D01*
X209523669Y-128225000D01*
X209373941Y-128254783D01*
X209232900Y-128313204D01*
X209105966Y-128398018D01*
X208998018Y-128505966D01*
X208913204Y-128632900D01*
X208854783Y-128773941D01*
X208825000Y-128923669D01*
X190420874Y-128923669D01*
X190568032Y-128776511D01*
X190718509Y-128551307D01*
X190822159Y-128301073D01*
X190875000Y-128035426D01*
X190875000Y-127773669D01*
X227775000Y-127773669D01*
X227775000Y-127926331D01*
X227804783Y-128076059D01*
X227863204Y-128217100D01*
X227948018Y-128344034D01*
X228055966Y-128451982D01*
X228182900Y-128536796D01*
X228323941Y-128595217D01*
X228473669Y-128625000D01*
X228626331Y-128625000D01*
X228776059Y-128595217D01*
X228917100Y-128536796D01*
X229044034Y-128451982D01*
X229151982Y-128344034D01*
X229236796Y-128217100D01*
X229295217Y-128076059D01*
X229325000Y-127926331D01*
X229325000Y-127773669D01*
X229295217Y-127623941D01*
X229236796Y-127482900D01*
X229151982Y-127355966D01*
X229044034Y-127248018D01*
X228917100Y-127163204D01*
X228776059Y-127104783D01*
X228626331Y-127075000D01*
X228473669Y-127075000D01*
X228323941Y-127104783D01*
X228182900Y-127163204D01*
X228055966Y-127248018D01*
X227948018Y-127355966D01*
X227863204Y-127482900D01*
X227804783Y-127623941D01*
X227775000Y-127773669D01*
X190875000Y-127773669D01*
X190875000Y-127764574D01*
X190822159Y-127498927D01*
X190718509Y-127248693D01*
X190568032Y-127023489D01*
X190376511Y-126831968D01*
X190151307Y-126681491D01*
X189901073Y-126577841D01*
X189635426Y-126525000D01*
X189364574Y-126525000D01*
X189098927Y-126577841D01*
X188848693Y-126681491D01*
X188623489Y-126831968D01*
X188431968Y-127023489D01*
X188281491Y-127248693D01*
X188177841Y-127498927D01*
X188125000Y-127764574D01*
X184375000Y-127764574D01*
X184322159Y-127498927D01*
X184218509Y-127248693D01*
X184068032Y-127023489D01*
X183876511Y-126831968D01*
X183651307Y-126681491D01*
X183401073Y-126577841D01*
X183135426Y-126525000D01*
X182864574Y-126525000D01*
X182598927Y-126577841D01*
X182348693Y-126681491D01*
X182123489Y-126831968D01*
X181931968Y-127023489D01*
X181781491Y-127248693D01*
X181677841Y-127498927D01*
X181625000Y-127764574D01*
X181400000Y-127764574D01*
X181400000Y-125708837D01*
X191885000Y-125708837D01*
X191885000Y-126291162D01*
X191903014Y-126474062D01*
X191974205Y-126708745D01*
X192089812Y-126925031D01*
X192245392Y-127114608D01*
X192434968Y-127270188D01*
X192651254Y-127385795D01*
X192885937Y-127456986D01*
X193130000Y-127481024D01*
X193374062Y-127456986D01*
X193608745Y-127385795D01*
X193825031Y-127270188D01*
X194014608Y-127114608D01*
X194170188Y-126925032D01*
X194285795Y-126708746D01*
X194356986Y-126474063D01*
X194375000Y-126291163D01*
X194375000Y-125708838D01*
X194375000Y-125708837D01*
X194425000Y-125708837D01*
X194425000Y-126291162D01*
X194443014Y-126474062D01*
X194514205Y-126708745D01*
X194629812Y-126925031D01*
X194785392Y-127114608D01*
X194974968Y-127270188D01*
X195191254Y-127385795D01*
X195425937Y-127456986D01*
X195670000Y-127481024D01*
X195914062Y-127456986D01*
X196148745Y-127385795D01*
X196365031Y-127270188D01*
X196554608Y-127114608D01*
X196710188Y-126925032D01*
X196825795Y-126708746D01*
X196896986Y-126474063D01*
X196915000Y-126291163D01*
X196915000Y-125708838D01*
X196915000Y-125708837D01*
X196965000Y-125708837D01*
X196965000Y-126291162D01*
X196983014Y-126474062D01*
X197054205Y-126708745D01*
X197169812Y-126925031D01*
X197325392Y-127114608D01*
X197514968Y-127270188D01*
X197731254Y-127385795D01*
X197965937Y-127456986D01*
X198210000Y-127481024D01*
X198454062Y-127456986D01*
X198688745Y-127385795D01*
X198905031Y-127270188D01*
X199094608Y-127114608D01*
X199250188Y-126925032D01*
X199365795Y-126708746D01*
X199436986Y-126474063D01*
X199455000Y-126291163D01*
X199455000Y-125953669D01*
X208825000Y-125953669D01*
X208825000Y-126106331D01*
X208854783Y-126256059D01*
X208913204Y-126397100D01*
X208998018Y-126524034D01*
X209105966Y-126631982D01*
X209232900Y-126716796D01*
X209373941Y-126775217D01*
X209523669Y-126805000D01*
X209676331Y-126805000D01*
X209826059Y-126775217D01*
X209967100Y-126716796D01*
X210094034Y-126631982D01*
X210100000Y-126626016D01*
X210105966Y-126631982D01*
X210232900Y-126716796D01*
X210373941Y-126775217D01*
X210523669Y-126805000D01*
X210676331Y-126805000D01*
X210826059Y-126775217D01*
X210967100Y-126716796D01*
X211094034Y-126631982D01*
X211201982Y-126524034D01*
X211286796Y-126397100D01*
X211296501Y-126373669D01*
X214950000Y-126373669D01*
X214950000Y-126526331D01*
X214979783Y-126676059D01*
X215038204Y-126817100D01*
X215123018Y-126944034D01*
X215230966Y-127051982D01*
X215357900Y-127136796D01*
X215498941Y-127195217D01*
X215648669Y-127225000D01*
X215801331Y-127225000D01*
X215951059Y-127195217D01*
X216092100Y-127136796D01*
X216219034Y-127051982D01*
X216326982Y-126944034D01*
X216411796Y-126817100D01*
X216470217Y-126676059D01*
X216500000Y-126526331D01*
X216500000Y-126373669D01*
X216470217Y-126223941D01*
X216411796Y-126082900D01*
X216326982Y-125955966D01*
X216219034Y-125848018D01*
X216092100Y-125763204D01*
X215951059Y-125704783D01*
X215801331Y-125675000D01*
X215648669Y-125675000D01*
X215498941Y-125704783D01*
X215357900Y-125763204D01*
X215230966Y-125848018D01*
X215123018Y-125955966D01*
X215038204Y-126082900D01*
X214979783Y-126223941D01*
X214950000Y-126373669D01*
X211296501Y-126373669D01*
X211345217Y-126256059D01*
X211375000Y-126106331D01*
X211375000Y-125953669D01*
X211345217Y-125803941D01*
X211286796Y-125662900D01*
X211201982Y-125535966D01*
X211094034Y-125428018D01*
X210967100Y-125343204D01*
X210826059Y-125284783D01*
X210676331Y-125255000D01*
X210523669Y-125255000D01*
X210373941Y-125284783D01*
X210232900Y-125343204D01*
X210105966Y-125428018D01*
X210100000Y-125433984D01*
X210094034Y-125428018D01*
X209967100Y-125343204D01*
X209826059Y-125284783D01*
X209676331Y-125255000D01*
X209523669Y-125255000D01*
X209373941Y-125284783D01*
X209232900Y-125343204D01*
X209105966Y-125428018D01*
X208998018Y-125535966D01*
X208913204Y-125662900D01*
X208854783Y-125803941D01*
X208825000Y-125953669D01*
X199455000Y-125953669D01*
X199455000Y-125708838D01*
X199436986Y-125525938D01*
X199365795Y-125291255D01*
X199250188Y-125074968D01*
X199094608Y-124885392D01*
X198905032Y-124729812D01*
X198688746Y-124614205D01*
X198454063Y-124543014D01*
X198210000Y-124518976D01*
X197965938Y-124543014D01*
X197731255Y-124614205D01*
X197514969Y-124729812D01*
X197325393Y-124885392D01*
X197169813Y-125074968D01*
X197054205Y-125291254D01*
X196983014Y-125525937D01*
X196965000Y-125708837D01*
X196915000Y-125708837D01*
X196896986Y-125525938D01*
X196825795Y-125291255D01*
X196710188Y-125074968D01*
X196554608Y-124885392D01*
X196365032Y-124729812D01*
X196148746Y-124614205D01*
X195914063Y-124543014D01*
X195670000Y-124518976D01*
X195425938Y-124543014D01*
X195191255Y-124614205D01*
X194974969Y-124729812D01*
X194785393Y-124885392D01*
X194629813Y-125074968D01*
X194514205Y-125291254D01*
X194443014Y-125525937D01*
X194425000Y-125708837D01*
X194375000Y-125708837D01*
X194356986Y-125525938D01*
X194285795Y-125291255D01*
X194170188Y-125074968D01*
X194014608Y-124885392D01*
X193825032Y-124729812D01*
X193608746Y-124614205D01*
X193374063Y-124543014D01*
X193130000Y-124518976D01*
X192885938Y-124543014D01*
X192651255Y-124614205D01*
X192434969Y-124729812D01*
X192245393Y-124885392D01*
X192089813Y-125074968D01*
X191974205Y-125291254D01*
X191903014Y-125525937D01*
X191885000Y-125708837D01*
X181400000Y-125708837D01*
X181400000Y-123264574D01*
X181625000Y-123264574D01*
X181625000Y-123535426D01*
X181677841Y-123801073D01*
X181781491Y-124051307D01*
X181931968Y-124276511D01*
X182123489Y-124468032D01*
X182348693Y-124618509D01*
X182598927Y-124722159D01*
X182864574Y-124775000D01*
X183135426Y-124775000D01*
X183401073Y-124722159D01*
X183651307Y-124618509D01*
X183876511Y-124468032D01*
X184068032Y-124276511D01*
X184218509Y-124051307D01*
X184322159Y-123801073D01*
X184375000Y-123535426D01*
X184375000Y-123264574D01*
X188125000Y-123264574D01*
X188125000Y-123535426D01*
X188177841Y-123801073D01*
X188281491Y-124051307D01*
X188431968Y-124276511D01*
X188623489Y-124468032D01*
X188848693Y-124618509D01*
X189098927Y-124722159D01*
X189364574Y-124775000D01*
X189635426Y-124775000D01*
X189901073Y-124722159D01*
X190151307Y-124618509D01*
X190376511Y-124468032D01*
X190568032Y-124276511D01*
X190718509Y-124051307D01*
X190763093Y-123943669D01*
X216425000Y-123943669D01*
X216425000Y-124096331D01*
X216454783Y-124246059D01*
X216513204Y-124387100D01*
X216598018Y-124514034D01*
X216705966Y-124621982D01*
X216832900Y-124706796D01*
X216973941Y-124765217D01*
X217123669Y-124795000D01*
X217276331Y-124795000D01*
X217426059Y-124765217D01*
X217567100Y-124706796D01*
X217694034Y-124621982D01*
X217700000Y-124616016D01*
X217705966Y-124621982D01*
X217832900Y-124706796D01*
X217973941Y-124765217D01*
X218123669Y-124795000D01*
X218276331Y-124795000D01*
X218426059Y-124765217D01*
X218567100Y-124706796D01*
X218694034Y-124621982D01*
X218700000Y-124616016D01*
X218705966Y-124621982D01*
X218832900Y-124706796D01*
X218973941Y-124765217D01*
X219123669Y-124795000D01*
X219276331Y-124795000D01*
X219426059Y-124765217D01*
X219567100Y-124706796D01*
X219694034Y-124621982D01*
X219801982Y-124514034D01*
X219886796Y-124387100D01*
X219945217Y-124246059D01*
X219975000Y-124096331D01*
X219975000Y-124008669D01*
X224225000Y-124008669D01*
X224225000Y-124161331D01*
X224254783Y-124311059D01*
X224313204Y-124452100D01*
X224398018Y-124579034D01*
X224505966Y-124686982D01*
X224632900Y-124771796D01*
X224773941Y-124830217D01*
X224923669Y-124860000D01*
X225076331Y-124860000D01*
X225226059Y-124830217D01*
X225362578Y-124773669D01*
X227125000Y-124773669D01*
X227125000Y-124926331D01*
X227154783Y-125076059D01*
X227213204Y-125217100D01*
X227298018Y-125344034D01*
X227405966Y-125451982D01*
X227532900Y-125536796D01*
X227673941Y-125595217D01*
X227823669Y-125625000D01*
X227976331Y-125625000D01*
X228126059Y-125595217D01*
X228267100Y-125536796D01*
X228394034Y-125451982D01*
X228501982Y-125344034D01*
X228586796Y-125217100D01*
X228645217Y-125076059D01*
X228675000Y-124926331D01*
X228675000Y-124773669D01*
X228645217Y-124623941D01*
X228586796Y-124482900D01*
X228501982Y-124355966D01*
X228394034Y-124248018D01*
X228267100Y-124163204D01*
X228126059Y-124104783D01*
X227976331Y-124075000D01*
X227823669Y-124075000D01*
X227673941Y-124104783D01*
X227532900Y-124163204D01*
X227405966Y-124248018D01*
X227298018Y-124355966D01*
X227213204Y-124482900D01*
X227154783Y-124623941D01*
X227125000Y-124773669D01*
X225362578Y-124773669D01*
X225367100Y-124771796D01*
X225494034Y-124686982D01*
X225601982Y-124579034D01*
X225686796Y-124452100D01*
X225745217Y-124311059D01*
X225775000Y-124161331D01*
X225775000Y-124008669D01*
X225745217Y-123858941D01*
X225686796Y-123717900D01*
X225601982Y-123590966D01*
X225494034Y-123483018D01*
X225367100Y-123398204D01*
X225226059Y-123339783D01*
X225076331Y-123310000D01*
X224923669Y-123310000D01*
X224773941Y-123339783D01*
X224632900Y-123398204D01*
X224505966Y-123483018D01*
X224398018Y-123590966D01*
X224313204Y-123717900D01*
X224254783Y-123858941D01*
X224225000Y-124008669D01*
X219975000Y-124008669D01*
X219975000Y-123943669D01*
X219945217Y-123793941D01*
X219886796Y-123652900D01*
X219801982Y-123525966D01*
X219694034Y-123418018D01*
X219567100Y-123333204D01*
X219426059Y-123274783D01*
X219276331Y-123245000D01*
X219123669Y-123245000D01*
X218973941Y-123274783D01*
X218832900Y-123333204D01*
X218705966Y-123418018D01*
X218700000Y-123423984D01*
X218694034Y-123418018D01*
X218567100Y-123333204D01*
X218426059Y-123274783D01*
X218276331Y-123245000D01*
X218123669Y-123245000D01*
X217973941Y-123274783D01*
X217832900Y-123333204D01*
X217705966Y-123418018D01*
X217700000Y-123423984D01*
X217694034Y-123418018D01*
X217567100Y-123333204D01*
X217426059Y-123274783D01*
X217276331Y-123245000D01*
X217123669Y-123245000D01*
X216973941Y-123274783D01*
X216832900Y-123333204D01*
X216705966Y-123418018D01*
X216598018Y-123525966D01*
X216513204Y-123652900D01*
X216454783Y-123793941D01*
X216425000Y-123943669D01*
X190763093Y-123943669D01*
X190822159Y-123801073D01*
X190875000Y-123535426D01*
X190875000Y-123264574D01*
X190822159Y-122998927D01*
X190718509Y-122748693D01*
X190568032Y-122523489D01*
X190376511Y-122331968D01*
X190151307Y-122181491D01*
X189901073Y-122077841D01*
X189635426Y-122025000D01*
X189364574Y-122025000D01*
X189098927Y-122077841D01*
X188848693Y-122181491D01*
X188623489Y-122331968D01*
X188431968Y-122523489D01*
X188281491Y-122748693D01*
X188177841Y-122998927D01*
X188125000Y-123264574D01*
X184375000Y-123264574D01*
X184322159Y-122998927D01*
X184218509Y-122748693D01*
X184068032Y-122523489D01*
X183876511Y-122331968D01*
X183651307Y-122181491D01*
X183401073Y-122077841D01*
X183135426Y-122025000D01*
X182864574Y-122025000D01*
X182598927Y-122077841D01*
X182348693Y-122181491D01*
X182123489Y-122331968D01*
X181931968Y-122523489D01*
X181781491Y-122748693D01*
X181677841Y-122998927D01*
X181625000Y-123264574D01*
X181400000Y-123264574D01*
X181400000Y-121808669D01*
X222225000Y-121808669D01*
X222225000Y-121961331D01*
X222254783Y-122111059D01*
X222313204Y-122252100D01*
X222398018Y-122379034D01*
X222505966Y-122486982D01*
X222632900Y-122571796D01*
X222773941Y-122630217D01*
X222923669Y-122660000D01*
X223076331Y-122660000D01*
X223226059Y-122630217D01*
X223367100Y-122571796D01*
X223494034Y-122486982D01*
X223601982Y-122379034D01*
X223686796Y-122252100D01*
X223745217Y-122111059D01*
X223775000Y-121961331D01*
X223775000Y-121909238D01*
X226489431Y-121909238D01*
X226489431Y-122061900D01*
X226519214Y-122211628D01*
X226577635Y-122352669D01*
X226662449Y-122479603D01*
X226770397Y-122587551D01*
X226897331Y-122672365D01*
X227038372Y-122730786D01*
X227188100Y-122760569D01*
X227340762Y-122760569D01*
X227490490Y-122730786D01*
X227631531Y-122672365D01*
X227758465Y-122587551D01*
X227866413Y-122479603D01*
X227951227Y-122352669D01*
X228009648Y-122211628D01*
X228039431Y-122061900D01*
X228039431Y-121909238D01*
X228009648Y-121759510D01*
X227951227Y-121618469D01*
X227866413Y-121491535D01*
X227758465Y-121383587D01*
X227631531Y-121298773D01*
X227490490Y-121240352D01*
X227340762Y-121210569D01*
X227188100Y-121210569D01*
X227038372Y-121240352D01*
X226897331Y-121298773D01*
X226770397Y-121383587D01*
X226662449Y-121491535D01*
X226577635Y-121618469D01*
X226519214Y-121759510D01*
X226489431Y-121909238D01*
X223775000Y-121909238D01*
X223775000Y-121808669D01*
X223745217Y-121658941D01*
X223686796Y-121517900D01*
X223601982Y-121390966D01*
X223494034Y-121283018D01*
X223367100Y-121198204D01*
X223226059Y-121139783D01*
X223076331Y-121110000D01*
X222923669Y-121110000D01*
X222773941Y-121139783D01*
X222632900Y-121198204D01*
X222505966Y-121283018D01*
X222398018Y-121390966D01*
X222313204Y-121517900D01*
X222254783Y-121658941D01*
X222225000Y-121808669D01*
X181400000Y-121808669D01*
X181400000Y-119423669D01*
X209990000Y-119423669D01*
X209990000Y-119576331D01*
X210019783Y-119726059D01*
X210078204Y-119867100D01*
X210163018Y-119994034D01*
X210168984Y-120000000D01*
X210163018Y-120005966D01*
X210078204Y-120132900D01*
X210019783Y-120273941D01*
X209990000Y-120423669D01*
X209990000Y-120576331D01*
X210019783Y-120726059D01*
X210078204Y-120867100D01*
X210163018Y-120994034D01*
X210270966Y-121101982D01*
X210397900Y-121186796D01*
X210538941Y-121245217D01*
X210688669Y-121275000D01*
X210841331Y-121275000D01*
X210991059Y-121245217D01*
X211132100Y-121186796D01*
X211259034Y-121101982D01*
X211366982Y-120994034D01*
X211451796Y-120867100D01*
X211510217Y-120726059D01*
X211540000Y-120576331D01*
X211540000Y-120423669D01*
X211510217Y-120273941D01*
X211451796Y-120132900D01*
X211366982Y-120005966D01*
X211361016Y-120000000D01*
X211366982Y-119994034D01*
X211451796Y-119867100D01*
X211510217Y-119726059D01*
X211540000Y-119576331D01*
X211540000Y-119423669D01*
X211510217Y-119273941D01*
X211451796Y-119132900D01*
X211366982Y-119005966D01*
X211259034Y-118898018D01*
X211132100Y-118813204D01*
X210991059Y-118754783D01*
X210841331Y-118725000D01*
X210688669Y-118725000D01*
X210538941Y-118754783D01*
X210397900Y-118813204D01*
X210270966Y-118898018D01*
X210163018Y-119005966D01*
X210078204Y-119132900D01*
X210019783Y-119273941D01*
X209990000Y-119423669D01*
X181400000Y-119423669D01*
X181400000Y-118423669D01*
X217430000Y-118423669D01*
X217430000Y-118576331D01*
X217459783Y-118726059D01*
X217518204Y-118867100D01*
X217603018Y-118994034D01*
X217608984Y-119000000D01*
X217603018Y-119005966D01*
X217518204Y-119132900D01*
X217459783Y-119273941D01*
X217430000Y-119423669D01*
X217430000Y-119576331D01*
X217459783Y-119726059D01*
X217518204Y-119867100D01*
X217603018Y-119994034D01*
X217710966Y-120101982D01*
X217837900Y-120186796D01*
X217978941Y-120245217D01*
X218128669Y-120275000D01*
X218281331Y-120275000D01*
X218431059Y-120245217D01*
X218572100Y-120186796D01*
X218699034Y-120101982D01*
X218806982Y-119994034D01*
X218891796Y-119867100D01*
X218950217Y-119726059D01*
X218980000Y-119576331D01*
X218980000Y-119423669D01*
X218950217Y-119273941D01*
X218891796Y-119132900D01*
X218806982Y-119005966D01*
X218801016Y-119000000D01*
X218806982Y-118994034D01*
X218891796Y-118867100D01*
X218950217Y-118726059D01*
X218980000Y-118576331D01*
X218980000Y-118423669D01*
X218950217Y-118273941D01*
X218891796Y-118132900D01*
X218806982Y-118005966D01*
X218699034Y-117898018D01*
X218587763Y-117823669D01*
X222490000Y-117823669D01*
X222490000Y-117976331D01*
X222519783Y-118126059D01*
X222578204Y-118267100D01*
X222663018Y-118394034D01*
X222668984Y-118400000D01*
X222663018Y-118405966D01*
X222578204Y-118532900D01*
X222519783Y-118673941D01*
X222490000Y-118823669D01*
X222490000Y-118976331D01*
X222519783Y-119126059D01*
X222578204Y-119267100D01*
X222663018Y-119394034D01*
X222770966Y-119501982D01*
X222897900Y-119586796D01*
X223038941Y-119645217D01*
X223188669Y-119675000D01*
X223341331Y-119675000D01*
X223491059Y-119645217D01*
X223632100Y-119586796D01*
X223759034Y-119501982D01*
X223866982Y-119394034D01*
X223951796Y-119267100D01*
X224010217Y-119126059D01*
X224040000Y-118976331D01*
X224040000Y-118823669D01*
X224010217Y-118673941D01*
X223951796Y-118532900D01*
X223866982Y-118405966D01*
X223861016Y-118400000D01*
X223866982Y-118394034D01*
X223951796Y-118267100D01*
X224010217Y-118126059D01*
X224040000Y-117976331D01*
X224040000Y-117823669D01*
X224010217Y-117673941D01*
X223951796Y-117532900D01*
X223866982Y-117405966D01*
X223759034Y-117298018D01*
X223632100Y-117213204D01*
X223491059Y-117154783D01*
X223341331Y-117125000D01*
X223188669Y-117125000D01*
X223038941Y-117154783D01*
X222897900Y-117213204D01*
X222770966Y-117298018D01*
X222663018Y-117405966D01*
X222578204Y-117532900D01*
X222519783Y-117673941D01*
X222490000Y-117823669D01*
X218587763Y-117823669D01*
X218572100Y-117813204D01*
X218431059Y-117754783D01*
X218281331Y-117725000D01*
X218128669Y-117725000D01*
X217978941Y-117754783D01*
X217837900Y-117813204D01*
X217710966Y-117898018D01*
X217603018Y-118005966D01*
X217518204Y-118132900D01*
X217459783Y-118273941D01*
X217430000Y-118423669D01*
X181400000Y-118423669D01*
X181400000Y-116364574D01*
X181625000Y-116364574D01*
X181625000Y-116635426D01*
X181677841Y-116901073D01*
X181781491Y-117151307D01*
X181931968Y-117376511D01*
X182123489Y-117568032D01*
X182348693Y-117718509D01*
X182598927Y-117822159D01*
X182864574Y-117875000D01*
X183135426Y-117875000D01*
X183401073Y-117822159D01*
X183651307Y-117718509D01*
X183876511Y-117568032D01*
X184068032Y-117376511D01*
X184218509Y-117151307D01*
X184322159Y-116901073D01*
X184375000Y-116635426D01*
X184375000Y-116364574D01*
X188125000Y-116364574D01*
X188125000Y-116635426D01*
X188177841Y-116901073D01*
X188281491Y-117151307D01*
X188431968Y-117376511D01*
X188623489Y-117568032D01*
X188848693Y-117718509D01*
X189098927Y-117822159D01*
X189364574Y-117875000D01*
X189635426Y-117875000D01*
X189901073Y-117822159D01*
X190151307Y-117718509D01*
X190376511Y-117568032D01*
X190568032Y-117376511D01*
X190718509Y-117151307D01*
X190822159Y-116901073D01*
X190875000Y-116635426D01*
X190875000Y-116364574D01*
X191425000Y-116364574D01*
X191425000Y-116635426D01*
X191477841Y-116901073D01*
X191581491Y-117151307D01*
X191731968Y-117376511D01*
X191923489Y-117568032D01*
X192148693Y-117718509D01*
X192398927Y-117822159D01*
X192664574Y-117875000D01*
X192935426Y-117875000D01*
X193201073Y-117822159D01*
X193451307Y-117718509D01*
X193676511Y-117568032D01*
X193868032Y-117376511D01*
X194018509Y-117151307D01*
X194122159Y-116901073D01*
X194175000Y-116635426D01*
X194175000Y-116364574D01*
X197925000Y-116364574D01*
X197925000Y-116635426D01*
X197977841Y-116901073D01*
X198081491Y-117151307D01*
X198231968Y-117376511D01*
X198423489Y-117568032D01*
X198648693Y-117718509D01*
X198898927Y-117822159D01*
X199164574Y-117875000D01*
X199435426Y-117875000D01*
X199701073Y-117822159D01*
X199951307Y-117718509D01*
X200176511Y-117568032D01*
X200320874Y-117423669D01*
X215460000Y-117423669D01*
X215460000Y-117576331D01*
X215489783Y-117726059D01*
X215548204Y-117867100D01*
X215633018Y-117994034D01*
X215740966Y-118101982D01*
X215867900Y-118186796D01*
X216008941Y-118245217D01*
X216158669Y-118275000D01*
X216311331Y-118275000D01*
X216461059Y-118245217D01*
X216602100Y-118186796D01*
X216729034Y-118101982D01*
X216836982Y-117994034D01*
X216921796Y-117867100D01*
X216980217Y-117726059D01*
X217010000Y-117576331D01*
X217010000Y-117423669D01*
X216980217Y-117273941D01*
X216921796Y-117132900D01*
X216836982Y-117005966D01*
X216729034Y-116898018D01*
X216640212Y-116838669D01*
X226475000Y-116838669D01*
X226475000Y-116991331D01*
X226504783Y-117141059D01*
X226563204Y-117282100D01*
X226648018Y-117409034D01*
X226755966Y-117516982D01*
X226882900Y-117601796D01*
X227023941Y-117660217D01*
X227173669Y-117690000D01*
X227326331Y-117690000D01*
X227476059Y-117660217D01*
X227617100Y-117601796D01*
X227744034Y-117516982D01*
X227851982Y-117409034D01*
X227936796Y-117282100D01*
X227995217Y-117141059D01*
X228025000Y-116991331D01*
X228025000Y-116838669D01*
X227995217Y-116688941D01*
X227936796Y-116547900D01*
X227851982Y-116420966D01*
X227744034Y-116313018D01*
X227617100Y-116228204D01*
X227476059Y-116169783D01*
X227326331Y-116140000D01*
X227173669Y-116140000D01*
X227023941Y-116169783D01*
X226882900Y-116228204D01*
X226755966Y-116313018D01*
X226648018Y-116420966D01*
X226563204Y-116547900D01*
X226504783Y-116688941D01*
X226475000Y-116838669D01*
X216640212Y-116838669D01*
X216602100Y-116813204D01*
X216461059Y-116754783D01*
X216311331Y-116725000D01*
X216158669Y-116725000D01*
X216008941Y-116754783D01*
X215867900Y-116813204D01*
X215740966Y-116898018D01*
X215633018Y-117005966D01*
X215548204Y-117132900D01*
X215489783Y-117273941D01*
X215460000Y-117423669D01*
X200320874Y-117423669D01*
X200368032Y-117376511D01*
X200518509Y-117151307D01*
X200622159Y-116901073D01*
X200675000Y-116635426D01*
X200675000Y-116364574D01*
X200622159Y-116098927D01*
X200518509Y-115848693D01*
X200368032Y-115623489D01*
X200176511Y-115431968D01*
X199951307Y-115281491D01*
X199701073Y-115177841D01*
X199435426Y-115125000D01*
X199164574Y-115125000D01*
X198898927Y-115177841D01*
X198648693Y-115281491D01*
X198423489Y-115431968D01*
X198231968Y-115623489D01*
X198081491Y-115848693D01*
X197977841Y-116098927D01*
X197925000Y-116364574D01*
X194175000Y-116364574D01*
X194122159Y-116098927D01*
X194018509Y-115848693D01*
X193868032Y-115623489D01*
X193676511Y-115431968D01*
X193451307Y-115281491D01*
X193201073Y-115177841D01*
X192935426Y-115125000D01*
X192664574Y-115125000D01*
X192398927Y-115177841D01*
X192148693Y-115281491D01*
X191923489Y-115431968D01*
X191731968Y-115623489D01*
X191581491Y-115848693D01*
X191477841Y-116098927D01*
X191425000Y-116364574D01*
X190875000Y-116364574D01*
X190822159Y-116098927D01*
X190718509Y-115848693D01*
X190568032Y-115623489D01*
X190376511Y-115431968D01*
X190151307Y-115281491D01*
X189901073Y-115177841D01*
X189635426Y-115125000D01*
X189364574Y-115125000D01*
X189098927Y-115177841D01*
X188848693Y-115281491D01*
X188623489Y-115431968D01*
X188431968Y-115623489D01*
X188281491Y-115848693D01*
X188177841Y-116098927D01*
X188125000Y-116364574D01*
X184375000Y-116364574D01*
X184322159Y-116098927D01*
X184218509Y-115848693D01*
X184068032Y-115623489D01*
X183876511Y-115431968D01*
X183651307Y-115281491D01*
X183401073Y-115177841D01*
X183135426Y-115125000D01*
X182864574Y-115125000D01*
X182598927Y-115177841D01*
X182348693Y-115281491D01*
X182123489Y-115431968D01*
X181931968Y-115623489D01*
X181781491Y-115848693D01*
X181677841Y-116098927D01*
X181625000Y-116364574D01*
X181400000Y-116364574D01*
X181400000Y-114838669D01*
X228910000Y-114838669D01*
X228910000Y-114991331D01*
X228939783Y-115141059D01*
X228998204Y-115282100D01*
X229083018Y-115409034D01*
X229190966Y-115516982D01*
X229317900Y-115601796D01*
X229458941Y-115660217D01*
X229608669Y-115690000D01*
X229761331Y-115690000D01*
X229911059Y-115660217D01*
X230052100Y-115601796D01*
X230179034Y-115516982D01*
X230286982Y-115409034D01*
X230371796Y-115282100D01*
X230430217Y-115141059D01*
X230460000Y-114991331D01*
X230460000Y-114838669D01*
X230430217Y-114688941D01*
X230371796Y-114547900D01*
X230286982Y-114420966D01*
X230179034Y-114313018D01*
X230052100Y-114228204D01*
X229911059Y-114169783D01*
X229761331Y-114140000D01*
X229608669Y-114140000D01*
X229458941Y-114169783D01*
X229317900Y-114228204D01*
X229190966Y-114313018D01*
X229083018Y-114420966D01*
X228998204Y-114547900D01*
X228939783Y-114688941D01*
X228910000Y-114838669D01*
X181400000Y-114838669D01*
X181400000Y-111864574D01*
X181625000Y-111864574D01*
X181625000Y-112135426D01*
X181677841Y-112401073D01*
X181781491Y-112651307D01*
X181931968Y-112876511D01*
X182123489Y-113068032D01*
X182348693Y-113218509D01*
X182598927Y-113322159D01*
X182864574Y-113375000D01*
X183135426Y-113375000D01*
X183401073Y-113322159D01*
X183651307Y-113218509D01*
X183876511Y-113068032D01*
X184068032Y-112876511D01*
X184218509Y-112651307D01*
X184322159Y-112401073D01*
X184375000Y-112135426D01*
X184375000Y-111864574D01*
X188125000Y-111864574D01*
X188125000Y-112135426D01*
X188177841Y-112401073D01*
X188281491Y-112651307D01*
X188431968Y-112876511D01*
X188623489Y-113068032D01*
X188848693Y-113218509D01*
X189098927Y-113322159D01*
X189364574Y-113375000D01*
X189635426Y-113375000D01*
X189901073Y-113322159D01*
X190151307Y-113218509D01*
X190376511Y-113068032D01*
X190568032Y-112876511D01*
X190718509Y-112651307D01*
X190822159Y-112401073D01*
X190875000Y-112135426D01*
X190875000Y-111864574D01*
X191425000Y-111864574D01*
X191425000Y-112135426D01*
X191477841Y-112401073D01*
X191581491Y-112651307D01*
X191731968Y-112876511D01*
X191923489Y-113068032D01*
X192148693Y-113218509D01*
X192398927Y-113322159D01*
X192664574Y-113375000D01*
X192935426Y-113375000D01*
X193201073Y-113322159D01*
X193451307Y-113218509D01*
X193676511Y-113068032D01*
X193868032Y-112876511D01*
X194018509Y-112651307D01*
X194122159Y-112401073D01*
X194175000Y-112135426D01*
X194175000Y-111864574D01*
X197925000Y-111864574D01*
X197925000Y-112135426D01*
X197977841Y-112401073D01*
X198081491Y-112651307D01*
X198231968Y-112876511D01*
X198423489Y-113068032D01*
X198648693Y-113218509D01*
X198898927Y-113322159D01*
X199164574Y-113375000D01*
X199435426Y-113375000D01*
X199701073Y-113322159D01*
X199951307Y-113218509D01*
X200176511Y-113068032D01*
X200368032Y-112876511D01*
X200518509Y-112651307D01*
X200622159Y-112401073D01*
X200675000Y-112135426D01*
X200675000Y-111864574D01*
X200622159Y-111598927D01*
X200518509Y-111348693D01*
X200368032Y-111123489D01*
X200176511Y-110931968D01*
X199951307Y-110781491D01*
X199701073Y-110677841D01*
X199435426Y-110625000D01*
X199164574Y-110625000D01*
X198898927Y-110677841D01*
X198648693Y-110781491D01*
X198423489Y-110931968D01*
X198231968Y-111123489D01*
X198081491Y-111348693D01*
X197977841Y-111598927D01*
X197925000Y-111864574D01*
X194175000Y-111864574D01*
X194122159Y-111598927D01*
X194018509Y-111348693D01*
X193868032Y-111123489D01*
X193676511Y-110931968D01*
X193451307Y-110781491D01*
X193201073Y-110677841D01*
X192935426Y-110625000D01*
X192664574Y-110625000D01*
X192398927Y-110677841D01*
X192148693Y-110781491D01*
X191923489Y-110931968D01*
X191731968Y-111123489D01*
X191581491Y-111348693D01*
X191477841Y-111598927D01*
X191425000Y-111864574D01*
X190875000Y-111864574D01*
X190822159Y-111598927D01*
X190718509Y-111348693D01*
X190568032Y-111123489D01*
X190376511Y-110931968D01*
X190151307Y-110781491D01*
X189901073Y-110677841D01*
X189635426Y-110625000D01*
X189364574Y-110625000D01*
X189098927Y-110677841D01*
X188848693Y-110781491D01*
X188623489Y-110931968D01*
X188431968Y-111123489D01*
X188281491Y-111348693D01*
X188177841Y-111598927D01*
X188125000Y-111864574D01*
X184375000Y-111864574D01*
X184322159Y-111598927D01*
X184218509Y-111348693D01*
X184068032Y-111123489D01*
X183876511Y-110931968D01*
X183651307Y-110781491D01*
X183401073Y-110677841D01*
X183135426Y-110625000D01*
X182864574Y-110625000D01*
X182598927Y-110677841D01*
X182348693Y-110781491D01*
X182123489Y-110931968D01*
X181931968Y-111123489D01*
X181781491Y-111348693D01*
X181677841Y-111598927D01*
X181625000Y-111864574D01*
X181400000Y-111864574D01*
X181400000Y-110400000D01*
X230600000Y-110400000D01*
X230600001Y-159600000D01*
G37*
X230600001Y-159600000D02*
X182689539Y-159600000D01*
X182837421Y-159555140D01*
X183006802Y-159464605D01*
X183155265Y-159342765D01*
X183277105Y-159194302D01*
X183367640Y-159024921D01*
X183423392Y-158841133D01*
X183442217Y-158650000D01*
X183423392Y-158458867D01*
X183367640Y-158275079D01*
X183277105Y-158105698D01*
X183155265Y-157957235D01*
X183006802Y-157835395D01*
X182837421Y-157744860D01*
X182653633Y-157689108D01*
X182510392Y-157675000D01*
X181714608Y-157675000D01*
X181571367Y-157689108D01*
X181400000Y-157741092D01*
X181400000Y-157541659D01*
X183712500Y-157541659D01*
X183712500Y-157758341D01*
X183754773Y-157970858D01*
X183837693Y-158171045D01*
X183958075Y-158351209D01*
X184111291Y-158504425D01*
X184291455Y-158624807D01*
X184491642Y-158707727D01*
X184704159Y-158750000D01*
X184920841Y-158750000D01*
X185133358Y-158707727D01*
X185333545Y-158624807D01*
X185513709Y-158504425D01*
X185666925Y-158351209D01*
X185787307Y-158171045D01*
X185870227Y-157970858D01*
X185912500Y-157758341D01*
X185912500Y-157573165D01*
X185932900Y-157586796D01*
X186073941Y-157645217D01*
X186223669Y-157675000D01*
X186376331Y-157675000D01*
X186526059Y-157645217D01*
X186667100Y-157586796D01*
X186794034Y-157501982D01*
X186901982Y-157394034D01*
X186986796Y-157267100D01*
X187045217Y-157126059D01*
X187075000Y-156976331D01*
X187075000Y-156823669D01*
X188225000Y-156823669D01*
X188225000Y-156976331D01*
X188254783Y-157126059D01*
X188313204Y-157267100D01*
X188398018Y-157394034D01*
X188505966Y-157501982D01*
X188632900Y-157586796D01*
X188773941Y-157645217D01*
X188923669Y-157675000D01*
X189076331Y-157675000D01*
X189226059Y-157645217D01*
X189367100Y-157586796D01*
X189494034Y-157501982D01*
X189500000Y-157496016D01*
X189505966Y-157501982D01*
X189632900Y-157586796D01*
X189773941Y-157645217D01*
X189923669Y-157675000D01*
X190076331Y-157675000D01*
X190226059Y-157645217D01*
X190367100Y-157586796D01*
X190494034Y-157501982D01*
X190601982Y-157394034D01*
X190686796Y-157267100D01*
X190738505Y-157142263D01*
X220960000Y-157142263D01*
X220960000Y-157437737D01*
X221017644Y-157727534D01*
X221130717Y-158000517D01*
X221294874Y-158246194D01*
X221503806Y-158455126D01*
X221749483Y-158619283D01*
X222022466Y-158732356D01*
X222312263Y-158790000D01*
X222607737Y-158790000D01*
X222897534Y-158732356D01*
X223170517Y-158619283D01*
X223416194Y-158455126D01*
X223625126Y-158246194D01*
X223789283Y-158000517D01*
X223902356Y-157727534D01*
X223960000Y-157437737D01*
X223960000Y-157142263D01*
X226040000Y-157142263D01*
X226040000Y-157437737D01*
X226097644Y-157727534D01*
X226210717Y-158000517D01*
X226374874Y-158246194D01*
X226583806Y-158455126D01*
X226829483Y-158619283D01*
X227102466Y-158732356D01*
X227392263Y-158790000D01*
X227687737Y-158790000D01*
X227977534Y-158732356D01*
X228250517Y-158619283D01*
X228496194Y-158455126D01*
X228705126Y-158246194D01*
X228869283Y-158000517D01*
X228982356Y-157727534D01*
X229040000Y-157437737D01*
X229040000Y-157142263D01*
X228982356Y-156852466D01*
X228869283Y-156579483D01*
X228705126Y-156333806D01*
X228496194Y-156124874D01*
X228250517Y-155960717D01*
X227977534Y-155847644D01*
X227687737Y-155790000D01*
X227392263Y-155790000D01*
X227102466Y-155847644D01*
X226829483Y-155960717D01*
X226583806Y-156124874D01*
X226374874Y-156333806D01*
X226210717Y-156579483D01*
X226097644Y-156852466D01*
X226040000Y-157142263D01*
X223960000Y-157142263D01*
X223902356Y-156852466D01*
X223789283Y-156579483D01*
X223625126Y-156333806D01*
X223416194Y-156124874D01*
X223170517Y-155960717D01*
X222897534Y-155847644D01*
X222607737Y-155790000D01*
X222312263Y-155790000D01*
X222022466Y-155847644D01*
X221749483Y-155960717D01*
X221503806Y-156124874D01*
X221294874Y-156333806D01*
X221130717Y-156579483D01*
X221017644Y-156852466D01*
X220960000Y-157142263D01*
X190738505Y-157142263D01*
X190745217Y-157126059D01*
X190775000Y-156976331D01*
X190775000Y-156823669D01*
X190745217Y-156673941D01*
X190686796Y-156532900D01*
X190601982Y-156405966D01*
X190494034Y-156298018D01*
X190367100Y-156213204D01*
X190226059Y-156154783D01*
X190076331Y-156125000D01*
X189923669Y-156125000D01*
X189773941Y-156154783D01*
X189632900Y-156213204D01*
X189505966Y-156298018D01*
X189500000Y-156303984D01*
X189494034Y-156298018D01*
X189367100Y-156213204D01*
X189226059Y-156154783D01*
X189076331Y-156125000D01*
X188923669Y-156125000D01*
X188773941Y-156154783D01*
X188632900Y-156213204D01*
X188505966Y-156298018D01*
X188398018Y-156405966D01*
X188313204Y-156532900D01*
X188254783Y-156673941D01*
X188225000Y-156823669D01*
X187075000Y-156823669D01*
X187045217Y-156673941D01*
X186986796Y-156532900D01*
X186901982Y-156405966D01*
X186794034Y-156298018D01*
X186667100Y-156213204D01*
X186526059Y-156154783D01*
X186376331Y-156125000D01*
X186223669Y-156125000D01*
X186073941Y-156154783D01*
X185932900Y-156213204D01*
X185805966Y-156298018D01*
X185698018Y-156405966D01*
X185613204Y-156532900D01*
X185554783Y-156673941D01*
X185527788Y-156809654D01*
X185513709Y-156795575D01*
X185333545Y-156675193D01*
X185133358Y-156592273D01*
X184920841Y-156550000D01*
X184704159Y-156550000D01*
X184491642Y-156592273D01*
X184291455Y-156675193D01*
X184111291Y-156795575D01*
X183958075Y-156948791D01*
X183837693Y-157128955D01*
X183754773Y-157329142D01*
X183712500Y-157541659D01*
X181400000Y-157541659D01*
X181400000Y-154612112D01*
X223600000Y-154612112D01*
X223600000Y-154887888D01*
X223653801Y-155158365D01*
X223759336Y-155413149D01*
X223912549Y-155642448D01*
X224107552Y-155837451D01*
X224336851Y-155990664D01*
X224591635Y-156096199D01*
X224862112Y-156150000D01*
X225137888Y-156150000D01*
X225408365Y-156096199D01*
X225663149Y-155990664D01*
X225892448Y-155837451D01*
X226087451Y-155642448D01*
X226240664Y-155413149D01*
X226346199Y-155158365D01*
X226400000Y-154887888D01*
X226400000Y-154612112D01*
X226346199Y-154341635D01*
X226240664Y-154086851D01*
X226087451Y-153857552D01*
X225892448Y-153662549D01*
X225663149Y-153509336D01*
X225408365Y-153403801D01*
X225137888Y-153350000D01*
X224862112Y-153350000D01*
X224591635Y-153403801D01*
X224336851Y-153509336D01*
X224107552Y-153662549D01*
X223912549Y-153857552D01*
X223759336Y-154086851D01*
X223653801Y-154341635D01*
X223600000Y-154612112D01*
X181400000Y-154612112D01*
X181400000Y-152558908D01*
X181571367Y-152610892D01*
X181714608Y-152625000D01*
X182510392Y-152625000D01*
X182653633Y-152610892D01*
X182837421Y-152555140D01*
X182862642Y-152541659D01*
X183712500Y-152541659D01*
X183712500Y-152758341D01*
X183754773Y-152970858D01*
X183837693Y-153171045D01*
X183958075Y-153351209D01*
X184111291Y-153504425D01*
X184291455Y-153624807D01*
X184491642Y-153707727D01*
X184704159Y-153750000D01*
X184920841Y-153750000D01*
X185133358Y-153707727D01*
X185333545Y-153624807D01*
X185499648Y-153513820D01*
X201625000Y-153513820D01*
X201625000Y-153686180D01*
X201658626Y-153855228D01*
X201724585Y-154014468D01*
X201820343Y-154157780D01*
X201942220Y-154279657D01*
X202085532Y-154375415D01*
X202244772Y-154441374D01*
X202413820Y-154475000D01*
X202586180Y-154475000D01*
X202755228Y-154441374D01*
X202914468Y-154375415D01*
X203057780Y-154279657D01*
X203179657Y-154157780D01*
X203275415Y-154014468D01*
X203341374Y-153855228D01*
X203375000Y-153686180D01*
X203375000Y-153513820D01*
X203341374Y-153344772D01*
X203275415Y-153185532D01*
X203179657Y-153042220D01*
X203057780Y-152920343D01*
X202914468Y-152824585D01*
X202755228Y-152758626D01*
X202586180Y-152725000D01*
X202413820Y-152725000D01*
X202244772Y-152758626D01*
X202085532Y-152824585D01*
X201942220Y-152920343D01*
X201820343Y-153042220D01*
X201724585Y-153185532D01*
X201658626Y-153344772D01*
X201625000Y-153513820D01*
X185499648Y-153513820D01*
X185513709Y-153504425D01*
X185666925Y-153351209D01*
X185787307Y-153171045D01*
X185870227Y-152970858D01*
X185912500Y-152758341D01*
X185912500Y-152541659D01*
X185870227Y-152329142D01*
X185787307Y-152128955D01*
X185666925Y-151948791D01*
X185513709Y-151795575D01*
X185391355Y-151713820D01*
X185916249Y-151713820D01*
X185916249Y-151886180D01*
X185949875Y-152055228D01*
X186015834Y-152214468D01*
X186111592Y-152357780D01*
X186233469Y-152479657D01*
X186376781Y-152575415D01*
X186536021Y-152641374D01*
X186705069Y-152675000D01*
X186877429Y-152675000D01*
X187046477Y-152641374D01*
X187205717Y-152575415D01*
X187349029Y-152479657D01*
X187470906Y-152357780D01*
X187566664Y-152214468D01*
X187629709Y-152062263D01*
X220960000Y-152062263D01*
X220960000Y-152357737D01*
X221017644Y-152647534D01*
X221130717Y-152920517D01*
X221294874Y-153166194D01*
X221503806Y-153375126D01*
X221749483Y-153539283D01*
X222022466Y-153652356D01*
X222312263Y-153710000D01*
X222607737Y-153710000D01*
X222897534Y-153652356D01*
X223170517Y-153539283D01*
X223416194Y-153375126D01*
X223625126Y-153166194D01*
X223789283Y-152920517D01*
X223902356Y-152647534D01*
X223960000Y-152357737D01*
X223960000Y-152062263D01*
X226040000Y-152062263D01*
X226040000Y-152357737D01*
X226097644Y-152647534D01*
X226210717Y-152920517D01*
X226374874Y-153166194D01*
X226583806Y-153375126D01*
X226829483Y-153539283D01*
X227102466Y-153652356D01*
X227392263Y-153710000D01*
X227687737Y-153710000D01*
X227977534Y-153652356D01*
X228250517Y-153539283D01*
X228496194Y-153375126D01*
X228705126Y-153166194D01*
X228869283Y-152920517D01*
X228982356Y-152647534D01*
X229040000Y-152357737D01*
X229040000Y-152062263D01*
X228982356Y-151772466D01*
X228869283Y-151499483D01*
X228705126Y-151253806D01*
X228496194Y-151044874D01*
X228250517Y-150880717D01*
X227977534Y-150767644D01*
X227687737Y-150710000D01*
X227392263Y-150710000D01*
X227102466Y-150767644D01*
X226829483Y-150880717D01*
X226583806Y-151044874D01*
X226374874Y-151253806D01*
X226210717Y-151499483D01*
X226097644Y-151772466D01*
X226040000Y-152062263D01*
X223960000Y-152062263D01*
X223902356Y-151772466D01*
X223789283Y-151499483D01*
X223625126Y-151253806D01*
X223416194Y-151044874D01*
X223170517Y-150880717D01*
X222897534Y-150767644D01*
X222607737Y-150710000D01*
X222312263Y-150710000D01*
X222022466Y-150767644D01*
X221749483Y-150880717D01*
X221503806Y-151044874D01*
X221294874Y-151253806D01*
X221130717Y-151499483D01*
X221017644Y-151772466D01*
X220960000Y-152062263D01*
X187629709Y-152062263D01*
X187632623Y-152055228D01*
X187666249Y-151886180D01*
X187666249Y-151713820D01*
X187632623Y-151544772D01*
X187566664Y-151385532D01*
X187470906Y-151242220D01*
X187349029Y-151120343D01*
X187205717Y-151024585D01*
X187046477Y-150958626D01*
X186877429Y-150925000D01*
X186705069Y-150925000D01*
X186536021Y-150958626D01*
X186376781Y-151024585D01*
X186233469Y-151120343D01*
X186111592Y-151242220D01*
X186015834Y-151385532D01*
X185949875Y-151544772D01*
X185916249Y-151713820D01*
X185391355Y-151713820D01*
X185333545Y-151675193D01*
X185133358Y-151592273D01*
X184920841Y-151550000D01*
X184704159Y-151550000D01*
X184491642Y-151592273D01*
X184291455Y-151675193D01*
X184111291Y-151795575D01*
X183958075Y-151948791D01*
X183837693Y-152128955D01*
X183754773Y-152329142D01*
X183712500Y-152541659D01*
X182862642Y-152541659D01*
X183006802Y-152464605D01*
X183155265Y-152342765D01*
X183277105Y-152194302D01*
X183367640Y-152024921D01*
X183423392Y-151841133D01*
X183442217Y-151650000D01*
X183423392Y-151458867D01*
X183367640Y-151275079D01*
X183277105Y-151105698D01*
X183155265Y-150957235D01*
X183006802Y-150835395D01*
X182837421Y-150744860D01*
X182653633Y-150689108D01*
X182510392Y-150675000D01*
X181714608Y-150675000D01*
X181571367Y-150689108D01*
X181400000Y-150741092D01*
X181400000Y-149163820D01*
X195275000Y-149163820D01*
X195275000Y-149336180D01*
X195308626Y-149505228D01*
X195374585Y-149664468D01*
X195470343Y-149807780D01*
X195592220Y-149929657D01*
X195735532Y-150025415D01*
X195894772Y-150091374D01*
X196063820Y-150125000D01*
X196236180Y-150125000D01*
X196405228Y-150091374D01*
X196564468Y-150025415D01*
X196707780Y-149929657D01*
X196829657Y-149807780D01*
X196925415Y-149664468D01*
X196991374Y-149505228D01*
X197025000Y-149336180D01*
X197025000Y-149163820D01*
X196991374Y-148994772D01*
X196925415Y-148835532D01*
X196829657Y-148692220D01*
X196707780Y-148570343D01*
X196564468Y-148474585D01*
X196405228Y-148408626D01*
X196236180Y-148375000D01*
X196063820Y-148375000D01*
X195894772Y-148408626D01*
X195735532Y-148474585D01*
X195592220Y-148570343D01*
X195470343Y-148692220D01*
X195374585Y-148835532D01*
X195308626Y-148994772D01*
X195275000Y-149163820D01*
X181400000Y-149163820D01*
X181400000Y-147163820D01*
X192775000Y-147163820D01*
X192775000Y-147336180D01*
X192808626Y-147505228D01*
X192874585Y-147664468D01*
X192970343Y-147807780D01*
X193092220Y-147929657D01*
X193235532Y-148025415D01*
X193394772Y-148091374D01*
X193563820Y-148125000D01*
X193736180Y-148125000D01*
X193905228Y-148091374D01*
X194064468Y-148025415D01*
X194207780Y-147929657D01*
X194329657Y-147807780D01*
X194425415Y-147664468D01*
X194491374Y-147505228D01*
X194525000Y-147336180D01*
X194525000Y-147163820D01*
X195275000Y-147163820D01*
X195275000Y-147336180D01*
X195308626Y-147505228D01*
X195374585Y-147664468D01*
X195470343Y-147807780D01*
X195592220Y-147929657D01*
X195735532Y-148025415D01*
X195894772Y-148091374D01*
X196063820Y-148125000D01*
X196236180Y-148125000D01*
X196405228Y-148091374D01*
X196564468Y-148025415D01*
X196707780Y-147929657D01*
X196829657Y-147807780D01*
X196925415Y-147664468D01*
X196983735Y-147523669D01*
X201725000Y-147523669D01*
X201725000Y-147676331D01*
X201754783Y-147826059D01*
X201813204Y-147967100D01*
X201898018Y-148094034D01*
X202005966Y-148201982D01*
X202132900Y-148286796D01*
X202273941Y-148345217D01*
X202423669Y-148375000D01*
X202576331Y-148375000D01*
X202726059Y-148345217D01*
X202867100Y-148286796D01*
X202994034Y-148201982D01*
X203101982Y-148094034D01*
X203186796Y-147967100D01*
X203245217Y-147826059D01*
X203275000Y-147676331D01*
X203275000Y-147523669D01*
X203975000Y-147523669D01*
X203975000Y-147676331D01*
X204004783Y-147826059D01*
X204063204Y-147967100D01*
X204148018Y-148094034D01*
X204255966Y-148201982D01*
X204382900Y-148286796D01*
X204523941Y-148345217D01*
X204673669Y-148375000D01*
X204826331Y-148375000D01*
X204976059Y-148345217D01*
X205117100Y-148286796D01*
X205244034Y-148201982D01*
X205351982Y-148094034D01*
X205436796Y-147967100D01*
X205495217Y-147826059D01*
X205525000Y-147676331D01*
X205525000Y-147523669D01*
X205495217Y-147373941D01*
X205436796Y-147232900D01*
X205351982Y-147105966D01*
X205244034Y-146998018D01*
X205117100Y-146913204D01*
X204976059Y-146854783D01*
X204826331Y-146825000D01*
X204673669Y-146825000D01*
X204523941Y-146854783D01*
X204382900Y-146913204D01*
X204255966Y-146998018D01*
X204148018Y-147105966D01*
X204063204Y-147232900D01*
X204004783Y-147373941D01*
X203975000Y-147523669D01*
X203275000Y-147523669D01*
X203245217Y-147373941D01*
X203186796Y-147232900D01*
X203101982Y-147105966D01*
X202994034Y-146998018D01*
X202867100Y-146913204D01*
X202726059Y-146854783D01*
X202576331Y-146825000D01*
X202423669Y-146825000D01*
X202273941Y-146854783D01*
X202132900Y-146913204D01*
X202005966Y-146998018D01*
X201898018Y-147105966D01*
X201813204Y-147232900D01*
X201754783Y-147373941D01*
X201725000Y-147523669D01*
X196983735Y-147523669D01*
X196991374Y-147505228D01*
X197025000Y-147336180D01*
X197025000Y-147163820D01*
X196991374Y-146994772D01*
X196925415Y-146835532D01*
X196829657Y-146692220D01*
X196707780Y-146570343D01*
X196564468Y-146474585D01*
X196405228Y-146408626D01*
X196236180Y-146375000D01*
X196063820Y-146375000D01*
X195894772Y-146408626D01*
X195735532Y-146474585D01*
X195592220Y-146570343D01*
X195470343Y-146692220D01*
X195374585Y-146835532D01*
X195308626Y-146994772D01*
X195275000Y-147163820D01*
X194525000Y-147163820D01*
X194491374Y-146994772D01*
X194425415Y-146835532D01*
X194329657Y-146692220D01*
X194207780Y-146570343D01*
X194064468Y-146474585D01*
X193905228Y-146408626D01*
X193736180Y-146375000D01*
X193563820Y-146375000D01*
X193394772Y-146408626D01*
X193235532Y-146474585D01*
X193092220Y-146570343D01*
X192970343Y-146692220D01*
X192874585Y-146835532D01*
X192808626Y-146994772D01*
X192775000Y-147163820D01*
X181400000Y-147163820D01*
X181400000Y-145323669D01*
X191325000Y-145323669D01*
X191325000Y-145476331D01*
X191354783Y-145626059D01*
X191413204Y-145767100D01*
X191498018Y-145894034D01*
X191605966Y-146001982D01*
X191732900Y-146086796D01*
X191873941Y-146145217D01*
X192023669Y-146175000D01*
X192176331Y-146175000D01*
X192326059Y-146145217D01*
X192467100Y-146086796D01*
X192594034Y-146001982D01*
X192701982Y-145894034D01*
X192786796Y-145767100D01*
X192804785Y-145723669D01*
X226025000Y-145723669D01*
X226025000Y-145876331D01*
X226054783Y-146026059D01*
X226113204Y-146167100D01*
X226198018Y-146294034D01*
X226305966Y-146401982D01*
X226432900Y-146486796D01*
X226573941Y-146545217D01*
X226723669Y-146575000D01*
X226876331Y-146575000D01*
X227026059Y-146545217D01*
X227167100Y-146486796D01*
X227294034Y-146401982D01*
X227401982Y-146294034D01*
X227486796Y-146167100D01*
X227545217Y-146026059D01*
X227575000Y-145876331D01*
X227575000Y-145723669D01*
X227545217Y-145573941D01*
X227486796Y-145432900D01*
X227401982Y-145305966D01*
X227294034Y-145198018D01*
X227167100Y-145113204D01*
X227026059Y-145054783D01*
X226876331Y-145025000D01*
X226723669Y-145025000D01*
X226573941Y-145054783D01*
X226432900Y-145113204D01*
X226305966Y-145198018D01*
X226198018Y-145305966D01*
X226113204Y-145432900D01*
X226054783Y-145573941D01*
X226025000Y-145723669D01*
X192804785Y-145723669D01*
X192845217Y-145626059D01*
X192875000Y-145476331D01*
X192875000Y-145323669D01*
X192845217Y-145173941D01*
X192786796Y-145032900D01*
X192701982Y-144905966D01*
X192594034Y-144798018D01*
X192467100Y-144713204D01*
X192326059Y-144654783D01*
X192176331Y-144625000D01*
X192023669Y-144625000D01*
X191873941Y-144654783D01*
X191732900Y-144713204D01*
X191605966Y-144798018D01*
X191498018Y-144905966D01*
X191413204Y-145032900D01*
X191354783Y-145173941D01*
X191325000Y-145323669D01*
X181400000Y-145323669D01*
X181400000Y-143983669D01*
X183825000Y-143983669D01*
X183825000Y-144136331D01*
X183854783Y-144286059D01*
X183913204Y-144427100D01*
X183998018Y-144554034D01*
X184105966Y-144661982D01*
X184232900Y-144746796D01*
X184373941Y-144805217D01*
X184523669Y-144835000D01*
X184676331Y-144835000D01*
X184826059Y-144805217D01*
X184967100Y-144746796D01*
X185094034Y-144661982D01*
X185201982Y-144554034D01*
X185286796Y-144427100D01*
X185345217Y-144286059D01*
X185375000Y-144136331D01*
X185375000Y-143983669D01*
X185345217Y-143833941D01*
X185286796Y-143692900D01*
X185201982Y-143565966D01*
X185094034Y-143458018D01*
X184967100Y-143373204D01*
X184826059Y-143314783D01*
X184676331Y-143285000D01*
X184523669Y-143285000D01*
X184373941Y-143314783D01*
X184232900Y-143373204D01*
X184105966Y-143458018D01*
X183998018Y-143565966D01*
X183913204Y-143692900D01*
X183854783Y-143833941D01*
X183825000Y-143983669D01*
X181400000Y-143983669D01*
X181400000Y-142013669D01*
X181700000Y-142013669D01*
X181700000Y-142166331D01*
X181729783Y-142316059D01*
X181788204Y-142457100D01*
X181873018Y-142584034D01*
X181980966Y-142691982D01*
X182107900Y-142776796D01*
X182248941Y-142835217D01*
X182398669Y-142865000D01*
X182551331Y-142865000D01*
X182701059Y-142835217D01*
X182842100Y-142776796D01*
X182969034Y-142691982D01*
X183006250Y-142654766D01*
X183043466Y-142691982D01*
X183170400Y-142776796D01*
X183311441Y-142835217D01*
X183461169Y-142865000D01*
X183613831Y-142865000D01*
X183763559Y-142835217D01*
X183904600Y-142776796D01*
X184031534Y-142691982D01*
X184139482Y-142584034D01*
X184224296Y-142457100D01*
X184282717Y-142316059D01*
X184312500Y-142166331D01*
X184312500Y-142013669D01*
X185125000Y-142013669D01*
X185125000Y-142166331D01*
X185154783Y-142316059D01*
X185213204Y-142457100D01*
X185298018Y-142584034D01*
X185405966Y-142691982D01*
X185532900Y-142776796D01*
X185673941Y-142835217D01*
X185823669Y-142865000D01*
X185976331Y-142865000D01*
X186126059Y-142835217D01*
X186267100Y-142776796D01*
X186394034Y-142691982D01*
X186501982Y-142584034D01*
X186586796Y-142457100D01*
X186645217Y-142316059D01*
X186675000Y-142166331D01*
X186675000Y-142013669D01*
X186645217Y-141863941D01*
X186586796Y-141722900D01*
X186501982Y-141595966D01*
X186394034Y-141488018D01*
X186267100Y-141403204D01*
X186126059Y-141344783D01*
X185976331Y-141315000D01*
X185823669Y-141315000D01*
X185673941Y-141344783D01*
X185532900Y-141403204D01*
X185405966Y-141488018D01*
X185298018Y-141595966D01*
X185213204Y-141722900D01*
X185154783Y-141863941D01*
X185125000Y-142013669D01*
X184312500Y-142013669D01*
X184282717Y-141863941D01*
X184224296Y-141722900D01*
X184139482Y-141595966D01*
X184031534Y-141488018D01*
X183904600Y-141403204D01*
X183763559Y-141344783D01*
X183613831Y-141315000D01*
X183461169Y-141315000D01*
X183311441Y-141344783D01*
X183170400Y-141403204D01*
X183043466Y-141488018D01*
X183006250Y-141525234D01*
X182969034Y-141488018D01*
X182842100Y-141403204D01*
X182701059Y-141344783D01*
X182551331Y-141315000D01*
X182398669Y-141315000D01*
X182248941Y-141344783D01*
X182107900Y-141403204D01*
X181980966Y-141488018D01*
X181873018Y-141595966D01*
X181788204Y-141722900D01*
X181729783Y-141863941D01*
X181700000Y-142013669D01*
X181400000Y-142013669D01*
X181400000Y-139518669D01*
X210725000Y-139518669D01*
X210725000Y-139671331D01*
X210754783Y-139821059D01*
X210813204Y-139962100D01*
X210898018Y-140089034D01*
X211005966Y-140196982D01*
X211055381Y-140230000D01*
X211005966Y-140263018D01*
X210898018Y-140370966D01*
X210813204Y-140497900D01*
X210754783Y-140638941D01*
X210725000Y-140788669D01*
X210725000Y-140941331D01*
X210754783Y-141091059D01*
X210813204Y-141232100D01*
X210898018Y-141359034D01*
X211005966Y-141466982D01*
X211055381Y-141500000D01*
X211005966Y-141533018D01*
X210898018Y-141640966D01*
X210813204Y-141767900D01*
X210754783Y-141908941D01*
X210725000Y-142058669D01*
X210725000Y-142211331D01*
X210754783Y-142361059D01*
X210813204Y-142502100D01*
X210898018Y-142629034D01*
X211005966Y-142736982D01*
X211055381Y-142770000D01*
X211005966Y-142803018D01*
X210898018Y-142910966D01*
X210813204Y-143037900D01*
X210754783Y-143178941D01*
X210725000Y-143328669D01*
X210725000Y-143481331D01*
X210754783Y-143631059D01*
X210813204Y-143772100D01*
X210898018Y-143899034D01*
X211005966Y-144006982D01*
X211132900Y-144091796D01*
X211273941Y-144150217D01*
X211423669Y-144180000D01*
X211576331Y-144180000D01*
X211726059Y-144150217D01*
X211867100Y-144091796D01*
X211994034Y-144006982D01*
X212101982Y-143899034D01*
X212186796Y-143772100D01*
X212245217Y-143631059D01*
X212275000Y-143481331D01*
X212275000Y-143328669D01*
X212245217Y-143178941D01*
X212186796Y-143037900D01*
X212101982Y-142910966D01*
X211994034Y-142803018D01*
X211944619Y-142770000D01*
X211994034Y-142736982D01*
X212101982Y-142629034D01*
X212186796Y-142502100D01*
X212245217Y-142361059D01*
X212275000Y-142211331D01*
X212275000Y-142058669D01*
X220325000Y-142058669D01*
X220325000Y-142211331D01*
X220354783Y-142361059D01*
X220413204Y-142502100D01*
X220498018Y-142629034D01*
X220605966Y-142736982D01*
X220655381Y-142770000D01*
X220605966Y-142803018D01*
X220498018Y-142910966D01*
X220413204Y-143037900D01*
X220354783Y-143178941D01*
X220325000Y-143328669D01*
X220325000Y-143481331D01*
X220354783Y-143631059D01*
X220413204Y-143772100D01*
X220498018Y-143899034D01*
X220605966Y-144006982D01*
X220732900Y-144091796D01*
X220873941Y-144150217D01*
X221023669Y-144180000D01*
X221176331Y-144180000D01*
X221326059Y-144150217D01*
X221467100Y-144091796D01*
X221594034Y-144006982D01*
X221701982Y-143899034D01*
X221786796Y-143772100D01*
X221845217Y-143631059D01*
X221875000Y-143481331D01*
X221875000Y-143328669D01*
X221845217Y-143178941D01*
X221786796Y-143037900D01*
X221701982Y-142910966D01*
X221594034Y-142803018D01*
X221544619Y-142770000D01*
X221594034Y-142736982D01*
X221701982Y-142629034D01*
X221786796Y-142502100D01*
X221845217Y-142361059D01*
X221875000Y-142211331D01*
X221875000Y-142058669D01*
X221845217Y-141908941D01*
X221786796Y-141767900D01*
X221701982Y-141640966D01*
X221594034Y-141533018D01*
X221580043Y-141523669D01*
X224225000Y-141523669D01*
X224225000Y-141676331D01*
X224254783Y-141826059D01*
X224313204Y-141967100D01*
X224398018Y-142094034D01*
X224505966Y-142201982D01*
X224632900Y-142286796D01*
X224773941Y-142345217D01*
X224923669Y-142375000D01*
X225076331Y-142375000D01*
X225226059Y-142345217D01*
X225367100Y-142286796D01*
X225494034Y-142201982D01*
X225601982Y-142094034D01*
X225686796Y-141967100D01*
X225745217Y-141826059D01*
X225775000Y-141676331D01*
X225775000Y-141523669D01*
X225745217Y-141373941D01*
X225686796Y-141232900D01*
X225601982Y-141105966D01*
X225494034Y-140998018D01*
X225367100Y-140913204D01*
X225226059Y-140854783D01*
X225076331Y-140825000D01*
X224923669Y-140825000D01*
X224773941Y-140854783D01*
X224632900Y-140913204D01*
X224505966Y-140998018D01*
X224398018Y-141105966D01*
X224313204Y-141232900D01*
X224254783Y-141373941D01*
X224225000Y-141523669D01*
X221580043Y-141523669D01*
X221467100Y-141448204D01*
X221326059Y-141389783D01*
X221176331Y-141360000D01*
X221023669Y-141360000D01*
X220873941Y-141389783D01*
X220732900Y-141448204D01*
X220605966Y-141533018D01*
X220498018Y-141640966D01*
X220413204Y-141767900D01*
X220354783Y-141908941D01*
X220325000Y-142058669D01*
X212275000Y-142058669D01*
X212245217Y-141908941D01*
X212186796Y-141767900D01*
X212101982Y-141640966D01*
X211994034Y-141533018D01*
X211944619Y-141500000D01*
X211994034Y-141466982D01*
X212101982Y-141359034D01*
X212186796Y-141232100D01*
X212245217Y-141091059D01*
X212275000Y-140941331D01*
X212275000Y-140788669D01*
X212245217Y-140638941D01*
X212186796Y-140497900D01*
X212101982Y-140370966D01*
X211994034Y-140263018D01*
X211944619Y-140230000D01*
X211994034Y-140196982D01*
X212101982Y-140089034D01*
X212186796Y-139962100D01*
X212202714Y-139923669D01*
X225375000Y-139923669D01*
X225375000Y-140076331D01*
X225404783Y-140226059D01*
X225463204Y-140367100D01*
X225548018Y-140494034D01*
X225655966Y-140601982D01*
X225782900Y-140686796D01*
X225923941Y-140745217D01*
X226073669Y-140775000D01*
X226226331Y-140775000D01*
X226376059Y-140745217D01*
X226517100Y-140686796D01*
X226644034Y-140601982D01*
X226751982Y-140494034D01*
X226836796Y-140367100D01*
X226895217Y-140226059D01*
X226925000Y-140076331D01*
X226925000Y-139923669D01*
X226895217Y-139773941D01*
X226836796Y-139632900D01*
X226751982Y-139505966D01*
X226644034Y-139398018D01*
X226517100Y-139313204D01*
X226376059Y-139254783D01*
X226226331Y-139225000D01*
X226073669Y-139225000D01*
X225923941Y-139254783D01*
X225782900Y-139313204D01*
X225655966Y-139398018D01*
X225548018Y-139505966D01*
X225463204Y-139632900D01*
X225404783Y-139773941D01*
X225375000Y-139923669D01*
X212202714Y-139923669D01*
X212245217Y-139821059D01*
X212275000Y-139671331D01*
X212275000Y-139518669D01*
X212245217Y-139368941D01*
X212186796Y-139227900D01*
X212101982Y-139100966D01*
X211994034Y-138993018D01*
X211867100Y-138908204D01*
X211726059Y-138849783D01*
X211576331Y-138820000D01*
X211423669Y-138820000D01*
X211273941Y-138849783D01*
X211132900Y-138908204D01*
X211005966Y-138993018D01*
X210898018Y-139100966D01*
X210813204Y-139227900D01*
X210754783Y-139368941D01*
X210725000Y-139518669D01*
X181400000Y-139518669D01*
X181400000Y-138383669D01*
X184475000Y-138383669D01*
X184475000Y-138536331D01*
X184504783Y-138686059D01*
X184563204Y-138827100D01*
X184648018Y-138954034D01*
X184755966Y-139061982D01*
X184882900Y-139146796D01*
X185023941Y-139205217D01*
X185173669Y-139235000D01*
X185326331Y-139235000D01*
X185476059Y-139205217D01*
X185617100Y-139146796D01*
X185744034Y-139061982D01*
X185851982Y-138954034D01*
X185936796Y-138827100D01*
X185995217Y-138686059D01*
X186025000Y-138536331D01*
X186025000Y-138383669D01*
X189025000Y-138383669D01*
X189025000Y-138536331D01*
X189054783Y-138686059D01*
X189113204Y-138827100D01*
X189198018Y-138954034D01*
X189305966Y-139061982D01*
X189432900Y-139146796D01*
X189573941Y-139205217D01*
X189723669Y-139235000D01*
X189876331Y-139235000D01*
X190026059Y-139205217D01*
X190167100Y-139146796D01*
X190294034Y-139061982D01*
X190300000Y-139056016D01*
X190305966Y-139061982D01*
X190432900Y-139146796D01*
X190573941Y-139205217D01*
X190723669Y-139235000D01*
X190876331Y-139235000D01*
X191026059Y-139205217D01*
X191167100Y-139146796D01*
X191294034Y-139061982D01*
X191401982Y-138954034D01*
X191486796Y-138827100D01*
X191545217Y-138686059D01*
X191575000Y-138536331D01*
X191575000Y-138383669D01*
X191545217Y-138233941D01*
X191486796Y-138092900D01*
X191401982Y-137965966D01*
X191294034Y-137858018D01*
X191167100Y-137773204D01*
X191026059Y-137714783D01*
X190876331Y-137685000D01*
X190723669Y-137685000D01*
X190573941Y-137714783D01*
X190432900Y-137773204D01*
X190305966Y-137858018D01*
X190300000Y-137863984D01*
X190294034Y-137858018D01*
X190167100Y-137773204D01*
X190026059Y-137714783D01*
X189876331Y-137685000D01*
X189723669Y-137685000D01*
X189573941Y-137714783D01*
X189432900Y-137773204D01*
X189305966Y-137858018D01*
X189198018Y-137965966D01*
X189113204Y-138092900D01*
X189054783Y-138233941D01*
X189025000Y-138383669D01*
X186025000Y-138383669D01*
X185995217Y-138233941D01*
X185936796Y-138092900D01*
X185851982Y-137965966D01*
X185744034Y-137858018D01*
X185617100Y-137773204D01*
X185476059Y-137714783D01*
X185326331Y-137685000D01*
X185173669Y-137685000D01*
X185023941Y-137714783D01*
X184882900Y-137773204D01*
X184755966Y-137858018D01*
X184648018Y-137965966D01*
X184563204Y-138092900D01*
X184504783Y-138233941D01*
X184475000Y-138383669D01*
X181400000Y-138383669D01*
X181400000Y-137523669D01*
X203925000Y-137523669D01*
X203925000Y-137676331D01*
X203954783Y-137826059D01*
X204013204Y-137967100D01*
X204098018Y-138094034D01*
X204205966Y-138201982D01*
X204332900Y-138286796D01*
X204473941Y-138345217D01*
X204623669Y-138375000D01*
X204776331Y-138375000D01*
X204926059Y-138345217D01*
X205067100Y-138286796D01*
X205194034Y-138201982D01*
X205301982Y-138094034D01*
X205386796Y-137967100D01*
X205445217Y-137826059D01*
X205475000Y-137676331D01*
X205475000Y-137523669D01*
X205445217Y-137373941D01*
X205386796Y-137232900D01*
X205347220Y-137173669D01*
X215590000Y-137173669D01*
X215590000Y-137326331D01*
X215619783Y-137476059D01*
X215678204Y-137617100D01*
X215763018Y-137744034D01*
X215768984Y-137750000D01*
X215763018Y-137755966D01*
X215678204Y-137882900D01*
X215619783Y-138023941D01*
X215590000Y-138173669D01*
X215590000Y-138326331D01*
X215619783Y-138476059D01*
X215678204Y-138617100D01*
X215763018Y-138744034D01*
X215870966Y-138851982D01*
X215997900Y-138936796D01*
X216138941Y-138995217D01*
X216288669Y-139025000D01*
X216441331Y-139025000D01*
X216591059Y-138995217D01*
X216732100Y-138936796D01*
X216859034Y-138851982D01*
X216966982Y-138744034D01*
X217051796Y-138617100D01*
X217110217Y-138476059D01*
X217140000Y-138326331D01*
X217140000Y-138223669D01*
X227025000Y-138223669D01*
X227025000Y-138376331D01*
X227054783Y-138526059D01*
X227113204Y-138667100D01*
X227198018Y-138794034D01*
X227305966Y-138901982D01*
X227432900Y-138986796D01*
X227573941Y-139045217D01*
X227723669Y-139075000D01*
X227876331Y-139075000D01*
X228026059Y-139045217D01*
X228167100Y-138986796D01*
X228294034Y-138901982D01*
X228401982Y-138794034D01*
X228486796Y-138667100D01*
X228545217Y-138526059D01*
X228575000Y-138376331D01*
X228575000Y-138223669D01*
X228545217Y-138073941D01*
X228486796Y-137932900D01*
X228401982Y-137805966D01*
X228294034Y-137698018D01*
X228167100Y-137613204D01*
X228026059Y-137554783D01*
X227876331Y-137525000D01*
X227723669Y-137525000D01*
X227573941Y-137554783D01*
X227432900Y-137613204D01*
X227305966Y-137698018D01*
X227198018Y-137805966D01*
X227113204Y-137932900D01*
X227054783Y-138073941D01*
X227025000Y-138223669D01*
X217140000Y-138223669D01*
X217140000Y-138173669D01*
X217110217Y-138023941D01*
X217051796Y-137882900D01*
X216966982Y-137755966D01*
X216961016Y-137750000D01*
X216966982Y-137744034D01*
X217051796Y-137617100D01*
X217110217Y-137476059D01*
X217140000Y-137326331D01*
X217140000Y-137173669D01*
X217110217Y-137023941D01*
X217051796Y-136882900D01*
X216966982Y-136755966D01*
X216859034Y-136648018D01*
X216732100Y-136563204D01*
X216591059Y-136504783D01*
X216441331Y-136475000D01*
X216288669Y-136475000D01*
X216138941Y-136504783D01*
X215997900Y-136563204D01*
X215870966Y-136648018D01*
X215763018Y-136755966D01*
X215678204Y-136882900D01*
X215619783Y-137023941D01*
X215590000Y-137173669D01*
X205347220Y-137173669D01*
X205301982Y-137105966D01*
X205194034Y-136998018D01*
X205067100Y-136913204D01*
X204926059Y-136854783D01*
X204776331Y-136825000D01*
X204623669Y-136825000D01*
X204473941Y-136854783D01*
X204332900Y-136913204D01*
X204205966Y-136998018D01*
X204098018Y-137105966D01*
X204013204Y-137232900D01*
X203954783Y-137373941D01*
X203925000Y-137523669D01*
X181400000Y-137523669D01*
X181400000Y-136388669D01*
X197475000Y-136388669D01*
X197475000Y-136541331D01*
X197504783Y-136691059D01*
X197563204Y-136832100D01*
X197648018Y-136959034D01*
X197755966Y-137066982D01*
X197882900Y-137151796D01*
X198023941Y-137210217D01*
X198173669Y-137240000D01*
X198326331Y-137240000D01*
X198476059Y-137210217D01*
X198617100Y-137151796D01*
X198744034Y-137066982D01*
X198851982Y-136959034D01*
X198936796Y-136832100D01*
X198995217Y-136691059D01*
X199025000Y-136541331D01*
X199025000Y-136388669D01*
X198995217Y-136238941D01*
X198936796Y-136097900D01*
X198851982Y-135970966D01*
X198744034Y-135863018D01*
X198617100Y-135778204D01*
X198476059Y-135719783D01*
X198326331Y-135690000D01*
X198173669Y-135690000D01*
X198023941Y-135719783D01*
X197882900Y-135778204D01*
X197755966Y-135863018D01*
X197648018Y-135970966D01*
X197563204Y-136097900D01*
X197504783Y-136238941D01*
X197475000Y-136388669D01*
X181400000Y-136388669D01*
X181400000Y-134723669D01*
X186525000Y-134723669D01*
X186525000Y-134876331D01*
X186554783Y-135026059D01*
X186613204Y-135167100D01*
X186698018Y-135294034D01*
X186805966Y-135401982D01*
X186932900Y-135486796D01*
X187073941Y-135545217D01*
X187223669Y-135575000D01*
X187376331Y-135575000D01*
X187526059Y-135545217D01*
X187667100Y-135486796D01*
X187794034Y-135401982D01*
X187901982Y-135294034D01*
X187980085Y-135177144D01*
X188013204Y-135257100D01*
X188098018Y-135384034D01*
X188205966Y-135491982D01*
X188332900Y-135576796D01*
X188473941Y-135635217D01*
X188623669Y-135665000D01*
X188776331Y-135665000D01*
X188926059Y-135635217D01*
X189067100Y-135576796D01*
X189194034Y-135491982D01*
X189301982Y-135384034D01*
X189386796Y-135257100D01*
X189445217Y-135116059D01*
X189475000Y-134966331D01*
X189475000Y-134813669D01*
X190975000Y-134813669D01*
X190975000Y-134966331D01*
X191004783Y-135116059D01*
X191063204Y-135257100D01*
X191148018Y-135384034D01*
X191255966Y-135491982D01*
X191382900Y-135576796D01*
X191523941Y-135635217D01*
X191673669Y-135665000D01*
X191826331Y-135665000D01*
X191976059Y-135635217D01*
X192117100Y-135576796D01*
X192244034Y-135491982D01*
X192351982Y-135384034D01*
X192436796Y-135257100D01*
X192495217Y-135116059D01*
X192525000Y-134966331D01*
X192525000Y-134813669D01*
X192507098Y-134723669D01*
X199475000Y-134723669D01*
X199475000Y-134876331D01*
X199504783Y-135026059D01*
X199563204Y-135167100D01*
X199648018Y-135294034D01*
X199711484Y-135357500D01*
X199648018Y-135420966D01*
X199563204Y-135547900D01*
X199504783Y-135688941D01*
X199475000Y-135838669D01*
X199475000Y-135991331D01*
X199504783Y-136141059D01*
X199563204Y-136282100D01*
X199648018Y-136409034D01*
X199755966Y-136516982D01*
X199882900Y-136601796D01*
X200023941Y-136660217D01*
X200173669Y-136690000D01*
X200326331Y-136690000D01*
X200476059Y-136660217D01*
X200617100Y-136601796D01*
X200744034Y-136516982D01*
X200851982Y-136409034D01*
X200936796Y-136282100D01*
X200995217Y-136141059D01*
X201025000Y-135991331D01*
X201025000Y-135838669D01*
X200995217Y-135688941D01*
X200936796Y-135547900D01*
X200851982Y-135420966D01*
X200788516Y-135357500D01*
X200851982Y-135294034D01*
X200936796Y-135167100D01*
X200995217Y-135026059D01*
X201025000Y-134876331D01*
X201025000Y-134723669D01*
X200995217Y-134573941D01*
X200936796Y-134432900D01*
X200863811Y-134323669D01*
X202625000Y-134323669D01*
X202625000Y-134476331D01*
X202654783Y-134626059D01*
X202713204Y-134767100D01*
X202798018Y-134894034D01*
X202803984Y-134900000D01*
X202798018Y-134905966D01*
X202713204Y-135032900D01*
X202654783Y-135173941D01*
X202625000Y-135323669D01*
X202625000Y-135476331D01*
X202654783Y-135626059D01*
X202713204Y-135767100D01*
X202798018Y-135894034D01*
X202905966Y-136001982D01*
X203032900Y-136086796D01*
X203173941Y-136145217D01*
X203323669Y-136175000D01*
X203476331Y-136175000D01*
X203626059Y-136145217D01*
X203767100Y-136086796D01*
X203894034Y-136001982D01*
X204001982Y-135894034D01*
X204086796Y-135767100D01*
X204125496Y-135673669D01*
X220740000Y-135673669D01*
X220740000Y-135826331D01*
X220769783Y-135976059D01*
X220828204Y-136117100D01*
X220913018Y-136244034D01*
X220918984Y-136250000D01*
X220913018Y-136255966D01*
X220828204Y-136382900D01*
X220769783Y-136523941D01*
X220740000Y-136673669D01*
X220740000Y-136826331D01*
X220769783Y-136976059D01*
X220828204Y-137117100D01*
X220913018Y-137244034D01*
X221020966Y-137351982D01*
X221147900Y-137436796D01*
X221288941Y-137495217D01*
X221438669Y-137525000D01*
X221591331Y-137525000D01*
X221741059Y-137495217D01*
X221882100Y-137436796D01*
X222009034Y-137351982D01*
X222116982Y-137244034D01*
X222201796Y-137117100D01*
X222260217Y-136976059D01*
X222290000Y-136826331D01*
X222290000Y-136673669D01*
X222260217Y-136523941D01*
X222201796Y-136382900D01*
X222116982Y-136255966D01*
X222111016Y-136250000D01*
X222116982Y-136244034D01*
X222201796Y-136117100D01*
X222260217Y-135976059D01*
X222290000Y-135826331D01*
X222290000Y-135673669D01*
X222260217Y-135523941D01*
X222201796Y-135382900D01*
X222116982Y-135255966D01*
X222009034Y-135148018D01*
X221882100Y-135063204D01*
X221741059Y-135004783D01*
X221591331Y-134975000D01*
X221438669Y-134975000D01*
X221288941Y-135004783D01*
X221147900Y-135063204D01*
X221020966Y-135148018D01*
X220913018Y-135255966D01*
X220828204Y-135382900D01*
X220769783Y-135523941D01*
X220740000Y-135673669D01*
X204125496Y-135673669D01*
X204145217Y-135626059D01*
X204175000Y-135476331D01*
X204175000Y-135323669D01*
X204145217Y-135173941D01*
X204086796Y-135032900D01*
X204001982Y-134905966D01*
X203996016Y-134900000D01*
X204001982Y-134894034D01*
X204086796Y-134767100D01*
X204145217Y-134626059D01*
X204175000Y-134476331D01*
X204175000Y-134323669D01*
X204145217Y-134173941D01*
X204086796Y-134032900D01*
X204001982Y-133905966D01*
X203894034Y-133798018D01*
X203767100Y-133713204D01*
X203626059Y-133654783D01*
X203476331Y-133625000D01*
X203323669Y-133625000D01*
X203173941Y-133654783D01*
X203032900Y-133713204D01*
X202905966Y-133798018D01*
X202798018Y-133905966D01*
X202713204Y-134032900D01*
X202654783Y-134173941D01*
X202625000Y-134323669D01*
X200863811Y-134323669D01*
X200851982Y-134305966D01*
X200744034Y-134198018D01*
X200617100Y-134113204D01*
X200476059Y-134054783D01*
X200326331Y-134025000D01*
X200173669Y-134025000D01*
X200023941Y-134054783D01*
X199882900Y-134113204D01*
X199755966Y-134198018D01*
X199648018Y-134305966D01*
X199563204Y-134432900D01*
X199504783Y-134573941D01*
X199475000Y-134723669D01*
X192507098Y-134723669D01*
X192495217Y-134663941D01*
X192436796Y-134522900D01*
X192351982Y-134395966D01*
X192244034Y-134288018D01*
X192117100Y-134203204D01*
X191976059Y-134144783D01*
X191826331Y-134115000D01*
X191673669Y-134115000D01*
X191523941Y-134144783D01*
X191382900Y-134203204D01*
X191255966Y-134288018D01*
X191148018Y-134395966D01*
X191063204Y-134522900D01*
X191004783Y-134663941D01*
X190975000Y-134813669D01*
X189475000Y-134813669D01*
X189445217Y-134663941D01*
X189386796Y-134522900D01*
X189301982Y-134395966D01*
X189194034Y-134288018D01*
X189067100Y-134203204D01*
X188926059Y-134144783D01*
X188776331Y-134115000D01*
X188623669Y-134115000D01*
X188473941Y-134144783D01*
X188332900Y-134203204D01*
X188205966Y-134288018D01*
X188098018Y-134395966D01*
X188019915Y-134512856D01*
X187986796Y-134432900D01*
X187901982Y-134305966D01*
X187794034Y-134198018D01*
X187667100Y-134113204D01*
X187526059Y-134054783D01*
X187376331Y-134025000D01*
X187223669Y-134025000D01*
X187073941Y-134054783D01*
X186932900Y-134113204D01*
X186805966Y-134198018D01*
X186698018Y-134305966D01*
X186613204Y-134432900D01*
X186554783Y-134573941D01*
X186525000Y-134723669D01*
X181400000Y-134723669D01*
X181400000Y-132323669D01*
X205425000Y-132323669D01*
X205425000Y-132476331D01*
X205454783Y-132626059D01*
X205513204Y-132767100D01*
X205598018Y-132894034D01*
X205705966Y-133001982D01*
X205832900Y-133086796D01*
X205973941Y-133145217D01*
X206123669Y-133175000D01*
X206276331Y-133175000D01*
X206426059Y-133145217D01*
X206567100Y-133086796D01*
X206694034Y-133001982D01*
X206700000Y-132996016D01*
X206705966Y-133001982D01*
X206832900Y-133086796D01*
X206973941Y-133145217D01*
X207123669Y-133175000D01*
X207276331Y-133175000D01*
X207426059Y-133145217D01*
X207567100Y-133086796D01*
X207694034Y-133001982D01*
X207801982Y-132894034D01*
X207886796Y-132767100D01*
X207945217Y-132626059D01*
X207975000Y-132476331D01*
X207975000Y-132423669D01*
X216460000Y-132423669D01*
X216460000Y-132576331D01*
X216489783Y-132726059D01*
X216548204Y-132867100D01*
X216633018Y-132994034D01*
X216638984Y-133000000D01*
X216633018Y-133005966D01*
X216548204Y-133132900D01*
X216489783Y-133273941D01*
X216460000Y-133423669D01*
X216460000Y-133576331D01*
X216489783Y-133726059D01*
X216548204Y-133867100D01*
X216633018Y-133994034D01*
X216638984Y-134000000D01*
X216633018Y-134005966D01*
X216548204Y-134132900D01*
X216489783Y-134273941D01*
X216460000Y-134423669D01*
X216460000Y-134576331D01*
X216489783Y-134726059D01*
X216548204Y-134867100D01*
X216633018Y-134994034D01*
X216740966Y-135101982D01*
X216867900Y-135186796D01*
X217008941Y-135245217D01*
X217158669Y-135275000D01*
X217311331Y-135275000D01*
X217461059Y-135245217D01*
X217602100Y-135186796D01*
X217729034Y-135101982D01*
X217836982Y-134994034D01*
X217921796Y-134867100D01*
X217980217Y-134726059D01*
X218010000Y-134576331D01*
X218010000Y-134423669D01*
X217980217Y-134273941D01*
X217921796Y-134132900D01*
X217836982Y-134005966D01*
X217831016Y-134000000D01*
X217836982Y-133994034D01*
X217921796Y-133867100D01*
X217980217Y-133726059D01*
X218010000Y-133576331D01*
X218010000Y-133423669D01*
X217980217Y-133273941D01*
X217921796Y-133132900D01*
X217836982Y-133005966D01*
X217831016Y-133000000D01*
X217836982Y-132994034D01*
X217921796Y-132867100D01*
X217980217Y-132726059D01*
X218010000Y-132576331D01*
X218010000Y-132423669D01*
X217980217Y-132273941D01*
X217921796Y-132132900D01*
X217836982Y-132005966D01*
X217729034Y-131898018D01*
X217602100Y-131813204D01*
X217461059Y-131754783D01*
X217311331Y-131725000D01*
X217158669Y-131725000D01*
X217008941Y-131754783D01*
X216867900Y-131813204D01*
X216740966Y-131898018D01*
X216633018Y-132005966D01*
X216548204Y-132132900D01*
X216489783Y-132273941D01*
X216460000Y-132423669D01*
X207975000Y-132423669D01*
X207975000Y-132323669D01*
X207945217Y-132173941D01*
X207886796Y-132032900D01*
X207801982Y-131905966D01*
X207694034Y-131798018D01*
X207567100Y-131713204D01*
X207426059Y-131654783D01*
X207276331Y-131625000D01*
X207123669Y-131625000D01*
X206973941Y-131654783D01*
X206832900Y-131713204D01*
X206705966Y-131798018D01*
X206700000Y-131803984D01*
X206694034Y-131798018D01*
X206567100Y-131713204D01*
X206426059Y-131654783D01*
X206276331Y-131625000D01*
X206123669Y-131625000D01*
X205973941Y-131654783D01*
X205832900Y-131713204D01*
X205705966Y-131798018D01*
X205598018Y-131905966D01*
X205513204Y-132032900D01*
X205454783Y-132173941D01*
X205425000Y-132323669D01*
X181400000Y-132323669D01*
X181400000Y-130223669D01*
X187025000Y-130223669D01*
X187025000Y-130376331D01*
X187054783Y-130526059D01*
X187113204Y-130667100D01*
X187198018Y-130794034D01*
X187241484Y-130837500D01*
X187198018Y-130880966D01*
X187113204Y-131007900D01*
X187054783Y-131148941D01*
X187025000Y-131298669D01*
X187025000Y-131451331D01*
X187054783Y-131601059D01*
X187113204Y-131742100D01*
X187198018Y-131869034D01*
X187305966Y-131976982D01*
X187432900Y-132061796D01*
X187573941Y-132120217D01*
X187723669Y-132150000D01*
X187876331Y-132150000D01*
X188026059Y-132120217D01*
X188167100Y-132061796D01*
X188294034Y-131976982D01*
X188401982Y-131869034D01*
X188486796Y-131742100D01*
X188545217Y-131601059D01*
X188575000Y-131451331D01*
X188575000Y-131298669D01*
X188545217Y-131148941D01*
X188486796Y-131007900D01*
X188401982Y-130880966D01*
X188358516Y-130837500D01*
X188372347Y-130823669D01*
X228960000Y-130823669D01*
X228960000Y-130976331D01*
X228989783Y-131126059D01*
X229048204Y-131267100D01*
X229133018Y-131394034D01*
X229240966Y-131501982D01*
X229367900Y-131586796D01*
X229508941Y-131645217D01*
X229658669Y-131675000D01*
X229811331Y-131675000D01*
X229961059Y-131645217D01*
X230102100Y-131586796D01*
X230229034Y-131501982D01*
X230336982Y-131394034D01*
X230421796Y-131267100D01*
X230480217Y-131126059D01*
X230510000Y-130976331D01*
X230510000Y-130823669D01*
X230480217Y-130673941D01*
X230421796Y-130532900D01*
X230336982Y-130405966D01*
X230229034Y-130298018D01*
X230102100Y-130213204D01*
X229961059Y-130154783D01*
X229811331Y-130125000D01*
X229658669Y-130125000D01*
X229508941Y-130154783D01*
X229367900Y-130213204D01*
X229240966Y-130298018D01*
X229133018Y-130405966D01*
X229048204Y-130532900D01*
X228989783Y-130673941D01*
X228960000Y-130823669D01*
X188372347Y-130823669D01*
X188401982Y-130794034D01*
X188486796Y-130667100D01*
X188545217Y-130526059D01*
X188575000Y-130376331D01*
X188575000Y-130223669D01*
X188545217Y-130073941D01*
X188486796Y-129932900D01*
X188401982Y-129805966D01*
X188294034Y-129698018D01*
X188167100Y-129613204D01*
X188026059Y-129554783D01*
X187876331Y-129525000D01*
X187723669Y-129525000D01*
X187573941Y-129554783D01*
X187432900Y-129613204D01*
X187305966Y-129698018D01*
X187198018Y-129805966D01*
X187113204Y-129932900D01*
X187054783Y-130073941D01*
X187025000Y-130223669D01*
X181400000Y-130223669D01*
X181400000Y-127764574D01*
X181625000Y-127764574D01*
X181625000Y-128035426D01*
X181677841Y-128301073D01*
X181781491Y-128551307D01*
X181931968Y-128776511D01*
X182123489Y-128968032D01*
X182348693Y-129118509D01*
X182598927Y-129222159D01*
X182864574Y-129275000D01*
X183135426Y-129275000D01*
X183401073Y-129222159D01*
X183651307Y-129118509D01*
X183876511Y-128968032D01*
X184068032Y-128776511D01*
X184218509Y-128551307D01*
X184322159Y-128301073D01*
X184375000Y-128035426D01*
X184375000Y-127764574D01*
X188125000Y-127764574D01*
X188125000Y-128035426D01*
X188177841Y-128301073D01*
X188281491Y-128551307D01*
X188431968Y-128776511D01*
X188623489Y-128968032D01*
X188848693Y-129118509D01*
X189098927Y-129222159D01*
X189364574Y-129275000D01*
X189635426Y-129275000D01*
X189901073Y-129222159D01*
X190151307Y-129118509D01*
X190376511Y-128968032D01*
X190420874Y-128923669D01*
X208825000Y-128923669D01*
X208825000Y-129076331D01*
X208854783Y-129226059D01*
X208913204Y-129367100D01*
X208998018Y-129494034D01*
X209105966Y-129601982D01*
X209232900Y-129686796D01*
X209373941Y-129745217D01*
X209523669Y-129775000D01*
X209676331Y-129775000D01*
X209826059Y-129745217D01*
X209967100Y-129686796D01*
X210094034Y-129601982D01*
X210201982Y-129494034D01*
X210248998Y-129423669D01*
X216460000Y-129423669D01*
X216460000Y-129576331D01*
X216489783Y-129726059D01*
X216548204Y-129867100D01*
X216633018Y-129994034D01*
X216740966Y-130101982D01*
X216867900Y-130186796D01*
X217008941Y-130245217D01*
X217158669Y-130275000D01*
X217311331Y-130275000D01*
X217461059Y-130245217D01*
X217602100Y-130186796D01*
X217729034Y-130101982D01*
X217836982Y-129994034D01*
X217921796Y-129867100D01*
X217980217Y-129726059D01*
X218010000Y-129576331D01*
X218010000Y-129423669D01*
X217980217Y-129273941D01*
X217921796Y-129132900D01*
X217836982Y-129005966D01*
X217729034Y-128898018D01*
X217602100Y-128813204D01*
X217461059Y-128754783D01*
X217311331Y-128725000D01*
X217158669Y-128725000D01*
X217008941Y-128754783D01*
X216867900Y-128813204D01*
X216740966Y-128898018D01*
X216633018Y-129005966D01*
X216548204Y-129132900D01*
X216489783Y-129273941D01*
X216460000Y-129423669D01*
X210248998Y-129423669D01*
X210286796Y-129367100D01*
X210345217Y-129226059D01*
X210375000Y-129076331D01*
X210375000Y-128923669D01*
X210345217Y-128773941D01*
X210286796Y-128632900D01*
X210201982Y-128505966D01*
X210094034Y-128398018D01*
X209967100Y-128313204D01*
X209826059Y-128254783D01*
X209676331Y-128225000D01*
X209523669Y-128225000D01*
X209373941Y-128254783D01*
X209232900Y-128313204D01*
X209105966Y-128398018D01*
X208998018Y-128505966D01*
X208913204Y-128632900D01*
X208854783Y-128773941D01*
X208825000Y-128923669D01*
X190420874Y-128923669D01*
X190568032Y-128776511D01*
X190718509Y-128551307D01*
X190822159Y-128301073D01*
X190875000Y-128035426D01*
X190875000Y-127773669D01*
X227775000Y-127773669D01*
X227775000Y-127926331D01*
X227804783Y-128076059D01*
X227863204Y-128217100D01*
X227948018Y-128344034D01*
X228055966Y-128451982D01*
X228182900Y-128536796D01*
X228323941Y-128595217D01*
X228473669Y-128625000D01*
X228626331Y-128625000D01*
X228776059Y-128595217D01*
X228917100Y-128536796D01*
X229044034Y-128451982D01*
X229151982Y-128344034D01*
X229236796Y-128217100D01*
X229295217Y-128076059D01*
X229325000Y-127926331D01*
X229325000Y-127773669D01*
X229295217Y-127623941D01*
X229236796Y-127482900D01*
X229151982Y-127355966D01*
X229044034Y-127248018D01*
X228917100Y-127163204D01*
X228776059Y-127104783D01*
X228626331Y-127075000D01*
X228473669Y-127075000D01*
X228323941Y-127104783D01*
X228182900Y-127163204D01*
X228055966Y-127248018D01*
X227948018Y-127355966D01*
X227863204Y-127482900D01*
X227804783Y-127623941D01*
X227775000Y-127773669D01*
X190875000Y-127773669D01*
X190875000Y-127764574D01*
X190822159Y-127498927D01*
X190718509Y-127248693D01*
X190568032Y-127023489D01*
X190376511Y-126831968D01*
X190151307Y-126681491D01*
X189901073Y-126577841D01*
X189635426Y-126525000D01*
X189364574Y-126525000D01*
X189098927Y-126577841D01*
X188848693Y-126681491D01*
X188623489Y-126831968D01*
X188431968Y-127023489D01*
X188281491Y-127248693D01*
X188177841Y-127498927D01*
X188125000Y-127764574D01*
X184375000Y-127764574D01*
X184322159Y-127498927D01*
X184218509Y-127248693D01*
X184068032Y-127023489D01*
X183876511Y-126831968D01*
X183651307Y-126681491D01*
X183401073Y-126577841D01*
X183135426Y-126525000D01*
X182864574Y-126525000D01*
X182598927Y-126577841D01*
X182348693Y-126681491D01*
X182123489Y-126831968D01*
X181931968Y-127023489D01*
X181781491Y-127248693D01*
X181677841Y-127498927D01*
X181625000Y-127764574D01*
X181400000Y-127764574D01*
X181400000Y-125708837D01*
X191885000Y-125708837D01*
X191885000Y-126291162D01*
X191903014Y-126474062D01*
X191974205Y-126708745D01*
X192089812Y-126925031D01*
X192245392Y-127114608D01*
X192434968Y-127270188D01*
X192651254Y-127385795D01*
X192885937Y-127456986D01*
X193130000Y-127481024D01*
X193374062Y-127456986D01*
X193608745Y-127385795D01*
X193825031Y-127270188D01*
X194014608Y-127114608D01*
X194170188Y-126925032D01*
X194285795Y-126708746D01*
X194356986Y-126474063D01*
X194375000Y-126291163D01*
X194375000Y-125708838D01*
X194375000Y-125708837D01*
X194425000Y-125708837D01*
X194425000Y-126291162D01*
X194443014Y-126474062D01*
X194514205Y-126708745D01*
X194629812Y-126925031D01*
X194785392Y-127114608D01*
X194974968Y-127270188D01*
X195191254Y-127385795D01*
X195425937Y-127456986D01*
X195670000Y-127481024D01*
X195914062Y-127456986D01*
X196148745Y-127385795D01*
X196365031Y-127270188D01*
X196554608Y-127114608D01*
X196710188Y-126925032D01*
X196825795Y-126708746D01*
X196896986Y-126474063D01*
X196915000Y-126291163D01*
X196915000Y-125708838D01*
X196915000Y-125708837D01*
X196965000Y-125708837D01*
X196965000Y-126291162D01*
X196983014Y-126474062D01*
X197054205Y-126708745D01*
X197169812Y-126925031D01*
X197325392Y-127114608D01*
X197514968Y-127270188D01*
X197731254Y-127385795D01*
X197965937Y-127456986D01*
X198210000Y-127481024D01*
X198454062Y-127456986D01*
X198688745Y-127385795D01*
X198905031Y-127270188D01*
X199094608Y-127114608D01*
X199250188Y-126925032D01*
X199365795Y-126708746D01*
X199436986Y-126474063D01*
X199455000Y-126291163D01*
X199455000Y-125953669D01*
X208825000Y-125953669D01*
X208825000Y-126106331D01*
X208854783Y-126256059D01*
X208913204Y-126397100D01*
X208998018Y-126524034D01*
X209105966Y-126631982D01*
X209232900Y-126716796D01*
X209373941Y-126775217D01*
X209523669Y-126805000D01*
X209676331Y-126805000D01*
X209826059Y-126775217D01*
X209967100Y-126716796D01*
X210094034Y-126631982D01*
X210100000Y-126626016D01*
X210105966Y-126631982D01*
X210232900Y-126716796D01*
X210373941Y-126775217D01*
X210523669Y-126805000D01*
X210676331Y-126805000D01*
X210826059Y-126775217D01*
X210967100Y-126716796D01*
X211094034Y-126631982D01*
X211201982Y-126524034D01*
X211286796Y-126397100D01*
X211296501Y-126373669D01*
X214950000Y-126373669D01*
X214950000Y-126526331D01*
X214979783Y-126676059D01*
X215038204Y-126817100D01*
X215123018Y-126944034D01*
X215230966Y-127051982D01*
X215357900Y-127136796D01*
X215498941Y-127195217D01*
X215648669Y-127225000D01*
X215801331Y-127225000D01*
X215951059Y-127195217D01*
X216092100Y-127136796D01*
X216219034Y-127051982D01*
X216326982Y-126944034D01*
X216411796Y-126817100D01*
X216470217Y-126676059D01*
X216500000Y-126526331D01*
X216500000Y-126373669D01*
X216470217Y-126223941D01*
X216411796Y-126082900D01*
X216326982Y-125955966D01*
X216219034Y-125848018D01*
X216092100Y-125763204D01*
X215951059Y-125704783D01*
X215801331Y-125675000D01*
X215648669Y-125675000D01*
X215498941Y-125704783D01*
X215357900Y-125763204D01*
X215230966Y-125848018D01*
X215123018Y-125955966D01*
X215038204Y-126082900D01*
X214979783Y-126223941D01*
X214950000Y-126373669D01*
X211296501Y-126373669D01*
X211345217Y-126256059D01*
X211375000Y-126106331D01*
X211375000Y-125953669D01*
X211345217Y-125803941D01*
X211286796Y-125662900D01*
X211201982Y-125535966D01*
X211094034Y-125428018D01*
X210967100Y-125343204D01*
X210826059Y-125284783D01*
X210676331Y-125255000D01*
X210523669Y-125255000D01*
X210373941Y-125284783D01*
X210232900Y-125343204D01*
X210105966Y-125428018D01*
X210100000Y-125433984D01*
X210094034Y-125428018D01*
X209967100Y-125343204D01*
X209826059Y-125284783D01*
X209676331Y-125255000D01*
X209523669Y-125255000D01*
X209373941Y-125284783D01*
X209232900Y-125343204D01*
X209105966Y-125428018D01*
X208998018Y-125535966D01*
X208913204Y-125662900D01*
X208854783Y-125803941D01*
X208825000Y-125953669D01*
X199455000Y-125953669D01*
X199455000Y-125708838D01*
X199436986Y-125525938D01*
X199365795Y-125291255D01*
X199250188Y-125074968D01*
X199094608Y-124885392D01*
X198905032Y-124729812D01*
X198688746Y-124614205D01*
X198454063Y-124543014D01*
X198210000Y-124518976D01*
X197965938Y-124543014D01*
X197731255Y-124614205D01*
X197514969Y-124729812D01*
X197325393Y-124885392D01*
X197169813Y-125074968D01*
X197054205Y-125291254D01*
X196983014Y-125525937D01*
X196965000Y-125708837D01*
X196915000Y-125708837D01*
X196896986Y-125525938D01*
X196825795Y-125291255D01*
X196710188Y-125074968D01*
X196554608Y-124885392D01*
X196365032Y-124729812D01*
X196148746Y-124614205D01*
X195914063Y-124543014D01*
X195670000Y-124518976D01*
X195425938Y-124543014D01*
X195191255Y-124614205D01*
X194974969Y-124729812D01*
X194785393Y-124885392D01*
X194629813Y-125074968D01*
X194514205Y-125291254D01*
X194443014Y-125525937D01*
X194425000Y-125708837D01*
X194375000Y-125708837D01*
X194356986Y-125525938D01*
X194285795Y-125291255D01*
X194170188Y-125074968D01*
X194014608Y-124885392D01*
X193825032Y-124729812D01*
X193608746Y-124614205D01*
X193374063Y-124543014D01*
X193130000Y-124518976D01*
X192885938Y-124543014D01*
X192651255Y-124614205D01*
X192434969Y-124729812D01*
X192245393Y-124885392D01*
X192089813Y-125074968D01*
X191974205Y-125291254D01*
X191903014Y-125525937D01*
X191885000Y-125708837D01*
X181400000Y-125708837D01*
X181400000Y-123264574D01*
X181625000Y-123264574D01*
X181625000Y-123535426D01*
X181677841Y-123801073D01*
X181781491Y-124051307D01*
X181931968Y-124276511D01*
X182123489Y-124468032D01*
X182348693Y-124618509D01*
X182598927Y-124722159D01*
X182864574Y-124775000D01*
X183135426Y-124775000D01*
X183401073Y-124722159D01*
X183651307Y-124618509D01*
X183876511Y-124468032D01*
X184068032Y-124276511D01*
X184218509Y-124051307D01*
X184322159Y-123801073D01*
X184375000Y-123535426D01*
X184375000Y-123264574D01*
X188125000Y-123264574D01*
X188125000Y-123535426D01*
X188177841Y-123801073D01*
X188281491Y-124051307D01*
X188431968Y-124276511D01*
X188623489Y-124468032D01*
X188848693Y-124618509D01*
X189098927Y-124722159D01*
X189364574Y-124775000D01*
X189635426Y-124775000D01*
X189901073Y-124722159D01*
X190151307Y-124618509D01*
X190376511Y-124468032D01*
X190568032Y-124276511D01*
X190718509Y-124051307D01*
X190763093Y-123943669D01*
X216425000Y-123943669D01*
X216425000Y-124096331D01*
X216454783Y-124246059D01*
X216513204Y-124387100D01*
X216598018Y-124514034D01*
X216705966Y-124621982D01*
X216832900Y-124706796D01*
X216973941Y-124765217D01*
X217123669Y-124795000D01*
X217276331Y-124795000D01*
X217426059Y-124765217D01*
X217567100Y-124706796D01*
X217694034Y-124621982D01*
X217700000Y-124616016D01*
X217705966Y-124621982D01*
X217832900Y-124706796D01*
X217973941Y-124765217D01*
X218123669Y-124795000D01*
X218276331Y-124795000D01*
X218426059Y-124765217D01*
X218567100Y-124706796D01*
X218694034Y-124621982D01*
X218700000Y-124616016D01*
X218705966Y-124621982D01*
X218832900Y-124706796D01*
X218973941Y-124765217D01*
X219123669Y-124795000D01*
X219276331Y-124795000D01*
X219426059Y-124765217D01*
X219567100Y-124706796D01*
X219694034Y-124621982D01*
X219801982Y-124514034D01*
X219886796Y-124387100D01*
X219945217Y-124246059D01*
X219975000Y-124096331D01*
X219975000Y-124008669D01*
X224225000Y-124008669D01*
X224225000Y-124161331D01*
X224254783Y-124311059D01*
X224313204Y-124452100D01*
X224398018Y-124579034D01*
X224505966Y-124686982D01*
X224632900Y-124771796D01*
X224773941Y-124830217D01*
X224923669Y-124860000D01*
X225076331Y-124860000D01*
X225226059Y-124830217D01*
X225362578Y-124773669D01*
X227125000Y-124773669D01*
X227125000Y-124926331D01*
X227154783Y-125076059D01*
X227213204Y-125217100D01*
X227298018Y-125344034D01*
X227405966Y-125451982D01*
X227532900Y-125536796D01*
X227673941Y-125595217D01*
X227823669Y-125625000D01*
X227976331Y-125625000D01*
X228126059Y-125595217D01*
X228267100Y-125536796D01*
X228394034Y-125451982D01*
X228501982Y-125344034D01*
X228586796Y-125217100D01*
X228645217Y-125076059D01*
X228675000Y-124926331D01*
X228675000Y-124773669D01*
X228645217Y-124623941D01*
X228586796Y-124482900D01*
X228501982Y-124355966D01*
X228394034Y-124248018D01*
X228267100Y-124163204D01*
X228126059Y-124104783D01*
X227976331Y-124075000D01*
X227823669Y-124075000D01*
X227673941Y-124104783D01*
X227532900Y-124163204D01*
X227405966Y-124248018D01*
X227298018Y-124355966D01*
X227213204Y-124482900D01*
X227154783Y-124623941D01*
X227125000Y-124773669D01*
X225362578Y-124773669D01*
X225367100Y-124771796D01*
X225494034Y-124686982D01*
X225601982Y-124579034D01*
X225686796Y-124452100D01*
X225745217Y-124311059D01*
X225775000Y-124161331D01*
X225775000Y-124008669D01*
X225745217Y-123858941D01*
X225686796Y-123717900D01*
X225601982Y-123590966D01*
X225494034Y-123483018D01*
X225367100Y-123398204D01*
X225226059Y-123339783D01*
X225076331Y-123310000D01*
X224923669Y-123310000D01*
X224773941Y-123339783D01*
X224632900Y-123398204D01*
X224505966Y-123483018D01*
X224398018Y-123590966D01*
X224313204Y-123717900D01*
X224254783Y-123858941D01*
X224225000Y-124008669D01*
X219975000Y-124008669D01*
X219975000Y-123943669D01*
X219945217Y-123793941D01*
X219886796Y-123652900D01*
X219801982Y-123525966D01*
X219694034Y-123418018D01*
X219567100Y-123333204D01*
X219426059Y-123274783D01*
X219276331Y-123245000D01*
X219123669Y-123245000D01*
X218973941Y-123274783D01*
X218832900Y-123333204D01*
X218705966Y-123418018D01*
X218700000Y-123423984D01*
X218694034Y-123418018D01*
X218567100Y-123333204D01*
X218426059Y-123274783D01*
X218276331Y-123245000D01*
X218123669Y-123245000D01*
X217973941Y-123274783D01*
X217832900Y-123333204D01*
X217705966Y-123418018D01*
X217700000Y-123423984D01*
X217694034Y-123418018D01*
X217567100Y-123333204D01*
X217426059Y-123274783D01*
X217276331Y-123245000D01*
X217123669Y-123245000D01*
X216973941Y-123274783D01*
X216832900Y-123333204D01*
X216705966Y-123418018D01*
X216598018Y-123525966D01*
X216513204Y-123652900D01*
X216454783Y-123793941D01*
X216425000Y-123943669D01*
X190763093Y-123943669D01*
X190822159Y-123801073D01*
X190875000Y-123535426D01*
X190875000Y-123264574D01*
X190822159Y-122998927D01*
X190718509Y-122748693D01*
X190568032Y-122523489D01*
X190376511Y-122331968D01*
X190151307Y-122181491D01*
X189901073Y-122077841D01*
X189635426Y-122025000D01*
X189364574Y-122025000D01*
X189098927Y-122077841D01*
X188848693Y-122181491D01*
X188623489Y-122331968D01*
X188431968Y-122523489D01*
X188281491Y-122748693D01*
X188177841Y-122998927D01*
X188125000Y-123264574D01*
X184375000Y-123264574D01*
X184322159Y-122998927D01*
X184218509Y-122748693D01*
X184068032Y-122523489D01*
X183876511Y-122331968D01*
X183651307Y-122181491D01*
X183401073Y-122077841D01*
X183135426Y-122025000D01*
X182864574Y-122025000D01*
X182598927Y-122077841D01*
X182348693Y-122181491D01*
X182123489Y-122331968D01*
X181931968Y-122523489D01*
X181781491Y-122748693D01*
X181677841Y-122998927D01*
X181625000Y-123264574D01*
X181400000Y-123264574D01*
X181400000Y-121808669D01*
X222225000Y-121808669D01*
X222225000Y-121961331D01*
X222254783Y-122111059D01*
X222313204Y-122252100D01*
X222398018Y-122379034D01*
X222505966Y-122486982D01*
X222632900Y-122571796D01*
X222773941Y-122630217D01*
X222923669Y-122660000D01*
X223076331Y-122660000D01*
X223226059Y-122630217D01*
X223367100Y-122571796D01*
X223494034Y-122486982D01*
X223601982Y-122379034D01*
X223686796Y-122252100D01*
X223745217Y-122111059D01*
X223775000Y-121961331D01*
X223775000Y-121909238D01*
X226489431Y-121909238D01*
X226489431Y-122061900D01*
X226519214Y-122211628D01*
X226577635Y-122352669D01*
X226662449Y-122479603D01*
X226770397Y-122587551D01*
X226897331Y-122672365D01*
X227038372Y-122730786D01*
X227188100Y-122760569D01*
X227340762Y-122760569D01*
X227490490Y-122730786D01*
X227631531Y-122672365D01*
X227758465Y-122587551D01*
X227866413Y-122479603D01*
X227951227Y-122352669D01*
X228009648Y-122211628D01*
X228039431Y-122061900D01*
X228039431Y-121909238D01*
X228009648Y-121759510D01*
X227951227Y-121618469D01*
X227866413Y-121491535D01*
X227758465Y-121383587D01*
X227631531Y-121298773D01*
X227490490Y-121240352D01*
X227340762Y-121210569D01*
X227188100Y-121210569D01*
X227038372Y-121240352D01*
X226897331Y-121298773D01*
X226770397Y-121383587D01*
X226662449Y-121491535D01*
X226577635Y-121618469D01*
X226519214Y-121759510D01*
X226489431Y-121909238D01*
X223775000Y-121909238D01*
X223775000Y-121808669D01*
X223745217Y-121658941D01*
X223686796Y-121517900D01*
X223601982Y-121390966D01*
X223494034Y-121283018D01*
X223367100Y-121198204D01*
X223226059Y-121139783D01*
X223076331Y-121110000D01*
X222923669Y-121110000D01*
X222773941Y-121139783D01*
X222632900Y-121198204D01*
X222505966Y-121283018D01*
X222398018Y-121390966D01*
X222313204Y-121517900D01*
X222254783Y-121658941D01*
X222225000Y-121808669D01*
X181400000Y-121808669D01*
X181400000Y-119423669D01*
X209990000Y-119423669D01*
X209990000Y-119576331D01*
X210019783Y-119726059D01*
X210078204Y-119867100D01*
X210163018Y-119994034D01*
X210168984Y-120000000D01*
X210163018Y-120005966D01*
X210078204Y-120132900D01*
X210019783Y-120273941D01*
X209990000Y-120423669D01*
X209990000Y-120576331D01*
X210019783Y-120726059D01*
X210078204Y-120867100D01*
X210163018Y-120994034D01*
X210270966Y-121101982D01*
X210397900Y-121186796D01*
X210538941Y-121245217D01*
X210688669Y-121275000D01*
X210841331Y-121275000D01*
X210991059Y-121245217D01*
X211132100Y-121186796D01*
X211259034Y-121101982D01*
X211366982Y-120994034D01*
X211451796Y-120867100D01*
X211510217Y-120726059D01*
X211540000Y-120576331D01*
X211540000Y-120423669D01*
X211510217Y-120273941D01*
X211451796Y-120132900D01*
X211366982Y-120005966D01*
X211361016Y-120000000D01*
X211366982Y-119994034D01*
X211451796Y-119867100D01*
X211510217Y-119726059D01*
X211540000Y-119576331D01*
X211540000Y-119423669D01*
X211510217Y-119273941D01*
X211451796Y-119132900D01*
X211366982Y-119005966D01*
X211259034Y-118898018D01*
X211132100Y-118813204D01*
X210991059Y-118754783D01*
X210841331Y-118725000D01*
X210688669Y-118725000D01*
X210538941Y-118754783D01*
X210397900Y-118813204D01*
X210270966Y-118898018D01*
X210163018Y-119005966D01*
X210078204Y-119132900D01*
X210019783Y-119273941D01*
X209990000Y-119423669D01*
X181400000Y-119423669D01*
X181400000Y-118423669D01*
X217430000Y-118423669D01*
X217430000Y-118576331D01*
X217459783Y-118726059D01*
X217518204Y-118867100D01*
X217603018Y-118994034D01*
X217608984Y-119000000D01*
X217603018Y-119005966D01*
X217518204Y-119132900D01*
X217459783Y-119273941D01*
X217430000Y-119423669D01*
X217430000Y-119576331D01*
X217459783Y-119726059D01*
X217518204Y-119867100D01*
X217603018Y-119994034D01*
X217710966Y-120101982D01*
X217837900Y-120186796D01*
X217978941Y-120245217D01*
X218128669Y-120275000D01*
X218281331Y-120275000D01*
X218431059Y-120245217D01*
X218572100Y-120186796D01*
X218699034Y-120101982D01*
X218806982Y-119994034D01*
X218891796Y-119867100D01*
X218950217Y-119726059D01*
X218980000Y-119576331D01*
X218980000Y-119423669D01*
X218950217Y-119273941D01*
X218891796Y-119132900D01*
X218806982Y-119005966D01*
X218801016Y-119000000D01*
X218806982Y-118994034D01*
X218891796Y-118867100D01*
X218950217Y-118726059D01*
X218980000Y-118576331D01*
X218980000Y-118423669D01*
X218950217Y-118273941D01*
X218891796Y-118132900D01*
X218806982Y-118005966D01*
X218699034Y-117898018D01*
X218587763Y-117823669D01*
X222490000Y-117823669D01*
X222490000Y-117976331D01*
X222519783Y-118126059D01*
X222578204Y-118267100D01*
X222663018Y-118394034D01*
X222668984Y-118400000D01*
X222663018Y-118405966D01*
X222578204Y-118532900D01*
X222519783Y-118673941D01*
X222490000Y-118823669D01*
X222490000Y-118976331D01*
X222519783Y-119126059D01*
X222578204Y-119267100D01*
X222663018Y-119394034D01*
X222770966Y-119501982D01*
X222897900Y-119586796D01*
X223038941Y-119645217D01*
X223188669Y-119675000D01*
X223341331Y-119675000D01*
X223491059Y-119645217D01*
X223632100Y-119586796D01*
X223759034Y-119501982D01*
X223866982Y-119394034D01*
X223951796Y-119267100D01*
X224010217Y-119126059D01*
X224040000Y-118976331D01*
X224040000Y-118823669D01*
X224010217Y-118673941D01*
X223951796Y-118532900D01*
X223866982Y-118405966D01*
X223861016Y-118400000D01*
X223866982Y-118394034D01*
X223951796Y-118267100D01*
X224010217Y-118126059D01*
X224040000Y-117976331D01*
X224040000Y-117823669D01*
X224010217Y-117673941D01*
X223951796Y-117532900D01*
X223866982Y-117405966D01*
X223759034Y-117298018D01*
X223632100Y-117213204D01*
X223491059Y-117154783D01*
X223341331Y-117125000D01*
X223188669Y-117125000D01*
X223038941Y-117154783D01*
X222897900Y-117213204D01*
X222770966Y-117298018D01*
X222663018Y-117405966D01*
X222578204Y-117532900D01*
X222519783Y-117673941D01*
X222490000Y-117823669D01*
X218587763Y-117823669D01*
X218572100Y-117813204D01*
X218431059Y-117754783D01*
X218281331Y-117725000D01*
X218128669Y-117725000D01*
X217978941Y-117754783D01*
X217837900Y-117813204D01*
X217710966Y-117898018D01*
X217603018Y-118005966D01*
X217518204Y-118132900D01*
X217459783Y-118273941D01*
X217430000Y-118423669D01*
X181400000Y-118423669D01*
X181400000Y-116364574D01*
X181625000Y-116364574D01*
X181625000Y-116635426D01*
X181677841Y-116901073D01*
X181781491Y-117151307D01*
X181931968Y-117376511D01*
X182123489Y-117568032D01*
X182348693Y-117718509D01*
X182598927Y-117822159D01*
X182864574Y-117875000D01*
X183135426Y-117875000D01*
X183401073Y-117822159D01*
X183651307Y-117718509D01*
X183876511Y-117568032D01*
X184068032Y-117376511D01*
X184218509Y-117151307D01*
X184322159Y-116901073D01*
X184375000Y-116635426D01*
X184375000Y-116364574D01*
X188125000Y-116364574D01*
X188125000Y-116635426D01*
X188177841Y-116901073D01*
X188281491Y-117151307D01*
X188431968Y-117376511D01*
X188623489Y-117568032D01*
X188848693Y-117718509D01*
X189098927Y-117822159D01*
X189364574Y-117875000D01*
X189635426Y-117875000D01*
X189901073Y-117822159D01*
X190151307Y-117718509D01*
X190376511Y-117568032D01*
X190568032Y-117376511D01*
X190718509Y-117151307D01*
X190822159Y-116901073D01*
X190875000Y-116635426D01*
X190875000Y-116364574D01*
X191425000Y-116364574D01*
X191425000Y-116635426D01*
X191477841Y-116901073D01*
X191581491Y-117151307D01*
X191731968Y-117376511D01*
X191923489Y-117568032D01*
X192148693Y-117718509D01*
X192398927Y-117822159D01*
X192664574Y-117875000D01*
X192935426Y-117875000D01*
X193201073Y-117822159D01*
X193451307Y-117718509D01*
X193676511Y-117568032D01*
X193868032Y-117376511D01*
X194018509Y-117151307D01*
X194122159Y-116901073D01*
X194175000Y-116635426D01*
X194175000Y-116364574D01*
X197925000Y-116364574D01*
X197925000Y-116635426D01*
X197977841Y-116901073D01*
X198081491Y-117151307D01*
X198231968Y-117376511D01*
X198423489Y-117568032D01*
X198648693Y-117718509D01*
X198898927Y-117822159D01*
X199164574Y-117875000D01*
X199435426Y-117875000D01*
X199701073Y-117822159D01*
X199951307Y-117718509D01*
X200176511Y-117568032D01*
X200320874Y-117423669D01*
X215460000Y-117423669D01*
X215460000Y-117576331D01*
X215489783Y-117726059D01*
X215548204Y-117867100D01*
X215633018Y-117994034D01*
X215740966Y-118101982D01*
X215867900Y-118186796D01*
X216008941Y-118245217D01*
X216158669Y-118275000D01*
X216311331Y-118275000D01*
X216461059Y-118245217D01*
X216602100Y-118186796D01*
X216729034Y-118101982D01*
X216836982Y-117994034D01*
X216921796Y-117867100D01*
X216980217Y-117726059D01*
X217010000Y-117576331D01*
X217010000Y-117423669D01*
X216980217Y-117273941D01*
X216921796Y-117132900D01*
X216836982Y-117005966D01*
X216729034Y-116898018D01*
X216640212Y-116838669D01*
X226475000Y-116838669D01*
X226475000Y-116991331D01*
X226504783Y-117141059D01*
X226563204Y-117282100D01*
X226648018Y-117409034D01*
X226755966Y-117516982D01*
X226882900Y-117601796D01*
X227023941Y-117660217D01*
X227173669Y-117690000D01*
X227326331Y-117690000D01*
X227476059Y-117660217D01*
X227617100Y-117601796D01*
X227744034Y-117516982D01*
X227851982Y-117409034D01*
X227936796Y-117282100D01*
X227995217Y-117141059D01*
X228025000Y-116991331D01*
X228025000Y-116838669D01*
X227995217Y-116688941D01*
X227936796Y-116547900D01*
X227851982Y-116420966D01*
X227744034Y-116313018D01*
X227617100Y-116228204D01*
X227476059Y-116169783D01*
X227326331Y-116140000D01*
X227173669Y-116140000D01*
X227023941Y-116169783D01*
X226882900Y-116228204D01*
X226755966Y-116313018D01*
X226648018Y-116420966D01*
X226563204Y-116547900D01*
X226504783Y-116688941D01*
X226475000Y-116838669D01*
X216640212Y-116838669D01*
X216602100Y-116813204D01*
X216461059Y-116754783D01*
X216311331Y-116725000D01*
X216158669Y-116725000D01*
X216008941Y-116754783D01*
X215867900Y-116813204D01*
X215740966Y-116898018D01*
X215633018Y-117005966D01*
X215548204Y-117132900D01*
X215489783Y-117273941D01*
X215460000Y-117423669D01*
X200320874Y-117423669D01*
X200368032Y-117376511D01*
X200518509Y-117151307D01*
X200622159Y-116901073D01*
X200675000Y-116635426D01*
X200675000Y-116364574D01*
X200622159Y-116098927D01*
X200518509Y-115848693D01*
X200368032Y-115623489D01*
X200176511Y-115431968D01*
X199951307Y-115281491D01*
X199701073Y-115177841D01*
X199435426Y-115125000D01*
X199164574Y-115125000D01*
X198898927Y-115177841D01*
X198648693Y-115281491D01*
X198423489Y-115431968D01*
X198231968Y-115623489D01*
X198081491Y-115848693D01*
X197977841Y-116098927D01*
X197925000Y-116364574D01*
X194175000Y-116364574D01*
X194122159Y-116098927D01*
X194018509Y-115848693D01*
X193868032Y-115623489D01*
X193676511Y-115431968D01*
X193451307Y-115281491D01*
X193201073Y-115177841D01*
X192935426Y-115125000D01*
X192664574Y-115125000D01*
X192398927Y-115177841D01*
X192148693Y-115281491D01*
X191923489Y-115431968D01*
X191731968Y-115623489D01*
X191581491Y-115848693D01*
X191477841Y-116098927D01*
X191425000Y-116364574D01*
X190875000Y-116364574D01*
X190822159Y-116098927D01*
X190718509Y-115848693D01*
X190568032Y-115623489D01*
X190376511Y-115431968D01*
X190151307Y-115281491D01*
X189901073Y-115177841D01*
X189635426Y-115125000D01*
X189364574Y-115125000D01*
X189098927Y-115177841D01*
X188848693Y-115281491D01*
X188623489Y-115431968D01*
X188431968Y-115623489D01*
X188281491Y-115848693D01*
X188177841Y-116098927D01*
X188125000Y-116364574D01*
X184375000Y-116364574D01*
X184322159Y-116098927D01*
X184218509Y-115848693D01*
X184068032Y-115623489D01*
X183876511Y-115431968D01*
X183651307Y-115281491D01*
X183401073Y-115177841D01*
X183135426Y-115125000D01*
X182864574Y-115125000D01*
X182598927Y-115177841D01*
X182348693Y-115281491D01*
X182123489Y-115431968D01*
X181931968Y-115623489D01*
X181781491Y-115848693D01*
X181677841Y-116098927D01*
X181625000Y-116364574D01*
X181400000Y-116364574D01*
X181400000Y-114838669D01*
X228910000Y-114838669D01*
X228910000Y-114991331D01*
X228939783Y-115141059D01*
X228998204Y-115282100D01*
X229083018Y-115409034D01*
X229190966Y-115516982D01*
X229317900Y-115601796D01*
X229458941Y-115660217D01*
X229608669Y-115690000D01*
X229761331Y-115690000D01*
X229911059Y-115660217D01*
X230052100Y-115601796D01*
X230179034Y-115516982D01*
X230286982Y-115409034D01*
X230371796Y-115282100D01*
X230430217Y-115141059D01*
X230460000Y-114991331D01*
X230460000Y-114838669D01*
X230430217Y-114688941D01*
X230371796Y-114547900D01*
X230286982Y-114420966D01*
X230179034Y-114313018D01*
X230052100Y-114228204D01*
X229911059Y-114169783D01*
X229761331Y-114140000D01*
X229608669Y-114140000D01*
X229458941Y-114169783D01*
X229317900Y-114228204D01*
X229190966Y-114313018D01*
X229083018Y-114420966D01*
X228998204Y-114547900D01*
X228939783Y-114688941D01*
X228910000Y-114838669D01*
X181400000Y-114838669D01*
X181400000Y-111864574D01*
X181625000Y-111864574D01*
X181625000Y-112135426D01*
X181677841Y-112401073D01*
X181781491Y-112651307D01*
X181931968Y-112876511D01*
X182123489Y-113068032D01*
X182348693Y-113218509D01*
X182598927Y-113322159D01*
X182864574Y-113375000D01*
X183135426Y-113375000D01*
X183401073Y-113322159D01*
X183651307Y-113218509D01*
X183876511Y-113068032D01*
X184068032Y-112876511D01*
X184218509Y-112651307D01*
X184322159Y-112401073D01*
X184375000Y-112135426D01*
X184375000Y-111864574D01*
X188125000Y-111864574D01*
X188125000Y-112135426D01*
X188177841Y-112401073D01*
X188281491Y-112651307D01*
X188431968Y-112876511D01*
X188623489Y-113068032D01*
X188848693Y-113218509D01*
X189098927Y-113322159D01*
X189364574Y-113375000D01*
X189635426Y-113375000D01*
X189901073Y-113322159D01*
X190151307Y-113218509D01*
X190376511Y-113068032D01*
X190568032Y-112876511D01*
X190718509Y-112651307D01*
X190822159Y-112401073D01*
X190875000Y-112135426D01*
X190875000Y-111864574D01*
X191425000Y-111864574D01*
X191425000Y-112135426D01*
X191477841Y-112401073D01*
X191581491Y-112651307D01*
X191731968Y-112876511D01*
X191923489Y-113068032D01*
X192148693Y-113218509D01*
X192398927Y-113322159D01*
X192664574Y-113375000D01*
X192935426Y-113375000D01*
X193201073Y-113322159D01*
X193451307Y-113218509D01*
X193676511Y-113068032D01*
X193868032Y-112876511D01*
X194018509Y-112651307D01*
X194122159Y-112401073D01*
X194175000Y-112135426D01*
X194175000Y-111864574D01*
X197925000Y-111864574D01*
X197925000Y-112135426D01*
X197977841Y-112401073D01*
X198081491Y-112651307D01*
X198231968Y-112876511D01*
X198423489Y-113068032D01*
X198648693Y-113218509D01*
X198898927Y-113322159D01*
X199164574Y-113375000D01*
X199435426Y-113375000D01*
X199701073Y-113322159D01*
X199951307Y-113218509D01*
X200176511Y-113068032D01*
X200368032Y-112876511D01*
X200518509Y-112651307D01*
X200622159Y-112401073D01*
X200675000Y-112135426D01*
X200675000Y-111864574D01*
X200622159Y-111598927D01*
X200518509Y-111348693D01*
X200368032Y-111123489D01*
X200176511Y-110931968D01*
X199951307Y-110781491D01*
X199701073Y-110677841D01*
X199435426Y-110625000D01*
X199164574Y-110625000D01*
X198898927Y-110677841D01*
X198648693Y-110781491D01*
X198423489Y-110931968D01*
X198231968Y-111123489D01*
X198081491Y-111348693D01*
X197977841Y-111598927D01*
X197925000Y-111864574D01*
X194175000Y-111864574D01*
X194122159Y-111598927D01*
X194018509Y-111348693D01*
X193868032Y-111123489D01*
X193676511Y-110931968D01*
X193451307Y-110781491D01*
X193201073Y-110677841D01*
X192935426Y-110625000D01*
X192664574Y-110625000D01*
X192398927Y-110677841D01*
X192148693Y-110781491D01*
X191923489Y-110931968D01*
X191731968Y-111123489D01*
X191581491Y-111348693D01*
X191477841Y-111598927D01*
X191425000Y-111864574D01*
X190875000Y-111864574D01*
X190822159Y-111598927D01*
X190718509Y-111348693D01*
X190568032Y-111123489D01*
X190376511Y-110931968D01*
X190151307Y-110781491D01*
X189901073Y-110677841D01*
X189635426Y-110625000D01*
X189364574Y-110625000D01*
X189098927Y-110677841D01*
X188848693Y-110781491D01*
X188623489Y-110931968D01*
X188431968Y-111123489D01*
X188281491Y-111348693D01*
X188177841Y-111598927D01*
X188125000Y-111864574D01*
X184375000Y-111864574D01*
X184322159Y-111598927D01*
X184218509Y-111348693D01*
X184068032Y-111123489D01*
X183876511Y-110931968D01*
X183651307Y-110781491D01*
X183401073Y-110677841D01*
X183135426Y-110625000D01*
X182864574Y-110625000D01*
X182598927Y-110677841D01*
X182348693Y-110781491D01*
X182123489Y-110931968D01*
X181931968Y-111123489D01*
X181781491Y-111348693D01*
X181677841Y-111598927D01*
X181625000Y-111864574D01*
X181400000Y-111864574D01*
X181400000Y-110400000D01*
X230600000Y-110400000D01*
X230600001Y-159600000D01*
M02*
